0
SECTION
2
HEADER
9
$INSUNITS
70
4
9
$ACADVER
1
AC1014
9
$HANDSEED
5
FFFF
0
ENDSEC
0
SECTION
2
TABLES
0
TABLE
2
VPORT
5
8
100
AcDbSymbolTable
0
ENDTAB
0
TABLE
2
LTYPE
5
5
100
AcDbSymbolTable
0
LTYPE
5
14
100
AcDbSymbolTableRecord
100
AcDbLinetypeTableRecord
2
BYBLOCK
70
0
0
LTYPE
5
15
100
AcDbSymbolTableRecord
100
AcDbLinetypeTableRecord
2
BYLAYER
70
0
0
ENDTAB
0
TABLE
2
LAYER
5
2
100
AcDbSymbolTable
70
2
0
LAYER
5
50
100
AcDbSymbolTableRecord
100
AcDbLayerTableRecord
2
0
70
0
6
CONTINUOUS
0
ENDTAB
0
TABLE
2
STYLE
5
3
100
AcDbSymbolTable
70
1
0
STYLE
5
11
100
AcDbSymbolTableRecord
100
AcDbTextStyleTableRecord
2
STANDARD
70
0
0
ENDTAB
0
TABLE
2
VIEW
5
6
100
AcDbSymbolTable
70
0
0
ENDTAB
0
TABLE
2
UCS
5
7
100
AcDbSymbolTable
70
0
0
ENDTAB
0
TABLE
2
APPID
5
9
100
AcDbSymbolTable
70
2
0
APPID
5
12
100
AcDbSymbolTableRecord
100
AcDbRegAppTableRecord
2
ACAD
70
0
0
ENDTAB
0
TABLE
2
DIMSTYLE
5
A
100
AcDbSymbolTable
70
1
0
ENDTAB
0
TABLE
2
BLOCK_RECORD
5
1
100
AcDbSymbolTable
70
1
0
BLOCK_RECORD
5
1F
100
AcDbSymbolTableRecord
100
AcDbBlockTableRecord
2
*MODEL_SPACE
0
BLOCK_RECORD
5
1B
100
AcDbSymbolTableRecord
100
AcDbBlockTableRecord
2
*PAPER_SPACE
0
ENDTAB
0
ENDSEC
0
SECTION
2
BLOCKS
0
BLOCK
5
20
100
AcDbEntity
100
AcDbBlockBegin
2
*MODEL_SPACE
0
ENDBLK
5
21
100
AcDbEntity
100
AcDbBlockEnd
0
BLOCK
5
1C
100
AcDbEntity
100
AcDbBlockBegin
2
*PAPER_SPACE
0
ENDBLK
5
1D
100
AcDbEntity
100
AcDbBlockEnd
0
ENDSEC
0
SECTION
2
ENTITIES
0
LWPOLYLINE
5
100
100
AcDbEntity
8
0
100
AcDbPolyline
90
4
70
1
43
0.0
10
303.4886170591667
20
-56.051830592136831
10
303.4886170591667
20
-61.051830592136831
10
300.68861705916669
20
-61.051830592136831
10
300.68861705916669
20
-56.051830592136831
0
LWPOLYLINE
5
101
100
AcDbEntity
8
0
100
AcDbPolyline
90
6
70
1
43
0.0
10
226.96361705916661
20
-70.569527567918641
10
226.96361705916661
20
-73.569527567918712
10
218.41361705916671
20
-73.569527567918726
10
217.61361705916681
20
-73.569527567918726
10
217.61361705916681
20
-70.569527567918712
10
218.41361705916668
20
-70.569527567918712
0
LWPOLYLINE
5
102
100
AcDbEntity
8
0
100
AcDbPolyline
90
48
70
1
43
0.0
10
311.78861705916665
20
-46.451830592136716
10
293.28861705916671
20
-46.45183059213673
10
293.28861705916671
20
-43.45183059213673
10
285.46361705916672
20
-43.45183059213673
10
285.46361705916672
20
-46.45183059213673
10
276.1136170591667
20
-46.451830592136744
10
276.1136170591667
20
-43.451830592136737
10
265.96361705916672
20
-43.451830592136751
10
265.96361705916672
20
-46.451830592136758
10
256.61361705916676
20
-46.451830592136801
10
256.61361705916676
20
-43.451830592136773
10
246.46361705916672
20
-43.451830592136758
10
246.46361705916672
20
-46.451830592136801
10
237.11361705916673
20
-46.451830592136815
10
237.11361705916673
20
-43.451830592136758
10
226.96361705916684
20
-43.451830592136801
10
226.96361705916684
20
-46.451830592136815
10
217.61361705916676
20
-46.45183059213683
10
217.61361705916676
20
-43.451830592136822
10
209.78861705916671
20
-43.45183059213683
10
209.78861705916671
20
-46.451830592136844
10
191.28861705916677
20
-46.451830592136851
10
191.28861705916677
20
-70.651830592136818
10
209.88861705916676
20
-70.651830592136804
10
209.88861705916685
20
-73.569527567918726
10
191.28861705916677
20
-73.569527567918726
10
191.28861705916677
20
-108.83862756791868
10
219.05671705916671
20
-108.83862756791868
10
219.05671705916671
20
-105.84952756791871
10
227.92301705916671
20
-105.84952756791871
10
227.92301705916671
20
-108.83862756791868
10
237.68921705916668
20
-108.83862756791868
10
237.68921705916668
20
-105.84952756791871
10
246.6555170591667
20
-105.84952756791871
10
246.6555170591667
20
-108.83862756791868
10
256.42171705916672
20
-108.83862756791868
10
256.42171705916672
20
-105.84952756791871
10
265.38801705916677
20
-105.8495275679187
10
265.38801705916677
20
-108.83862756791868
10
275.15421705916674
20
-108.83862756791868
10
275.15421705916674
20
-105.84952756791867
10
284.12051705916673
20
-105.84952756791867
10
284.12051705916673
20
-108.83862756791868
10
311.78861705916665
20
-108.83862756791865
10
311.7886170591666
20
-73.569527567918698
10
293.18861705916675
20
-73.569527567918698
10
293.18861705916675
20
-70.651830592136733
10
311.7886170591666
20
-70.651830592136719
0
LWPOLYLINE
5
103
100
AcDbEntity
8
0
100
AcDbPolyline
90
4
70
1
43
0.0
10
290.18861705916669
20
-63.326830592136901
10
290.18867653618975
20
-53.75793989070074
10
293.18861705916669
20
-53.776830592136811
10
293.18861705916669
20
-63.326830592136893
0
LWPOLYLINE
5
104
100
AcDbEntity
8
0
100
AcDbPolyline
90
4
70
1
43
0.0
10
228.03861705916682
20
-63.326830592136815
10
225.0386170591668
20
-63.326830592136822
10
225.03861705916682
20
-53.776830592136875
10
228.03861705916682
20
-53.776830592136868
0
LWPOLYLINE
5
105
100
AcDbEntity
8
0
100
AcDbPolyline
90
6
70
1
43
0.0
10
265.96361705916667
20
-73.569527567918684
10
257.41361705916677
20
-73.569527567918698
10
256.61361705916693
20
-73.569527567918698
10
256.61361705916693
20
-70.569527567918612
10
257.41361705916677
20
-70.569527567918612
10
265.96361705916667
20
-70.569527567918598
0
LWPOLYLINE
5
106
100
AcDbEntity
8
0
100
AcDbPolyline
90
4
70
1
43
0.0
10
209.88861705916676
20
-53.776830592136882
10
212.88861705916673
20
-53.776830592136875
10
212.88861705916673
20
-63.326830592136822
10
209.88861705916673
20
-63.32683059213683
0
LWPOLYLINE
5
107
100
AcDbEntity
8
0
100
AcDbPolyline
90
6
70
1
43
0.0
10
246.46361705916672
20
-73.569527567918698
10
237.91361705916668
20
-73.569527567918712
10
237.11361705916676
20
-73.569527567918712
10
237.11361705916676
20
-70.569527567918641
10
237.91361705916665
20
-70.569527567918641
10
246.46361705916672
20
-70.569527567918627
0
LWPOLYLINE
5
108
100
AcDbEntity
8
0
100
AcDbPolyline
90
4
70
1
43
0.0
10
278.03861705916682
20
-53.757939890700754
10
278.03861705916682
20
-63.326830592136915
10
275.03861705916682
20
-63.326830592136915
10
275.03861705916682
20
-53.75793989070074
0
LWPOLYLINE
5
109
100
AcDbEntity
8
0
100
AcDbPolyline
90
4
70
1
43
0.0
10
199.58861705916664
20
-56.051830592136781
10
202.38861705916673
20
-56.051830592136767
10
202.38861705916673
20
-61.051830592136767
10
199.58861705916664
20
-61.051830592136781
0
CIRCLE
5
110
100
AcDbEntity
8
0
100
AcDbCircle
10
221.28861705916677
20
-101.09499542407571
30
1.883156184982393e-11
40
2.4500000000000113
210
0
220
0
230
1
0
CIRCLE
5
111
100
AcDbEntity
8
0
100
AcDbCircle
10
281.78861705916665
20
-101.09499542407565
30
1.080715948480765e-10
40
2.450000000000002
210
0
220
0
230
1
0
ENDSEC
0
SECTION
2
OBJECTS
0
DICTIONARY
5
C
100
AcDbDictionary
3
ACAD_GROUP
350
D
3
ACAD_MLINESTYLE
350
17
0
DICTIONARY
5
D
100
AcDbDictionary
0
DICTIONARY
5
1A
330
C
100
AcDbDictionary
0
DICTIONARY
5
17
100
AcDbDictionary
0
ENDSEC
0
EOF
