0
SECTION
2
HEADER
9
$INSUNITS
70
4
9
$ACADVER
1
AC1014
9
$HANDSEED
5
FFFF
0
ENDSEC
0
SECTION
2
TABLES
0
TABLE
2
VPORT
5
8
100
AcDbSymbolTable
0
ENDTAB
0
TABLE
2
LTYPE
5
5
100
AcDbSymbolTable
0
LTYPE
5
14
100
AcDbSymbolTableRecord
100
AcDbLinetypeTableRecord
2
BYBLOCK
70
0
0
LTYPE
5
15
100
AcDbSymbolTableRecord
100
AcDbLinetypeTableRecord
2
BYLAYER
70
0
0
ENDTAB
0
TABLE
2
LAYER
5
2
100
AcDbSymbolTable
70
2
0
LAYER
5
50
100
AcDbSymbolTableRecord
100
AcDbLayerTableRecord
2
0
70
0
6
CONTINUOUS
0
ENDTAB
0
TABLE
2
STYLE
5
3
100
AcDbSymbolTable
70
1
0
STYLE
5
11
100
AcDbSymbolTableRecord
100
AcDbTextStyleTableRecord
2
STANDARD
70
0
0
ENDTAB
0
TABLE
2
VIEW
5
6
100
AcDbSymbolTable
70
0
0
ENDTAB
0
TABLE
2
UCS
5
7
100
AcDbSymbolTable
70
0
0
ENDTAB
0
TABLE
2
APPID
5
9
100
AcDbSymbolTable
70
2
0
APPID
5
12
100
AcDbSymbolTableRecord
100
AcDbRegAppTableRecord
2
ACAD
70
0
0
ENDTAB
0
TABLE
2
DIMSTYLE
5
A
100
AcDbSymbolTable
70
1
0
ENDTAB
0
TABLE
2
BLOCK_RECORD
5
1
100
AcDbSymbolTable
70
1
0
BLOCK_RECORD
5
1F
100
AcDbSymbolTableRecord
100
AcDbBlockTableRecord
2
*MODEL_SPACE
0
BLOCK_RECORD
5
1B
100
AcDbSymbolTableRecord
100
AcDbBlockTableRecord
2
*PAPER_SPACE
0
ENDTAB
0
ENDSEC
0
SECTION
2
BLOCKS
0
BLOCK
5
20
100
AcDbEntity
100
AcDbBlockBegin
2
*MODEL_SPACE
0
ENDBLK
5
21
100
AcDbEntity
100
AcDbBlockEnd
0
BLOCK
5
1C
100
AcDbEntity
100
AcDbBlockBegin
2
*PAPER_SPACE
0
ENDBLK
5
1D
100
AcDbEntity
100
AcDbBlockEnd
0
ENDSEC
0
SECTION
2
ENTITIES
0
LWPOLYLINE
5
100
100
AcDbEntity
8
0
100
AcDbPolyline
90
68
70
1
43
0.0
10
143.19395440910043
20
29.435291246939705
10
143.19395440910043
20
19.485291246939731
10
146.19395440910046
20
19.485291246939731
10
146.19395440910046
20
9.9352912469397836
10
143.19395440910043
20
9.9352912469397836
10
143.19395440910043
20
1.1102912469397808
10
146.28570278403643
20
1.1102912469397808
10
146.28570278403643
20
1.310291246939812
10
153.59181208260037
20
1.3102912469397765
10
153.59181208260037
20
-1.6897087530601951
10
163.16070278403654
20
-1.6897087530601951
10
163.16070278403654
20
1.3102912469397765
10
163.26895440910047
20
1.3102912469397765
10
163.26895440910047
20
19.485291246939695
10
173.39395440910042
20
19.485291246939695
10
173.39395440910042
20
29.435291246939776
10
170.39395440910039
20
29.435291246939776
10
170.39395440910039
20
38.985291246939759
10
173.39395440910042
20
38.985291246939759
10
173.39395440910042
20
48.935291246939734
10
170.39395440910039
20
48.935291246939734
10
170.39395440910039
20
58.485291246939717
10
173.39395440910042
20
58.485291246939717
10
173.39395440910042
20
68.435291246939755
10
170.39395440910039
20
68.435291246939755
10
170.39395440910039
20
77.985291246939738
10
173.39395440910042
20
77.985291246939738
10
173.39395440910042
20
87.935291246939684
10
170.39395440910039
20
87.935291246939684
10
170.39395440910039
20
97.485291246939809
10
173.3939544091005
20
97.485291246939809
10
173.3939544091005
20
107.43529124693977
10
170.39395440910044
20
107.43529124693977
10
170.39395440910044
20
116.98529124693971
10
173.3939544091005
20
116.98529124693971
10
173.3939544091005
20
126.9352912469397
10
170.39395440910044
20
126.9352912469397
10
170.39395440910044
20
136.48529124693971
10
173.3939544091005
20
136.48529124693971
10
173.39395440910056
20
145.3102912469399
10
163.26895440910053
20
145.3102912469399
10
163.26895440910053
20
148.31029124693976
10
153.31895440910057
20
148.31029124693976
10
153.31895440910057
20
145.3102912469399
10
143.19395440910054
20
145.3102912469399
10
143.19395440910054
20
136.48529124693971
10
146.19395440910057
20
136.48529124693971
10
146.19395440910057
20
126.9352912469397
10
143.19395440910054
20
126.9352912469397
10
143.19395440910054
20
116.98529124693971
10
146.19395440910057
20
116.98529124693971
10
146.19395440910057
20
107.43529124693977
10
143.19395440910054
20
107.43529124693977
10
143.19395440910054
20
97.48529124693971
10
146.19395440910054
20
97.48529124693971
10
146.19395440910046
20
87.935291246939727
10
143.19395440910046
20
87.935291246939727
10
143.19395440910046
20
77.985291246939781
10
146.19395440910046
20
77.985291246939781
10
146.19395440910046
20
68.435291246939798
10
143.19395440910043
20
68.435291246939727
10
143.19395440910043
20
58.485291246939681
10
146.19395440910046
20
58.485291246939752
10
146.19395440910046
20
48.935291246939769
10
143.19395440910043
20
48.935291246939769
10
143.19395440910043
20
38.985291246939759
10
146.19395440910046
20
38.985291246939759
10
146.19395440910046
20
29.435291246939705
0
ENDSEC
0
SECTION
2
OBJECTS
0
DICTIONARY
5
C
100
AcDbDictionary
3
ACAD_GROUP
350
D
3
ACAD_MLINESTYLE
350
17
0
DICTIONARY
5
D
100
AcDbDictionary
0
DICTIONARY
5
1A
330
C
100
AcDbDictionary
0
DICTIONARY
5
17
100
AcDbDictionary
0
ENDSEC
0
EOF
