0
SECTION
2
HEADER
9
$INSUNITS
70
4
9
$ACADVER
1
AC1014
9
$HANDSEED
5
FFFF
0
ENDSEC
0
SECTION
2
TABLES
0
TABLE
2
VPORT
5
8
100
AcDbSymbolTable
0
ENDTAB
0
TABLE
2
LTYPE
5
5
100
AcDbSymbolTable
0
LTYPE
5
14
100
AcDbSymbolTableRecord
100
AcDbLinetypeTableRecord
2
BYBLOCK
70
0
0
LTYPE
5
15
100
AcDbSymbolTableRecord
100
AcDbLinetypeTableRecord
2
BYLAYER
70
0
0
ENDTAB
0
TABLE
2
LAYER
5
2
100
AcDbSymbolTable
70
2
0
LAYER
5
50
100
AcDbSymbolTableRecord
100
AcDbLayerTableRecord
2
0
70
0
6
CONTINUOUS
0
ENDTAB
0
TABLE
2
STYLE
5
3
100
AcDbSymbolTable
70
1
0
STYLE
5
11
100
AcDbSymbolTableRecord
100
AcDbTextStyleTableRecord
2
STANDARD
70
0
0
ENDTAB
0
TABLE
2
VIEW
5
6
100
AcDbSymbolTable
70
0
0
ENDTAB
0
TABLE
2
UCS
5
7
100
AcDbSymbolTable
70
0
0
ENDTAB
0
TABLE
2
APPID
5
9
100
AcDbSymbolTable
70
2
0
APPID
5
12
100
AcDbSymbolTableRecord
100
AcDbRegAppTableRecord
2
ACAD
70
0
0
ENDTAB
0
TABLE
2
DIMSTYLE
5
A
100
AcDbSymbolTable
70
1
0
ENDTAB
0
TABLE
2
BLOCK_RECORD
5
1
100
AcDbSymbolTable
70
1
0
BLOCK_RECORD
5
1F
100
AcDbSymbolTableRecord
100
AcDbBlockTableRecord
2
*MODEL_SPACE
0
BLOCK_RECORD
5
1B
100
AcDbSymbolTableRecord
100
AcDbBlockTableRecord
2
*PAPER_SPACE
0
ENDTAB
0
ENDSEC
0
SECTION
2
BLOCKS
0
BLOCK
5
20
100
AcDbEntity
100
AcDbBlockBegin
2
*MODEL_SPACE
0
ENDBLK
5
21
100
AcDbEntity
100
AcDbBlockEnd
0
BLOCK
5
1C
100
AcDbEntity
100
AcDbBlockBegin
2
*PAPER_SPACE
0
ENDBLK
5
1D
100
AcDbEntity
100
AcDbBlockEnd
0
ENDSEC
0
SECTION
2
ENTITIES
0
LWPOLYLINE
5
100
100
AcDbEntity
8
0
100
AcDbPolyline
90
56
70
1
43
0.0
10
244.22649434622201
20
244.73853667511005
10
235.060194346222
20
244.73853667511005
10
235.060194346222
20
247.73853667511005
10
225.49399434622205
20
247.73853667511005
10
225.49399434622205
20
244.73853667511005
10
216.32769434622202
20
244.73853667511005
10
216.32769434622202
20
247.73853667511005
10
206.76149434622201
20
247.73853667511005
10
206.76149434622201
20
244.73853667511005
10
197.59519434622203
20
244.73853667511005
10
197.59519434622203
20
247.73853667511005
10
191.90959434622204
20
247.73853667511005
10
191.90959434622209
20
187.53853667511012
10
207.50959434622206
20
187.53853667511007
10
207.50959434622206
20
184.53853667511009
10
188.90959434622204
20
184.53853667511009
10
188.90959434622204
20
160.33853667511005
10
207.40959434622204
20
160.33853667510999
10
207.40959434622204
20
157.33853667511002
10
215.2345943462222
20
157.33853667511002
10
215.2345943462222
20
160.33853667510999
10
224.58459434622222
20
160.33853667510999
10
224.58459434622222
20
157.33853667511002
10
234.73459434622211
20
157.33853667511002
10
234.73459434622211
20
160.33853667510999
10
244.0845943462221
20
160.33853667510999
10
244.0845943462221
20
157.33853667511002
10
254.23459434622214
20
157.33853667511002
10
254.23459434622214
20
160.33853667510999
10
263.5845943462221
20
160.33853667510999
10
263.5845943462221
20
157.33853667511002
10
273.73459434622202
20
157.33853667511002
10
273.73459434622202
20
160.33853667510999
10
283.08459434622205
20
160.33853667510999
10
283.08459434622205
20
157.33853667511002
10
290.90959434622209
20
157.33853667511002
10
290.90959434622209
20
160.33853667510999
10
309.40959434622209
20
160.33853667510999
10
309.40959434622198
20
184.53853667511004
10
290.80959434622207
20
184.53853667511004
10
291.00959434622206
20
187.53853667511007
10
306.40959434622187
20
187.53853667511009
10
306.40959434622192
20
247.73853667510997
10
300.42399434622206
20
247.73853667511003
10
300.42399434622206
20
244.73853667511003
10
291.25769434622208
20
244.73853667511003
10
291.25769434622208
20
247.73853667511003
10
281.69149434622199
20
247.73853667511005
10
281.69149434622199
20
244.73853667511005
10
272.52519434622195
20
244.73853667511005
10
272.52519434622195
20
247.73853667511005
10
262.95899434622203
20
247.73853667511005
10
262.95899434622203
20
244.73853667511005
10
253.79269434622202
20
244.73853667511005
10
253.79269434622202
20
247.73853667511005
10
244.22649434622201
20
247.73853667511005
0
LWPOLYLINE
5
101
100
AcDbEntity
8
0
100
AcDbPolyline
90
8
70
1
43
0.0
10
261.39455001760007
20
192.492277251529
10
261.39455001759995
20
201.22125267578809
42
-0.41421356237311585
10
262.39455001760012
20
202.22125267578818
10
272.57880348744811
20
202.22125267578809
42
-0.41421356237309503
10
273.57880348744811
20
201.22125267578809
10
273.57880348744817
20
192.492277251529
42
-0.41421356237309503
10
272.57880348744811
20
191.49227725152895
10
262.39455001760007
20
191.49227725152898
42
-0.41421356237309503
0
LWPOLYLINE
5
102
100
AcDbEntity
8
0
100
AcDbPolyline
90
4
70
1
43
0.0
10
197.20959434622202
20
174.93853667511002
10
200.00959434622203
20
174.93853667511002
10
200.009594346222
20
169.93853667511002
10
197.20959434622202
20
169.93853667511002
0
LWPOLYLINE
5
103
100
AcDbEntity
8
0
100
AcDbPolyline
90
4
70
1
43
0.0
10
222.65959434622215
20
167.66353667511009
10
222.65959434622215
20
177.21353667511005
10
225.65959434622221
20
177.21353667511005
10
225.65959434622221
20
167.66353667511009
0
LWPOLYLINE
5
104
100
AcDbEntity
8
0
100
AcDbPolyline
90
4
70
1
43
0.0
10
224.68459434622201
20
184.53853667510998
10
214.93459434622201
20
184.53853667510998
10
214.93459434622201
20
187.53853667511007
10
224.68459434622201
20
187.53853667511007
0
LWPOLYLINE
5
105
100
AcDbEntity
8
0
100
AcDbPolyline
90
8
70
1
43
0.0
10
242.50959434622206
20
217.67163667511005
10
242.509594346222
20
232.67163667511005
42
-0.41421356237310542
10
243.50959434622212
20
233.67163667511016
10
254.509594346222
20
233.67163667511008
42
-0.41421356237309503
10
255.509594346222
20
232.67163667511005
10
255.50959434622203
20
217.67163667511005
42
-0.41421356237309503
10
254.50959434622203
20
216.67163667511005
10
243.50959434622209
20
216.67163667511005
42
-0.41421356237309503
0
LWPOLYLINE
5
106
100
AcDbEntity
8
0
100
AcDbPolyline
90
4
70
1
43
0.0
10
254.13459434622212
20
187.53853667511007
10
263.68459434622201
20
187.53853667511007
10
263.68459434622201
20
184.53853667510998
10
254.13459434622212
20
184.53853667510998
0
LWPOLYLINE
5
107
100
AcDbEntity
8
0
100
AcDbPolyline
90
4
70
1
43
0.0
10
272.65959434622226
20
177.21353667511016
10
275.65959434622226
20
177.21353667511016
10
275.65959434622226
20
167.64464597367402
10
272.65959434622226
20
167.64464597367402
0
LWPOLYLINE
5
108
100
AcDbEntity
8
0
100
AcDbPolyline
90
4
70
1
43
0.0
10
244.18459434622213
20
184.53853667510998
10
234.63459434622206
20
184.53853667510998
10
234.63459434622206
20
187.53853667511007
10
244.18459434622213
20
187.53853667511007
0
CIRCLE
5
109
100
AcDbEntity
8
0
100
AcDbCircle
10
238.50959434622209
20
233.67163667511005
30
0
40
0.80000000000000071
210
0
220
0
230
1
0
CIRCLE
5
110
100
AcDbEntity
8
0
100
AcDbCircle
10
259.509594346222
20
233.67163667511008
30
0
40
0.80000000000001847
210
0
220
0
230
1
0
LWPOLYLINE
5
111
100
AcDbEntity
8
0
100
AcDbPolyline
90
4
70
1
43
0.0
10
210.50959434622212
20
167.66353667511009
10
207.50959434622206
20
167.66353667511009
10
207.50959434622206
20
177.21353667511005
10
210.50959434622212
20
177.21353667511005
0
LWPOLYLINE
5
112
100
AcDbEntity
8
0
100
AcDbPolyline
90
4
70
1
43
0.0
10
283.38459434622206
20
187.53853667511007
10
283.38459434622206
20
184.53853667511009
10
273.63459434622206
20
184.53853667510998
10
273.63459434622206
20
187.53853667511007
0
LWPOLYLINE
5
113
100
AcDbEntity
8
0
100
AcDbPolyline
90
4
70
1
43
0.0
10
287.80965382324518
20
167.64464597367402
10
287.80959434622207
20
177.21353667511016
10
290.80959434622207
20
177.21353667511016
10
290.80959434622207
20
167.66353667511009
0
LWPOLYLINE
5
114
100
AcDbEntity
8
0
100
AcDbPolyline
90
4
70
1
43
0.0
10
298.30959434622218
20
169.93853667511013
10
298.30959434622218
20
174.93853667511013
10
301.10959434622202
20
174.93853667511013
10
301.10959434622202
20
169.93853667511013
0
CIRCLE
5
115
100
AcDbEntity
8
0
100
AcDbCircle
10
238.50959434622209
20
221.17163667511008
30
0
40
0.79999999999998295
210
0
220
0
230
1
0
CIRCLE
5
116
100
AcDbEntity
8
0
100
AcDbCircle
10
259.509594346222
20
221.17163667511005
30
0
40
0.80000000000000071
210
0
220
0
230
1
0
CIRCLE
5
117
100
AcDbEntity
8
0
100
AcDbCircle
10
227.50959434622206
20
220.17163667511005
30
-2.6256045224727869e-09
40
2.4499999999999842
210
0
220
0
230
1
0
CIRCLE
5
118
100
AcDbEntity
8
0
100
AcDbCircle
10
234.00959434622206
20
240.73719167142602
30
-4.0475557713194056e-09
40
2.4500000000000122
210
0
220
0
230
1
0
CIRCLE
5
119
100
AcDbEntity
8
0
100
AcDbCircle
10
244.00959434622206
20
240.73719167142602
30
-4.0475557713194056e-09
40
2.4500000000000051
210
0
220
0
230
1
0
CIRCLE
5
120
100
AcDbEntity
8
0
100
AcDbCircle
10
254.009594346222
20
240.73719167142602
30
-4.0475557713194056e-09
40
2.4499999999999869
210
0
220
0
230
1
0
CIRCLE
5
121
100
AcDbEntity
8
0
100
AcDbCircle
10
264.009594346222
20
240.73719167142602
30
-4.0475557713194056e-09
40
2.4500000000000095
210
0
220
0
230
1
0
CIRCLE
5
122
100
AcDbEntity
8
0
100
AcDbCircle
10
270.50959434622206
20
220.17163667511005
30
-2.6256045224727894e-09
40
2.4499999999999966
210
0
220
0
230
1
0
ENDSEC
0
SECTION
2
OBJECTS
0
DICTIONARY
5
C
100
AcDbDictionary
3
ACAD_GROUP
350
D
3
ACAD_MLINESTYLE
350
17
0
DICTIONARY
5
D
100
AcDbDictionary
0
DICTIONARY
5
1A
330
C
100
AcDbDictionary
0
DICTIONARY
5
17
100
AcDbDictionary
0
ENDSEC
0
EOF
