0
SECTION
2
HEADER
9
$INSUNITS
70
4
9
$ACADVER
1
AC1014
9
$HANDSEED
5
FFFF
0
ENDSEC
0
SECTION
2
TABLES
0
TABLE
2
VPORT
5
8
100
AcDbSymbolTable
0
ENDTAB
0
TABLE
2
LTYPE
5
5
100
AcDbSymbolTable
0
LTYPE
5
14
100
AcDbSymbolTableRecord
100
AcDbLinetypeTableRecord
2
BYBLOCK
70
0
0
LTYPE
5
15
100
AcDbSymbolTableRecord
100
AcDbLinetypeTableRecord
2
BYLAYER
70
0
0
ENDTAB
0
TABLE
2
LAYER
5
2
100
AcDbSymbolTable
70
2
0
LAYER
5
50
100
AcDbSymbolTableRecord
100
AcDbLayerTableRecord
2
0
70
0
6
CONTINUOUS
0
ENDTAB
0
TABLE
2
STYLE
5
3
100
AcDbSymbolTable
70
1
0
STYLE
5
11
100
AcDbSymbolTableRecord
100
AcDbTextStyleTableRecord
2
STANDARD
70
0
0
ENDTAB
0
TABLE
2
VIEW
5
6
100
AcDbSymbolTable
70
0
0
ENDTAB
0
TABLE
2
UCS
5
7
100
AcDbSymbolTable
70
0
0
ENDTAB
0
TABLE
2
APPID
5
9
100
AcDbSymbolTable
70
2
0
APPID
5
12
100
AcDbSymbolTableRecord
100
AcDbRegAppTableRecord
2
ACAD
70
0
0
ENDTAB
0
TABLE
2
DIMSTYLE
5
A
100
AcDbSymbolTable
70
1
0
ENDTAB
0
TABLE
2
BLOCK_RECORD
5
1
100
AcDbSymbolTable
70
1
0
BLOCK_RECORD
5
1F
100
AcDbSymbolTableRecord
100
AcDbBlockTableRecord
2
*MODEL_SPACE
0
BLOCK_RECORD
5
1B
100
AcDbSymbolTableRecord
100
AcDbBlockTableRecord
2
*PAPER_SPACE
0
ENDTAB
0
ENDSEC
0
SECTION
2
BLOCKS
0
BLOCK
5
20
100
AcDbEntity
100
AcDbBlockBegin
2
*MODEL_SPACE
0
ENDBLK
5
21
100
AcDbEntity
100
AcDbBlockEnd
0
BLOCK
5
1C
100
AcDbEntity
100
AcDbBlockBegin
2
*PAPER_SPACE
0
ENDBLK
5
1D
100
AcDbEntity
100
AcDbBlockEnd
0
ENDSEC
0
SECTION
2
ENTITIES
0
LWPOLYLINE
5
100
100
AcDbEntity
8
0
100
AcDbPolyline
90
108
70
1
43
0.0
10
53.867542194481068
20
-44.006743704165963
10
53.867542194481068
20
-53.173043704165927
10
50.86754219448099
20
-53.173043704165927
10
50.86754219448099
20
-62.739243704166
10
53.867542194481068
20
-62.739243704166
10
53.867542194481068
20
-71.905543704165893
10
50.86754219448099
20
-71.905543704165893
10
50.86754219448099
20
-81.471743704165902
10
53.867542194481068
20
-81.471743704165902
10
53.867542194481068
20
-90.638043704165938
10
50.86754219448099
20
-90.638043704165938
10
50.86754219448099
20
-100.20424370416589
10
53.867542194481068
20
-100.20424370416589
10
53.867542194481068
20
-109.37054370416598
10
50.86754219448099
20
-109.37054370416598
10
50.86754219448099
20
-118.93674370416598
10
53.867542194481068
20
-118.93674370416598
10
53.867542194481032
20
-128.10304370416586
10
50.86754219448099
20
-128.10304370416586
10
50.86754219448099
20
-137.66924370416589
10
53.867542194481032
20
-137.66924370416589
10
53.867542194481032
20
-146.83554370416584
10
50.86754219448099
20
-146.83554370416584
10
50.86754219448099
20
-156.40174370416585
10
53.867542194481032
20
-156.40174370416585
10
53.867542194481032
20
-167.52114370416587
10
59.353142194481009
20
-167.52114370416587
10
59.353142194481009
20
-170.52114370416587
10
68.919442194481007
20
-170.52114370416587
10
68.919442194481007
20
-167.52114370416587
10
78.085642194481011
20
-167.52114370416587
10
78.085642194481011
20
-170.52114370416587
10
87.651942194480981
20
-170.52114370416587
10
87.651942194480981
20
-167.52114370416587
10
96.818142194480984
20
-167.52114370416587
10
96.818142194480984
20
-170.52114370416587
10
106.38444219448097
20
-170.52114370416587
10
106.38444219448097
20
-167.52114370416587
10
115.55064219448096
20
-167.52114370416587
10
115.55064219448096
20
-170.52114370416587
10
125.11694219448096
20
-170.52114370416587
10
125.11694219448096
20
-167.52114370416587
10
134.28314219448094
20
-167.52114370416589
10
134.28314219448094
20
-170.52114370416587
10
143.84944219448093
20
-170.52114370416587
10
143.84944219448093
20
-167.52114370416589
10
153.01564219448096
20
-167.52114370416589
10
153.01564219448093
20
-170.52114370416587
10
162.58194219448092
20
-170.52114370416587
10
162.58194219448092
20
-167.52114370416589
10
168.06754219448089
20
-167.52114370416589
10
168.06754219448089
20
-156.40174370416588
10
171.06754219448089
20
-156.40174370416588
10
171.06754219448089
20
-146.8355437041659
10
168.06754219448089
20
-146.8355437041659
10
168.06754219448089
20
-137.66924370416589
10
171.06754219448089
20
-137.66924370416589
10
171.06754219448089
20
-128.10304370416591
10
168.06754219448089
20
-128.10304370416591
10
168.06754219448095
20
-118.93674370416603
10
171.06754219448092
20
-118.93674370416603
10
171.06754219448092
20
-109.37054370416602
10
168.06754219448095
20
-109.37054370416602
10
168.06754219448095
20
-100.20424370416589
10
171.06754219448092
20
-100.20424370416589
10
171.06754219448092
20
-90.638043704165966
10
168.06754219448095
20
-90.638043704165966
10
168.06754219448095
20
-81.471743704165931
10
171.06754219448092
20
-81.471743704165931
10
171.06754219448092
20
-71.905543704165922
10
168.06754219448095
20
-71.905543704165922
10
168.06754219448095
20
-62.739243704166022
10
171.06754219448092
20
-62.739243704166022
10
171.06754219448092
20
-53.173043704165963
10
168.06754219448095
20
-53.173043704165963
10
168.06754219448095
20
-44.006743704165991
10
171.06754219448092
20
-44.006743704165991
10
171.06754219448092
20
-34.44054370416606
10
168.06754219448095
20
-34.44054370416606
10
168.06754219448095
20
-23.32114370416603
10
162.58194219448092
20
-23.321143704166019
10
162.58194219448092
20
-20.321143704165973
10
153.01564219448096
20
-20.321143704165973
10
153.01564219448096
20
-23.321143704166019
10
143.84944219448096
20
-23.321143704166019
10
143.84944219448096
20
-20.321143704165973
10
134.28314219448097
20
-20.321143704165973
10
134.28314219448097
20
-23.321143704166019
10
125.116942194481
20
-23.321143704166019
10
125.116942194481
20
-20.321143704165973
10
115.55064219448099
20
-20.321143704165973
10
115.55064219448099
20
-23.321143704166019
10
106.38444219448103
20
-23.321143704166019
10
106.38444219448101
20
-20.321143704165973
10
96.818142194481027
20
-20.321143704165973
10
96.818142194481027
20
-23.321143704166019
10
87.651942194481023
20
-23.321143704166019
10
87.651942194481023
20
-20.321143704165973
10
78.085642194481039
20
-20.321143704165955
10
78.085642194481039
20
-23.321143704165994
10
68.919442194481036
20
-23.321143704165994
10
68.919442194481036
20
-20.321143704165955
10
59.353142194481038
20
-20.321143704165955
10
59.353142194481038
20
-23.321143704165994
10
53.867542194481068
20
-23.321143704165994
10
53.867542194481068
20
-34.440543704166025
10
50.86754219448099
20
-34.440543704166025
10
50.86754219448099
20
-44.006743704165963
0
ENDSEC
0
SECTION
2
OBJECTS
0
DICTIONARY
5
C
100
AcDbDictionary
3
ACAD_GROUP
350
D
3
ACAD_MLINESTYLE
350
17
0
DICTIONARY
5
D
100
AcDbDictionary
0
DICTIONARY
5
1A
330
C
100
AcDbDictionary
0
DICTIONARY
5
17
100
AcDbDictionary
0
ENDSEC
0
EOF
