0
SECTION
2
HEADER
9
$INSUNITS
70
4
9
$ACADVER
1
AC1014
9
$HANDSEED
5
FFFF
0
ENDSEC
0
SECTION
2
TABLES
0
TABLE
2
VPORT
5
8
100
AcDbSymbolTable
0
ENDTAB
0
TABLE
2
LTYPE
5
5
100
AcDbSymbolTable
0
LTYPE
5
14
100
AcDbSymbolTableRecord
100
AcDbLinetypeTableRecord
2
BYBLOCK
70
0
0
LTYPE
5
15
100
AcDbSymbolTableRecord
100
AcDbLinetypeTableRecord
2
BYLAYER
70
0
0
ENDTAB
0
TABLE
2
LAYER
5
2
100
AcDbSymbolTable
70
2
0
LAYER
5
50
100
AcDbSymbolTableRecord
100
AcDbLayerTableRecord
2
0
70
0
6
CONTINUOUS
0
ENDTAB
0
TABLE
2
STYLE
5
3
100
AcDbSymbolTable
70
1
0
STYLE
5
11
100
AcDbSymbolTableRecord
100
AcDbTextStyleTableRecord
2
STANDARD
70
0
0
ENDTAB
0
TABLE
2
VIEW
5
6
100
AcDbSymbolTable
70
0
0
ENDTAB
0
TABLE
2
UCS
5
7
100
AcDbSymbolTable
70
0
0
ENDTAB
0
TABLE
2
APPID
5
9
100
AcDbSymbolTable
70
2
0
APPID
5
12
100
AcDbSymbolTableRecord
100
AcDbRegAppTableRecord
2
ACAD
70
0
0
ENDTAB
0
TABLE
2
DIMSTYLE
5
A
100
AcDbSymbolTable
70
1
0
ENDTAB
0
TABLE
2
BLOCK_RECORD
5
1
100
AcDbSymbolTable
70
1
0
BLOCK_RECORD
5
1F
100
AcDbSymbolTableRecord
100
AcDbBlockTableRecord
2
*MODEL_SPACE
0
BLOCK_RECORD
5
1B
100
AcDbSymbolTableRecord
100
AcDbBlockTableRecord
2
*PAPER_SPACE
0
ENDTAB
0
ENDSEC
0
SECTION
2
BLOCKS
0
BLOCK
5
20
100
AcDbEntity
100
AcDbBlockBegin
2
*MODEL_SPACE
0
ENDBLK
5
21
100
AcDbEntity
100
AcDbBlockEnd
0
BLOCK
5
1C
100
AcDbEntity
100
AcDbBlockBegin
2
*PAPER_SPACE
0
ENDBLK
5
1D
100
AcDbEntity
100
AcDbBlockEnd
0
ENDSEC
0
SECTION
2
ENTITIES
0
LWPOLYLINE
5
100
100
AcDbEntity
8
0
100
AcDbPolyline
90
4
70
1
43
0.0
10
292.50380795667024
20
76.073853497409388
10
289.50380795667013
20
76.073853497409388
10
289.50380795667013
20
85.623853497409371
10
292.50380795667024
20
85.623853497409371
0
LWPOLYLINE
5
101
100
AcDbEntity
8
0
100
AcDbPolyline
90
8
70
1
43
0.0
10
214.52880795667033
20
140.34885349740929
10
214.52880795667033
20
136.84885349740921
42
0.41421356237310281
10
216.52880795667039
20
134.84885349740932
10
220.02880795667033
20
134.84885349740932
42
0.41421356237311063
10
222.02880795667033
20
136.84885349740921
10
222.02880795667042
20
140.34885349740929
42
0.41421356237310025
10
220.02880795667033
20
142.34885349740938
10
216.52880795667039
20
142.34885349740927
42
0.41421356237308982
0
LWPOLYLINE
5
102
100
AcDbEntity
8
0
100
AcDbPolyline
90
60
70
1
43
0.0
10
285.1788079566702
20
146.19885349740929
10
275.12880795667013
20
146.19885349740929
10
275.12880795667013
20
143.19885349740923
10
277.35380795667027
20
143.19885349740923
10
277.35380795667027
20
134.57385349740923
10
274.35380795667027
20
134.57385349740923
10
274.35380795667027
20
143.19885349740923
10
265.57880795667018
20
143.19885349740923
10
265.57880795667018
20
146.19885349740929
10
255.62880795667027
20
146.19885349740929
10
255.62880795667027
20
143.19885349740923
10
246.07880795667029
20
143.19885349740923
10
246.07880795667029
20
146.19885349740929
10
236.1288079566703
20
146.19885349740929
10
236.1288079566703
20
143.19885349740923
10
227.35380795667032
20
143.19885349740923
10
227.35380795667032
20
134.57385349740923
10
224.35380795667038
20
134.57385349740923
10
224.35380795667038
20
143.19885349740923
10
226.57880795667035
20
143.19885349740923
10
226.57880795667035
20
146.19885349740929
10
216.52880795667028
20
146.19885349740929
10
216.52880795667028
20
143.19885349740923
10
212.20380795667035
20
143.19885349740923
10
212.20380795667035
20
134.57385349740923
10
209.20380795667029
20
134.57385349740923
10
209.20380795667029
20
146.19885349740929
10
190.60380795667044
20
146.19885349740929
10
190.60380795667044
20
-4.0011465025905046
10
209.20380795667029
20
-4.0011465025905046
10
209.20380795667029
20
7.6238534974095273
10
212.20380795667035
20
7.6238534974095273
10
212.20380795667035
20
15.573853497409536
42
-0.4142135623730937
10
214.20380795667035
20
17.57385349740953
10
222.35380795667032
20
17.57385349740952
42
-0.4142135623730937
10
224.35380795667038
20
15.573853497409527
10
224.35380795667038
20
-1.0011465025904975
10
236.22880795667032
20
-1.0011465025905151
10
236.22880795667032
20
-4.0011465025905046
10
245.97880795667035
20
-4.0011465025905046
10
245.97880795667035
20
-1.0011465025905153
10
255.72880795667029
20
-1.0011465025905153
10
255.72880795667029
20
-4.0011465025905046
10
265.47880795667044
20
-4.0011465025905046
10
265.47880795667044
20
-1.0011465025905153
10
275.22880795667038
20
-1.0011465025905153
10
275.22880795667038
20
-4.0011465025905046
10
284.97880795667038
20
-4.0011465025905046
10
284.97880795667038
20
-1.0011465025905149
10
289.50380795667013
20
-1.0011465025904975
10
289.50380795667013
20
7.6238534974095096
10
292.50380795667024
20
7.6238534974095096
10
292.50380795667024
20
-4.0011465025905224
10
311.10380795667032
20
-4.0011465025905224
10
311.10380795667038
20
146.19885349740929
10
292.50380795667024
20
146.19885349740929
10
292.50380795667024
20
134.5738534974092
10
289.50380795667013
20
134.5738534974092
10
289.50380795667013
20
143.19885349740923
10
285.1788079566702
20
143.19885349740923
0
LWPOLYLINE
5
103
100
AcDbEntity
8
0
100
AcDbPolyline
90
4
70
1
43
0.0
10
212.20380795667035
20
76.073853497409431
10
209.20380795667029
20
76.073853497409431
10
209.20380795667029
20
85.623853497409385
10
212.20380795667035
20
85.623853497409385
0
LWPOLYLINE
5
104
100
AcDbEntity
8
0
100
AcDbPolyline
90
4
70
1
43
0.0
10
277.35380795667027
20
37.073853497409445
10
274.35380795667027
20
37.073853497409445
10
274.35380795667027
20
46.623853497409399
10
277.35380795667027
20
46.623853497409399
0
LWPOLYLINE
5
105
100
AcDbEntity
8
0
100
AcDbPolyline
90
4
70
1
43
0.0
10
277.35380795667027
20
27.123853497409449
10
277.35380795667027
20
17.57385349740952
10
274.35380795667027
20
17.57385349740952
10
274.35380795667027
20
27.123853497409449
0
LWPOLYLINE
5
106
100
AcDbEntity
8
0
100
AcDbPolyline
90
4
70
1
43
0.0
10
209.20380795667029
20
37.073853497409452
10
209.20380795667029
20
46.623853497409407
10
212.20380795667035
20
46.623853497409407
10
212.20380795667035
20
37.073853497409452
0
LWPOLYLINE
5
107
100
AcDbEntity
8
0
100
AcDbPolyline
90
4
70
1
43
0.0
10
289.50380795667013
20
46.623853497409385
10
292.50380795667024
20
46.623853497409385
10
292.50380795667024
20
37.073853497409431
10
289.50380795667013
20
37.073853497409431
0
LWPOLYLINE
5
108
100
AcDbEntity
8
0
100
AcDbPolyline
90
4
70
1
43
0.0
10
292.50380795667024
20
95.573853497409388
10
289.50380795667013
20
95.573853497409388
10
289.50380795667013
20
105.12385349740931
10
292.50380795667024
20
105.12385349740931
0
LWPOLYLINE
5
109
100
AcDbEntity
8
0
100
AcDbPolyline
90
4
70
1
43
0.0
10
224.35380795667038
20
124.6238534974093
10
227.35380795667032
20
124.62385349740929
10
227.35380795667032
20
115.07385349740929
10
224.35380795667038
20
115.07385349740929
0
LWPOLYLINE
5
110
100
AcDbEntity
8
0
100
AcDbPolyline
90
8
70
1
43
0.0
10
279.67880795667031
20
140.34885349740929
10
279.67880795667031
20
136.84885349740921
42
0.41421356237311063
10
281.67880795667031
20
134.84885349740935
10
285.17880795667025
20
134.84885349740935
42
0.41421356237311063
10
287.17880795667031
20
136.84885349740921
10
287.17880795667031
20
140.34885349740929
42
0.41421356237310025
10
285.17880795667025
20
142.34885349740935
10
281.67880795667031
20
142.34885349740935
42
0.41421356237310542
0
LWPOLYLINE
5
111
100
AcDbEntity
8
0
100
AcDbPolyline
90
4
70
1
43
0.0
10
224.35380795667038
20
46.623853497409407
10
227.35380795667032
20
46.623853497409407
10
227.35380795667032
20
37.073853497409452
10
224.35380795667038
20
37.073853497409452
0
LWPOLYLINE
5
112
100
AcDbEntity
8
0
100
AcDbPolyline
90
4
70
1
43
0.0
10
209.20380795667029
20
95.573853497409402
10
209.20380795667029
20
105.12385349740933
10
212.20380795667035
20
105.12385349740933
10
212.20380795667035
20
95.573853497409402
0
LWPOLYLINE
5
113
100
AcDbEntity
8
0
100
AcDbPolyline
90
4
70
1
43
0.0
10
227.35380795667032
20
66.123853497409385
10
227.35380795667032
20
56.573853497409388
10
224.35380795667038
20
56.573853497409402
10
224.35380795667038
20
66.123853497409385
0
LWPOLYLINE
5
114
100
AcDbEntity
8
0
100
AcDbPolyline
90
4
70
1
43
0.0
10
227.35380795667032
20
105.12385349740933
10
227.35380795667032
20
95.573853497409402
10
224.35380795667038
20
95.573853497409402
10
224.35380795667038
20
105.12385349740933
0
LWPOLYLINE
5
115
100
AcDbEntity
8
0
100
AcDbPolyline
90
4
70
1
43
0.0
10
274.35380795667027
20
115.07385349740927
10
274.35380795667027
20
124.62385349740929
10
277.35380795667027
20
124.62385349740927
10
277.35380795667027
20
115.07385349740926
0
LWPOLYLINE
5
116
100
AcDbEntity
8
0
100
AcDbPolyline
90
4
70
1
43
0.0
10
227.35380795667032
20
17.57385349740952
10
224.35380795667038
20
17.57385349740952
10
224.35380795667038
20
27.123853497409456
10
227.35380795667032
20
27.123853497409456
0
LWPOLYLINE
5
117
100
AcDbEntity
8
0
100
AcDbPolyline
90
4
70
1
43
0.0
10
224.35380795667038
20
76.073853497409416
10
224.35380795667038
20
85.623853497409385
10
227.35380795667032
20
85.623853497409385
10
227.35380795667032
20
76.073853497409416
0
LWPOLYLINE
5
118
100
AcDbEntity
8
0
100
AcDbPolyline
90
4
70
1
43
0.0
10
212.20380795667035
20
17.57385349740952
10
209.20380795667029
20
17.57385349740952
10
209.20380795667029
20
27.123853497409449
10
212.20380795667035
20
27.123853497409449
0
LWPOLYLINE
5
119
100
AcDbEntity
8
0
100
AcDbPolyline
90
4
70
1
43
0.0
10
209.20380795667029
20
66.123853497409385
10
212.20380795667035
20
66.123853497409385
10
212.20380795667035
20
56.573853497409402
10
209.20380795667029
20
56.573853497409402
0
LWPOLYLINE
5
120
100
AcDbEntity
8
0
100
AcDbPolyline
90
4
70
1
43
0.0
10
289.50380795667013
20
66.123853497409357
10
292.50380795667024
20
66.123853497409357
10
292.50380795667024
20
56.573853497409381
10
289.50380795667013
20
56.573853497409381
0
LWPOLYLINE
5
121
100
AcDbEntity
8
0
100
AcDbPolyline
90
4
70
1
43
0.0
10
277.35380795667027
20
66.123853497409357
10
277.35380795667027
20
56.573853497409381
10
274.35380795667027
20
56.573853497409381
10
274.35380795667027
20
66.123853497409371
0
LWPOLYLINE
5
122
100
AcDbEntity
8
0
100
AcDbPolyline
90
4
70
1
43
0.0
10
274.35380795667027
20
105.12385349740933
10
277.35380795667027
20
105.12385349740931
10
277.35380795667027
20
95.573853497409388
10
274.35380795667027
20
95.573853497409402
0
LWPOLYLINE
5
123
100
AcDbEntity
8
0
100
AcDbPolyline
90
4
70
1
43
0.0
10
274.35380795667027
20
85.623853497409385
10
277.35380795667027
20
85.623853497409371
10
277.35380795667027
20
76.073853497409388
10
274.35380795667027
20
76.073853497409416
0
LWPOLYLINE
5
124
100
AcDbEntity
8
0
100
AcDbPolyline
90
4
70
1
43
0.0
10
289.50380795667013
20
124.62385349740927
10
292.50380795667024
20
124.62385349740927
10
292.50380795667024
20
115.07385349740926
10
289.50380795667013
20
115.07385349740926
0
LWPOLYLINE
5
125
100
AcDbEntity
8
0
100
AcDbPolyline
90
4
70
1
43
0.0
10
289.50380795667013
20
27.123853497409442
10
292.50380795667024
20
27.123853497409442
10
292.50380795667024
20
17.573853497409509
10
289.50380795667013
20
17.573853497409509
0
LWPOLYLINE
5
126
100
AcDbEntity
8
0
100
AcDbPolyline
90
4
70
1
43
0.0
10
209.20380795667029
20
124.6238534974093
10
212.20380795667035
20
124.6238534974093
10
212.20380795667035
20
115.07385349740929
10
209.20380795667029
20
115.07385349740929
0
CIRCLE
5
127
100
AcDbEntity
8
0
100
AcDbCircle
10
295.59295359205549
20
41.343922177798689
30
0
40
1
210
0
220
0
230
1
0
CIRCLE
5
128
100
AcDbEntity
8
0
100
AcDbCircle
10
250.59295375095073
20
41.340140568189774
30
0
40
0.99999999999999956
210
0
220
0
230
1
0
CIRCLE
5
129
100
AcDbEntity
8
0
100
AcDbCircle
10
250.59295359205552
20
2.2439221777987104
30
0
40
0.99999999999999645
210
0
220
0
230
1
0
CIRCLE
5
130
100
AcDbEntity
8
0
100
AcDbCircle
10
295.59295359205549
20
2.2439221777986873
30
0
40
0.99999999999999967
210
0
220
0
230
1
0
CIRCLE
5
131
100
AcDbEntity
8
0
100
AcDbCircle
10
245.25389217886323
20
121.03944443078176
30
0
40
1.0000000000000062
210
0
220
0
230
1
0
CIRCLE
5
132
100
AcDbEntity
8
0
100
AcDbCircle
10
197.00139466716465
20
122.30904905974188
30
0
40
0.99999999999999645
210
0
220
0
230
1
0
CIRCLE
5
133
100
AcDbEntity
8
0
100
AcDbCircle
10
202.0744850168596
20
70.239702288538624
30
0
40
1.0000000000000042
210
0
220
0
230
1
0
CIRCLE
5
134
100
AcDbEntity
8
0
100
AcDbCircle
10
230.01403929388545
20
70.239317930902885
30
0
40
1.0000000000000011
210
0
220
0
230
1
0
CIRCLE
5
135
100
AcDbEntity
8
0
100
AcDbCircle
10
302.39288379028517
20
49.761480975927519
30
0
40
1.0000000000000033
210
0
220
0
230
1
0
CIRCLE
5
136
100
AcDbEntity
8
0
100
AcDbCircle
10
252.39288396873144
20
49.757256686317241
30
0
40
0.99999999999999656
210
0
220
0
230
1
0
CIRCLE
5
137
100
AcDbEntity
8
0
100
AcDbCircle
10
252.39288396873144
20
107.75725668631722
30
0
40
0.99999999999999911
210
0
220
0
230
1
0
CIRCLE
5
138
100
AcDbEntity
8
0
100
AcDbCircle
10
301.69288396873139
20
107.75725668631721
30
0
40
0.99999999999999645
210
0
220
0
230
1
0
ENDSEC
0
SECTION
2
OBJECTS
0
DICTIONARY
5
C
100
AcDbDictionary
3
ACAD_GROUP
350
D
3
ACAD_MLINESTYLE
350
17
0
DICTIONARY
5
D
100
AcDbDictionary
0
DICTIONARY
5
1A
330
C
100
AcDbDictionary
0
DICTIONARY
5
17
100
AcDbDictionary
0
ENDSEC
0
EOF
