0
SECTION
2
HEADER
9
$INSUNITS
70
4
9
$ACADVER
1
AC1014
9
$HANDSEED
5
FFFF
0
ENDSEC
0
SECTION
2
TABLES
0
TABLE
2
VPORT
5
8
100
AcDbSymbolTable
0
ENDTAB
0
TABLE
2
LTYPE
5
5
100
AcDbSymbolTable
0
LTYPE
5
14
100
AcDbSymbolTableRecord
100
AcDbLinetypeTableRecord
2
BYBLOCK
70
0
0
LTYPE
5
15
100
AcDbSymbolTableRecord
100
AcDbLinetypeTableRecord
2
BYLAYER
70
0
0
ENDTAB
0
TABLE
2
LAYER
5
2
100
AcDbSymbolTable
70
2
0
LAYER
5
50
100
AcDbSymbolTableRecord
100
AcDbLayerTableRecord
2
0
70
0
6
CONTINUOUS
0
ENDTAB
0
TABLE
2
STYLE
5
3
100
AcDbSymbolTable
70
1
0
STYLE
5
11
100
AcDbSymbolTableRecord
100
AcDbTextStyleTableRecord
2
STANDARD
70
0
0
ENDTAB
0
TABLE
2
VIEW
5
6
100
AcDbSymbolTable
70
0
0
ENDTAB
0
TABLE
2
UCS
5
7
100
AcDbSymbolTable
70
0
0
ENDTAB
0
TABLE
2
APPID
5
9
100
AcDbSymbolTable
70
2
0
APPID
5
12
100
AcDbSymbolTableRecord
100
AcDbRegAppTableRecord
2
ACAD
70
0
0
ENDTAB
0
TABLE
2
DIMSTYLE
5
A
100
AcDbSymbolTable
70
1
0
ENDTAB
0
TABLE
2
BLOCK_RECORD
5
1
100
AcDbSymbolTable
70
1
0
BLOCK_RECORD
5
1F
100
AcDbSymbolTableRecord
100
AcDbBlockTableRecord
2
*MODEL_SPACE
0
BLOCK_RECORD
5
1B
100
AcDbSymbolTableRecord
100
AcDbBlockTableRecord
2
*PAPER_SPACE
0
ENDTAB
0
ENDSEC
0
SECTION
2
BLOCKS
0
BLOCK
5
20
100
AcDbEntity
100
AcDbBlockBegin
2
*MODEL_SPACE
0
ENDBLK
5
21
100
AcDbEntity
100
AcDbBlockEnd
0
BLOCK
5
1C
100
AcDbEntity
100
AcDbBlockBegin
2
*PAPER_SPACE
0
ENDBLK
5
1D
100
AcDbEntity
100
AcDbBlockEnd
0
ENDSEC
0
SECTION
2
ENTITIES
0
LWPOLYLINE
5
100
100
AcDbEntity
8
0
100
AcDbPolyline
90
52
70
1
43
0.0
10
218.65671705916665
20
-118.83862756791868
10
194.28861705916674
20
-118.83862756791868
10
194.28861705916674
20
-127.61892756791869
10
191.28861705916671
20
-127.61892756791869
10
191.28861705916671
20
-137.1851275679187
10
194.28861705916674
20
-137.1851275679187
10
194.28861705916674
20
-143.76952756791866
10
200.12421705916671
20
-143.76952756791866
10
200.12421705916671
20
-140.76952756791871
10
209.29051705916666
20
-140.76952756791871
10
209.29051705916669
20
-143.76952756791866
10
218.85671705916667
20
-143.76952756791866
10
218.85671705916667
20
-140.76952756791871
10
228.02301705916673
20
-140.76952756791871
10
228.02301705916673
20
-143.76952756791866
10
237.58921705916666
20
-143.76952756791866
10
237.58921705916666
20
-140.76952756791871
10
246.75551705916672
20
-140.76952756791869
10
246.75551705916672
20
-143.76952756791866
10
256.3217170591667
20
-143.76952756791866
10
256.3217170591667
20
-140.76952756791869
10
265.48801705916679
20
-140.76952756791869
10
265.48801705916679
20
-143.76952756791866
10
275.05421705916672
20
-143.76952756791866
10
275.05421705916672
20
-140.76952756791869
10
284.2205170591667
20
-140.76952756791869
10
284.2205170591667
20
-143.76952756791866
10
293.78671705916679
20
-143.76952756791866
10
293.78671705916679
20
-140.76952756791869
10
302.95301705916671
20
-140.76952756791869
10
302.95301705916671
20
-143.76952756791871
10
308.78861705916665
20
-143.76952756791871
10
308.78861705916665
20
-137.18512756791876
10
311.78861705916665
20
-137.18512756791876
10
311.78861705916665
20
-127.61892756791873
10
308.78861705916665
20
-127.61892756791873
10
308.78861705916665
20
-118.83862756791865
10
284.32051705916672
20
-118.83862756791868
10
284.32051705916672
20
-115.8495275679187
10
274.95421705916669
20
-115.8495275679187
10
274.95421705916669
20
-118.83862756791868
10
265.58801705916676
20
-118.83862756791868
10
265.58801705916676
20
-115.84952756791871
10
256.22171705916674
20
-115.84952756791871
10
256.22171705916674
20
-118.83862756791868
10
246.85551705916674
20
-118.83862756791868
10
246.85551705916674
20
-115.84952756791871
10
237.48921705916666
20
-115.84952756791871
10
237.48921705916666
20
-118.83862756791868
10
228.12301705916673
20
-118.83862756791868
10
228.12301705916673
20
-115.84952756791871
10
218.65671705916665
20
-115.84952756791871
0
ENDSEC
0
SECTION
2
OBJECTS
0
DICTIONARY
5
C
100
AcDbDictionary
3
ACAD_GROUP
350
D
3
ACAD_MLINESTYLE
350
17
0
DICTIONARY
5
D
100
AcDbDictionary
0
DICTIONARY
5
1A
330
C
100
AcDbDictionary
0
DICTIONARY
5
17
100
AcDbDictionary
0
ENDSEC
0
EOF
