999
"DXF R12 Output" (www.mydxf.blogspot.com)
 0 
SECTION
 2 
HEADER
 9 
$ACADVER
 1 
AC1009
 9 
$EXTMIN
 10 
 0 
 20 
 0 
 9 
$EXTMAX
 10 
 8.5 
 20 
 11 
 0 
ENDSEC
 0 
SECTION
 2 
ENTITIES
0
LINE
8
Layer 1
10
3.000000
20
713.000000
11
-3.000000
21
707.000000
0
LINE
8
Layer 1
10
0.000000
20
715.000000
11
0.000000
21
705.000000
0
LINE
8
Layer 1
10
8.000000
20
706.000000
11
4.000000
21
702.000000
0
LINE
8
Layer 1
10
6.000000
20
708.000000
11
2.000000
21
704.000000
0
LINE
8
Layer 1
10
4.000000
20
710.000000
11
0.000000
21
706.000000
0
LINE
8
Layer 1
10
3.000000
20
713.000000
11
-3.000000
21
707.000000
0
LINE
8
Layer 1
10
0.000000
20
715.000000
11
0.000000
21
705.000000
0
LINE
8
Layer 1
10
8.000000
20
706.000000
11
4.000000
21
702.000000
0
LINE
8
Layer 1
10
6.000000
20
708.000000
11
2.000000
21
704.000000
0
LINE
8
Layer 1
10
4.000000
20
710.000000
11
0.000000
21
706.000000
0
LINE
8
Layer 1
10
3.000000
20
713.000000
11
-3.000000
21
707.000000
0
LINE
8
Layer 1
10
0.000000
20
715.000000
11
0.000000
21
705.000000
0
LINE
8
Layer 1
10
8.000000
20
706.000000
11
4.000000
21
702.000000
0
LINE
8
Layer 1
10
6.000000
20
708.000000
11
2.000000
21
704.000000
0
LINE
8
Layer 1
10
4.000000
20
710.000000
11
0.000000
21
706.000000
0
LINE
8
Layer 1
10
3.000000
20
713.000000
11
-3.000000
21
707.000000
0
LINE
8
Layer 1
10
0.000000
20
715.000000
11
0.000000
21
705.000000
0
LINE
8
Layer 1
10
8.000000
20
706.000000
11
4.000000
21
702.000000
0
LINE
8
Layer 1
10
6.000000
20
708.000000
11
2.000000
21
704.000000
0
LINE
8
Layer 1
10
4.000000
20
710.000000
11
0.000000
21
706.000000
0
LINE
8
Layer 1
10
3.000000
20
713.000000
11
-3.000000
21
707.000000
0
LINE
8
Layer 1
10
0.000000
20
715.000000
11
0.000000
21
705.000000
0
LINE
8
Layer 1
10
8.000000
20
706.000000
11
4.000000
21
702.000000
0
LINE
8
Layer 1
10
6.000000
20
708.000000
11
2.000000
21
704.000000
0
LINE
8
Layer 1
10
4.000000
20
710.000000
11
0.000000
21
706.000000
0
LINE
8
Layer 1
10
3.000000
20
713.000000
11
-3.000000
21
707.000000
0
LINE
8
Layer 1
10
0.000000
20
715.000000
11
0.000000
21
705.000000
0
LINE
8
Layer 1
10
8.000000
20
706.000000
11
4.000000
21
702.000000
0
LINE
8
Layer 1
10
6.000000
20
708.000000
11
2.000000
21
704.000000
0
LINE
8
Layer 1
10
4.000000
20
710.000000
11
0.000000
21
706.000000
0
LINE
8
Layer 1
10
3.000000
20
713.000000
11
-3.000000
21
707.000000
0
LINE
8
Layer 1
10
0.000000
20
715.000000
11
0.000000
21
705.000000
0
LINE
8
Layer 1
10
8.000000
20
706.000000
11
4.000000
21
702.000000
0
LINE
8
Layer 1
10
6.000000
20
708.000000
11
2.000000
21
704.000000
0
LINE
8
Layer 1
10
4.000000
20
710.000000
11
0.000000
21
706.000000
0
LINE
8
Layer 1
10
3.000000
20
713.000000
11
-3.000000
21
707.000000
0
LINE
8
Layer 1
10
0.000000
20
715.000000
11
0.000000
21
705.000000
0
LINE
8
Layer 1
10
8.000000
20
706.000000
11
4.000000
21
702.000000
0
LINE
8
Layer 1
10
6.000000
20
708.000000
11
2.000000
21
704.000000
0
LINE
8
Layer 1
10
4.000000
20
710.000000
11
0.000000
21
706.000000
0
LINE
8
Layer 1
10
3.000000
20
713.000000
11
-3.000000
21
707.000000
0
LINE
8
Layer 1
10
0.000000
20
715.000000
11
0.000000
21
705.000000
0
LINE
8
Layer 1
10
8.000000
20
706.000000
11
4.000000
21
702.000000
0
LINE
8
Layer 1
10
6.000000
20
708.000000
11
2.000000
21
704.000000
0
LINE
8
Layer 1
10
4.000000
20
710.000000
11
0.000000
21
706.000000
0
LINE
8
Layer 1
10
27.600400
20
706.879000
11
3.132290
21
706.879000
0
LINE
8
Layer 1
10
3.132290
20
706.879000
11
3.132290
21
698.098000
0
LINE
8
Layer 1
10
3.132290
20
698.098000
11
0.132292
21
698.098000
0
LINE
8
Layer 1
10
0.132292
20
698.098000
11
0.132292
21
688.532000
0
LINE
8
Layer 1
10
0.132292
20
688.532000
11
3.132290
21
688.532000
0
LINE
8
Layer 1
10
3.132290
20
688.532000
11
3.132290
21
681.948000
0
LINE
8
Layer 1
10
3.132290
20
681.948000
11
8.967890
21
681.948000
0
LINE
8
Layer 1
10
8.967890
20
681.948000
11
8.967890
21
684.948000
0
LINE
8
Layer 1
10
8.967890
20
684.948000
11
18.134200
21
684.948000
0
LINE
8
Layer 1
10
18.134200
20
684.948000
11
18.134200
21
681.948000
0
LINE
8
Layer 1
10
18.134200
20
681.948000
11
27.700400
21
681.948000
0
LINE
8
Layer 1
10
27.700400
20
681.948000
11
27.700400
21
684.948000
0
LINE
8
Layer 1
10
27.700400
20
684.948000
11
36.866700
21
684.948000
0
LINE
8
Layer 1
10
36.866700
20
684.948000
11
36.866700
21
681.948000
0
LINE
8
Layer 1
10
36.866700
20
681.948000
11
46.432900
21
681.948000
0
LINE
8
Layer 1
10
46.432900
20
681.948000
11
46.432900
21
684.948000
0
LINE
8
Layer 1
10
46.432900
20
684.948000
11
55.599200
21
684.948000
0
LINE
8
Layer 1
10
55.599200
20
684.948000
11
55.599200
21
681.948000
0
LINE
8
Layer 1
10
55.599200
20
681.948000
11
65.165400
21
681.948000
0
LINE
8
Layer 1
10
65.165400
20
681.948000
11
65.165400
21
684.948000
0
LINE
8
Layer 1
10
65.165400
20
684.948000
11
74.331700
21
684.948000
0
LINE
8
Layer 1
10
74.331700
20
684.948000
11
74.331700
21
681.948000
0
LINE
8
Layer 1
10
74.331700
20
681.948000
11
83.897900
21
681.948000
0
LINE
8
Layer 1
10
83.897900
20
681.948000
11
83.897900
21
684.948000
0
LINE
8
Layer 1
10
83.897900
20
684.948000
11
93.064200
21
684.948000
0
LINE
8
Layer 1
10
93.064200
20
684.948000
11
93.064200
21
681.948000
0
LINE
8
Layer 1
10
93.064200
20
681.948000
11
102.630000
21
681.948000
0
LINE
8
Layer 1
10
102.630000
20
681.948000
11
102.630000
21
684.948000
0
LINE
8
Layer 1
10
102.630000
20
684.948000
11
111.797000
21
684.948000
0
LINE
8
Layer 1
10
111.797000
20
684.948000
11
111.797000
21
681.948000
0
LINE
8
Layer 1
10
111.797000
20
681.948000
11
117.632000
21
681.948000
0
LINE
8
Layer 1
10
117.632000
20
681.948000
11
117.632000
21
688.532000
0
LINE
8
Layer 1
10
117.632000
20
688.532000
11
120.632000
21
688.532000
0
LINE
8
Layer 1
10
120.632000
20
688.532000
11
120.632000
21
698.098000
0
LINE
8
Layer 1
10
120.632000
20
698.098000
11
117.632000
21
698.098000
0
LINE
8
Layer 1
10
117.632000
20
698.098000
11
117.632000
21
706.879000
0
LINE
8
Layer 1
10
117.632000
20
706.879000
11
93.164200
21
706.879000
0
LINE
8
Layer 1
10
93.164200
20
706.879000
11
93.164200
21
709.868000
0
LINE
8
Layer 1
10
93.164200
20
709.868000
11
83.797900
21
709.868000
0
LINE
8
Layer 1
10
83.797900
20
709.868000
11
83.797900
21
706.879000
0
LINE
8
Layer 1
10
83.797900
20
706.879000
11
74.431700
21
706.879000
0
LINE
8
Layer 1
10
74.431700
20
706.879000
11
74.431700
21
709.868000
0
LINE
8
Layer 1
10
74.431700
20
709.868000
11
65.065400
21
709.868000
0
LINE
8
Layer 1
10
65.065400
20
709.868000
11
65.065400
21
706.879000
0
LINE
8
Layer 1
10
65.065400
20
706.879000
11
55.699200
21
706.879000
0
LINE
8
Layer 1
10
55.699200
20
706.879000
11
55.699200
21
709.868000
0
LINE
8
Layer 1
10
55.699200
20
709.868000
11
46.332900
21
709.868000
0
LINE
8
Layer 1
10
46.332900
20
709.868000
11
46.332900
21
706.879000
0
LINE
8
Layer 1
10
46.332900
20
706.879000
11
36.966700
21
706.879000
0
LINE
8
Layer 1
10
36.966700
20
706.879000
11
36.966700
21
709.868000
0
LINE
8
Layer 1
10
36.966700
20
709.868000
11
27.600400
21
709.868000
0
LINE
8
Layer 1
10
27.600400
20
709.868000
11
27.600400
21
706.879000
0
LINE
8
0
10
112.704000
20
669.349000
11
112.704000
21
664.349000
0
LINE
8
0
10
112.704000
20
664.349000
11
109.904000
21
664.349000
0
LINE
8
0
10
109.904000
20
664.349000
11
109.904000
21
669.349000
0
LINE
8
0
10
109.904000
20
669.349000
11
112.704000
21
669.349000
0
LINE
8
0
10
36.279300
20
654.831000
11
36.279300
21
651.831000
0
LINE
8
0
10
36.279300
20
651.831000
11
26.729300
21
651.831000
0
LINE
8
0
10
26.729300
20
651.831000
11
26.729300
21
654.831000
0
LINE
8
0
10
26.729300
20
654.831000
11
36.279300
21
654.831000
0
LINE
8
0
10
121.004000
20
678.949000
11
102.404000
21
678.949000
0
LINE
8
0
10
102.404000
20
678.949000
11
102.404000
21
681.949000
0
LINE
8
0
10
102.404000
20
681.949000
11
94.779300
21
681.949000
0
LINE
8
0
10
94.779300
20
681.949000
11
94.779300
21
678.949000
0
LINE
8
0
10
94.779300
20
678.949000
11
85.229300
21
678.949000
0
LINE
8
0
10
85.229300
20
678.949000
11
85.229300
21
681.949000
0
LINE
8
0
10
85.229300
20
681.949000
11
75.279300
21
681.949000
0
LINE
8
0
10
75.279300
20
681.949000
11
75.279300
21
678.949000
0
LINE
8
0
10
75.279300
20
678.949000
11
65.729300
21
678.949000
0
LINE
8
0
10
65.729300
20
678.949000
11
65.729300
21
681.949000
0
LINE
8
0
10
65.729300
20
681.949000
11
55.779300
21
681.949000
0
LINE
8
0
10
55.779300
20
681.949000
11
55.779300
21
678.949000
0
LINE
8
0
10
55.779300
20
678.949000
11
46.229300
21
678.949000
0
LINE
8
0
10
46.229300
20
678.949000
11
46.229300
21
681.949000
0
LINE
8
0
10
46.229300
20
681.949000
11
36.279300
21
681.949000
0
LINE
8
0
10
36.279300
20
681.949000
11
36.279300
21
678.949000
0
LINE
8
0
10
36.279300
20
678.949000
11
26.729300
21
678.949000
0
LINE
8
0
10
26.729300
20
678.949000
11
26.729300
21
681.949000
0
LINE
8
0
10
26.729300
20
681.949000
11
19.104400
21
681.949000
0
LINE
8
0
10
19.104400
20
681.949000
11
19.104400
21
678.949000
0
LINE
8
0
10
19.104400
20
678.949000
11
0.504376
21
678.949000
0
LINE
8
0
10
0.504376
20
678.949000
11
0.504376
21
654.749000
0
LINE
8
0
10
0.504376
20
654.749000
11
19.104400
21
654.749000
0
LINE
8
0
10
19.104400
20
654.749000
11
19.104400
21
651.831000
0
LINE
8
0
10
19.104400
20
651.831000
11
0.504376
21
651.831000
0
LINE
8
0
10
0.504376
20
651.831000
11
0.504376
21
616.562000
0
LINE
8
0
10
0.504376
20
616.562000
11
28.172400
21
616.562000
0
LINE
8
0
10
28.172400
20
616.562000
11
28.172400
21
619.551000
0
LINE
8
0
10
28.172400
20
619.551000
11
37.138700
21
619.551000
0
LINE
8
0
10
37.138700
20
619.551000
11
37.138700
21
616.562000
0
LINE
8
0
10
37.138700
20
616.562000
11
46.904900
21
616.562000
0
LINE
8
0
10
46.904900
20
616.562000
11
46.904900
21
619.551000
0
LINE
8
0
10
46.904900
20
619.551000
11
55.871200
21
619.551000
0
LINE
8
0
10
55.871200
20
619.551000
11
55.871200
21
616.562000
0
LINE
8
0
10
55.871200
20
616.562000
11
65.637400
21
616.562000
0
LINE
8
0
10
65.637400
20
616.562000
11
65.637400
21
619.551000
0
LINE
8
0
10
65.637400
20
619.551000
11
74.603700
21
619.551000
0
LINE
8
0
10
74.603700
20
619.551000
11
74.603700
21
616.562000
0
LINE
8
0
10
74.603700
20
616.562000
11
84.369900
21
616.562000
0
LINE
8
0
10
84.369900
20
616.562000
11
84.369900
21
619.551000
0
LINE
8
0
10
84.369900
20
619.551000
11
93.336200
21
619.551000
0
LINE
8
0
10
93.336200
20
619.551000
11
93.336200
21
616.562000
0
LINE
8
0
10
93.336200
20
616.562000
11
121.004000
21
616.562000
0
LINE
8
0
10
121.004000
20
616.562000
11
121.004000
21
651.831000
0
LINE
8
0
10
121.004000
20
651.831000
11
102.404000
21
651.831000
0
LINE
8
0
10
102.404000
20
651.831000
11
102.404000
21
654.749000
0
LINE
8
0
10
102.404000
20
654.749000
11
121.004000
21
654.749000
0
LINE
8
0
10
121.004000
20
654.749000
11
121.004000
21
678.949000
0
LINE
8
0
10
99.404300
20
662.074000
11
99.404353
21
671.642880
0
LINE
8
0
10
99.404353
20
671.642880
11
102.404303
21
671.624095
0
LINE
8
0
10
102.404303
20
671.624095
11
102.404000
21
662.074000
0
LINE
8
0
10
102.404000
20
662.074000
11
99.404300
21
662.074000
0
LINE
8
0
10
37.254300
20
662.074000
11
34.254300
21
662.074000
0
LINE
8
0
10
34.254300
20
662.074000
11
34.254300
21
671.624000
0
LINE
8
0
10
34.254300
20
671.624000
11
37.254300
21
671.624000
0
LINE
8
0
10
37.254300
20
671.624000
11
37.254300
21
662.074000
0
LINE
8
0
10
75.279300
20
651.831000
11
65.729300
21
651.831000
0
LINE
8
0
10
65.729300
20
651.831000
11
65.729300
21
654.831000
0
LINE
8
0
10
65.729300
20
654.831000
11
75.279300
21
654.831000
0
LINE
8
0
10
75.279300
20
654.831000
11
75.279300
21
651.831000
0
LINE
8
0
10
19.104400
20
671.624000
11
22.104300
21
671.624000
0
LINE
8
0
10
22.104300
20
671.624000
11
22.104300
21
662.074000
0
LINE
8
0
10
22.104300
20
662.074000
11
19.104400
21
662.074000
0
LINE
8
0
10
19.104400
20
662.074000
11
19.104400
21
671.624000
0
LINE
8
0
10
55.779300
20
651.831000
11
46.229300
21
651.831000
0
LINE
8
0
10
46.229300
20
651.831000
11
46.229300
21
654.831000
0
LINE
8
0
10
46.229300
20
654.831000
11
55.779300
21
654.831000
0
LINE
8
0
10
55.779300
20
654.831000
11
55.779300
21
651.831000
0
LINE
8
0
10
87.254300
20
671.643000
11
87.254300
21
662.074000
0
LINE
8
0
10
87.254300
20
662.074000
11
84.254300
21
662.074000
0
LINE
8
0
10
84.254300
20
662.074000
11
84.254300
21
671.643000
0
LINE
8
0
10
84.254300
20
671.643000
11
87.254300
21
671.643000
0
LINE
8
0
10
8.804370
20
669.349000
11
11.604400
21
669.349000
0
LINE
8
0
10
11.604400
20
669.349000
11
11.604400
21
664.349000
0
LINE
8
0
10
11.604400
20
664.349000
11
8.804370
21
664.349000
0
LINE
8
0
10
8.804370
20
664.349000
11
8.804370
21
669.349000
0
LINE
8
0
10
32.954300
20
624.306000
11
32.869492
21
624.945248
0
LINE
8
0
10
32.869492
20
624.945248
11
32.626062
21
625.531000
0
LINE
8
0
10
32.626062
20
625.531000
11
32.240501
21
626.034692
0
LINE
8
0
10
32.240501
20
626.034692
11
31.729300
21
626.427762
0
LINE
8
0
10
31.729300
20
626.427762
11
31.133291
21
626.673941
0
LINE
8
0
10
31.133291
20
626.673941
11
30.504300
21
626.756000
0
LINE
8
0
10
30.504300
20
626.756000
11
29.875309
21
626.673941
0
LINE
8
0
10
29.875309
20
626.673941
11
29.279300
21
626.427762
0
LINE
8
0
10
29.279300
20
626.427762
11
28.768099
21
626.034692
0
LINE
8
0
10
28.768099
20
626.034692
11
28.382538
21
625.531000
0
LINE
8
0
10
28.382538
20
625.531000
11
28.139108
21
624.945248
0
LINE
8
0
10
28.139108
20
624.945248
11
28.054300
21
624.306000
0
LINE
8
0
10
28.054300
20
624.306000
11
28.139108
21
623.666752
0
LINE
8
0
10
28.139108
20
623.666752
11
28.382538
21
623.081000
0
LINE
8
0
10
28.382538
20
623.081000
11
28.768099
21
622.577308
0
LINE
8
0
10
28.768099
20
622.577308
11
29.279300
21
622.184238
0
LINE
8
0
10
29.279300
20
622.184238
11
29.875309
21
621.938059
0
LINE
8
0
10
29.875309
20
621.938059
11
30.504300
21
621.856000
0
LINE
8
0
10
30.504300
20
621.856000
11
31.133291
21
621.938059
0
LINE
8
0
10
31.133291
20
621.938059
11
31.729300
21
622.184238
0
LINE
8
0
10
31.729300
20
622.184238
11
32.240501
21
622.577308
0
LINE
8
0
10
32.240501
20
622.577308
11
32.626062
21
623.081000
0
LINE
8
0
10
32.626062
20
623.081000
11
32.869492
21
623.666752
0
LINE
8
0
10
32.869492
20
623.666752
11
32.954300
21
624.306000
0
LINE
8
0
10
32.954300
20
624.306000
11
32.954300
21
624.306000
0
LINE
8
0
10
93.454300
20
624.306000
11
93.369492
21
624.945248
0
LINE
8
0
10
93.369492
20
624.945248
11
93.126062
21
625.531000
0
LINE
8
0
10
93.126062
20
625.531000
11
92.740501
21
626.034692
0
LINE
8
0
10
92.740501
20
626.034692
11
92.229300
21
626.427762
0
LINE
8
0
10
92.229300
20
626.427762
11
91.633291
21
626.673941
0
LINE
8
0
10
91.633291
20
626.673941
11
91.004300
21
626.756000
0
LINE
8
0
10
91.004300
20
626.756000
11
90.375309
21
626.673941
0
LINE
8
0
10
90.375309
20
626.673941
11
89.779300
21
626.427762
0
LINE
8
0
10
89.779300
20
626.427762
11
89.268099
21
626.034692
0
LINE
8
0
10
89.268099
20
626.034692
11
88.882538
21
625.531000
0
LINE
8
0
10
88.882538
20
625.531000
11
88.639108
21
624.945248
0
LINE
8
0
10
88.639108
20
624.945248
11
88.554300
21
624.306000
0
LINE
8
0
10
88.554300
20
624.306000
11
88.639108
21
623.666752
0
LINE
8
0
10
88.639108
20
623.666752
11
88.882538
21
623.081000
0
LINE
8
0
10
88.882538
20
623.081000
11
89.268099
21
622.577308
0
LINE
8
0
10
89.268099
20
622.577308
11
89.779300
21
622.184238
0
LINE
8
0
10
89.779300
20
622.184238
11
90.375309
21
621.938059
0
LINE
8
0
10
90.375309
20
621.938059
11
91.004300
21
621.856000
0
LINE
8
0
10
91.004300
20
621.856000
11
91.633291
21
621.938059
0
LINE
8
0
10
91.633291
20
621.938059
11
92.229300
21
622.184238
0
LINE
8
0
10
92.229300
20
622.184238
11
92.740501
21
622.577308
0
LINE
8
0
10
92.740501
20
622.577308
11
93.126062
21
623.081000
0
LINE
8
0
10
93.126062
20
623.081000
11
93.369492
21
623.666752
0
LINE
8
0
10
93.369492
20
623.666752
11
93.454300
21
624.306000
0
LINE
8
0
10
93.454300
20
624.306000
11
93.454300
21
624.306000
0
LINE
8
0
10
102.404000
20
546.436000
11
99.404400
21
546.436000
0
LINE
8
0
10
99.404400
20
546.436000
11
99.404400
21
555.986000
0
LINE
8
0
10
99.404400
20
555.986000
11
102.404000
21
555.986000
0
LINE
8
0
10
102.404000
20
555.986000
11
102.404000
21
546.436000
0
LINE
8
0
10
24.429500
20
610.711000
11
24.429500
21
607.211000
0
LINE
8
0
10
24.429500
20
607.211000
11
24.581741
21
606.445633
0
LINE
8
0
10
24.581741
20
606.445633
11
25.015286
21
605.796786
0
LINE
8
0
10
25.015286
20
605.796786
11
25.664133
21
605.363241
0
LINE
8
0
10
25.664133
20
605.363241
11
26.429500
21
605.211000
0
LINE
8
0
10
26.429500
20
605.211000
11
29.929500
21
605.211000
0
LINE
8
0
10
29.929500
20
605.211000
11
30.694867
21
605.363241
0
LINE
8
0
10
30.694867
20
605.363241
11
31.343714
21
605.796786
0
LINE
8
0
10
31.343714
20
605.796786
11
31.777259
21
606.445633
0
LINE
8
0
10
31.777259
20
606.445633
11
31.929500
21
607.211000
0
LINE
8
0
10
31.929500
20
607.211000
11
31.929500
21
610.711000
0
LINE
8
0
10
31.929500
20
610.711000
11
31.777259
21
611.476367
0
LINE
8
0
10
31.777259
20
611.476367
11
31.343714
21
612.125214
0
LINE
8
0
10
31.343714
20
612.125214
11
30.694867
21
612.558759
0
LINE
8
0
10
30.694867
20
612.558759
11
29.929500
21
612.711000
0
LINE
8
0
10
29.929500
20
612.711000
11
26.429500
21
612.711000
0
LINE
8
0
10
26.429500
20
612.711000
11
25.664133
21
612.558759
0
LINE
8
0
10
25.664133
20
612.558759
11
25.015286
21
612.125214
0
LINE
8
0
10
25.015286
20
612.125214
11
24.581741
21
611.476367
0
LINE
8
0
10
24.581741
20
611.476367
11
24.429500
21
610.711000
0
LINE
8
0
10
24.429500
20
610.711000
11
24.429500
21
610.711000
0
LINE
8
0
10
94.979400
20
616.561000
11
85.029500
21
616.561000
0
LINE
8
0
10
85.029500
20
616.561000
11
85.029500
21
613.561000
0
LINE
8
0
10
85.029500
20
613.561000
11
87.254500
21
613.561000
0
LINE
8
0
10
87.254500
20
613.561000
11
87.254500
21
604.936000
0
LINE
8
0
10
87.254500
20
604.936000
11
84.254500
21
604.936000
0
LINE
8
0
10
84.254500
20
604.936000
11
84.254500
21
613.561000
0
LINE
8
0
10
84.254500
20
613.561000
11
75.479500
21
613.561000
0
LINE
8
0
10
75.479500
20
613.561000
11
75.479500
21
616.561000
0
LINE
8
0
10
75.479500
20
616.561000
11
65.529500
21
616.561000
0
LINE
8
0
10
65.529500
20
616.561000
11
65.529500
21
613.561000
0
LINE
8
0
10
65.529500
20
613.561000
11
55.979500
21
613.561000
0
LINE
8
0
10
55.979500
20
613.561000
11
55.979500
21
616.561000
0
LINE
8
0
10
55.979500
20
616.561000
11
46.029500
21
616.561000
0
LINE
8
0
10
46.029500
20
616.561000
11
46.029500
21
613.561000
0
LINE
8
0
10
46.029500
20
613.561000
11
37.254500
21
613.561000
0
LINE
8
0
10
37.254500
20
613.561000
11
37.254500
21
604.936000
0
LINE
8
0
10
37.254500
20
604.936000
11
34.254500
21
604.936000
0
LINE
8
0
10
34.254500
20
604.936000
11
34.254500
21
613.561000
0
LINE
8
0
10
34.254500
20
613.561000
11
36.479500
21
613.561000
0
LINE
8
0
10
36.479500
20
613.561000
11
36.479500
21
616.561000
0
LINE
8
0
10
36.479500
20
616.561000
11
26.529500
21
616.561000
0
LINE
8
0
10
26.529500
20
616.561000
11
26.529500
21
613.561000
0
LINE
8
0
10
26.529500
20
613.561000
11
22.104500
21
613.561000
0
LINE
8
0
10
22.104500
20
613.561000
11
22.104500
21
604.936000
0
LINE
8
0
10
22.104500
20
604.936000
11
19.104500
21
604.936000
0
LINE
8
0
10
19.104500
20
604.936000
11
19.104500
21
616.561000
0
LINE
8
0
10
19.104500
20
616.561000
11
0.504566
21
616.561000
0
LINE
8
0
10
0.504566
20
616.561000
11
0.504566
21
466.361000
0
LINE
8
0
10
0.504566
20
466.361000
11
19.104500
21
466.361000
0
LINE
8
0
10
19.104500
20
466.361000
11
19.104500
21
477.986000
0
LINE
8
0
10
19.104500
20
477.986000
11
22.104500
21
477.986000
0
LINE
8
0
10
22.104500
20
477.986000
11
22.104500
21
485.936000
0
LINE
8
0
10
22.104500
20
485.936000
11
22.256738
21
486.701370
0
LINE
8
0
10
22.256738
20
486.701370
11
22.690283
21
487.350220
0
LINE
8
0
10
22.690283
20
487.350220
11
23.339131
21
487.783768
0
LINE
8
0
10
23.339131
20
487.783768
11
24.104500
21
487.936010
0
LINE
8
0
10
24.104500
20
487.936010
11
32.254500
21
487.936000
0
LINE
8
0
10
32.254500
20
487.936000
11
33.019869
21
487.783758
0
LINE
8
0
10
33.019869
20
487.783758
11
33.668717
21
487.350210
0
LINE
8
0
10
33.668717
20
487.350210
11
34.102262
21
486.701360
0
LINE
8
0
10
34.102262
20
486.701360
11
34.254500
21
485.935990
0
LINE
8
0
10
34.254500
20
485.935990
11
34.254500
21
469.361000
0
LINE
8
0
10
34.254500
20
469.361000
11
46.229500
21
469.361000
0
LINE
8
0
10
46.229500
20
469.361000
11
46.229500
21
466.361000
0
LINE
8
0
10
46.229500
20
466.361000
11
55.779500
21
466.361000
0
LINE
8
0
10
55.779500
20
466.361000
11
55.779500
21
469.361000
0
LINE
8
0
10
55.779500
20
469.361000
11
65.729500
21
469.361000
0
LINE
8
0
10
65.729500
20
469.361000
11
65.729500
21
466.361000
0
LINE
8
0
10
65.729500
20
466.361000
11
75.279500
21
466.361000
0
LINE
8
0
10
75.279500
20
466.361000
11
75.279500
21
469.361000
0
LINE
8
0
10
75.279500
20
469.361000
11
85.229500
21
469.361000
0
LINE
8
0
10
85.229500
20
469.361000
11
85.229500
21
466.361000
0
LINE
8
0
10
85.229500
20
466.361000
11
94.779400
21
466.361000
0
LINE
8
0
10
94.779400
20
466.361000
11
94.779400
21
469.361000
0
LINE
8
0
10
94.779400
20
469.361000
11
99.404400
21
469.361000
0
LINE
8
0
10
99.404400
20
469.361000
11
99.404400
21
477.986000
0
LINE
8
0
10
99.404400
20
477.986000
11
102.404000
21
477.986000
0
LINE
8
0
10
102.404000
20
477.986000
11
102.404000
21
466.361000
0
LINE
8
0
10
102.404000
20
466.361000
11
121.004000
21
466.361000
0
LINE
8
0
10
121.004000
20
466.361000
11
121.004000
21
616.561000
0
LINE
8
0
10
121.004000
20
616.561000
11
102.404000
21
616.561000
0
LINE
8
0
10
102.404000
20
616.561000
11
102.404000
21
604.936000
0
LINE
8
0
10
102.404000
20
604.936000
11
99.404400
21
604.936000
0
LINE
8
0
10
99.404400
20
604.936000
11
99.404400
21
613.561000
0
LINE
8
0
10
99.404400
20
613.561000
11
94.979400
21
613.561000
0
LINE
8
0
10
94.979400
20
613.561000
11
94.979400
21
616.561000
0
LINE
8
0
10
22.104500
20
546.436000
11
19.104500
21
546.436000
0
LINE
8
0
10
19.104500
20
546.436000
11
19.104500
21
555.986000
0
LINE
8
0
10
19.104500
20
555.986000
11
22.104500
21
555.986000
0
LINE
8
0
10
22.104500
20
555.986000
11
22.104500
21
546.436000
0
LINE
8
0
10
87.254500
20
507.436000
11
84.254500
21
507.436000
0
LINE
8
0
10
84.254500
20
507.436000
11
84.254500
21
516.986000
0
LINE
8
0
10
84.254500
20
516.986000
11
87.254500
21
516.986000
0
LINE
8
0
10
87.254500
20
516.986000
11
87.254500
21
507.436000
0
LINE
8
0
10
87.254500
20
497.486000
11
87.254500
21
487.936000
0
LINE
8
0
10
87.254500
20
487.936000
11
84.254500
21
487.936000
0
LINE
8
0
10
84.254500
20
487.936000
11
84.254500
21
497.486000
0
LINE
8
0
10
84.254500
20
497.486000
11
87.254500
21
497.486000
0
LINE
8
0
10
19.104500
20
507.436000
11
19.104500
21
516.986000
0
LINE
8
0
10
19.104500
20
516.986000
11
22.104500
21
516.986000
0
LINE
8
0
10
22.104500
20
516.986000
11
22.104500
21
507.436000
0
LINE
8
0
10
22.104500
20
507.436000
11
19.104500
21
507.436000
0
LINE
8
0
10
99.404400
20
516.986000
11
102.404000
21
516.986000
0
LINE
8
0
10
102.404000
20
516.986000
11
102.404000
21
507.436000
0
LINE
8
0
10
102.404000
20
507.436000
11
99.404400
21
507.436000
0
LINE
8
0
10
99.404400
20
507.436000
11
99.404400
21
516.986000
0
LINE
8
0
10
102.404000
20
565.936000
11
99.404400
21
565.936000
0
LINE
8
0
10
99.404400
20
565.936000
11
99.404400
21
575.486000
0
LINE
8
0
10
99.404400
20
575.486000
11
102.404000
21
575.486000
0
LINE
8
0
10
102.404000
20
575.486000
11
102.404000
21
565.936000
0
LINE
8
0
10
34.254500
20
594.986000
11
37.254500
21
594.986000
0
LINE
8
0
10
37.254500
20
594.986000
11
37.254500
21
585.436000
0
LINE
8
0
10
37.254500
20
585.436000
11
34.254500
21
585.436000
0
LINE
8
0
10
34.254500
20
585.436000
11
34.254500
21
594.986000
0
LINE
8
0
10
89.579500
20
610.711000
11
89.579500
21
607.211000
0
LINE
8
0
10
89.579500
20
607.211000
11
89.736668
21
606.432515
0
LINE
8
0
10
89.736668
20
606.432515
11
90.165279
21
605.796794
0
LINE
8
0
10
90.165279
20
605.796794
11
90.800996
21
605.368176
0
LINE
8
0
10
90.800996
20
605.368176
11
91.579480
21
605.211000
0
LINE
8
0
10
91.579480
20
605.211000
11
95.079500
21
605.211000
0
LINE
8
0
10
95.079500
20
605.211000
11
95.857984
21
605.368176
0
LINE
8
0
10
95.857984
20
605.368176
11
96.493701
21
605.796794
0
LINE
8
0
10
96.493701
20
605.796794
11
96.922312
21
606.432515
0
LINE
8
0
10
96.922312
20
606.432515
11
97.079480
21
607.211000
0
LINE
8
0
10
97.079480
20
607.211000
11
97.079400
21
610.711000
0
LINE
8
0
10
97.079400
20
610.711000
11
96.922232
21
611.489485
0
LINE
8
0
10
96.922232
20
611.489485
11
96.493621
21
612.125206
0
LINE
8
0
10
96.493621
20
612.125206
11
95.857904
21
612.553824
0
LINE
8
0
10
95.857904
20
612.553824
11
95.079420
21
612.711000
0
LINE
8
0
10
95.079420
20
612.711000
11
91.579400
21
612.711000
0
LINE
8
0
10
91.579400
20
612.711000
11
90.800916
21
612.553824
0
LINE
8
0
10
90.800916
20
612.553824
11
90.165199
21
612.125206
0
LINE
8
0
10
90.165199
20
612.125206
11
89.736588
21
611.489485
0
LINE
8
0
10
89.736588
20
611.489485
11
89.579420
21
610.711000
0
LINE
8
0
10
89.579420
20
610.711000
11
89.579500
21
610.711000
0
LINE
8
0
10
34.254500
20
516.986000
11
37.254500
21
516.986000
0
LINE
8
0
10
37.254500
20
516.986000
11
37.254500
21
507.436000
0
LINE
8
0
10
37.254500
20
507.436000
11
34.254500
21
507.436000
0
LINE
8
0
10
34.254500
20
507.436000
11
34.254500
21
516.986000
0
LINE
8
0
10
19.104500
20
565.936000
11
19.104500
21
575.486000
0
LINE
8
0
10
19.104500
20
575.486000
11
22.104500
21
575.486000
0
LINE
8
0
10
22.104500
20
575.486000
11
22.104500
21
565.936000
0
LINE
8
0
10
22.104500
20
565.936000
11
19.104500
21
565.936000
0
LINE
8
0
10
37.254500
20
536.486000
11
37.254500
21
526.936000
0
LINE
8
0
10
37.254500
20
526.936000
11
34.254500
21
526.936000
0
LINE
8
0
10
34.254500
20
526.936000
11
34.254500
21
536.486000
0
LINE
8
0
10
34.254500
20
536.486000
11
37.254500
21
536.486000
0
LINE
8
0
10
37.254500
20
575.486000
11
37.254500
21
565.936000
0
LINE
8
0
10
37.254500
20
565.936000
11
34.254500
21
565.936000
0
LINE
8
0
10
34.254500
20
565.936000
11
34.254500
21
575.486000
0
LINE
8
0
10
34.254500
20
575.486000
11
37.254500
21
575.486000
0
LINE
8
0
10
84.254500
20
585.436000
11
84.254500
21
594.986000
0
LINE
8
0
10
84.254500
20
594.986000
11
87.254500
21
594.986000
0
LINE
8
0
10
87.254500
20
594.986000
11
87.254500
21
585.436000
0
LINE
8
0
10
87.254500
20
585.436000
11
84.254500
21
585.436000
0
LINE
8
0
10
37.254500
20
487.936000
11
34.254500
21
487.936000
0
LINE
8
0
10
34.254500
20
487.936000
11
34.254500
21
497.486000
0
LINE
8
0
10
34.254500
20
497.486000
11
37.254500
21
497.486000
0
LINE
8
0
10
37.254500
20
497.486000
11
37.254500
21
487.936000
0
LINE
8
0
10
34.254500
20
546.436000
11
34.254500
21
555.986000
0
LINE
8
0
10
34.254500
20
555.986000
11
37.254500
21
555.986000
0
LINE
8
0
10
37.254500
20
555.986000
11
37.254500
21
546.436000
0
LINE
8
0
10
37.254500
20
546.436000
11
34.254500
21
546.436000
0
LINE
8
0
10
22.104500
20
487.936000
11
19.104500
21
487.936000
0
LINE
8
0
10
19.104500
20
487.936000
11
19.104500
21
497.486000
0
LINE
8
0
10
19.104500
20
497.486000
11
22.104500
21
497.486000
0
LINE
8
0
10
22.104500
20
497.486000
11
22.104500
21
487.936000
0
LINE
8
0
10
19.104500
20
536.486000
11
22.104500
21
536.486000
0
LINE
8
0
10
22.104500
20
536.486000
11
22.104500
21
526.936000
0
LINE
8
0
10
22.104500
20
526.936000
11
19.104500
21
526.936000
0
LINE
8
0
10
19.104500
20
526.936000
11
19.104500
21
536.486000
0
LINE
8
0
10
99.404400
20
536.486000
11
102.404000
21
536.486000
0
LINE
8
0
10
102.404000
20
536.486000
11
102.404000
21
526.936000
0
LINE
8
0
10
102.404000
20
526.936000
11
99.404400
21
526.936000
0
LINE
8
0
10
99.404400
20
526.936000
11
99.404400
21
536.486000
0
LINE
8
0
10
87.254500
20
536.486000
11
87.254500
21
526.936000
0
LINE
8
0
10
87.254500
20
526.936000
11
84.254500
21
526.936000
0
LINE
8
0
10
84.254500
20
526.936000
11
84.254500
21
536.486000
0
LINE
8
0
10
84.254500
20
536.486000
11
87.254500
21
536.486000
0
LINE
8
0
10
84.254500
20
575.486000
11
87.254500
21
575.486000
0
LINE
8
0
10
87.254500
20
575.486000
11
87.254500
21
565.936000
0
LINE
8
0
10
87.254500
20
565.936000
11
84.254500
21
565.936000
0
LINE
8
0
10
84.254500
20
565.936000
11
84.254500
21
575.486000
0
LINE
8
0
10
84.254500
20
555.986000
11
87.254500
21
555.986000
0
LINE
8
0
10
87.254500
20
555.986000
11
87.254500
21
546.436000
0
LINE
8
0
10
87.254500
20
546.436000
11
84.254500
21
546.436000
0
LINE
8
0
10
84.254500
20
546.436000
11
84.254500
21
555.986000
0
LINE
8
0
10
99.404400
20
594.986000
11
102.404000
21
594.986000
0
LINE
8
0
10
102.404000
20
594.986000
11
102.404000
21
585.436000
0
LINE
8
0
10
102.404000
20
585.436000
11
99.404400
21
585.436000
0
LINE
8
0
10
99.404400
20
585.436000
11
99.404400
21
594.986000
0
LINE
8
0
10
99.404400
20
497.486000
11
102.404000
21
497.486000
0
LINE
8
0
10
102.404000
20
497.486000
11
102.404000
21
487.936000
0
LINE
8
0
10
102.404000
20
487.936000
11
99.404400
21
487.936000
0
LINE
8
0
10
99.404400
20
487.936000
11
99.404400
21
497.486000
0
LINE
8
0
10
19.104500
20
594.986000
11
22.104500
21
594.986000
0
LINE
8
0
10
22.104500
20
594.986000
11
22.104500
21
585.436000
0
LINE
8
0
10
22.104500
20
585.436000
11
19.104500
21
585.436000
0
LINE
8
0
10
19.104500
20
585.436000
11
19.104500
21
594.986000
0
LINE
8
0
10
105.494000
20
514.706000
11
105.414198
21
515.093881
0
LINE
8
0
10
105.414198
20
515.093881
11
105.199614
21
515.410362
0
LINE
8
0
10
105.199614
20
515.410362
11
104.882226
21
515.623601
0
LINE
8
0
10
104.882226
20
515.623601
11
104.494010
21
515.701756
0
LINE
8
0
10
104.494010
20
515.701756
11
104.105794
21
515.623601
0
LINE
8
0
10
104.105794
20
515.623601
11
103.788406
21
515.410362
0
LINE
8
0
10
103.788406
20
515.410362
11
103.573822
21
515.093881
0
LINE
8
0
10
103.573822
20
515.093881
11
103.494020
21
514.706000
0
LINE
8
0
10
103.494020
20
514.706000
11
103.573822
21
514.318119
0
LINE
8
0
10
103.573822
20
514.318119
11
103.788406
21
514.001638
0
LINE
8
0
10
103.788406
20
514.001638
11
104.105794
21
513.788399
0
LINE
8
0
10
104.105794
20
513.788399
11
104.494010
21
513.710244
0
LINE
8
0
10
104.494010
20
513.710244
11
104.882226
21
513.788399
0
LINE
8
0
10
104.882226
20
513.788399
11
105.199614
21
514.001638
0
LINE
8
0
10
105.199614
20
514.001638
11
105.414198
21
514.318119
0
LINE
8
0
10
105.414198
20
514.318119
11
105.494000
21
514.706000
0
LINE
8
0
10
105.494000
20
514.706000
11
105.494000
21
514.706000
0
LINE
8
0
10
60.993600
20
514.706000
11
60.859625
21
515.206000
0
LINE
8
0
10
60.859625
20
515.206000
11
60.493600
21
515.572025
0
LINE
8
0
10
60.493600
20
515.572025
11
59.993600
21
515.705999
0
LINE
8
0
10
59.993600
20
515.705999
11
59.493600
21
515.572025
0
LINE
8
0
10
59.493600
20
515.572025
11
59.127575
21
515.206000
0
LINE
8
0
10
59.127575
20
515.206000
11
58.993601
21
514.706000
0
LINE
8
0
10
58.993601
20
514.706000
11
59.127576
21
514.206001
0
LINE
8
0
10
59.127576
20
514.206001
11
59.493601
21
513.839975
0
LINE
8
0
10
59.493601
20
513.839975
11
59.993600
21
513.706001
0
LINE
8
0
10
59.993600
20
513.706001
11
60.493600
21
513.839975
0
LINE
8
0
10
60.493600
20
513.839975
11
60.859625
21
514.206001
0
LINE
8
0
10
60.859625
20
514.206001
11
60.993599
21
514.706000
0
LINE
8
0
10
60.993599
20
514.706000
11
60.993600
21
514.706000
0
LINE
8
0
10
60.993600
20
476.606000
11
60.859625
21
477.105999
0
LINE
8
0
10
60.859625
20
477.105999
11
60.493600
21
477.472025
0
LINE
8
0
10
60.493600
20
477.472025
11
59.993600
21
477.605999
0
LINE
8
0
10
59.993600
20
477.605999
11
59.493600
21
477.472025
0
LINE
8
0
10
59.493600
20
477.472025
11
59.127575
21
477.105999
0
LINE
8
0
10
59.127575
20
477.105999
11
58.993601
21
476.606000
0
LINE
8
0
10
58.993601
20
476.606000
11
59.127576
21
476.106000
0
LINE
8
0
10
59.127576
20
476.106000
11
59.493601
21
475.739975
0
LINE
8
0
10
59.493601
20
475.739975
11
59.993600
21
475.606001
0
LINE
8
0
10
59.993600
20
475.606001
11
60.493600
21
475.739975
0
LINE
8
0
10
60.493600
20
475.739975
11
60.859625
21
476.106000
0
LINE
8
0
10
60.859625
20
476.106000
11
60.993599
21
476.606000
0
LINE
8
0
10
60.993599
20
476.606000
11
60.993600
21
476.606000
0
LINE
8
0
10
105.494000
20
476.606000
11
105.414198
21
476.993881
0
LINE
8
0
10
105.414198
20
476.993881
11
105.199614
21
477.310362
0
LINE
8
0
10
105.199614
20
477.310362
11
104.882226
21
477.523601
0
LINE
8
0
10
104.882226
20
477.523601
11
104.494010
21
477.601756
0
LINE
8
0
10
104.494010
20
477.601756
11
104.105794
21
477.523601
0
LINE
8
0
10
104.105794
20
477.523601
11
103.788406
21
477.310362
0
LINE
8
0
10
103.788406
20
477.310362
11
103.573822
21
476.993881
0
LINE
8
0
10
103.573822
20
476.993881
11
103.494020
21
476.606000
0
LINE
8
0
10
103.494020
20
476.606000
11
103.573822
21
476.218119
0
LINE
8
0
10
103.573822
20
476.218119
11
103.788406
21
475.901638
0
LINE
8
0
10
103.788406
20
475.901638
11
104.105794
21
475.688399
0
LINE
8
0
10
104.105794
20
475.688399
11
104.494010
21
475.610244
0
LINE
8
0
10
104.494010
20
475.610244
11
104.882226
21
475.688399
0
LINE
8
0
10
104.882226
20
475.688399
11
105.199614
21
475.901638
0
LINE
8
0
10
105.199614
20
475.901638
11
105.414198
21
476.218119
0
LINE
8
0
10
105.414198
20
476.218119
11
105.494000
21
476.606000
0
LINE
8
0
10
105.494000
20
476.606000
11
105.494000
21
476.606000
0
LINE
8
0
10
56.154600
20
591.402000
11
56.020625
21
591.901999
0
LINE
8
0
10
56.020625
20
591.901999
11
55.654600
21
592.268025
0
LINE
8
0
10
55.654600
20
592.268025
11
55.154600
21
592.401999
0
LINE
8
0
10
55.154600
20
592.401999
11
54.654601
21
592.268025
0
LINE
8
0
10
54.654601
20
592.268025
11
54.288575
21
591.901999
0
LINE
8
0
10
54.288575
20
591.901999
11
54.154601
21
591.402000
0
LINE
8
0
10
54.154601
20
591.402000
11
54.288576
21
590.902001
0
LINE
8
0
10
54.288576
20
590.902001
11
54.654601
21
590.535975
0
LINE
8
0
10
54.654601
20
590.535975
11
55.154601
21
590.402001
0
LINE
8
0
10
55.154601
20
590.402001
11
55.654600
21
590.535975
0
LINE
8
0
10
55.654600
20
590.535975
11
56.020625
21
590.902001
0
LINE
8
0
10
56.020625
20
590.902001
11
56.154599
21
591.402000
0
LINE
8
0
10
56.154599
20
591.402000
11
56.154600
21
591.402000
0
LINE
8
0
10
7.902150
20
592.671000
11
7.768175
21
593.170999
0
LINE
8
0
10
7.768175
20
593.170999
11
7.402149
21
593.537025
0
LINE
8
0
10
7.402149
20
593.537025
11
6.902150
21
593.670999
0
LINE
8
0
10
6.902150
20
593.670999
11
6.402150
21
593.537025
0
LINE
8
0
10
6.402150
20
593.537025
11
6.036125
21
593.170999
0
LINE
8
0
10
6.036125
20
593.170999
11
5.902151
21
592.671000
0
LINE
8
0
10
5.902151
20
592.671000
11
6.036126
21
592.171001
0
LINE
8
0
10
6.036126
20
592.171001
11
6.402151
21
591.804975
0
LINE
8
0
10
6.402151
20
591.804975
11
6.902150
21
591.671001
0
LINE
8
0
10
6.902150
20
591.671001
11
7.402150
21
591.804975
0
LINE
8
0
10
7.402150
20
591.804975
11
7.768175
21
592.171001
0
LINE
8
0
10
7.768175
20
592.171001
11
7.902149
21
592.671000
0
LINE
8
0
10
7.902149
20
592.671000
11
7.902150
21
592.671000
0
LINE
8
0
10
12.975200
20
540.602000
11
12.841225
21
541.101999
0
LINE
8
0
10
12.841225
20
541.101999
11
12.475199
21
541.468025
0
LINE
8
0
10
12.475199
20
541.468025
11
11.975200
21
541.601999
0
LINE
8
0
10
11.975200
20
541.601999
11
11.475200
21
541.468025
0
LINE
8
0
10
11.475200
20
541.468025
11
11.109175
21
541.101999
0
LINE
8
0
10
11.109175
20
541.101999
11
10.975201
21
540.602000
0
LINE
8
0
10
10.975201
20
540.602000
11
11.109176
21
540.102000
0
LINE
8
0
10
11.109176
20
540.102000
11
11.475201
21
539.735975
0
LINE
8
0
10
11.475201
20
539.735975
11
11.975200
21
539.602001
0
LINE
8
0
10
11.975200
20
539.602001
11
12.475200
21
539.735975
0
LINE
8
0
10
12.475200
20
539.735975
11
12.841225
21
540.102000
0
LINE
8
0
10
12.841225
20
540.102000
11
12.975199
21
540.602000
0
LINE
8
0
10
12.975199
20
540.602000
11
12.975200
21
540.602000
0
LINE
8
0
10
40.914700
20
540.602000
11
40.780725
21
541.101999
0
LINE
8
0
10
40.780725
20
541.101999
11
40.414700
21
541.468025
0
LINE
8
0
10
40.414700
20
541.468025
11
39.914700
21
541.601999
0
LINE
8
0
10
39.914700
20
541.601999
11
39.414701
21
541.468025
0
LINE
8
0
10
39.414701
20
541.468025
11
39.048675
21
541.101999
0
LINE
8
0
10
39.048675
20
541.101999
11
38.914701
21
540.602000
0
LINE
8
0
10
38.914701
20
540.602000
11
39.048676
21
540.102000
0
LINE
8
0
10
39.048676
20
540.102000
11
39.414701
21
539.735975
0
LINE
8
0
10
39.414701
20
539.735975
11
39.914701
21
539.602001
0
LINE
8
0
10
39.914701
20
539.602001
11
40.414700
21
539.735975
0
LINE
8
0
10
40.414700
20
539.735975
11
40.780725
21
540.102000
0
LINE
8
0
10
40.780725
20
540.102000
11
40.914700
21
540.602000
0
LINE
8
0
10
40.914700
20
540.602000
11
40.914700
21
540.602000
0
LINE
8
0
10
112.594000
20
525.120000
11
112.460021
21
525.620000
0
LINE
8
0
10
112.460021
20
525.620000
11
112.093995
21
525.986025
0
LINE
8
0
10
112.093995
20
525.986025
11
111.593995
21
526.120000
0
LINE
8
0
10
111.593995
20
526.120000
11
111.093995
21
525.986025
0
LINE
8
0
10
111.093995
20
525.986025
11
110.727970
21
525.620000
0
LINE
8
0
10
110.727970
20
525.620000
11
110.593995
21
525.120000
0
LINE
8
0
10
110.593995
20
525.120000
11
110.727972
21
524.620000
0
LINE
8
0
10
110.727972
20
524.620000
11
111.093998
21
524.253975
0
LINE
8
0
10
111.093998
20
524.253975
11
111.593998
21
524.120000
0
LINE
8
0
10
111.593998
20
524.120000
11
112.093998
21
524.253975
0
LINE
8
0
10
112.093998
20
524.253975
11
112.460023
21
524.620000
0
LINE
8
0
10
112.460023
20
524.620000
11
112.593998
21
525.120000
0
LINE
8
0
10
112.593998
20
525.120000
11
112.594000
21
525.120000
0
LINE
8
0
10
62.593600
20
525.120000
11
62.459625
21
525.620000
0
LINE
8
0
10
62.459625
20
525.620000
11
62.093599
21
525.986025
0
LINE
8
0
10
62.093599
20
525.986025
11
61.593600
21
526.119999
0
LINE
8
0
10
61.593600
20
526.119999
11
61.093601
21
525.986025
0
LINE
8
0
10
61.093601
20
525.986025
11
60.727575
21
525.620000
0
LINE
8
0
10
60.727575
20
525.620000
11
60.593601
21
525.120000
0
LINE
8
0
10
60.593601
20
525.120000
11
60.727576
21
524.620000
0
LINE
8
0
10
60.727576
20
524.620000
11
61.093601
21
524.253975
0
LINE
8
0
10
61.093601
20
524.253975
11
61.593600
21
524.120001
0
LINE
8
0
10
61.593600
20
524.120001
11
62.093600
21
524.253975
0
LINE
8
0
10
62.093600
20
524.253975
11
62.459625
21
524.620000
0
LINE
8
0
10
62.459625
20
524.620000
11
62.593599
21
525.120000
0
LINE
8
0
10
62.593599
20
525.120000
11
62.593600
21
525.120000
0
LINE
8
0
10
62.593600
20
583.119000
11
62.459625
21
583.618999
0
LINE
8
0
10
62.459625
20
583.618999
11
62.093599
21
583.985025
0
LINE
8
0
10
62.093599
20
583.985025
11
61.593600
21
584.118999
0
LINE
8
0
10
61.593600
20
584.118999
11
61.093601
21
583.985025
0
LINE
8
0
10
61.093601
20
583.985025
11
60.727575
21
583.618999
0
LINE
8
0
10
60.727575
20
583.618999
11
60.593601
21
583.119000
0
LINE
8
0
10
60.593601
20
583.119000
11
60.727576
21
582.619000
0
LINE
8
0
10
60.727576
20
582.619000
11
61.093601
21
582.252975
0
LINE
8
0
10
61.093601
20
582.252975
11
61.593600
21
582.119001
0
LINE
8
0
10
61.593600
20
582.119001
11
62.093600
21
582.252975
0
LINE
8
0
10
62.093600
20
582.252975
11
62.459625
21
582.619000
0
LINE
8
0
10
62.459625
20
582.619000
11
62.593599
21
583.119000
0
LINE
8
0
10
62.593599
20
583.119000
11
62.593600
21
583.119000
0
LINE
8
0
10
112.594000
20
583.119000
11
112.460021
21
583.619000
0
LINE
8
0
10
112.460021
20
583.619000
11
112.093995
21
583.985025
0
LINE
8
0
10
112.093995
20
583.985025
11
111.593995
21
584.119000
0
LINE
8
0
10
111.593995
20
584.119000
11
111.093995
21
583.985025
0
LINE
8
0
10
111.093995
20
583.985025
11
110.727970
21
583.619000
0
LINE
8
0
10
110.727970
20
583.619000
11
110.593995
21
583.119000
0
LINE
8
0
10
110.593995
20
583.119000
11
110.727972
21
582.619000
0
LINE
8
0
10
110.727972
20
582.619000
11
111.093998
21
582.252975
0
LINE
8
0
10
111.093998
20
582.252975
11
111.593998
21
582.119000
0
LINE
8
0
10
111.593998
20
582.119000
11
112.093998
21
582.252975
0
LINE
8
0
10
112.093998
20
582.252975
11
112.460023
21
582.619000
0
LINE
8
0
10
112.460023
20
582.619000
11
112.593998
21
583.119000
0
LINE
8
0
10
112.593998
20
583.119000
11
112.594000
21
583.119000
0
LINE
8
Layer 1
10
452.105000
20
582.607000
11
452.105000
21
572.657000
0
LINE
8
Layer 1
10
452.105000
20
572.657000
11
455.105000
21
572.657000
0
LINE
8
Layer 1
10
455.105000
20
572.657000
11
455.105000
21
563.107000
0
LINE
8
Layer 1
10
455.105000
20
563.107000
11
452.105000
21
563.107000
0
LINE
8
Layer 1
10
452.105000
20
563.107000
11
452.105000
21
554.282000
0
LINE
8
Layer 1
10
452.105000
20
554.282000
11
455.197000
21
554.282000
0
LINE
8
Layer 1
10
455.197000
20
554.282000
11
455.197000
21
554.482000
0
LINE
8
Layer 1
10
455.197000
20
554.482000
11
462.503000
21
554.482000
0
LINE
8
Layer 1
10
462.503000
20
554.482000
11
462.503000
21
551.482000
0
LINE
8
Layer 1
10
462.503000
20
551.482000
11
472.072000
21
551.482000
0
LINE
8
Layer 1
10
472.072000
20
551.482000
11
472.072000
21
554.482000
0
LINE
8
Layer 1
10
472.072000
20
554.482000
11
472.180000
21
554.482000
0
LINE
8
Layer 1
10
472.180000
20
554.482000
11
472.180000
21
572.657000
0
LINE
8
Layer 1
10
472.180000
20
572.657000
11
482.305000
21
572.657000
0
LINE
8
Layer 1
10
482.305000
20
572.657000
11
482.305000
21
582.607000
0
LINE
8
Layer 1
10
482.305000
20
582.607000
11
479.305000
21
582.607000
0
LINE
8
Layer 1
10
479.305000
20
582.607000
11
479.305000
21
592.157000
0
LINE
8
Layer 1
10
479.305000
20
592.157000
11
482.305000
21
592.157000
0
LINE
8
Layer 1
10
482.305000
20
592.157000
11
482.305000
21
602.107000
0
LINE
8
Layer 1
10
482.305000
20
602.107000
11
479.305000
21
602.107000
0
LINE
8
Layer 1
10
479.305000
20
602.107000
11
479.305000
21
611.657000
0
LINE
8
Layer 1
10
479.305000
20
611.657000
11
482.305000
21
611.657000
0
LINE
8
Layer 1
10
482.305000
20
611.657000
11
482.305000
21
621.607000
0
LINE
8
Layer 1
10
482.305000
20
621.607000
11
479.305000
21
621.607000
0
LINE
8
Layer 1
10
479.305000
20
621.607000
11
479.305000
21
631.157000
0
LINE
8
Layer 1
10
479.305000
20
631.157000
11
482.305000
21
631.157000
0
LINE
8
Layer 1
10
482.305000
20
631.157000
11
482.305000
21
641.107000
0
LINE
8
Layer 1
10
482.305000
20
641.107000
11
479.305000
21
641.107000
0
LINE
8
Layer 1
10
479.305000
20
641.107000
11
479.305000
21
650.657000
0
LINE
8
Layer 1
10
479.305000
20
650.657000
11
482.305000
21
650.657000
0
LINE
8
Layer 1
10
482.305000
20
650.657000
11
482.305000
21
660.607000
0
LINE
8
Layer 1
10
482.305000
20
660.607000
11
479.305000
21
660.607000
0
LINE
8
Layer 1
10
479.305000
20
660.607000
11
479.305000
21
670.157000
0
LINE
8
Layer 1
10
479.305000
20
670.157000
11
482.305000
21
670.157000
0
LINE
8
Layer 1
10
482.305000
20
670.157000
11
482.305000
21
680.107000
0
LINE
8
Layer 1
10
482.305000
20
680.107000
11
479.305000
21
680.107000
0
LINE
8
Layer 1
10
479.305000
20
680.107000
11
479.305000
21
689.657000
0
LINE
8
Layer 1
10
479.305000
20
689.657000
11
482.305000
21
689.657000
0
LINE
8
Layer 1
10
482.305000
20
689.657000
11
482.305000
21
698.482000
0
LINE
8
Layer 1
10
482.305000
20
698.482000
11
472.180000
21
698.482000
0
LINE
8
Layer 1
10
472.180000
20
698.482000
11
472.180000
21
701.482000
0
LINE
8
Layer 1
10
472.180000
20
701.482000
11
462.230000
21
701.482000
0
LINE
8
Layer 1
10
462.230000
20
701.482000
11
462.230000
21
698.482000
0
LINE
8
Layer 1
10
462.230000
20
698.482000
11
452.105000
21
698.482000
0
LINE
8
Layer 1
10
452.105000
20
698.482000
11
452.105000
21
689.657000
0
LINE
8
Layer 1
10
452.105000
20
689.657000
11
455.105000
21
689.657000
0
LINE
8
Layer 1
10
455.105000
20
689.657000
11
455.105000
21
680.107000
0
LINE
8
Layer 1
10
455.105000
20
680.107000
11
452.105000
21
680.107000
0
LINE
8
Layer 1
10
452.105000
20
680.107000
11
452.105000
21
670.157000
0
LINE
8
Layer 1
10
452.105000
20
670.157000
11
455.105000
21
670.157000
0
LINE
8
Layer 1
10
455.105000
20
670.157000
11
455.105000
21
660.607000
0
LINE
8
Layer 1
10
455.105000
20
660.607000
11
452.105000
21
660.607000
0
LINE
8
Layer 1
10
452.105000
20
660.607000
11
452.105000
21
650.657000
0
LINE
8
Layer 1
10
452.105000
20
650.657000
11
455.105000
21
650.657000
0
LINE
8
Layer 1
10
455.105000
20
650.657000
11
455.105000
21
641.107000
0
LINE
8
Layer 1
10
455.105000
20
641.107000
11
452.105000
21
641.107000
0
LINE
8
Layer 1
10
452.105000
20
641.107000
11
452.105000
21
631.157000
0
LINE
8
Layer 1
10
452.105000
20
631.157000
11
455.105000
21
631.157000
0
LINE
8
Layer 1
10
455.105000
20
631.157000
11
455.105000
21
621.607000
0
LINE
8
Layer 1
10
455.105000
20
621.607000
11
452.105000
21
621.607000
0
LINE
8
Layer 1
10
452.105000
20
621.607000
11
452.105000
21
611.657000
0
LINE
8
Layer 1
10
452.105000
20
611.657000
11
455.105000
21
611.657000
0
LINE
8
Layer 1
10
455.105000
20
611.657000
11
455.105000
21
602.107000
0
LINE
8
Layer 1
10
455.105000
20
602.107000
11
452.105000
21
602.107000
0
LINE
8
Layer 1
10
452.105000
20
602.107000
11
452.105000
21
592.157000
0
LINE
8
Layer 1
10
452.105000
20
592.157000
11
455.105000
21
592.157000
0
LINE
8
Layer 1
10
455.105000
20
592.157000
11
455.105000
21
582.607000
0
LINE
8
Layer 1
10
455.105000
20
582.607000
11
452.105000
21
582.607000
0
LINE
8
Layer 1
10
482.305000
20
582.607000
11
482.305000
21
572.657000
0
LINE
8
Layer 1
10
482.305000
20
572.657000
11
485.305000
21
572.657000
0
LINE
8
Layer 1
10
485.305000
20
572.657000
11
485.305000
21
563.107000
0
LINE
8
Layer 1
10
485.305000
20
563.107000
11
482.305000
21
563.107000
0
LINE
8
Layer 1
10
482.305000
20
563.107000
11
482.305000
21
554.282000
0
LINE
8
Layer 1
10
482.305000
20
554.282000
11
485.397000
21
554.282000
0
LINE
8
Layer 1
10
485.397000
20
554.282000
11
485.397000
21
554.482000
0
LINE
8
Layer 1
10
485.397000
20
554.482000
11
492.703000
21
554.482000
0
LINE
8
Layer 1
10
492.703000
20
554.482000
11
492.703000
21
551.482000
0
LINE
8
Layer 1
10
492.703000
20
551.482000
11
502.272000
21
551.482000
0
LINE
8
Layer 1
10
502.272000
20
551.482000
11
502.272000
21
554.482000
0
LINE
8
Layer 1
10
502.272000
20
554.482000
11
502.380000
21
554.482000
0
LINE
8
Layer 1
10
502.380000
20
554.482000
11
502.380000
21
572.657000
0
LINE
8
Layer 1
10
502.380000
20
572.657000
11
512.505000
21
572.657000
0
LINE
8
Layer 1
10
512.505000
20
572.657000
11
512.505000
21
582.607000
0
LINE
8
Layer 1
10
512.505000
20
582.607000
11
509.505000
21
582.607000
0
LINE
8
Layer 1
10
509.505000
20
582.607000
11
509.505000
21
592.157000
0
LINE
8
Layer 1
10
509.505000
20
592.157000
11
512.505000
21
592.157000
0
LINE
8
Layer 1
10
512.505000
20
592.157000
11
512.505000
21
602.107000
0
LINE
8
Layer 1
10
512.505000
20
602.107000
11
509.505000
21
602.107000
0
LINE
8
Layer 1
10
509.505000
20
602.107000
11
509.505000
21
611.657000
0
LINE
8
Layer 1
10
509.505000
20
611.657000
11
512.505000
21
611.657000
0
LINE
8
Layer 1
10
512.505000
20
611.657000
11
512.505000
21
621.607000
0
LINE
8
Layer 1
10
512.505000
20
621.607000
11
509.505000
21
621.607000
0
LINE
8
Layer 1
10
509.505000
20
621.607000
11
509.505000
21
631.157000
0
LINE
8
Layer 1
10
509.505000
20
631.157000
11
512.505000
21
631.157000
0
LINE
8
Layer 1
10
512.505000
20
631.157000
11
512.505000
21
641.107000
0
LINE
8
Layer 1
10
512.505000
20
641.107000
11
509.505000
21
641.107000
0
LINE
8
Layer 1
10
509.505000
20
641.107000
11
509.505000
21
650.657000
0
LINE
8
Layer 1
10
509.505000
20
650.657000
11
512.505000
21
650.657000
0
LINE
8
Layer 1
10
512.505000
20
650.657000
11
512.505000
21
660.607000
0
LINE
8
Layer 1
10
512.505000
20
660.607000
11
509.505000
21
660.607000
0
LINE
8
Layer 1
10
509.505000
20
660.607000
11
509.505000
21
670.157000
0
LINE
8
Layer 1
10
509.505000
20
670.157000
11
512.505000
21
670.157000
0
LINE
8
Layer 1
10
512.505000
20
670.157000
11
512.505000
21
680.107000
0
LINE
8
Layer 1
10
512.505000
20
680.107000
11
509.505000
21
680.107000
0
LINE
8
Layer 1
10
509.505000
20
680.107000
11
509.505000
21
689.657000
0
LINE
8
Layer 1
10
509.505000
20
689.657000
11
512.505000
21
689.657000
0
LINE
8
Layer 1
10
512.505000
20
689.657000
11
512.505000
21
698.482000
0
LINE
8
Layer 1
10
512.505000
20
698.482000
11
502.380000
21
698.482000
0
LINE
8
Layer 1
10
502.380000
20
698.482000
11
502.380000
21
701.482000
0
LINE
8
Layer 1
10
502.380000
20
701.482000
11
492.430000
21
701.482000
0
LINE
8
Layer 1
10
492.430000
20
701.482000
11
492.430000
21
698.482000
0
LINE
8
Layer 1
10
492.430000
20
698.482000
11
482.305000
21
698.482000
0
LINE
8
Layer 1
10
482.305000
20
698.482000
11
482.305000
21
689.657000
0
LINE
8
Layer 1
10
482.305000
20
689.657000
11
485.305000
21
689.657000
0
LINE
8
Layer 1
10
485.305000
20
689.657000
11
485.305000
21
680.107000
0
LINE
8
Layer 1
10
485.305000
20
680.107000
11
482.305000
21
680.107000
0
LINE
8
Layer 1
10
482.305000
20
680.107000
11
482.305000
21
670.157000
0
LINE
8
Layer 1
10
482.305000
20
670.157000
11
485.305000
21
670.157000
0
LINE
8
Layer 1
10
485.305000
20
670.157000
11
485.305000
21
660.607000
0
LINE
8
Layer 1
10
485.305000
20
660.607000
11
482.305000
21
660.607000
0
LINE
8
Layer 1
10
482.305000
20
660.607000
11
482.305000
21
650.657000
0
LINE
8
Layer 1
10
482.305000
20
650.657000
11
485.305000
21
650.657000
0
LINE
8
Layer 1
10
485.305000
20
650.657000
11
485.305000
21
641.107000
0
LINE
8
Layer 1
10
485.305000
20
641.107000
11
482.305000
21
641.107000
0
LINE
8
Layer 1
10
482.305000
20
641.107000
11
482.305000
21
631.157000
0
LINE
8
Layer 1
10
482.305000
20
631.157000
11
485.305000
21
631.157000
0
LINE
8
Layer 1
10
485.305000
20
631.157000
11
485.305000
21
621.607000
0
LINE
8
Layer 1
10
485.305000
20
621.607000
11
482.305000
21
621.607000
0
LINE
8
Layer 1
10
482.305000
20
621.607000
11
482.305000
21
611.657000
0
LINE
8
Layer 1
10
482.305000
20
611.657000
11
485.305000
21
611.657000
0
LINE
8
Layer 1
10
485.305000
20
611.657000
11
485.305000
21
602.107000
0
LINE
8
Layer 1
10
485.305000
20
602.107000
11
482.305000
21
602.107000
0
LINE
8
Layer 1
10
482.305000
20
602.107000
11
482.305000
21
592.157000
0
LINE
8
Layer 1
10
482.305000
20
592.157000
11
485.305000
21
592.157000
0
LINE
8
Layer 1
10
485.305000
20
592.157000
11
485.305000
21
582.607000
0
LINE
8
Layer 1
10
485.305000
20
582.607000
11
482.305000
21
582.607000
0
LINE
8
0
10
121.005000
20
466.361000
11
139.605000
21
466.361000
0
LINE
8
0
10
139.605000
20
466.361000
11
139.605000
21
477.986000
0
LINE
8
0
10
139.605000
20
477.986000
11
142.605000
21
477.986000
0
LINE
8
0
10
142.605000
20
477.986000
11
142.605000
21
469.361000
0
LINE
8
0
10
142.605000
20
469.361000
11
147.030000
21
469.361000
0
LINE
8
0
10
147.030000
20
469.361000
11
147.030000
21
466.561000
0
LINE
8
0
10
147.030000
20
466.561000
11
156.980000
21
466.561000
0
LINE
8
0
10
156.980000
20
466.561000
11
156.980000
21
469.361000
0
LINE
8
0
10
156.980000
20
469.361000
11
154.755000
21
469.361000
0
LINE
8
0
10
154.755000
20
469.361000
11
154.755000
21
477.986000
0
LINE
8
0
10
154.755000
20
477.986000
11
157.755000
21
477.986000
0
LINE
8
0
10
157.755000
20
477.986000
11
157.755000
21
469.361000
0
LINE
8
0
10
157.755000
20
469.361000
11
166.530000
21
469.361000
0
LINE
8
0
10
166.530000
20
469.361000
11
166.530000
21
466.361000
0
LINE
8
0
10
166.530000
20
466.361000
11
176.480000
21
466.361000
0
LINE
8
0
10
176.480000
20
466.361000
11
176.480000
21
469.361000
0
LINE
8
0
10
176.480000
20
469.361000
11
186.030000
21
469.361000
0
LINE
8
0
10
186.030000
20
469.361000
11
186.030000
21
466.361000
0
LINE
8
0
10
186.030000
20
466.361000
11
195.980000
21
466.361000
0
LINE
8
0
10
195.980000
20
466.361000
11
195.980000
21
469.361000
0
LINE
8
0
10
195.980000
20
469.361000
11
204.755000
21
469.361000
0
LINE
8
0
10
204.755000
20
469.361000
11
204.755000
21
477.986000
0
LINE
8
0
10
204.755000
20
477.986000
11
207.755000
21
477.986000
0
LINE
8
0
10
207.755000
20
477.986000
11
207.755000
21
469.361000
0
LINE
8
0
10
207.755000
20
469.361000
11
205.530000
21
469.361000
0
LINE
8
0
10
205.530000
20
469.361000
11
205.530000
21
466.361000
0
LINE
8
0
10
205.530000
20
466.361000
11
215.480000
21
466.361000
0
LINE
8
0
10
215.480000
20
466.361000
11
215.480000
21
469.361000
0
LINE
8
0
10
215.480000
20
469.361000
11
219.905000
21
469.361000
0
LINE
8
0
10
219.905000
20
469.361000
11
219.905000
21
477.986000
0
LINE
8
0
10
219.905000
20
477.986000
11
222.905000
21
477.986000
0
LINE
8
0
10
222.905000
20
477.986000
11
222.905000
21
466.361000
0
LINE
8
0
10
222.905000
20
466.361000
11
241.505000
21
466.361000
0
LINE
8
0
10
241.505000
20
466.361000
11
241.505000
21
616.561000
0
LINE
8
0
10
241.505000
20
616.561000
11
222.905000
21
616.561000
0
LINE
8
0
10
222.905000
20
616.561000
11
222.905000
21
604.936000
0
LINE
8
0
10
222.905000
20
604.936000
11
219.905000
21
604.936000
0
LINE
8
0
10
219.905000
20
604.936000
11
219.905000
21
613.561000
0
LINE
8
0
10
219.905000
20
613.561000
11
215.280000
21
613.561000
0
LINE
8
0
10
215.280000
20
613.561000
11
215.280000
21
616.561000
0
LINE
8
0
10
215.280000
20
616.561000
11
205.730000
21
616.561000
0
LINE
8
0
10
205.730000
20
616.561000
11
205.730000
21
613.561000
0
LINE
8
0
10
205.730000
20
613.561000
11
207.755000
21
613.561000
0
LINE
8
0
10
207.755000
20
613.561000
11
207.755000
21
604.936000
0
LINE
8
0
10
207.755000
20
604.936000
11
204.755000
21
604.936000
0
LINE
8
0
10
204.755000
20
604.936000
11
204.755000
21
613.561000
0
LINE
8
0
10
204.755000
20
613.561000
11
195.780000
21
613.561000
0
LINE
8
0
10
195.780000
20
613.561000
11
195.780000
21
616.561000
0
LINE
8
0
10
195.780000
20
616.561000
11
186.230000
21
616.561000
0
LINE
8
0
10
186.230000
20
616.561000
11
186.230000
21
613.561000
0
LINE
8
0
10
186.230000
20
613.561000
11
176.280000
21
613.561000
0
LINE
8
0
10
176.280000
20
613.561000
11
176.280000
21
616.561000
0
LINE
8
0
10
176.280000
20
616.561000
11
166.730000
21
616.561000
0
LINE
8
0
10
166.730000
20
616.561000
11
166.730000
21
613.561000
0
LINE
8
0
10
166.730000
20
613.561000
11
157.755000
21
613.561000
0
LINE
8
0
10
157.755000
20
613.561000
11
157.755000
21
604.936000
0
LINE
8
0
10
157.755000
20
604.936000
11
154.755000
21
604.936000
0
LINE
8
0
10
154.755000
20
604.936000
11
154.755000
21
613.561000
0
LINE
8
0
10
154.755000
20
613.561000
11
156.780000
21
613.561000
0
LINE
8
0
10
156.780000
20
613.561000
11
156.780000
21
616.561000
0
LINE
8
0
10
156.780000
20
616.561000
11
147.230000
21
616.561000
0
LINE
8
0
10
147.230000
20
616.561000
11
147.230000
21
613.561000
0
LINE
8
0
10
147.230000
20
613.561000
11
142.605000
21
613.561000
0
LINE
8
0
10
142.605000
20
613.561000
11
142.605000
21
604.936000
0
LINE
8
0
10
142.605000
20
604.936000
11
139.605000
21
604.936000
0
LINE
8
0
10
139.605000
20
604.936000
11
139.605000
21
616.561000
0
LINE
8
0
10
139.605000
20
616.561000
11
121.005000
21
616.561000
0
LINE
8
0
10
121.005000
20
616.561000
11
121.005000
21
466.361000
0
LINE
8
0
10
139.605000
20
594.986000
11
142.605000
21
594.986000
0
LINE
8
0
10
142.605000
20
594.986000
11
142.605000
21
585.436000
0
LINE
8
0
10
142.605000
20
585.436000
11
139.605000
21
585.436000
0
LINE
8
0
10
139.605000
20
585.436000
11
139.605000
21
594.986000
0
LINE
8
0
10
157.755000
20
594.986000
11
157.755000
21
585.436000
0
LINE
8
0
10
157.755000
20
585.436000
11
154.755000
21
585.436000
0
LINE
8
0
10
154.755000
20
585.436000
11
154.755000
21
594.986000
0
LINE
8
0
10
154.755000
20
594.986000
11
157.755000
21
594.986000
0
LINE
8
0
10
219.905000
20
575.486000
11
222.905000
21
575.486000
0
LINE
8
0
10
222.905000
20
575.486000
11
222.905000
21
565.936000
0
LINE
8
0
10
222.905000
20
565.936000
11
219.905000
21
565.936000
0
LINE
8
0
10
219.905000
20
565.936000
11
219.905000
21
575.486000
0
LINE
8
0
10
204.755000
20
526.936000
11
204.755000
21
536.486000
0
LINE
8
0
10
204.755000
20
536.486000
11
207.755000
21
536.486000
0
LINE
8
0
10
207.755000
20
536.486000
11
207.755000
21
526.936000
0
LINE
8
0
10
207.755000
20
526.936000
11
204.755000
21
526.936000
0
LINE
8
0
10
219.905000
20
526.936000
11
219.905000
21
536.486000
0
LINE
8
0
10
219.905000
20
536.486000
11
222.905000
21
536.486000
0
LINE
8
0
10
222.905000
20
536.486000
11
222.905000
21
526.936000
0
LINE
8
0
10
222.905000
20
526.936000
11
219.905000
21
526.936000
0
LINE
8
0
10
222.905000
20
594.986000
11
222.905000
21
585.436000
0
LINE
8
0
10
222.905000
20
585.436000
11
219.905000
21
585.436000
0
LINE
8
0
10
219.905000
20
585.436000
11
219.905000
21
594.986000
0
LINE
8
0
10
219.905000
20
594.986000
11
222.905000
21
594.986000
0
LINE
8
0
10
204.755000
20
487.936000
11
204.755000
21
497.486000
0
LINE
8
0
10
204.755000
20
497.486000
11
207.755000
21
497.486000
0
LINE
8
0
10
207.755000
20
497.486000
11
207.755000
21
487.936000
0
LINE
8
0
10
207.755000
20
487.936000
11
204.755000
21
487.936000
0
LINE
8
0
10
142.605000
20
497.486000
11
142.605000
21
487.936000
0
LINE
8
0
10
142.605000
20
487.936000
11
139.605000
21
487.936000
0
LINE
8
0
10
139.605000
20
487.936000
11
139.605000
21
497.486000
0
LINE
8
0
10
139.605000
20
497.486000
11
142.605000
21
497.486000
0
LINE
8
0
10
154.755000
20
497.486000
11
157.755000
21
497.486000
0
LINE
8
0
10
157.755000
20
497.486000
11
157.755000
21
487.936000
0
LINE
8
0
10
157.755000
20
487.936000
11
154.755000
21
487.936000
0
LINE
8
0
10
154.755000
20
487.936000
11
154.755000
21
497.486000
0
LINE
8
0
10
154.755000
20
575.486000
11
157.755000
21
575.486000
0
LINE
8
0
10
157.755000
20
575.486000
11
157.755000
21
565.936000
0
LINE
8
0
10
157.755000
20
565.936000
11
154.755000
21
565.936000
0
LINE
8
0
10
154.755000
20
565.936000
11
154.755000
21
575.486000
0
LINE
8
0
10
219.905000
20
497.486000
11
222.905000
21
497.486000
0
LINE
8
0
10
222.905000
20
497.486000
11
222.905000
21
487.936000
0
LINE
8
0
10
222.905000
20
487.936000
11
219.905000
21
487.936000
0
LINE
8
0
10
219.905000
20
487.936000
11
219.905000
21
497.486000
0
LINE
8
0
10
157.755000
20
555.986000
11
157.755000
21
546.436000
0
LINE
8
0
10
157.755000
20
546.436000
11
154.755000
21
546.436000
0
LINE
8
0
10
154.755000
20
546.436000
11
154.755000
21
555.986000
0
LINE
8
0
10
154.755000
20
555.986000
11
157.755000
21
555.986000
0
LINE
8
0
10
222.905000
20
555.986000
11
222.905000
21
546.436000
0
LINE
8
0
10
222.905000
20
546.436000
11
219.905000
21
546.436000
0
LINE
8
0
10
219.905000
20
546.436000
11
219.905000
21
555.986000
0
LINE
8
0
10
219.905000
20
555.986000
11
222.905000
21
555.986000
0
LINE
8
0
10
139.605000
20
575.486000
11
142.605000
21
575.486000
0
LINE
8
0
10
142.605000
20
575.486000
11
142.605000
21
565.936000
0
LINE
8
0
10
142.605000
20
565.936000
11
139.605000
21
565.936000
0
LINE
8
0
10
139.605000
20
565.936000
11
139.605000
21
575.486000
0
LINE
8
0
10
219.905000
20
507.436000
11
219.905000
21
516.986000
0
LINE
8
0
10
219.905000
20
516.986000
11
222.905000
21
516.986000
0
LINE
8
0
10
222.905000
20
516.986000
11
222.905000
21
507.436000
0
LINE
8
0
10
222.905000
20
507.436000
11
219.905000
21
507.436000
0
LINE
8
0
10
157.755000
20
526.936000
11
154.755000
21
526.936000
0
LINE
8
0
10
154.755000
20
526.936000
11
154.755000
21
536.486000
0
LINE
8
0
10
154.755000
20
536.486000
11
157.755000
21
536.486000
0
LINE
8
0
10
157.755000
20
536.486000
11
157.755000
21
526.936000
0
LINE
8
0
10
142.605000
20
526.936000
11
139.605000
21
526.936000
0
LINE
8
0
10
139.605000
20
526.936000
11
139.605000
21
536.486000
0
LINE
8
0
10
139.605000
20
536.486000
11
142.605000
21
536.486000
0
LINE
8
0
10
142.605000
20
536.486000
11
142.605000
21
526.936000
0
LINE
8
0
10
207.755000
20
555.986000
11
207.755000
21
546.436000
0
LINE
8
0
10
207.755000
20
546.436000
11
204.755000
21
546.436000
0
LINE
8
0
10
204.755000
20
546.436000
11
204.755000
21
555.986000
0
LINE
8
0
10
204.755000
20
555.986000
11
207.755000
21
555.986000
0
LINE
8
0
10
207.755000
20
507.436000
11
204.755000
21
507.436000
0
LINE
8
0
10
204.755000
20
507.436000
11
204.755000
21
516.986000
0
LINE
8
0
10
204.755000
20
516.986000
11
207.755000
21
516.986000
0
LINE
8
0
10
207.755000
20
516.986000
11
207.755000
21
507.436000
0
LINE
8
0
10
157.755000
20
507.436000
11
154.755000
21
507.436000
0
LINE
8
0
10
154.755000
20
507.436000
11
154.755000
21
516.986000
0
LINE
8
0
10
154.755000
20
516.986000
11
157.755000
21
516.986000
0
LINE
8
0
10
157.755000
20
516.986000
11
157.755000
21
507.436000
0
LINE
8
0
10
142.605000
20
507.436000
11
139.605000
21
507.436000
0
LINE
8
0
10
139.605000
20
507.436000
11
139.605000
21
516.986000
0
LINE
8
0
10
139.605000
20
516.986000
11
142.605000
21
516.986000
0
LINE
8
0
10
142.605000
20
516.986000
11
142.605000
21
507.436000
0
LINE
8
0
10
207.755000
20
575.486000
11
207.755000
21
565.936000
0
LINE
8
0
10
207.755000
20
565.936000
11
204.755000
21
565.936000
0
LINE
8
0
10
204.755000
20
565.936000
11
204.755000
21
575.486000
0
LINE
8
0
10
204.755000
20
575.486000
11
207.755000
21
575.486000
0
LINE
8
0
10
204.755000
20
585.436000
11
204.755000
21
594.986000
0
LINE
8
0
10
204.755000
20
594.986000
11
207.755000
21
594.986000
0
LINE
8
0
10
207.755000
20
594.986000
11
207.755000
21
585.436000
0
LINE
8
0
10
207.755000
20
585.436000
11
204.755000
21
585.436000
0
LINE
8
0
10
142.605000
20
555.986000
11
142.605000
21
546.436000
0
LINE
8
0
10
142.605000
20
546.436000
11
139.605000
21
546.436000
0
LINE
8
0
10
139.605000
20
546.436000
11
139.605000
21
555.986000
0
LINE
8
0
10
139.605000
20
555.986000
11
142.605000
21
555.986000
0
LINE
8
0
10
176.321000
20
703.961000
11
167.155000
21
703.961000
0
LINE
8
0
10
167.155000
20
703.961000
11
167.155000
21
706.961000
0
LINE
8
0
10
167.155000
20
706.961000
11
157.589000
21
706.961000
0
LINE
8
0
10
157.589000
20
706.961000
11
157.589000
21
703.961000
0
LINE
8
0
10
157.589000
20
703.961000
11
148.423000
21
703.961000
0
LINE
8
0
10
148.423000
20
703.961000
11
148.423000
21
706.961000
0
LINE
8
0
10
148.423000
20
706.961000
11
138.856000
21
706.961000
0
LINE
8
0
10
138.856000
20
706.961000
11
138.856000
21
703.961000
0
LINE
8
0
10
138.856000
20
703.961000
11
129.690000
21
703.961000
0
LINE
8
0
10
129.690000
20
703.961000
11
129.690000
21
706.961000
0
LINE
8
0
10
129.690000
20
706.961000
11
124.005000
21
706.961000
0
LINE
8
0
10
124.005000
20
706.961000
11
124.005000
21
646.761000
0
LINE
8
0
10
124.005000
20
646.761000
11
139.605000
21
646.761000
0
LINE
8
0
10
139.605000
20
646.761000
11
139.605000
21
643.761000
0
LINE
8
0
10
139.605000
20
643.761000
11
121.005000
21
643.761000
0
LINE
8
0
10
121.005000
20
643.761000
11
121.005000
21
619.561000
0
LINE
8
0
10
121.005000
20
619.561000
11
139.605000
21
619.561000
0
LINE
8
0
10
139.605000
20
619.561000
11
139.605000
21
616.561000
0
LINE
8
0
10
139.605000
20
616.561000
11
147.230000
21
616.561000
0
LINE
8
0
10
147.230000
20
616.561000
11
147.230000
21
619.561000
0
LINE
8
0
10
147.230000
20
619.561000
11
156.780000
21
619.561000
0
LINE
8
0
10
156.780000
20
619.561000
11
156.780000
21
616.561000
0
LINE
8
0
10
156.780000
20
616.561000
11
166.729000
21
616.561000
0
LINE
8
0
10
166.729000
20
616.561000
11
166.729000
21
619.561000
0
LINE
8
0
10
166.729000
20
619.561000
11
176.279000
21
619.561000
0
LINE
8
0
10
176.279000
20
619.561000
11
176.279000
21
616.561000
0
LINE
8
0
10
176.279000
20
616.561000
11
186.229000
21
616.561000
0
LINE
8
0
10
186.229000
20
616.561000
11
186.229000
21
619.561000
0
LINE
8
0
10
186.229000
20
619.561000
11
195.779000
21
619.561000
0
LINE
8
0
10
195.779000
20
619.561000
11
195.779000
21
616.561000
0
LINE
8
0
10
195.779000
20
616.561000
11
205.729000
21
616.561000
0
LINE
8
0
10
205.729000
20
616.561000
11
205.729000
21
619.561000
0
LINE
8
0
10
205.729000
20
619.561000
11
215.279000
21
619.561000
0
LINE
8
0
10
215.279000
20
619.561000
11
215.279000
21
616.561000
0
LINE
8
0
10
215.279000
20
616.561000
11
222.904000
21
616.561000
0
LINE
8
0
10
222.904000
20
616.561000
11
222.904000
21
619.561000
0
LINE
8
0
10
222.904000
20
619.561000
11
241.504000
21
619.561000
0
LINE
8
0
10
241.504000
20
619.561000
11
241.504000
21
643.761000
0
LINE
8
0
10
241.504000
20
643.761000
11
222.904000
21
643.761000
0
LINE
8
0
10
222.904000
20
643.761000
11
222.904000
21
646.761000
0
LINE
8
0
10
222.904000
20
646.761000
11
238.504000
21
646.761000
0
LINE
8
0
10
238.504000
20
646.761000
11
238.504000
21
706.961000
0
LINE
8
0
10
238.504000
20
706.961000
11
232.519000
21
706.961000
0
LINE
8
0
10
232.519000
20
706.961000
11
232.519000
21
703.961000
0
LINE
8
0
10
232.519000
20
703.961000
11
223.353000
21
703.961000
0
LINE
8
0
10
223.353000
20
703.961000
11
223.353000
21
706.961000
0
LINE
8
0
10
223.353000
20
706.961000
11
213.786000
21
706.961000
0
LINE
8
0
10
213.786000
20
706.961000
11
213.786000
21
703.961000
0
LINE
8
0
10
213.786000
20
703.961000
11
204.620000
21
703.961000
0
LINE
8
0
10
204.620000
20
703.961000
11
204.620000
21
706.961000
0
LINE
8
0
10
204.620000
20
706.961000
11
195.054000
21
706.961000
0
LINE
8
0
10
195.054000
20
706.961000
11
195.054000
21
703.961000
0
LINE
8
0
10
195.054000
20
703.961000
11
185.888000
21
703.961000
0
LINE
8
0
10
185.888000
20
703.961000
11
185.888000
21
706.961000
0
LINE
8
0
10
185.888000
20
706.961000
11
176.321000
21
706.961000
0
LINE
8
0
10
176.321000
20
706.961000
11
176.321000
21
703.961000
0
LINE
8
0
10
193.489000
20
650.714000
11
193.489000
21
661.443000
0
LINE
8
0
10
193.489000
20
661.443000
11
205.674000
21
661.443000
0
LINE
8
0
10
205.674000
20
661.443000
11
205.674000
21
650.714000
0
LINE
8
0
10
205.674000
20
650.714000
11
193.489000
21
650.714000
0
LINE
8
0
10
129.305000
20
634.161000
11
132.105000
21
634.161000
0
LINE
8
0
10
132.105000
20
634.161000
11
132.105000
21
629.161000
0
LINE
8
0
10
132.105000
20
629.161000
11
129.305000
21
629.161000
0
LINE
8
0
10
129.305000
20
629.161000
11
129.305000
21
634.161000
0
LINE
8
0
10
154.755000
20
626.886000
11
154.755000
21
636.436000
0
LINE
8
0
10
154.755000
20
636.436000
11
157.755000
21
636.436000
0
LINE
8
0
10
157.755000
20
636.436000
11
157.755000
21
626.886000
0
LINE
8
0
10
157.755000
20
626.886000
11
154.755000
21
626.886000
0
LINE
8
0
10
156.780000
20
643.761000
11
147.230000
21
643.761000
0
LINE
8
0
10
147.230000
20
643.761000
11
147.230000
21
646.761000
0
LINE
8
0
10
147.230000
20
646.761000
11
156.780000
21
646.761000
0
LINE
8
0
10
156.780000
20
646.761000
11
156.780000
21
643.761000
0
LINE
8
0
10
174.604000
20
670.894000
11
174.604000
21
687.894000
0
LINE
8
0
10
174.604000
20
687.894000
11
187.604000
21
687.894000
0
LINE
8
0
10
187.604000
20
687.894000
11
187.604000
21
670.894000
0
LINE
8
0
10
187.604000
20
670.894000
11
174.604000
21
670.894000
0
LINE
8
0
10
186.229000
20
646.761000
11
195.779000
21
646.761000
0
LINE
8
0
10
195.779000
20
646.761000
11
195.779000
21
643.761000
0
LINE
8
0
10
195.779000
20
643.761000
11
186.229000
21
643.761000
0
LINE
8
0
10
186.229000
20
643.761000
11
186.229000
21
646.761000
0
LINE
8
0
10
204.754000
20
636.436000
11
207.754000
21
636.436000
0
LINE
8
0
10
207.754000
20
636.436000
11
207.754000
21
626.867000
0
LINE
8
0
10
207.754000
20
626.867000
11
204.754000
21
626.867000
0
LINE
8
0
10
204.754000
20
626.867000
11
204.754000
21
636.436000
0
LINE
8
0
10
176.279000
20
643.761000
11
166.729000
21
643.761000
0
LINE
8
0
10
166.729000
20
643.761000
11
166.729000
21
646.761000
0
LINE
8
0
10
166.729000
20
646.761000
11
176.279000
21
646.761000
0
LINE
8
0
10
176.279000
20
646.761000
11
176.279000
21
643.761000
0
LINE
8
0
10
171.404000
20
687.894000
11
171.296820
21
688.294000
0
LINE
8
0
10
171.296820
20
688.294000
11
171.004000
21
688.586820
0
LINE
8
0
10
171.004000
20
688.586820
11
170.604000
21
688.694000
0
LINE
8
0
10
170.604000
20
688.694000
11
170.204000
21
688.586820
0
LINE
8
0
10
170.204000
20
688.586820
11
169.911180
21
688.294000
0
LINE
8
0
10
169.911180
20
688.294000
11
169.804000
21
687.894000
0
LINE
8
0
10
169.804000
20
687.894000
11
169.911180
21
687.494000
0
LINE
8
0
10
169.911180
20
687.494000
11
170.204000
21
687.201180
0
LINE
8
0
10
170.204000
20
687.201180
11
170.604000
21
687.094000
0
LINE
8
0
10
170.604000
20
687.094000
11
171.004000
21
687.201180
0
LINE
8
0
10
171.004000
20
687.201180
11
171.296820
21
687.494000
0
LINE
8
0
10
171.296820
20
687.494000
11
171.404000
21
687.894000
0
LINE
8
0
10
171.404000
20
687.894000
11
171.404000
21
687.894000
0
LINE
8
0
10
192.404000
20
687.894000
11
192.296820
21
688.294000
0
LINE
8
0
10
192.296820
20
688.294000
11
192.004000
21
688.586820
0
LINE
8
0
10
192.004000
20
688.586820
11
191.604000
21
688.694000
0
LINE
8
0
10
191.604000
20
688.694000
11
191.204000
21
688.586820
0
LINE
8
0
10
191.204000
20
688.586820
11
190.911180
21
688.294000
0
LINE
8
0
10
190.911180
20
688.294000
11
190.804000
21
687.894000
0
LINE
8
0
10
190.804000
20
687.894000
11
190.911180
21
687.494000
0
LINE
8
0
10
190.911180
20
687.494000
11
191.204000
21
687.201180
0
LINE
8
0
10
191.204000
20
687.201180
11
191.604000
21
687.094000
0
LINE
8
0
10
191.604000
20
687.094000
11
192.004000
21
687.201180
0
LINE
8
0
10
192.004000
20
687.201180
11
192.296820
21
687.494000
0
LINE
8
0
10
192.296820
20
687.494000
11
192.404000
21
687.894000
0
LINE
8
0
10
192.404000
20
687.894000
11
192.404000
21
687.894000
0
LINE
8
0
10
142.605000
20
626.886000
11
139.605000
21
626.886000
0
LINE
8
0
10
139.605000
20
626.886000
11
139.605000
21
636.436000
0
LINE
8
0
10
139.605000
20
636.436000
11
142.605000
21
636.436000
0
LINE
8
0
10
142.605000
20
636.436000
11
142.605000
21
626.886000
0
LINE
8
0
10
215.279000
20
646.761000
11
215.279000
21
643.761000
0
LINE
8
0
10
215.279000
20
643.761000
11
205.729000
21
643.761000
0
LINE
8
0
10
205.729000
20
643.761000
11
205.729000
21
646.761000
0
LINE
8
0
10
205.729000
20
646.761000
11
215.279000
21
646.761000
0
LINE
8
0
10
219.904000
20
626.867000
11
219.903947
21
636.435880
0
LINE
8
0
10
219.903947
20
636.435880
11
222.904000
21
636.436000
0
LINE
8
0
10
222.904000
20
636.436000
11
222.904000
21
626.886000
0
LINE
8
0
10
222.904000
20
626.886000
11
219.904000
21
626.867000
0
LINE
8
0
10
230.404000
20
629.161000
11
230.404000
21
634.161000
0
LINE
8
0
10
230.404000
20
634.161000
11
233.204000
21
634.161000
0
LINE
8
0
10
233.204000
20
634.161000
11
233.204000
21
629.161000
0
LINE
8
0
10
233.204000
20
629.161000
11
230.404000
21
629.161000
0
LINE
8
0
10
171.404000
20
675.394000
11
171.296820
21
675.794000
0
LINE
8
0
10
171.296820
20
675.794000
11
171.004000
21
676.086820
0
LINE
8
0
10
171.004000
20
676.086820
11
170.604000
21
676.194000
0
LINE
8
0
10
170.604000
20
676.194000
11
170.204000
21
676.086820
0
LINE
8
0
10
170.204000
20
676.086820
11
169.911180
21
675.794000
0
LINE
8
0
10
169.911180
20
675.794000
11
169.804000
21
675.394000
0
LINE
8
0
10
169.804000
20
675.394000
11
169.911180
21
674.994000
0
LINE
8
0
10
169.911180
20
674.994000
11
170.204000
21
674.701180
0
LINE
8
0
10
170.204000
20
674.701180
11
170.604000
21
674.594000
0
LINE
8
0
10
170.604000
20
674.594000
11
171.004000
21
674.701180
0
LINE
8
0
10
171.004000
20
674.701180
11
171.296820
21
674.994000
0
LINE
8
0
10
171.296820
20
674.994000
11
171.404000
21
675.394000
0
LINE
8
0
10
171.404000
20
675.394000
11
171.404000
21
675.394000
0
LINE
8
0
10
192.404000
20
675.394000
11
192.296820
21
675.794000
0
LINE
8
0
10
192.296820
20
675.794000
11
192.004000
21
676.086820
0
LINE
8
0
10
192.004000
20
676.086820
11
191.604000
21
676.194000
0
LINE
8
0
10
191.604000
20
676.194000
11
191.204000
21
676.086820
0
LINE
8
0
10
191.204000
20
676.086820
11
190.911180
21
675.794000
0
LINE
8
0
10
190.911180
20
675.794000
11
190.804000
21
675.394000
0
LINE
8
0
10
190.804000
20
675.394000
11
190.911180
21
674.994000
0
LINE
8
0
10
190.911180
20
674.994000
11
191.204000
21
674.701180
0
LINE
8
0
10
191.204000
20
674.701180
11
191.604000
21
674.594000
0
LINE
8
0
10
191.604000
20
674.594000
11
192.004000
21
674.701180
0
LINE
8
0
10
192.004000
20
674.701180
11
192.296820
21
674.994000
0
LINE
8
0
10
192.296820
20
674.994000
11
192.404000
21
675.394000
0
LINE
8
0
10
192.404000
20
675.394000
11
192.404000
21
675.394000
0
LINE
8
0
10
162.055000
20
679.394000
11
161.861044
21
680.346061
0
LINE
8
0
10
161.861044
20
680.346061
11
161.335666
21
681.123211
0
LINE
8
0
10
161.335666
20
681.123211
11
160.557456
21
681.647018
0
LINE
8
0
10
160.557456
20
681.647018
11
159.605005
21
681.839050
0
LINE
8
0
10
159.605005
20
681.839050
11
158.652554
21
681.647018
0
LINE
8
0
10
158.652554
20
681.647018
11
157.874344
21
681.123211
0
LINE
8
0
10
157.874344
20
681.123211
11
157.348966
21
680.346061
0
LINE
8
0
10
157.348966
20
680.346061
11
157.155010
21
679.394000
0
LINE
8
0
10
157.155010
20
679.394000
11
157.348966
21
678.441939
0
LINE
8
0
10
157.348966
20
678.441939
11
157.874344
21
677.664789
0
LINE
8
0
10
157.874344
20
677.664789
11
158.652554
21
677.140982
0
LINE
8
0
10
158.652554
20
677.140982
11
159.605005
21
676.948950
0
LINE
8
0
10
159.605005
20
676.948950
11
160.557456
21
677.140982
0
LINE
8
0
10
160.557456
20
677.140982
11
161.335666
21
677.664789
0
LINE
8
0
10
161.335666
20
677.664789
11
161.861044
21
678.441939
0
LINE
8
0
10
161.861044
20
678.441939
11
162.055000
21
679.394000
0
LINE
8
0
10
162.055000
20
679.394000
11
162.055000
21
679.394000
0
LINE
8
0
10
168.554000
20
696.959000
11
168.360044
21
697.911061
0
LINE
8
0
10
168.360044
20
697.911061
11
167.834666
21
698.688211
0
LINE
8
0
10
167.834666
20
698.688211
11
167.056456
21
699.212018
0
LINE
8
0
10
167.056456
20
699.212018
11
166.104005
21
699.404050
0
LINE
8
0
10
166.104005
20
699.404050
11
165.151554
21
699.212018
0
LINE
8
0
10
165.151554
20
699.212018
11
164.373344
21
698.688211
0
LINE
8
0
10
164.373344
20
698.688211
11
163.847966
21
697.911061
0
LINE
8
0
10
163.847966
20
697.911061
11
163.654010
21
696.959000
0
LINE
8
0
10
163.654010
20
696.959000
11
163.847966
21
696.006939
0
LINE
8
0
10
163.847966
20
696.006939
11
164.373344
21
695.229789
0
LINE
8
0
10
164.373344
20
695.229789
11
165.151554
21
694.705982
0
LINE
8
0
10
165.151554
20
694.705982
11
166.104005
21
694.513950
0
LINE
8
0
10
166.104005
20
694.513950
11
167.056456
21
694.705982
0
LINE
8
0
10
167.056456
20
694.705982
11
167.834666
21
695.229789
0
LINE
8
0
10
167.834666
20
695.229789
11
168.360044
21
696.006939
0
LINE
8
0
10
168.360044
20
696.006939
11
168.554000
21
696.959000
0
LINE
8
0
10
168.554000
20
696.959000
11
168.554000
21
696.959000
0
LINE
8
0
10
178.554000
20
696.959000
11
178.469192
21
697.598248
0
LINE
8
0
10
178.469192
20
697.598248
11
178.225762
21
698.184000
0
LINE
8
0
10
178.225762
20
698.184000
11
177.840201
21
698.687692
0
LINE
8
0
10
177.840201
20
698.687692
11
177.329000
21
699.080762
0
LINE
8
0
10
177.329000
20
699.080762
11
176.732991
21
699.326941
0
LINE
8
0
10
176.732991
20
699.326941
11
176.104000
21
699.409000
0
LINE
8
0
10
176.104000
20
699.409000
11
175.475009
21
699.326941
0
LINE
8
0
10
175.475009
20
699.326941
11
174.879000
21
699.080762
0
LINE
8
0
10
174.879000
20
699.080762
11
174.367799
21
698.687692
0
LINE
8
0
10
174.367799
20
698.687692
11
173.982238
21
698.184000
0
LINE
8
0
10
173.982238
20
698.184000
11
173.738808
21
697.598248
0
LINE
8
0
10
173.738808
20
697.598248
11
173.654000
21
696.959000
0
LINE
8
0
10
173.654000
20
696.959000
11
173.738808
21
696.319752
0
LINE
8
0
10
173.738808
20
696.319752
11
173.982238
21
695.734000
0
LINE
8
0
10
173.982238
20
695.734000
11
174.367799
21
695.230308
0
LINE
8
0
10
174.367799
20
695.230308
11
174.879000
21
694.837238
0
LINE
8
0
10
174.879000
20
694.837238
11
175.475009
21
694.591059
0
LINE
8
0
10
175.475009
20
694.591059
11
176.104000
21
694.509000
0
LINE
8
0
10
176.104000
20
694.509000
11
176.732991
21
694.591059
0
LINE
8
0
10
176.732991
20
694.591059
11
177.329000
21
694.837238
0
LINE
8
0
10
177.329000
20
694.837238
11
177.840201
21
695.230308
0
LINE
8
0
10
177.840201
20
695.230308
11
178.225762
21
695.734000
0
LINE
8
0
10
178.225762
20
695.734000
11
178.469192
21
696.319752
0
LINE
8
0
10
178.469192
20
696.319752
11
178.554000
21
696.959000
0
LINE
8
0
10
178.554000
20
696.959000
11
178.554000
21
696.959000
0
LINE
8
0
10
188.554000
20
696.959000
11
188.360044
21
697.911061
0
LINE
8
0
10
188.360044
20
697.911061
11
187.834666
21
698.688211
0
LINE
8
0
10
187.834666
20
698.688211
11
187.056456
21
699.212018
0
LINE
8
0
10
187.056456
20
699.212018
11
186.104005
21
699.404050
0
LINE
8
0
10
186.104005
20
699.404050
11
185.151554
21
699.212018
0
LINE
8
0
10
185.151554
20
699.212018
11
184.373344
21
698.688211
0
LINE
8
0
10
184.373344
20
698.688211
11
183.847966
21
697.911061
0
LINE
8
0
10
183.847966
20
697.911061
11
183.654010
21
696.959000
0
LINE
8
0
10
183.654010
20
696.959000
11
183.847966
21
696.006939
0
LINE
8
0
10
183.847966
20
696.006939
11
184.373344
21
695.229789
0
LINE
8
0
10
184.373344
20
695.229789
11
185.151554
21
694.705982
0
LINE
8
0
10
185.151554
20
694.705982
11
186.104005
21
694.513950
0
LINE
8
0
10
186.104005
20
694.513950
11
187.056456
21
694.705982
0
LINE
8
0
10
187.056456
20
694.705982
11
187.834666
21
695.229789
0
LINE
8
0
10
187.834666
20
695.229789
11
188.360044
21
696.006939
0
LINE
8
0
10
188.360044
20
696.006939
11
188.554000
21
696.959000
0
LINE
8
0
10
188.554000
20
696.959000
11
188.554000
21
696.959000
0
LINE
8
0
10
198.554000
20
696.959000
11
198.469192
21
697.598248
0
LINE
8
0
10
198.469192
20
697.598248
11
198.225762
21
698.184000
0
LINE
8
0
10
198.225762
20
698.184000
11
197.840201
21
698.687692
0
LINE
8
0
10
197.840201
20
698.687692
11
197.329000
21
699.080762
0
LINE
8
0
10
197.329000
20
699.080762
11
196.732991
21
699.326941
0
LINE
8
0
10
196.732991
20
699.326941
11
196.104000
21
699.409000
0
LINE
8
0
10
196.104000
20
699.409000
11
195.475009
21
699.326941
0
LINE
8
0
10
195.475009
20
699.326941
11
194.879000
21
699.080762
0
LINE
8
0
10
194.879000
20
699.080762
11
194.367799
21
698.687692
0
LINE
8
0
10
194.367799
20
698.687692
11
193.982238
21
698.184000
0
LINE
8
0
10
193.982238
20
698.184000
11
193.738808
21
697.598248
0
LINE
8
0
10
193.738808
20
697.598248
11
193.654000
21
696.959000
0
LINE
8
0
10
193.654000
20
696.959000
11
193.738808
21
696.319752
0
LINE
8
0
10
193.738808
20
696.319752
11
193.982238
21
695.734000
0
LINE
8
0
10
193.982238
20
695.734000
11
194.367799
21
695.230308
0
LINE
8
0
10
194.367799
20
695.230308
11
194.879000
21
694.837238
0
LINE
8
0
10
194.879000
20
694.837238
11
195.475009
21
694.591059
0
LINE
8
0
10
195.475009
20
694.591059
11
196.104000
21
694.509000
0
LINE
8
0
10
196.104000
20
694.509000
11
196.732991
21
694.591059
0
LINE
8
0
10
196.732991
20
694.591059
11
197.329000
21
694.837238
0
LINE
8
0
10
197.329000
20
694.837238
11
197.840201
21
695.230308
0
LINE
8
0
10
197.840201
20
695.230308
11
198.225762
21
695.734000
0
LINE
8
0
10
198.225762
20
695.734000
11
198.469192
21
696.319752
0
LINE
8
0
10
198.469192
20
696.319752
11
198.554000
21
696.959000
0
LINE
8
0
10
198.554000
20
696.959000
11
198.554000
21
696.959000
0
LINE
8
0
10
205.054000
20
679.394000
11
204.969192
21
680.033248
0
LINE
8
0
10
204.969192
20
680.033248
11
204.725762
21
680.619000
0
LINE
8
0
10
204.725762
20
680.619000
11
204.340201
21
681.122692
0
LINE
8
0
10
204.340201
20
681.122692
11
203.829000
21
681.515762
0
LINE
8
0
10
203.829000
20
681.515762
11
203.232991
21
681.761941
0
LINE
8
0
10
203.232991
20
681.761941
11
202.604000
21
681.844000
0
LINE
8
0
10
202.604000
20
681.844000
11
201.975009
21
681.761941
0
LINE
8
0
10
201.975009
20
681.761941
11
201.379000
21
681.515762
0
LINE
8
0
10
201.379000
20
681.515762
11
200.867799
21
681.122692
0
LINE
8
0
10
200.867799
20
681.122692
11
200.482238
21
680.619000
0
LINE
8
0
10
200.482238
20
680.619000
11
200.238808
21
680.033248
0
LINE
8
0
10
200.238808
20
680.033248
11
200.154000
21
679.394000
0
LINE
8
0
10
200.154000
20
679.394000
11
200.238808
21
678.754752
0
LINE
8
0
10
200.238808
20
678.754752
11
200.482238
21
678.169000
0
LINE
8
0
10
200.482238
20
678.169000
11
200.867799
21
677.665308
0
LINE
8
0
10
200.867799
20
677.665308
11
201.379000
21
677.272238
0
LINE
8
0
10
201.379000
20
677.272238
11
201.975009
21
677.026059
0
LINE
8
0
10
201.975009
20
677.026059
11
202.604000
21
676.944000
0
LINE
8
0
10
202.604000
20
676.944000
11
203.232991
21
677.026059
0
LINE
8
0
10
203.232991
20
677.026059
11
203.829000
21
677.272238
0
LINE
8
0
10
203.829000
20
677.272238
11
204.340201
21
677.665308
0
LINE
8
0
10
204.340201
20
677.665308
11
204.725762
21
678.169000
0
LINE
8
0
10
204.725762
20
678.169000
11
204.969192
21
678.754752
0
LINE
8
0
10
204.969192
20
678.754752
11
205.054000
21
679.394000
0
LINE
8
0
10
205.054000
20
679.394000
11
205.054000
21
679.394000
0
LINE
8
0
10
418.905000
20
563.107000
11
418.905000
21
572.657000
0
LINE
8
0
10
418.905000
20
572.657000
11
421.905000
21
572.657000
0
LINE
8
0
10
421.905000
20
572.657000
11
421.905000
21
582.607000
0
LINE
8
0
10
421.905000
20
582.607000
11
418.905000
21
582.607000
0
LINE
8
0
10
418.905000
20
582.607000
11
418.905000
21
592.157000
0
LINE
8
0
10
418.905000
20
592.157000
11
421.905000
21
592.157000
0
LINE
8
0
10
421.905000
20
592.157000
11
421.905000
21
602.107000
0
LINE
8
0
10
421.905000
20
602.107000
11
418.905000
21
602.107000
0
LINE
8
0
10
418.905000
20
602.107000
11
418.905000
21
611.657000
0
LINE
8
0
10
418.905000
20
611.657000
11
421.905000
21
611.657000
0
LINE
8
0
10
421.905000
20
611.657000
11
421.905000
21
621.606000
0
LINE
8
0
10
421.905000
20
621.606000
11
418.905000
21
621.606000
0
LINE
8
0
10
418.905000
20
621.606000
11
418.905000
21
631.156000
0
LINE
8
0
10
418.905000
20
631.156000
11
421.905000
21
631.156000
0
LINE
8
0
10
421.905000
20
631.156000
11
421.905000
21
641.106000
0
LINE
8
0
10
421.905000
20
641.106000
11
418.905000
21
641.106000
0
LINE
8
0
10
418.905000
20
641.106000
11
418.905000
21
650.656000
0
LINE
8
0
10
418.905000
20
650.656000
11
421.905000
21
650.656000
0
LINE
8
0
10
421.905000
20
650.656000
11
421.905000
21
660.606000
0
LINE
8
0
10
421.905000
20
660.606000
11
418.905000
21
660.606000
0
LINE
8
0
10
418.905000
20
660.606000
11
418.905000
21
670.156000
0
LINE
8
0
10
418.905000
20
670.156000
11
421.905000
21
670.156000
0
LINE
8
0
10
421.905000
20
670.156000
11
421.905000
21
680.106000
0
LINE
8
0
10
421.905000
20
680.106000
11
418.905000
21
680.106000
0
LINE
8
0
10
418.905000
20
680.106000
11
418.905000
21
689.656000
0
LINE
8
0
10
418.905000
20
689.656000
11
421.905000
21
689.656000
0
LINE
8
0
10
421.905000
20
689.656000
11
421.905000
21
698.481000
0
LINE
8
0
10
421.905000
20
698.481000
11
411.780000
21
698.481000
0
LINE
8
0
10
411.780000
20
698.481000
11
411.780000
21
701.481000
0
LINE
8
0
10
411.780000
20
701.481000
11
401.825000
21
701.481000
0
LINE
8
0
10
401.825000
20
701.481000
11
401.825000
21
698.481000
0
LINE
8
0
10
401.825000
20
698.481000
11
391.705000
21
698.481000
0
LINE
8
0
10
391.705000
20
698.481000
11
391.705000
21
689.656000
0
LINE
8
0
10
391.705000
20
689.656000
11
394.705000
21
689.656000
0
LINE
8
0
10
394.705000
20
689.656000
11
394.705000
21
680.106000
0
LINE
8
0
10
394.705000
20
680.106000
11
391.705000
21
680.106000
0
LINE
8
0
10
391.705000
20
680.106000
11
391.705000
21
670.156000
0
LINE
8
0
10
391.705000
20
670.156000
11
394.705000
21
670.156000
0
LINE
8
0
10
394.705000
20
670.156000
11
394.705000
21
660.606000
0
LINE
8
0
10
394.705000
20
660.606000
11
391.705000
21
660.606000
0
LINE
8
0
10
391.705000
20
660.606000
11
391.705000
21
650.656000
0
LINE
8
0
10
391.705000
20
650.656000
11
394.705000
21
650.656000
0
LINE
8
0
10
394.705000
20
650.656000
11
394.705000
21
641.106000
0
LINE
8
0
10
394.705000
20
641.106000
11
391.705000
21
641.106000
0
LINE
8
0
10
391.705000
20
641.106000
11
391.705000
21
631.156000
0
LINE
8
0
10
391.705000
20
631.156000
11
394.705000
21
631.156000
0
LINE
8
0
10
394.705000
20
631.156000
11
394.705000
21
621.606000
0
LINE
8
0
10
394.705000
20
621.606000
11
391.705000
21
621.606000
0
LINE
8
0
10
391.705000
20
621.606000
11
391.705000
21
611.657000
0
LINE
8
0
10
391.705000
20
611.657000
11
394.705000
21
611.657000
0
LINE
8
0
10
394.705000
20
611.657000
11
394.705000
21
602.107000
0
LINE
8
0
10
394.705000
20
602.107000
11
391.705000
21
602.107000
0
LINE
8
0
10
391.705000
20
602.107000
11
391.705000
21
592.157000
0
LINE
8
0
10
391.705000
20
592.157000
11
394.705000
21
592.157000
0
LINE
8
0
10
394.705000
20
592.157000
11
394.705000
21
582.607000
0
LINE
8
0
10
394.705000
20
582.607000
11
391.705000
21
582.607000
0
LINE
8
0
10
391.705000
20
582.607000
11
391.705000
21
572.657000
0
LINE
8
0
10
391.705000
20
572.657000
11
394.705000
21
572.657000
0
LINE
8
0
10
394.705000
20
572.657000
11
394.705000
21
563.107000
0
LINE
8
0
10
394.705000
20
563.107000
11
391.705000
21
563.107000
0
LINE
8
0
10
391.705000
20
563.107000
11
391.705000
21
554.282000
0
LINE
8
0
10
391.705000
20
554.282000
11
402.112000
21
554.282000
0
LINE
8
0
10
402.112000
20
554.282000
11
402.112000
21
551.282000
0
LINE
8
0
10
402.112000
20
551.282000
11
411.662000
21
551.282000
0
LINE
8
0
10
411.662000
20
551.282000
11
411.662000
21
554.282000
0
LINE
8
0
10
411.662000
20
554.282000
11
421.905000
21
554.282000
0
LINE
8
0
10
421.905000
20
554.282000
11
421.905000
21
563.107000
0
LINE
8
0
10
421.905000
20
563.107000
11
418.905000
21
563.107000
0
LINE
8
0
10
412.005000
20
619.031000
11
401.605000
21
619.031000
0
LINE
8
0
10
401.605000
20
619.031000
11
400.916170
21
618.893983
0
LINE
8
0
10
400.916170
20
618.893983
11
400.332208
21
618.503792
0
LINE
8
0
10
400.332208
20
618.503792
11
399.942017
21
617.919830
0
LINE
8
0
10
399.942017
20
617.919830
11
399.805000
21
617.231000
0
LINE
8
0
10
399.805000
20
617.231000
11
399.805000
21
596.832000
0
LINE
8
0
10
399.805000
20
596.832000
11
399.942017
21
596.143170
0
LINE
8
0
10
399.942017
20
596.143170
11
400.332208
21
595.559208
0
LINE
8
0
10
400.332208
20
595.559208
11
400.916170
21
595.169017
0
LINE
8
0
10
400.916170
20
595.169017
11
401.605000
21
595.032000
0
LINE
8
0
10
401.605000
20
595.032000
11
412.005000
21
595.032000
0
LINE
8
0
10
412.005000
20
595.032000
11
412.693830
21
595.169017
0
LINE
8
0
10
412.693830
20
595.169017
11
413.277792
21
595.559208
0
LINE
8
0
10
413.277792
20
595.559208
11
413.667983
21
596.143170
0
LINE
8
0
10
413.667983
20
596.143170
11
413.805000
21
596.832000
0
LINE
8
0
10
413.805000
20
596.832000
11
413.805000
21
617.231000
0
LINE
8
0
10
413.805000
20
617.231000
11
413.667983
21
617.919830
0
LINE
8
0
10
413.667983
20
617.919830
11
413.277792
21
618.503792
0
LINE
8
0
10
413.277792
20
618.503792
11
412.693830
21
618.893983
0
LINE
8
0
10
412.693830
20
618.893983
11
412.005000
21
619.031000
0
LINE
8
0
10
412.005000
20
619.031000
11
412.005000
21
619.031000
0
LINE
8
0
10
416.955000
20
585.632000
11
416.774134
21
586.307000
0
LINE
8
0
10
416.774134
20
586.307000
11
416.280000
21
586.801134
0
LINE
8
0
10
416.280000
20
586.801134
11
415.605000
21
586.982000
0
LINE
8
0
10
415.605000
20
586.982000
11
414.930000
21
586.801134
0
LINE
8
0
10
414.930000
20
586.801134
11
414.435866
21
586.307000
0
LINE
8
0
10
414.435866
20
586.307000
11
414.255000
21
585.632000
0
LINE
8
0
10
414.255000
20
585.632000
11
414.435866
21
584.957000
0
LINE
8
0
10
414.435866
20
584.957000
11
414.930000
21
584.462866
0
LINE
8
0
10
414.930000
20
584.462866
11
415.605000
21
584.282000
0
LINE
8
0
10
415.605000
20
584.282000
11
416.280000
21
584.462866
0
LINE
8
0
10
416.280000
20
584.462866
11
416.774134
21
584.957000
0
LINE
8
0
10
416.774134
20
584.957000
11
416.955000
21
585.632000
0
LINE
8
0
10
416.955000
20
585.632000
11
416.955000
21
585.632000
0
LINE
8
0
10
399.355000
20
585.632000
11
399.248910
21
586.157481
0
LINE
8
0
10
399.248910
20
586.157481
11
398.959594
21
586.586594
0
LINE
8
0
10
398.959594
20
586.586594
11
398.530481
21
586.875910
0
LINE
8
0
10
398.530481
20
586.875910
11
398.005000
21
586.982000
0
LINE
8
0
10
398.005000
20
586.982000
11
397.479519
21
586.875910
0
LINE
8
0
10
397.479519
20
586.875910
11
397.050406
21
586.586594
0
LINE
8
0
10
397.050406
20
586.586594
11
396.761090
21
586.157481
0
LINE
8
0
10
396.761090
20
586.157481
11
396.655000
21
585.632000
0
LINE
8
0
10
396.655000
20
585.632000
11
396.761090
21
585.106519
0
LINE
8
0
10
396.761090
20
585.106519
11
397.050406
21
584.677406
0
LINE
8
0
10
397.050406
20
584.677406
11
397.479519
21
584.388090
0
LINE
8
0
10
397.479519
20
584.388090
11
398.005000
21
584.282000
0
LINE
8
0
10
398.005000
20
584.282000
11
398.530481
21
584.388090
0
LINE
8
0
10
398.530481
20
584.388090
11
398.959594
21
584.677406
0
LINE
8
0
10
398.959594
20
584.677406
11
399.248910
21
585.106519
0
LINE
8
0
10
399.248910
20
585.106519
11
399.355000
21
585.632000
0
LINE
8
0
10
399.355000
20
585.632000
11
399.355000
21
585.632000
0
LINE
8
0
10
401.605000
20
633.731000
11
400.916170
21
633.868017
0
LINE
8
0
10
400.916170
20
633.868017
11
400.332208
21
634.258208
0
LINE
8
0
10
400.332208
20
634.258208
11
399.942017
21
634.842170
0
LINE
8
0
10
399.942017
20
634.842170
11
399.805000
21
635.531000
0
LINE
8
0
10
399.805000
20
635.531000
11
399.805000
21
655.931000
0
LINE
8
0
10
399.805000
20
655.931000
11
399.942017
21
656.619830
0
LINE
8
0
10
399.942017
20
656.619830
11
400.332208
21
657.203792
0
LINE
8
0
10
400.332208
20
657.203792
11
400.916170
21
657.593983
0
LINE
8
0
10
400.916170
20
657.593983
11
401.605000
21
657.731000
0
LINE
8
0
10
401.605000
20
657.731000
11
412.005000
21
657.731000
0
LINE
8
0
10
412.005000
20
657.731000
11
412.693830
21
657.593983
0
LINE
8
0
10
412.693830
20
657.593983
11
413.277792
21
657.203792
0
LINE
8
0
10
413.277792
20
657.203792
11
413.667983
21
656.619830
0
LINE
8
0
10
413.667983
20
656.619830
11
413.805000
21
655.931000
0
LINE
8
0
10
413.805000
20
655.931000
11
413.805000
21
635.531000
0
LINE
8
0
10
413.805000
20
635.531000
11
413.667983
21
634.842170
0
LINE
8
0
10
413.667983
20
634.842170
11
413.277792
21
634.258208
0
LINE
8
0
10
413.277792
20
634.258208
11
412.693830
21
633.868017
0
LINE
8
0
10
412.693830
20
633.868017
11
412.005000
21
633.731000
0
LINE
8
0
10
412.005000
20
633.731000
11
401.605000
21
633.731000
0
LINE
8
0
10
416.955000
20
667.131000
11
416.774134
21
667.806000
0
LINE
8
0
10
416.774134
20
667.806000
11
416.280000
21
668.300134
0
LINE
8
0
10
416.280000
20
668.300134
11
415.605000
21
668.481000
0
LINE
8
0
10
415.605000
20
668.481000
11
414.930000
21
668.300134
0
LINE
8
0
10
414.930000
20
668.300134
11
414.435866
21
667.806000
0
LINE
8
0
10
414.435866
20
667.806000
11
414.255000
21
667.131000
0
LINE
8
0
10
414.255000
20
667.131000
11
414.435866
21
666.456000
0
LINE
8
0
10
414.435866
20
666.456000
11
414.930000
21
665.961866
0
LINE
8
0
10
414.930000
20
665.961866
11
415.605000
21
665.781000
0
LINE
8
0
10
415.605000
20
665.781000
11
416.280000
21
665.961866
0
LINE
8
0
10
416.280000
20
665.961866
11
416.774134
21
666.456000
0
LINE
8
0
10
416.774134
20
666.456000
11
416.955000
21
667.131000
0
LINE
8
0
10
416.955000
20
667.131000
11
416.955000
21
667.131000
0
LINE
8
0
10
410.480000
20
686.981000
11
410.404280
21
687.720700
0
LINE
8
0
10
410.404280
20
687.720700
11
410.189457
21
688.409529
0
LINE
8
0
10
410.189457
20
688.409529
11
409.401478
21
689.575698
0
LINE
8
0
10
409.401478
20
689.575698
11
408.234011
21
690.361752
0
LINE
8
0
10
408.234011
20
690.361752
11
407.544829
21
690.575438
0
LINE
8
0
10
407.544829
20
690.575438
11
406.805005
21
690.649938
0
LINE
8
0
10
406.805005
20
690.649938
11
406.065181
21
690.575438
0
LINE
8
0
10
406.065181
20
690.575438
11
405.375999
21
690.361752
0
LINE
8
0
10
405.375999
20
690.361752
11
404.208532
21
689.575698
0
LINE
8
0
10
404.208532
20
689.575698
11
403.420553
21
688.409529
0
LINE
8
0
10
403.420553
20
688.409529
11
403.205730
21
687.720700
0
LINE
8
0
10
403.205730
20
687.720700
11
403.130010
21
686.981000
0
LINE
8
0
10
403.130010
20
686.981000
11
403.205730
21
686.241300
0
LINE
8
0
10
403.205730
20
686.241300
11
403.420553
21
685.552471
0
LINE
8
0
10
403.420553
20
685.552471
11
404.208532
21
684.386302
0
LINE
8
0
10
404.208532
20
684.386302
11
405.375999
21
683.600248
0
LINE
8
0
10
405.375999
20
683.600248
11
406.065181
21
683.386562
0
LINE
8
0
10
406.065181
20
683.386562
11
406.805005
21
683.312062
0
LINE
8
0
10
406.805005
20
683.312062
11
407.544829
21
683.386562
0
LINE
8
0
10
407.544829
20
683.386562
11
408.234011
21
683.600248
0
LINE
8
0
10
408.234011
20
683.600248
11
409.401478
21
684.386302
0
LINE
8
0
10
409.401478
20
684.386302
11
410.189457
21
685.552471
0
LINE
8
0
10
410.189457
20
685.552471
11
410.404280
21
686.241300
0
LINE
8
0
10
410.404280
20
686.241300
11
410.480000
21
686.981000
0
LINE
8
0
10
410.480000
20
686.981000
11
410.480000
21
686.981000
0
LINE
8
0
10
399.355000
20
667.131000
11
399.248910
21
667.656481
0
LINE
8
0
10
399.248910
20
667.656481
11
398.959594
21
668.085594
0
LINE
8
0
10
398.959594
20
668.085594
11
398.530481
21
668.374910
0
LINE
8
0
10
398.530481
20
668.374910
11
398.005000
21
668.481000
0
LINE
8
0
10
398.005000
20
668.481000
11
397.479519
21
668.374910
0
LINE
8
0
10
397.479519
20
668.374910
11
397.050406
21
668.085594
0
LINE
8
0
10
397.050406
20
668.085594
11
396.761090
21
667.656481
0
LINE
8
0
10
396.761090
20
667.656481
11
396.655000
21
667.131000
0
LINE
8
0
10
396.655000
20
667.131000
11
396.761090
21
666.605519
0
LINE
8
0
10
396.761090
20
666.605519
11
397.050406
21
666.176406
0
LINE
8
0
10
397.050406
20
666.176406
11
397.479519
21
665.887090
0
LINE
8
0
10
397.479519
20
665.887090
11
398.005000
21
665.781000
0
LINE
8
0
10
398.005000
20
665.781000
11
398.530481
21
665.887090
0
LINE
8
0
10
398.530481
20
665.887090
11
398.959594
21
666.176406
0
LINE
8
0
10
398.959594
20
666.176406
11
399.248910
21
666.605519
0
LINE
8
0
10
399.248910
20
666.605519
11
399.355000
21
667.131000
0
LINE
8
0
10
399.355000
20
667.131000
11
399.355000
21
667.131000
0
LINE
8
0
10
410.480000
20
565.782000
11
410.404280
21
566.521700
0
LINE
8
0
10
410.404280
20
566.521700
11
410.189457
21
567.210529
0
LINE
8
0
10
410.189457
20
567.210529
11
409.401478
21
568.376698
0
LINE
8
0
10
409.401478
20
568.376698
11
408.234011
21
569.162752
0
LINE
8
0
10
408.234011
20
569.162752
11
407.544829
21
569.376438
0
LINE
8
0
10
407.544829
20
569.376438
11
406.805005
21
569.450938
0
LINE
8
0
10
406.805005
20
569.450938
11
406.065181
21
569.376438
0
LINE
8
0
10
406.065181
20
569.376438
11
405.375999
21
569.162752
0
LINE
8
0
10
405.375999
20
569.162752
11
404.208532
21
568.376698
0
LINE
8
0
10
404.208532
20
568.376698
11
403.420553
21
567.210529
0
LINE
8
0
10
403.420553
20
567.210529
11
403.205730
21
566.521700
0
LINE
8
0
10
403.205730
20
566.521700
11
403.130010
21
565.782000
0
LINE
8
0
10
403.130010
20
565.782000
11
403.205730
21
565.042300
0
LINE
8
0
10
403.205730
20
565.042300
11
403.420553
21
564.353471
0
LINE
8
0
10
403.420553
20
564.353471
11
404.208532
21
563.187302
0
LINE
8
0
10
404.208532
20
563.187302
11
405.375999
21
562.401248
0
LINE
8
0
10
405.375999
20
562.401248
11
406.065181
21
562.187562
0
LINE
8
0
10
406.065181
20
562.187562
11
406.805005
21
562.113062
0
LINE
8
0
10
406.805005
20
562.113062
11
407.544829
21
562.187562
0
LINE
8
0
10
407.544829
20
562.187562
11
408.234011
21
562.401248
0
LINE
8
0
10
408.234011
20
562.401248
11
409.401478
21
563.187302
0
LINE
8
0
10
409.401478
20
563.187302
11
410.189457
21
564.353471
0
LINE
8
0
10
410.189457
20
564.353471
11
410.404280
21
565.042300
0
LINE
8
0
10
410.404280
20
565.042300
11
410.480000
21
565.782000
0
LINE
8
0
10
410.480000
20
565.782000
11
410.480000
21
565.782000
0
LINE
8
0
10
449.105000
20
563.107000
11
449.105000
21
572.657000
0
LINE
8
0
10
449.105000
20
572.657000
11
452.105000
21
572.657000
0
LINE
8
0
10
452.105000
20
572.657000
11
452.105000
21
582.607000
0
LINE
8
0
10
452.105000
20
582.607000
11
449.105000
21
582.607000
0
LINE
8
0
10
449.105000
20
582.607000
11
449.105000
21
592.157000
0
LINE
8
0
10
449.105000
20
592.157000
11
452.105000
21
592.157000
0
LINE
8
0
10
452.105000
20
592.157000
11
452.105000
21
602.107000
0
LINE
8
0
10
452.105000
20
602.107000
11
449.105000
21
602.107000
0
LINE
8
0
10
449.105000
20
602.107000
11
449.105000
21
611.657000
0
LINE
8
0
10
449.105000
20
611.657000
11
452.105000
21
611.657000
0
LINE
8
0
10
452.105000
20
611.657000
11
452.105000
21
621.606000
0
LINE
8
0
10
452.105000
20
621.606000
11
449.105000
21
621.606000
0
LINE
8
0
10
449.105000
20
621.606000
11
449.105000
21
631.156000
0
LINE
8
0
10
449.105000
20
631.156000
11
452.105000
21
631.156000
0
LINE
8
0
10
452.105000
20
631.156000
11
452.105000
21
641.106000
0
LINE
8
0
10
452.105000
20
641.106000
11
449.105000
21
641.106000
0
LINE
8
0
10
449.105000
20
641.106000
11
449.105000
21
650.656000
0
LINE
8
0
10
449.105000
20
650.656000
11
452.105000
21
650.656000
0
LINE
8
0
10
452.105000
20
650.656000
11
452.105000
21
660.606000
0
LINE
8
0
10
452.105000
20
660.606000
11
449.105000
21
660.606000
0
LINE
8
0
10
449.105000
20
660.606000
11
449.105000
21
670.156000
0
LINE
8
0
10
449.105000
20
670.156000
11
452.105000
21
670.156000
0
LINE
8
0
10
452.105000
20
670.156000
11
452.105000
21
680.106000
0
LINE
8
0
10
452.105000
20
680.106000
11
449.105000
21
680.106000
0
LINE
8
0
10
449.105000
20
680.106000
11
449.105000
21
689.656000
0
LINE
8
0
10
449.105000
20
689.656000
11
452.105000
21
689.656000
0
LINE
8
0
10
452.105000
20
689.656000
11
452.105000
21
698.481000
0
LINE
8
0
10
452.105000
20
698.481000
11
441.980000
21
698.481000
0
LINE
8
0
10
441.980000
20
698.481000
11
441.980000
21
701.481000
0
LINE
8
0
10
441.980000
20
701.481000
11
432.025000
21
701.481000
0
LINE
8
0
10
432.025000
20
701.481000
11
432.025000
21
698.481000
0
LINE
8
0
10
432.025000
20
698.481000
11
421.905000
21
698.481000
0
LINE
8
0
10
421.905000
20
698.481000
11
421.905000
21
689.656000
0
LINE
8
0
10
421.905000
20
689.656000
11
424.905000
21
689.656000
0
LINE
8
0
10
424.905000
20
689.656000
11
424.905000
21
680.106000
0
LINE
8
0
10
424.905000
20
680.106000
11
421.905000
21
680.106000
0
LINE
8
0
10
421.905000
20
680.106000
11
421.905000
21
670.156000
0
LINE
8
0
10
421.905000
20
670.156000
11
424.905000
21
670.156000
0
LINE
8
0
10
424.905000
20
670.156000
11
424.905000
21
660.606000
0
LINE
8
0
10
424.905000
20
660.606000
11
421.905000
21
660.606000
0
LINE
8
0
10
421.905000
20
660.606000
11
421.905000
21
650.656000
0
LINE
8
0
10
421.905000
20
650.656000
11
424.905000
21
650.656000
0
LINE
8
0
10
424.905000
20
650.656000
11
424.905000
21
641.106000
0
LINE
8
0
10
424.905000
20
641.106000
11
421.905000
21
641.106000
0
LINE
8
0
10
421.905000
20
641.106000
11
421.905000
21
631.156000
0
LINE
8
0
10
421.905000
20
631.156000
11
424.905000
21
631.156000
0
LINE
8
0
10
424.905000
20
631.156000
11
424.905000
21
621.606000
0
LINE
8
0
10
424.905000
20
621.606000
11
421.905000
21
621.606000
0
LINE
8
0
10
421.905000
20
621.606000
11
421.905000
21
611.657000
0
LINE
8
0
10
421.905000
20
611.657000
11
424.905000
21
611.657000
0
LINE
8
0
10
424.905000
20
611.657000
11
424.905000
21
602.107000
0
LINE
8
0
10
424.905000
20
602.107000
11
421.905000
21
602.107000
0
LINE
8
0
10
421.905000
20
602.107000
11
421.905000
21
592.157000
0
LINE
8
0
10
421.905000
20
592.157000
11
424.905000
21
592.157000
0
LINE
8
0
10
424.905000
20
592.157000
11
424.905000
21
582.607000
0
LINE
8
0
10
424.905000
20
582.607000
11
421.905000
21
582.607000
0
LINE
8
0
10
421.905000
20
582.607000
11
421.905000
21
572.657000
0
LINE
8
0
10
421.905000
20
572.657000
11
424.905000
21
572.657000
0
LINE
8
0
10
424.905000
20
572.657000
11
424.905000
21
563.107000
0
LINE
8
0
10
424.905000
20
563.107000
11
421.905000
21
563.107000
0
LINE
8
0
10
421.905000
20
563.107000
11
421.905000
21
554.282000
0
LINE
8
0
10
421.905000
20
554.282000
11
432.312000
21
554.282000
0
LINE
8
0
10
432.312000
20
554.282000
11
432.312000
21
551.282000
0
LINE
8
0
10
432.312000
20
551.282000
11
441.862000
21
551.282000
0
LINE
8
0
10
441.862000
20
551.282000
11
441.862000
21
554.282000
0
LINE
8
0
10
441.862000
20
554.282000
11
452.105000
21
554.282000
0
LINE
8
0
10
452.105000
20
554.282000
11
452.105000
21
563.107000
0
LINE
8
0
10
452.105000
20
563.107000
11
449.105000
21
563.107000
0
LINE
8
0
10
442.205000
20
619.031000
11
431.805000
21
619.031000
0
LINE
8
0
10
431.805000
20
619.031000
11
431.116170
21
618.893983
0
LINE
8
0
10
431.116170
20
618.893983
11
430.532208
21
618.503792
0
LINE
8
0
10
430.532208
20
618.503792
11
430.142017
21
617.919830
0
LINE
8
0
10
430.142017
20
617.919830
11
430.005000
21
617.231000
0
LINE
8
0
10
430.005000
20
617.231000
11
430.005000
21
596.832000
0
LINE
8
0
10
430.005000
20
596.832000
11
430.142017
21
596.143170
0
LINE
8
0
10
430.142017
20
596.143170
11
430.532208
21
595.559208
0
LINE
8
0
10
430.532208
20
595.559208
11
431.116170
21
595.169017
0
LINE
8
0
10
431.116170
20
595.169017
11
431.805000
21
595.032000
0
LINE
8
0
10
431.805000
20
595.032000
11
442.205000
21
595.032000
0
LINE
8
0
10
442.205000
20
595.032000
11
442.893830
21
595.169017
0
LINE
8
0
10
442.893830
20
595.169017
11
443.477792
21
595.559208
0
LINE
8
0
10
443.477792
20
595.559208
11
443.867983
21
596.143170
0
LINE
8
0
10
443.867983
20
596.143170
11
444.005000
21
596.832000
0
LINE
8
0
10
444.005000
20
596.832000
11
444.005000
21
617.231000
0
LINE
8
0
10
444.005000
20
617.231000
11
443.867983
21
617.919830
0
LINE
8
0
10
443.867983
20
617.919830
11
443.477792
21
618.503792
0
LINE
8
0
10
443.477792
20
618.503792
11
442.893830
21
618.893983
0
LINE
8
0
10
442.893830
20
618.893983
11
442.205000
21
619.031000
0
LINE
8
0
10
442.205000
20
619.031000
11
442.205000
21
619.031000
0
LINE
8
0
10
447.155000
20
585.632000
11
446.974134
21
586.307000
0
LINE
8
0
10
446.974134
20
586.307000
11
446.480000
21
586.801134
0
LINE
8
0
10
446.480000
20
586.801134
11
445.805000
21
586.982000
0
LINE
8
0
10
445.805000
20
586.982000
11
445.130000
21
586.801134
0
LINE
8
0
10
445.130000
20
586.801134
11
444.635866
21
586.307000
0
LINE
8
0
10
444.635866
20
586.307000
11
444.455000
21
585.632000
0
LINE
8
0
10
444.455000
20
585.632000
11
444.635866
21
584.957000
0
LINE
8
0
10
444.635866
20
584.957000
11
445.130000
21
584.462866
0
LINE
8
0
10
445.130000
20
584.462866
11
445.805000
21
584.282000
0
LINE
8
0
10
445.805000
20
584.282000
11
446.480000
21
584.462866
0
LINE
8
0
10
446.480000
20
584.462866
11
446.974134
21
584.957000
0
LINE
8
0
10
446.974134
20
584.957000
11
447.155000
21
585.632000
0
LINE
8
0
10
447.155000
20
585.632000
11
447.155000
21
585.632000
0
LINE
8
0
10
429.555000
20
585.632000
11
429.374134
21
586.307000
0
LINE
8
0
10
429.374134
20
586.307000
11
428.880000
21
586.801134
0
LINE
8
0
10
428.880000
20
586.801134
11
428.205000
21
586.982000
0
LINE
8
0
10
428.205000
20
586.982000
11
427.530000
21
586.801134
0
LINE
8
0
10
427.530000
20
586.801134
11
427.035866
21
586.307000
0
LINE
8
0
10
427.035866
20
586.307000
11
426.855000
21
585.632000
0
LINE
8
0
10
426.855000
20
585.632000
11
427.035866
21
584.957000
0
LINE
8
0
10
427.035866
20
584.957000
11
427.530000
21
584.462866
0
LINE
8
0
10
427.530000
20
584.462866
11
428.205000
21
584.282000
0
LINE
8
0
10
428.205000
20
584.282000
11
428.880000
21
584.462866
0
LINE
8
0
10
428.880000
20
584.462866
11
429.374134
21
584.957000
0
LINE
8
0
10
429.374134
20
584.957000
11
429.555000
21
585.632000
0
LINE
8
0
10
429.555000
20
585.632000
11
429.555000
21
585.632000
0
LINE
8
0
10
431.805000
20
633.731000
11
431.116170
21
633.868017
0
LINE
8
0
10
431.116170
20
633.868017
11
430.532208
21
634.258208
0
LINE
8
0
10
430.532208
20
634.258208
11
430.142017
21
634.842170
0
LINE
8
0
10
430.142017
20
634.842170
11
430.005000
21
635.531000
0
LINE
8
0
10
430.005000
20
635.531000
11
430.005000
21
655.931000
0
LINE
8
0
10
430.005000
20
655.931000
11
430.142017
21
656.619830
0
LINE
8
0
10
430.142017
20
656.619830
11
430.532208
21
657.203792
0
LINE
8
0
10
430.532208
20
657.203792
11
431.116170
21
657.593983
0
LINE
8
0
10
431.116170
20
657.593983
11
431.805000
21
657.731000
0
LINE
8
0
10
431.805000
20
657.731000
11
442.205000
21
657.731000
0
LINE
8
0
10
442.205000
20
657.731000
11
442.893830
21
657.593983
0
LINE
8
0
10
442.893830
20
657.593983
11
443.477792
21
657.203792
0
LINE
8
0
10
443.477792
20
657.203792
11
443.867983
21
656.619830
0
LINE
8
0
10
443.867983
20
656.619830
11
444.005000
21
655.931000
0
LINE
8
0
10
444.005000
20
655.931000
11
444.005000
21
635.531000
0
LINE
8
0
10
444.005000
20
635.531000
11
443.867983
21
634.842170
0
LINE
8
0
10
443.867983
20
634.842170
11
443.477792
21
634.258208
0
LINE
8
0
10
443.477792
20
634.258208
11
442.893830
21
633.868017
0
LINE
8
0
10
442.893830
20
633.868017
11
442.205000
21
633.731000
0
LINE
8
0
10
442.205000
20
633.731000
11
431.805000
21
633.731000
0
LINE
8
0
10
447.155000
20
667.131000
11
446.974134
21
667.806000
0
LINE
8
0
10
446.974134
20
667.806000
11
446.480000
21
668.300134
0
LINE
8
0
10
446.480000
20
668.300134
11
445.805000
21
668.481000
0
LINE
8
0
10
445.805000
20
668.481000
11
445.130000
21
668.300134
0
LINE
8
0
10
445.130000
20
668.300134
11
444.635866
21
667.806000
0
LINE
8
0
10
444.635866
20
667.806000
11
444.455000
21
667.131000
0
LINE
8
0
10
444.455000
20
667.131000
11
444.635866
21
666.456000
0
LINE
8
0
10
444.635866
20
666.456000
11
445.130000
21
665.961866
0
LINE
8
0
10
445.130000
20
665.961866
11
445.805000
21
665.781000
0
LINE
8
0
10
445.805000
20
665.781000
11
446.480000
21
665.961866
0
LINE
8
0
10
446.480000
20
665.961866
11
446.974134
21
666.456000
0
LINE
8
0
10
446.974134
20
666.456000
11
447.155000
21
667.131000
0
LINE
8
0
10
447.155000
20
667.131000
11
447.155000
21
667.131000
0
LINE
8
0
10
440.680000
20
686.981000
11
440.604280
21
687.720700
0
LINE
8
0
10
440.604280
20
687.720700
11
440.389457
21
688.409529
0
LINE
8
0
10
440.389457
20
688.409529
11
439.601478
21
689.575698
0
LINE
8
0
10
439.601478
20
689.575698
11
438.434011
21
690.361752
0
LINE
8
0
10
438.434011
20
690.361752
11
437.744829
21
690.575438
0
LINE
8
0
10
437.744829
20
690.575438
11
437.005005
21
690.649938
0
LINE
8
0
10
437.005005
20
690.649938
11
436.265181
21
690.575438
0
LINE
8
0
10
436.265181
20
690.575438
11
435.575999
21
690.361752
0
LINE
8
0
10
435.575999
20
690.361752
11
434.408532
21
689.575698
0
LINE
8
0
10
434.408532
20
689.575698
11
433.620553
21
688.409529
0
LINE
8
0
10
433.620553
20
688.409529
11
433.405730
21
687.720700
0
LINE
8
0
10
433.405730
20
687.720700
11
433.330010
21
686.981000
0
LINE
8
0
10
433.330010
20
686.981000
11
433.405730
21
686.241300
0
LINE
8
0
10
433.405730
20
686.241300
11
433.620553
21
685.552471
0
LINE
8
0
10
433.620553
20
685.552471
11
434.408532
21
684.386302
0
LINE
8
0
10
434.408532
20
684.386302
11
435.575999
21
683.600248
0
LINE
8
0
10
435.575999
20
683.600248
11
436.265181
21
683.386562
0
LINE
8
0
10
436.265181
20
683.386562
11
437.005005
21
683.312062
0
LINE
8
0
10
437.005005
20
683.312062
11
437.744829
21
683.386562
0
LINE
8
0
10
437.744829
20
683.386562
11
438.434011
21
683.600248
0
LINE
8
0
10
438.434011
20
683.600248
11
439.601478
21
684.386302
0
LINE
8
0
10
439.601478
20
684.386302
11
440.389457
21
685.552471
0
LINE
8
0
10
440.389457
20
685.552471
11
440.604280
21
686.241300
0
LINE
8
0
10
440.604280
20
686.241300
11
440.680000
21
686.981000
0
LINE
8
0
10
440.680000
20
686.981000
11
440.680000
21
686.981000
0
LINE
8
0
10
429.555000
20
667.131000
11
429.374134
21
667.806000
0
LINE
8
0
10
429.374134
20
667.806000
11
428.880000
21
668.300134
0
LINE
8
0
10
428.880000
20
668.300134
11
428.205000
21
668.481000
0
LINE
8
0
10
428.205000
20
668.481000
11
427.530000
21
668.300134
0
LINE
8
0
10
427.530000
20
668.300134
11
427.035866
21
667.806000
0
LINE
8
0
10
427.035866
20
667.806000
11
426.855000
21
667.131000
0
LINE
8
0
10
426.855000
20
667.131000
11
427.035866
21
666.456000
0
LINE
8
0
10
427.035866
20
666.456000
11
427.530000
21
665.961866
0
LINE
8
0
10
427.530000
20
665.961866
11
428.205000
21
665.781000
0
LINE
8
0
10
428.205000
20
665.781000
11
428.880000
21
665.961866
0
LINE
8
0
10
428.880000
20
665.961866
11
429.374134
21
666.456000
0
LINE
8
0
10
429.374134
20
666.456000
11
429.555000
21
667.131000
0
LINE
8
0
10
429.555000
20
667.131000
11
429.555000
21
667.131000
0
LINE
8
0
10
440.680000
20
565.782000
11
440.604280
21
566.521700
0
LINE
8
0
10
440.604280
20
566.521700
11
440.389457
21
567.210529
0
LINE
8
0
10
440.389457
20
567.210529
11
439.601478
21
568.376698
0
LINE
8
0
10
439.601478
20
568.376698
11
438.434011
21
569.162752
0
LINE
8
0
10
438.434011
20
569.162752
11
437.744829
21
569.376438
0
LINE
8
0
10
437.744829
20
569.376438
11
437.005005
21
569.450938
0
LINE
8
0
10
437.005005
20
569.450938
11
436.265181
21
569.376438
0
LINE
8
0
10
436.265181
20
569.376438
11
435.575999
21
569.162752
0
LINE
8
0
10
435.575999
20
569.162752
11
434.408532
21
568.376698
0
LINE
8
0
10
434.408532
20
568.376698
11
433.620553
21
567.210529
0
LINE
8
0
10
433.620553
20
567.210529
11
433.405730
21
566.521700
0
LINE
8
0
10
433.405730
20
566.521700
11
433.330010
21
565.782000
0
LINE
8
0
10
433.330010
20
565.782000
11
433.405730
21
565.042300
0
LINE
8
0
10
433.405730
20
565.042300
11
433.620553
21
564.353471
0
LINE
8
0
10
433.620553
20
564.353471
11
434.408532
21
563.187302
0
LINE
8
0
10
434.408532
20
563.187302
11
435.575999
21
562.401248
0
LINE
8
0
10
435.575999
20
562.401248
11
436.265181
21
562.187562
0
LINE
8
0
10
436.265181
20
562.187562
11
437.005005
21
562.113062
0
LINE
8
0
10
437.005005
20
562.113062
11
437.744829
21
562.187562
0
LINE
8
0
10
437.744829
20
562.187562
11
438.434011
21
562.401248
0
LINE
8
0
10
438.434011
20
562.401248
11
439.601478
21
563.187302
0
LINE
8
0
10
439.601478
20
563.187302
11
440.389457
21
564.353471
0
LINE
8
0
10
440.389457
20
564.353471
11
440.604280
21
565.042300
0
LINE
8
0
10
440.604280
20
565.042300
11
440.680000
21
565.782000
0
LINE
8
0
10
440.680000
20
565.782000
11
440.680000
21
565.782000
0
LINE
8
Layer 1
10
368.019000
20
703.967000
11
358.853000
21
703.967000
0
LINE
8
Layer 1
10
358.853000
20
703.967000
11
358.853000
21
706.967000
0
LINE
8
Layer 1
10
358.853000
20
706.967000
11
349.287000
21
706.967000
0
LINE
8
Layer 1
10
349.287000
20
706.967000
11
349.287000
21
703.967000
0
LINE
8
Layer 1
10
349.287000
20
703.967000
11
340.120000
21
703.967000
0
LINE
8
Layer 1
10
340.120000
20
703.967000
11
340.120000
21
706.967000
0
LINE
8
Layer 1
10
340.120000
20
706.967000
11
330.554000
21
706.967000
0
LINE
8
Layer 1
10
330.554000
20
706.967000
11
330.554000
21
703.967000
0
LINE
8
Layer 1
10
330.554000
20
703.967000
11
321.388000
21
703.967000
0
LINE
8
Layer 1
10
321.388000
20
703.967000
11
321.388000
21
706.967000
0
LINE
8
Layer 1
10
321.388000
20
706.967000
11
311.822000
21
706.967000
0
LINE
8
Layer 1
10
311.822000
20
706.967000
11
311.822000
21
703.967000
0
LINE
8
Layer 1
10
311.822000
20
703.967000
11
302.655000
21
703.967000
0
LINE
8
Layer 1
10
302.655000
20
703.967000
11
302.655000
21
706.967000
0
LINE
8
Layer 1
10
302.655000
20
706.967000
11
293.089000
21
706.967000
0
LINE
8
Layer 1
10
293.089000
20
706.967000
11
293.089000
21
703.967000
0
LINE
8
Layer 1
10
293.089000
20
703.967000
11
283.923000
21
703.967000
0
LINE
8
Layer 1
10
283.923000
20
703.967000
11
283.923000
21
706.967000
0
LINE
8
Layer 1
10
283.923000
20
706.967000
11
274.357000
21
706.967000
0
LINE
8
Layer 1
10
274.357000
20
706.967000
11
274.357000
21
703.967000
0
LINE
8
Layer 1
10
274.357000
20
703.967000
11
265.190000
21
703.967000
0
LINE
8
Layer 1
10
265.190000
20
703.967000
11
265.190000
21
706.967000
0
LINE
8
Layer 1
10
265.190000
20
706.967000
11
255.624000
21
706.967000
0
LINE
8
Layer 1
10
255.624000
20
706.967000
11
255.624000
21
703.967000
0
LINE
8
Layer 1
10
255.624000
20
703.967000
11
244.505000
21
703.967000
0
LINE
8
Layer 1
10
244.505000
20
703.967000
11
244.505000
21
698.482000
0
LINE
8
Layer 1
10
244.505000
20
698.482000
11
241.505000
21
698.482000
0
LINE
8
Layer 1
10
241.505000
20
698.482000
11
241.505000
21
688.915000
0
LINE
8
Layer 1
10
241.505000
20
688.915000
11
244.505000
21
688.915000
0
LINE
8
Layer 1
10
244.505000
20
688.915000
11
244.505000
21
679.749000
0
LINE
8
Layer 1
10
244.505000
20
679.749000
11
241.505000
21
679.749000
0
LINE
8
Layer 1
10
241.505000
20
679.749000
11
241.505000
21
670.183000
0
LINE
8
Layer 1
10
241.505000
20
670.183000
11
244.505000
21
670.183000
0
LINE
8
Layer 1
10
244.505000
20
670.183000
11
244.505000
21
661.017000
0
LINE
8
Layer 1
10
244.505000
20
661.017000
11
241.505000
21
661.017000
0
LINE
8
Layer 1
10
241.505000
20
661.017000
11
241.505000
21
651.450000
0
LINE
8
Layer 1
10
241.505000
20
651.450000
11
244.505000
21
651.450000
0
LINE
8
Layer 1
10
244.505000
20
651.450000
11
244.505000
21
642.284000
0
LINE
8
Layer 1
10
244.505000
20
642.284000
11
241.505000
21
642.284000
0
LINE
8
Layer 1
10
241.505000
20
642.284000
11
241.505000
21
632.718000
0
LINE
8
Layer 1
10
241.505000
20
632.718000
11
244.505000
21
632.718000
0
LINE
8
Layer 1
10
244.505000
20
632.718000
11
244.505000
21
623.552000
0
LINE
8
Layer 1
10
244.505000
20
623.552000
11
241.505000
21
623.552000
0
LINE
8
Layer 1
10
241.505000
20
623.552000
11
241.505000
21
613.985000
0
LINE
8
Layer 1
10
241.505000
20
613.985000
11
244.505000
21
613.985000
0
LINE
8
Layer 1
10
244.505000
20
613.985000
11
244.505000
21
604.819000
0
LINE
8
Layer 1
10
244.505000
20
604.819000
11
241.505000
21
604.819000
0
LINE
8
Layer 1
10
241.505000
20
604.819000
11
241.505000
21
595.253000
0
LINE
8
Layer 1
10
241.505000
20
595.253000
11
244.505000
21
595.253000
0
LINE
8
Layer 1
10
244.505000
20
595.253000
11
244.505000
21
589.767000
0
LINE
8
Layer 1
10
244.505000
20
589.767000
11
255.624000
21
589.767000
0
LINE
8
Layer 1
10
255.624000
20
589.767000
11
255.624000
21
586.767000
0
LINE
8
Layer 1
10
255.624000
20
586.767000
11
265.190000
21
586.767000
0
LINE
8
Layer 1
10
265.190000
20
586.767000
11
265.190000
21
589.767000
0
LINE
8
Layer 1
10
265.190000
20
589.767000
11
274.357000
21
589.767000
0
LINE
8
Layer 1
10
274.357000
20
589.767000
11
274.357000
21
586.767000
0
LINE
8
Layer 1
10
274.357000
20
586.767000
11
283.923000
21
586.767000
0
LINE
8
Layer 1
10
283.923000
20
586.767000
11
283.923000
21
589.767000
0
LINE
8
Layer 1
10
283.923000
20
589.767000
11
293.089000
21
589.767000
0
LINE
8
Layer 1
10
293.089000
20
589.767000
11
293.089000
21
586.767000
0
LINE
8
Layer 1
10
293.089000
20
586.767000
11
302.655000
21
586.767000
0
LINE
8
Layer 1
10
302.655000
20
586.767000
11
302.655000
21
589.767000
0
LINE
8
Layer 1
10
302.655000
20
589.767000
11
311.822000
21
589.767000
0
LINE
8
Layer 1
10
311.822000
20
589.767000
11
311.822000
21
586.767000
0
LINE
8
Layer 1
10
311.822000
20
586.767000
11
321.388000
21
586.767000
0
LINE
8
Layer 1
10
321.388000
20
586.767000
11
321.388000
21
589.767000
0
LINE
8
Layer 1
10
321.388000
20
589.767000
11
330.554000
21
589.767000
0
LINE
8
Layer 1
10
330.554000
20
589.767000
11
330.554000
21
586.767000
0
LINE
8
Layer 1
10
330.554000
20
586.767000
11
340.120000
21
586.767000
0
LINE
8
Layer 1
10
340.120000
20
586.767000
11
340.120000
21
589.767000
0
LINE
8
Layer 1
10
340.120000
20
589.767000
11
349.287000
21
589.767000
0
LINE
8
Layer 1
10
349.287000
20
589.767000
11
349.287000
21
586.767000
0
LINE
8
Layer 1
10
349.287000
20
586.767000
11
358.853000
21
586.767000
0
LINE
8
Layer 1
10
358.853000
20
586.767000
11
358.853000
21
589.767000
0
LINE
8
Layer 1
10
358.853000
20
589.767000
11
368.019000
21
589.767000
0
LINE
8
Layer 1
10
368.019000
20
589.767000
11
368.019000
21
586.767000
0
LINE
8
Layer 1
10
368.019000
20
586.767000
11
377.585000
21
586.767000
0
LINE
8
Layer 1
10
377.585000
20
586.767000
11
377.585000
21
589.767000
0
LINE
8
Layer 1
10
377.585000
20
589.767000
11
388.705000
21
589.767000
0
LINE
8
Layer 1
10
388.705000
20
589.767000
11
388.705000
21
595.253000
0
LINE
8
Layer 1
10
388.705000
20
595.253000
11
391.705000
21
595.253000
0
LINE
8
Layer 1
10
391.705000
20
595.253000
11
391.705000
21
604.819000
0
LINE
8
Layer 1
10
391.705000
20
604.819000
11
388.705000
21
604.819000
0
LINE
8
Layer 1
10
388.705000
20
604.819000
11
388.705000
21
613.985000
0
LINE
8
Layer 1
10
388.705000
20
613.985000
11
391.705000
21
613.985000
0
LINE
8
Layer 1
10
391.705000
20
613.985000
11
391.705000
21
623.552000
0
LINE
8
Layer 1
10
391.705000
20
623.552000
11
388.705000
21
623.552000
0
LINE
8
Layer 1
10
388.705000
20
623.552000
11
388.705000
21
632.718000
0
LINE
8
Layer 1
10
388.705000
20
632.718000
11
391.705000
21
632.718000
0
LINE
8
Layer 1
10
391.705000
20
632.718000
11
391.705000
21
642.284000
0
LINE
8
Layer 1
10
391.705000
20
642.284000
11
388.705000
21
642.284000
0
LINE
8
Layer 1
10
388.705000
20
642.284000
11
388.705000
21
651.450000
0
LINE
8
Layer 1
10
388.705000
20
651.450000
11
391.705000
21
651.450000
0
LINE
8
Layer 1
10
391.705000
20
651.450000
11
391.705000
21
661.017000
0
LINE
8
Layer 1
10
391.705000
20
661.017000
11
388.705000
21
661.017000
0
LINE
8
Layer 1
10
388.705000
20
661.017000
11
388.705000
21
670.183000
0
LINE
8
Layer 1
10
388.705000
20
670.183000
11
391.705000
21
670.183000
0
LINE
8
Layer 1
10
391.705000
20
670.183000
11
391.705000
21
679.749000
0
LINE
8
Layer 1
10
391.705000
20
679.749000
11
388.705000
21
679.749000
0
LINE
8
Layer 1
10
388.705000
20
679.749000
11
388.705000
21
688.915000
0
LINE
8
Layer 1
10
388.705000
20
688.915000
11
391.705000
21
688.915000
0
LINE
8
Layer 1
10
391.705000
20
688.915000
11
391.705000
21
698.482000
0
LINE
8
Layer 1
10
391.705000
20
698.482000
11
388.705000
21
698.482000
0
LINE
8
Layer 1
10
388.705000
20
698.482000
11
388.705000
21
703.967000
0
LINE
8
Layer 1
10
388.705000
20
703.967000
11
377.585000
21
703.967000
0
LINE
8
Layer 1
10
377.585000
20
703.967000
11
377.585000
21
706.967000
0
LINE
8
Layer 1
10
377.585000
20
706.967000
11
368.019000
21
706.967000
0
LINE
8
Layer 1
10
368.019000
20
706.967000
11
368.019000
21
703.967000
0
LINE
8
Layer 1
10
391.705000
20
561.830000
11
391.705000
21
570.810000
0
LINE
8
Layer 1
10
391.705000
20
570.810000
11
388.705000
21
570.810000
0
LINE
8
Layer 1
10
388.705000
20
570.810000
11
388.705000
21
579.977000
0
LINE
8
Layer 1
10
388.705000
20
579.977000
11
391.705000
21
579.977000
0
LINE
8
Layer 1
10
391.705000
20
579.977000
11
391.705000
21
586.761000
0
LINE
8
Layer 1
10
391.705000
20
586.761000
11
377.385000
21
586.761000
0
LINE
8
Layer 1
10
377.385000
20
586.761000
11
377.385000
21
583.761000
0
LINE
8
Layer 1
10
377.385000
20
583.761000
11
368.219000
21
583.761000
0
LINE
8
Layer 1
10
368.219000
20
583.761000
11
368.219000
21
586.761000
0
LINE
8
Layer 1
10
368.219000
20
586.761000
11
358.653000
21
586.761000
0
LINE
8
Layer 1
10
358.653000
20
586.761000
11
358.653000
21
583.761000
0
LINE
8
Layer 1
10
358.653000
20
583.761000
11
349.487000
21
583.761000
0
LINE
8
Layer 1
10
349.487000
20
583.761000
11
349.487000
21
586.761000
0
LINE
8
Layer 1
10
349.487000
20
586.761000
11
339.920000
21
586.761000
0
LINE
8
Layer 1
10
339.920000
20
586.761000
11
339.920000
21
583.761000
0
LINE
8
Layer 1
10
339.920000
20
583.761000
11
330.754000
21
583.761000
0
LINE
8
Layer 1
10
330.754000
20
583.761000
11
330.754000
21
586.761000
0
LINE
8
Layer 1
10
330.754000
20
586.761000
11
321.188000
21
586.761000
0
LINE
8
Layer 1
10
321.188000
20
586.761000
11
321.188000
21
583.761000
0
LINE
8
Layer 1
10
321.188000
20
583.761000
11
312.022000
21
583.761000
0
LINE
8
Layer 1
10
312.022000
20
583.761000
11
312.022000
21
586.761000
0
LINE
8
Layer 1
10
312.022000
20
586.761000
11
302.455000
21
586.761000
0
LINE
8
Layer 1
10
302.455000
20
586.761000
11
302.455000
21
583.761000
0
LINE
8
Layer 1
10
302.455000
20
583.761000
11
293.289000
21
583.761000
0
LINE
8
Layer 1
10
293.289000
20
583.761000
11
293.289000
21
586.761000
0
LINE
8
Layer 1
10
293.289000
20
586.761000
11
283.723000
21
586.761000
0
LINE
8
Layer 1
10
283.723000
20
586.761000
11
283.723000
21
583.761000
0
LINE
8
Layer 1
10
283.723000
20
583.761000
11
274.557000
21
583.761000
0
LINE
8
Layer 1
10
274.557000
20
583.761000
11
274.557000
21
586.761000
0
LINE
8
Layer 1
10
274.557000
20
586.761000
11
264.990000
21
586.761000
0
LINE
8
Layer 1
10
264.990000
20
586.761000
11
264.990000
21
583.761000
0
LINE
8
Layer 1
10
264.990000
20
583.761000
11
255.824000
21
583.761000
0
LINE
8
Layer 1
10
255.824000
20
583.761000
11
255.824000
21
586.761000
0
LINE
8
Layer 1
10
255.824000
20
586.761000
11
241.505000
21
586.761000
0
LINE
8
Layer 1
10
241.505000
20
586.761000
11
241.505000
21
526.561000
0
LINE
8
Layer 1
10
241.505000
20
526.561000
11
388.705000
21
526.561000
0
LINE
8
Layer 1
10
388.705000
20
526.561000
11
388.705000
21
561.830000
0
LINE
8
Layer 1
10
388.705000
20
561.830000
11
391.705000
21
561.830000
0
LINE
8
Layer 1
10
391.705000
20
491.292000
11
391.705000
21
482.312000
0
LINE
8
Layer 1
10
391.705000
20
482.312000
11
388.705000
21
482.312000
0
LINE
8
Layer 1
10
388.705000
20
482.312000
11
388.705000
21
473.145000
0
LINE
8
Layer 1
10
388.705000
20
473.145000
11
391.705000
21
473.145000
0
LINE
8
Layer 1
10
391.705000
20
473.145000
11
391.705000
21
466.361000
0
LINE
8
Layer 1
10
391.705000
20
466.361000
11
377.385000
21
466.361000
0
LINE
8
Layer 1
10
377.385000
20
466.361000
11
377.385000
21
469.361000
0
LINE
8
Layer 1
10
377.385000
20
469.361000
11
368.219000
21
469.361000
0
LINE
8
Layer 1
10
368.219000
20
469.361000
11
368.219000
21
466.361000
0
LINE
8
Layer 1
10
368.219000
20
466.361000
11
358.653000
21
466.361000
0
LINE
8
Layer 1
10
358.653000
20
466.361000
11
358.653000
21
469.361000
0
LINE
8
Layer 1
10
358.653000
20
469.361000
11
349.487000
21
469.361000
0
LINE
8
Layer 1
10
349.487000
20
469.361000
11
349.487000
21
466.361000
0
LINE
8
Layer 1
10
349.487000
20
466.361000
11
339.920000
21
466.361000
0
LINE
8
Layer 1
10
339.920000
20
466.361000
11
339.920000
21
469.361000
0
LINE
8
Layer 1
10
339.920000
20
469.361000
11
330.754000
21
469.361000
0
LINE
8
Layer 1
10
330.754000
20
469.361000
11
330.754000
21
466.361000
0
LINE
8
Layer 1
10
330.754000
20
466.361000
11
321.188000
21
466.361000
0
LINE
8
Layer 1
10
321.188000
20
466.361000
11
321.188000
21
469.361000
0
LINE
8
Layer 1
10
321.188000
20
469.361000
11
312.022000
21
469.361000
0
LINE
8
Layer 1
10
312.022000
20
469.361000
11
312.022000
21
466.361000
0
LINE
8
Layer 1
10
312.022000
20
466.361000
11
302.455000
21
466.361000
0
LINE
8
Layer 1
10
302.455000
20
466.361000
11
302.455000
21
469.361000
0
LINE
8
Layer 1
10
302.455000
20
469.361000
11
293.289000
21
469.361000
0
LINE
8
Layer 1
10
293.289000
20
469.361000
11
293.289000
21
466.361000
0
LINE
8
Layer 1
10
293.289000
20
466.361000
11
283.723000
21
466.361000
0
LINE
8
Layer 1
10
283.723000
20
466.361000
11
283.723000
21
469.361000
0
LINE
8
Layer 1
10
283.723000
20
469.361000
11
274.557000
21
469.361000
0
LINE
8
Layer 1
10
274.557000
20
469.361000
11
274.557000
21
466.361000
0
LINE
8
Layer 1
10
274.557000
20
466.361000
11
264.990000
21
466.361000
0
LINE
8
Layer 1
10
264.990000
20
466.361000
11
264.990000
21
469.361000
0
LINE
8
Layer 1
10
264.990000
20
469.361000
11
255.824000
21
469.361000
0
LINE
8
Layer 1
10
255.824000
20
469.361000
11
255.824000
21
466.361000
0
LINE
8
Layer 1
10
255.824000
20
466.361000
11
241.505000
21
466.361000
0
LINE
8
Layer 1
10
241.505000
20
466.361000
11
241.505000
21
526.561000
0
LINE
8
Layer 1
10
241.505000
20
526.561000
11
388.705000
21
526.561000
0
LINE
8
Layer 1
10
388.705000
20
526.561000
11
388.705000
21
491.292000
0
LINE
8
Layer 1
10
388.705000
20
491.292000
11
391.705000
21
491.292000
 0 
ENDSEC
 0 
EOF