0
SECTION
2
HEADER
9
$INSUNITS
70
4
9
$ACADVER
1
AC1014
9
$HANDSEED
5
FFFF
0
ENDSEC
0
SECTION
2
TABLES
0
TABLE
2
VPORT
5
8
100
AcDbSymbolTable
0
ENDTAB
0
TABLE
2
LTYPE
5
5
100
AcDbSymbolTable
0
LTYPE
5
14
100
AcDbSymbolTableRecord
100
AcDbLinetypeTableRecord
2
BYBLOCK
70
0
0
LTYPE
5
15
100
AcDbSymbolTableRecord
100
AcDbLinetypeTableRecord
2
BYLAYER
70
0
0
ENDTAB
0
TABLE
2
LAYER
5
2
100
AcDbSymbolTable
70
2
0
LAYER
5
50
100
AcDbSymbolTableRecord
100
AcDbLayerTableRecord
2
0
70
0
6
CONTINUOUS
0
ENDTAB
0
TABLE
2
STYLE
5
3
100
AcDbSymbolTable
70
1
0
STYLE
5
11
100
AcDbSymbolTableRecord
100
AcDbTextStyleTableRecord
2
STANDARD
70
0
0
ENDTAB
0
TABLE
2
VIEW
5
6
100
AcDbSymbolTable
70
0
0
ENDTAB
0
TABLE
2
UCS
5
7
100
AcDbSymbolTable
70
0
0
ENDTAB
0
TABLE
2
APPID
5
9
100
AcDbSymbolTable
70
2
0
APPID
5
12
100
AcDbSymbolTableRecord
100
AcDbRegAppTableRecord
2
ACAD
70
0
0
ENDTAB
0
TABLE
2
DIMSTYLE
5
A
100
AcDbSymbolTable
70
1
0
ENDTAB
0
TABLE
2
BLOCK_RECORD
5
1
100
AcDbSymbolTable
70
1
0
BLOCK_RECORD
5
1F
100
AcDbSymbolTableRecord
100
AcDbBlockTableRecord
2
*MODEL_SPACE
0
BLOCK_RECORD
5
1B
100
AcDbSymbolTableRecord
100
AcDbBlockTableRecord
2
*PAPER_SPACE
0
ENDTAB
0
ENDSEC
0
SECTION
2
BLOCKS
0
BLOCK
5
20
100
AcDbEntity
100
AcDbBlockBegin
2
*MODEL_SPACE
0
ENDBLK
5
21
100
AcDbEntity
100
AcDbBlockEnd
0
BLOCK
5
1C
100
AcDbEntity
100
AcDbBlockBegin
2
*PAPER_SPACE
0
ENDBLK
5
1D
100
AcDbEntity
100
AcDbBlockEnd
0
ENDSEC
0
SECTION
2
ENTITIES
0
LWPOLYLINE
5
100
100
AcDbEntity
8
0
100
AcDbPolyline
90
68
70
1
43
0.0
10
50.420021595982917
20
157.09866006929963
10
69.020021595982826
20
157.09866006929963
10
69.020021595982826
20
168.72366006929963
10
72.020021595982868
20
168.72366006929963
10
72.020021595982868
20
160.09866006929963
10
76.445021595982823
20
160.09866006929963
10
76.445021595982823
20
157.29866006929961
10
86.395021595982868
20
157.29866006929961
10
86.395021595982868
20
160.09866006929963
10
84.170021595982902
20
160.09866006929963
10
84.170021595982902
20
168.72366006929963
10
87.170021595982874
20
168.72366006929963
10
87.170021595982874
20
160.09866006929963
10
95.945021595982809
20
160.09866006929963
10
95.945021595982809
20
157.09866006929963
10
105.8950215959828
20
157.09866006929963
10
105.8950215959828
20
160.09866006929963
10
115.44502159598284
20
160.09866006929963
10
115.44502159598287
20
157.09866006929963
10
125.39502159598274
20
157.09866006929963
10
125.39502159598274
20
160.09866006929963
10
134.17002159598286
20
160.09866006929963
10
134.17002159598286
20
168.72366006929965
10
137.17002159598283
20
168.72366006929965
10
137.17002159598283
20
160.09866006929963
10
134.94502159598272
20
160.09866006929963
10
134.94502159598272
20
157.09866006929963
10
144.89502159598277
20
157.09866006929963
10
144.89502159598277
20
160.09866006929963
10
149.32002159598272
20
160.09866006929963
10
149.32002159598272
20
168.72366006929965
10
152.32002159598284
20
168.72366006929965
10
152.32002159598284
20
157.09866006929963
10
170.92002159598294
20
157.09866006929963
10
170.92002159598294
20
307.29866006929956
10
152.32002159598281
20
307.29866006929956
10
152.32002159598281
20
295.67366006929956
10
149.32002159598269
20
295.67366006929956
10
149.32002159598269
20
304.29866006929956
10
144.69502159598292
20
304.29866006929956
10
144.69502159598292
20
307.29866006929956
10
135.14502159598285
20
307.29866006929956
10
135.14502159598285
20
304.29866006929956
10
137.17002159598283
20
304.29866006929956
10
137.17002159598283
20
295.67366006929956
10
134.17002159598286
20
295.67366006929956
10
134.17002159598286
20
304.29866006929956
10
125.19502159598298
20
304.29866006929956
10
125.19502159598298
20
307.29866006929956
10
115.64502159598298
20
307.29866006929956
10
115.64502159598298
20
304.29866006929956
10
105.69502159598298
20
304.29866006929956
10
105.69502159598298
20
307.29866006929956
10
96.145021595982939
20
307.29866006929956
10
96.145021595982939
20
304.29866006929956
10
87.170021595982831
20
304.29866006929956
10
87.17002159598286
20
295.67366006929956
10
84.170021595982888
20
295.67366006929956
10
84.17002159598286
20
304.29866006929956
10
86.195021595983008
20
304.29866006929956
10
86.195021595983008
20
307.29866006929956
10
76.645021595982982
20
307.29866006929956
10
76.645021595982982
20
304.29866006929956
10
72.020021595982854
20
304.29866006929956
10
72.020021595982854
20
295.6736600692995
10
69.020021595982811
20
295.6736600692995
10
69.020021595982811
20
307.29866006929956
10
50.420021595982902
20
307.29866006929956
0
LWPOLYLINE
5
101
100
AcDbEntity
8
0
100
AcDbPolyline
90
4
70
1
43
0.0
10
69.020021595982811
20
285.72366006929951
10
72.020021595982854
20
285.72366006929951
10
72.020021595982854
20
276.17366006929956
10
69.020021595982811
20
276.17366006929956
0
LWPOLYLINE
5
102
100
AcDbEntity
8
0
100
AcDbPolyline
90
4
70
1
43
0.0
10
87.17002159598286
20
285.72366006929951
10
87.17002159598286
20
276.17366006929956
10
84.170021595982888
20
276.17366006929956
10
84.170021595982888
20
285.72366006929951
0
LWPOLYLINE
5
103
100
AcDbEntity
8
0
100
AcDbPolyline
90
4
70
1
43
0.0
10
149.32002159598272
20
266.22366006929957
10
152.32002159598281
20
266.22366006929957
10
152.32002159598281
20
256.67366006929961
10
149.32002159598272
20
256.67366006929961
0
LWPOLYLINE
5
104
100
AcDbEntity
8
0
100
AcDbPolyline
90
4
70
1
43
0.0
10
134.17002159598286
20
217.67366006929961
10
134.17002159598286
20
227.2236600692996
10
137.17002159598283
20
227.2236600692996
10
137.17002159598283
20
217.67366006929961
0
LWPOLYLINE
5
105
100
AcDbEntity
8
0
100
AcDbPolyline
90
4
70
1
43
0.0
10
149.32002159598272
20
217.67366006929961
10
149.32002159598272
20
227.2236600692996
10
152.32002159598284
20
227.2236600692996
10
152.32002159598284
20
217.67366006929961
0
LWPOLYLINE
5
106
100
AcDbEntity
8
0
100
AcDbPolyline
90
4
70
1
43
0.0
10
152.32002159598281
20
285.72366006929951
10
152.32002159598281
20
276.17366006929956
10
149.32002159598269
20
276.17366006929956
10
149.32002159598269
20
285.72366006929951
0
LWPOLYLINE
5
107
100
AcDbEntity
8
0
100
AcDbPolyline
90
4
70
1
43
0.0
10
134.17002159598286
20
178.67366006929967
10
134.17002159598286
20
188.22366006929963
10
137.17002159598283
20
188.22366006929963
10
137.17002159598283
20
178.67366006929967
0
LWPOLYLINE
5
108
100
AcDbEntity
8
0
100
AcDbPolyline
90
4
70
1
43
0.0
10
72.020021595982868
20
188.22366006929963
10
72.020021595982868
20
178.67366006929967
10
69.020021595982826
20
178.67366006929967
10
69.020021595982826
20
188.22366006929963
0
LWPOLYLINE
5
109
100
AcDbEntity
8
0
100
AcDbPolyline
90
4
70
1
43
0.0
10
84.170021595982902
20
188.22366006929963
10
87.170021595982874
20
188.22366006929963
10
87.170021595982874
20
178.67366006929967
10
84.170021595982902
20
178.67366006929956
0
LWPOLYLINE
5
110
100
AcDbEntity
8
0
100
AcDbPolyline
90
4
70
1
43
0.0
10
84.170021595982888
20
266.22366006929957
10
87.17002159598286
20
266.22366006929957
10
87.17002159598286
20
256.67366006929956
10
84.170021595982888
20
256.67366006929956
0
LWPOLYLINE
5
111
100
AcDbEntity
8
0
100
AcDbPolyline
90
4
70
1
43
0.0
10
149.32002159598272
20
188.22366006929963
10
152.32002159598284
20
188.22366006929963
10
152.32002159598284
20
178.67366006929967
10
149.32002159598272
20
178.67366006929967
0
LWPOLYLINE
5
112
100
AcDbEntity
8
0
100
AcDbPolyline
90
4
70
1
43
0.0
10
87.17002159598286
20
246.72366006929957
10
87.17002159598286
20
237.17366006929956
10
84.170021595982888
20
237.17366006929956
10
84.170021595982888
20
246.72366006929957
0
LWPOLYLINE
5
113
100
AcDbEntity
8
0
100
AcDbPolyline
90
4
70
1
43
0.0
10
152.32002159598284
20
246.72366006929957
10
152.32002159598284
20
237.17366006929956
10
149.32002159598272
20
237.17366006929956
10
149.32002159598272
20
246.72366006929957
0
LWPOLYLINE
5
114
100
AcDbEntity
8
0
100
AcDbPolyline
90
4
70
1
43
0.0
10
69.020021595982811
20
266.22366006929951
10
72.020021595982854
20
266.22366006929951
10
72.020021595982868
20
256.67366006929956
10
69.020021595982826
20
256.67366006929956
0
LWPOLYLINE
5
115
100
AcDbEntity
8
0
100
AcDbPolyline
90
4
70
1
43
0.0
10
149.32002159598272
20
198.17366006929961
10
149.32002159598272
20
207.72366006929957
10
152.32002159598284
20
207.72366006929957
10
152.32002159598284
20
198.17366006929961
0
LWPOLYLINE
5
116
100
AcDbEntity
8
0
100
AcDbPolyline
90
4
70
1
43
0.0
10
87.17002159598286
20
217.67366006929961
10
84.170021595982888
20
217.67366006929956
10
84.170021595982888
20
227.22366006929957
10
87.17002159598286
20
227.2236600692996
0
LWPOLYLINE
5
117
100
AcDbEntity
8
0
100
AcDbPolyline
90
4
70
1
43
0.0
10
72.020021595982868
20
217.67366006929961
10
69.020021595982826
20
217.67366006929961
10
69.020021595982826
20
227.2236600692996
10
72.020021595982868
20
227.2236600692996
0
LWPOLYLINE
5
118
100
AcDbEntity
8
0
100
AcDbPolyline
90
4
70
1
43
0.0
10
137.17002159598283
20
246.72366006929957
10
137.17002159598283
20
237.17366006929956
10
134.17002159598286
20
237.17366006929956
10
134.17002159598286
20
246.72366006929957
0
LWPOLYLINE
5
119
100
AcDbEntity
8
0
100
AcDbPolyline
90
4
70
1
43
0.0
10
137.17002159598283
20
198.17366006929961
10
134.17002159598286
20
198.17366006929961
10
134.17002159598286
20
207.72366006929957
10
137.17002159598283
20
207.72366006929957
0
LWPOLYLINE
5
120
100
AcDbEntity
8
0
100
AcDbPolyline
90
4
70
1
43
0.0
10
87.170021595982874
20
198.17366006929959
10
84.170021595982902
20
198.17366006929959
10
84.170021595982902
20
207.72366006929957
10
87.170021595982874
20
207.72366006929957
0
LWPOLYLINE
5
121
100
AcDbEntity
8
0
100
AcDbPolyline
90
4
70
1
43
0.0
10
72.020021595982868
20
198.17366006929959
10
69.020021595982826
20
198.17366006929959
10
69.020021595982826
20
207.72366006929957
10
72.020021595982868
20
207.72366006929957
0
LWPOLYLINE
5
122
100
AcDbEntity
8
0
100
AcDbPolyline
90
4
70
1
43
0.0
10
137.17002159598283
20
266.22366006929957
10
137.17002159598283
20
256.67366006929961
10
134.17002159598286
20
256.67366006929961
10
134.17002159598286
20
266.22366006929957
0
LWPOLYLINE
5
123
100
AcDbEntity
8
0
100
AcDbPolyline
90
4
70
1
43
0.0
10
134.17002159598286
20
276.17366006929956
10
134.17002159598286
20
285.72366006929951
10
137.17002159598283
20
285.72366006929951
10
137.17002159598283
20
276.17366006929956
0
LWPOLYLINE
5
124
100
AcDbEntity
8
0
100
AcDbPolyline
90
4
70
1
43
0.0
10
72.020021595982868
20
246.72366006929957
10
72.020021595982868
20
237.17366006929956
10
69.020021595982826
20
237.17366006929956
10
69.020021595982826
20
246.72366006929957
0
ENDSEC
0
SECTION
2
OBJECTS
0
DICTIONARY
5
C
100
AcDbDictionary
3
ACAD_GROUP
350
D
3
ACAD_MLINESTYLE
350
17
0
DICTIONARY
5
D
100
AcDbDictionary
0
DICTIONARY
5
1A
330
C
100
AcDbDictionary
0
DICTIONARY
5
17
100
AcDbDictionary
0
ENDSEC
0
EOF
