999
"DXF R12 Output" (www.mydxf.blogspot.com)
 0 
SECTION
 2 
HEADER
 9 
$ACADVER
 1 
AC1009
 9 
$EXTMIN
 10 
 0 
 20 
 0 
 9 
$EXTMAX
 10 
 8.5 
 20 
 11 
 0 
ENDSEC
 0 
SECTION
 2 
ENTITIES
0
LINE
8
Layer 1
10
0.793749
20
297.794000
11
-0.793749
21
296.206000
0
LINE
8
Layer 1
10
0.000000
20
298.323000
11
0.000000
21
295.677000
0
LINE
8
Layer 1
10
2.116660
20
295.942000
11
1.058330
21
294.883670
0
LINE
8
Layer 1
10
1.587500
20
296.471000
11
0.529170
21
295.412670
0
LINE
8
Layer 1
10
1.058330
20
297.000000
11
0.000000
21
295.941670
0
LINE
8
LAYER_1
10
869.451000
20
672.499000
11
866.462000
21
672.499000
0
LINE
8
LAYER_1
10
866.462000
20
672.499000
11
866.462000
21
696.867000
0
LINE
8
LAYER_1
10
866.462000
20
696.867000
11
857.682000
21
696.867000
0
LINE
8
LAYER_1
10
857.682000
20
696.867000
11
857.682000
21
699.867000
0
LINE
8
LAYER_1
10
857.682000
20
699.867000
11
848.116000
21
699.867000
0
LINE
8
LAYER_1
10
848.116000
20
699.867000
11
848.116000
21
696.867000
0
LINE
8
LAYER_1
10
560.057000
20
642.610000
11
560.057000
21
636.624000
0
LINE
8
LAYER_1
10
560.057000
20
636.624000
11
569.607000
21
636.624000
0
LINE
8
LAYER_1
10
569.607000
20
636.624000
11
569.607000
21
642.610000
0
LINE
8
LAYER_1
10
450.732000
20
604.319000
11
450.732000
21
589.467000
0
LINE
8
LAYER_1
10
450.732000
20
589.467000
11
453.732000
21
589.467000
0
LINE
8
LAYER_1
10
453.732000
20
589.467000
11
453.732000
21
579.367000
0
LINE
8
LAYER_1
10
453.732000
20
579.367000
11
462.557000
21
579.367000
0
LINE
8
LAYER_1
10
462.557000
20
579.367000
11
462.557000
21
582.359000
0
LINE
8
LAYER_1
10
462.557000
20
582.359000
11
472.107000
21
582.359000
0
LINE
8
LAYER_1
10
472.107000
20
582.359000
11
472.107000
21
579.367000
0
LINE
8
LAYER_1
10
472.107000
20
579.367000
11
482.057000
21
579.367000
0
LINE
8
LAYER_1
10
482.057000
20
579.367000
11
482.057000
21
582.359000
0
LINE
8
LAYER_1
10
482.057000
20
582.359000
11
491.607000
21
582.359000
0
LINE
8
LAYER_1
10
491.607000
20
582.359000
11
491.607000
21
579.367000
0
LINE
8
LAYER_1
10
491.607000
20
579.367000
11
501.557000
21
579.367000
0
LINE
8
LAYER_1
10
501.557000
20
579.367000
11
501.557000
21
582.359000
0
LINE
8
LAYER_1
10
501.557000
20
582.359000
11
511.107000
21
582.359000
0
LINE
8
LAYER_1
10
511.107000
20
582.359000
11
511.107000
21
579.367000
0
LINE
8
LAYER_1
10
511.107000
20
579.367000
11
521.057000
21
579.367000
0
LINE
8
LAYER_1
10
521.057000
20
579.367000
11
521.057000
21
582.359000
0
LINE
8
LAYER_1
10
521.057000
20
582.359000
11
530.607000
21
582.359000
0
LINE
8
LAYER_1
10
530.607000
20
582.359000
11
530.607000
21
579.367000
0
LINE
8
LAYER_1
10
530.607000
20
579.367000
11
540.557000
21
579.367000
0
LINE
8
LAYER_1
10
540.557000
20
579.367000
11
540.557000
21
582.359000
0
LINE
8
LAYER_1
10
540.557000
20
582.359000
11
550.107000
21
582.359000
0
LINE
8
LAYER_1
10
550.107000
20
582.359000
11
550.107000
21
579.367000
0
LINE
8
LAYER_1
10
550.107000
20
579.367000
11
560.057000
21
579.367000
0
LINE
8
LAYER_1
10
560.057000
20
579.367000
11
560.057000
21
582.359000
0
LINE
8
LAYER_1
10
560.057000
20
582.359000
11
569.607000
21
582.359000
0
LINE
8
LAYER_1
10
569.607000
20
582.359000
11
569.607000
21
579.367000
0
LINE
8
LAYER_1
10
569.607000
20
579.367000
11
579.557000
21
579.367000
0
LINE
8
LAYER_1
10
579.557000
20
579.367000
11
579.557000
21
582.359000
0
LINE
8
LAYER_1
10
579.557000
20
582.359000
11
589.107000
21
582.359000
0
LINE
8
LAYER_1
10
589.107000
20
582.359000
11
589.107000
21
579.367000
0
LINE
8
LAYER_1
10
589.107000
20
579.367000
11
597.932000
21
579.367000
0
LINE
8
LAYER_1
10
597.932000
20
579.367000
11
597.932000
21
582.451000
0
LINE
8
LAYER_1
10
597.932000
20
582.451000
11
597.732000
21
582.451000
0
LINE
8
LAYER_1
10
597.732000
20
582.451000
11
597.732000
21
589.739000
0
LINE
8
LAYER_1
10
597.732000
20
589.739000
11
600.732000
21
589.739000
0
LINE
8
LAYER_1
10
600.732000
20
589.739000
11
600.732000
21
599.284000
0
LINE
8
LAYER_1
10
600.732000
20
599.284000
11
597.732000
21
599.284000
0
LINE
8
LAYER_1
10
597.732000
20
599.284000
11
597.732000
21
599.392000
0
LINE
8
LAYER_1
10
597.732000
20
599.392000
11
579.557000
21
599.392000
0
LINE
8
LAYER_1
10
579.557000
20
599.392000
11
579.557000
21
619.592000
0
LINE
8
LAYER_1
10
314.851000
20
699.867000
11
0.132353
21
699.867000
0
LINE
8
LAYER_1
10
0.132353
20
699.867000
11
0.132353
21
681.267000
0
LINE
8
LAYER_1
10
0.132353
20
681.267000
11
11.757300
21
681.267000
0
LINE
8
LAYER_1
10
11.757300
20
681.267000
11
11.757300
21
678.267000
0
LINE
8
LAYER_1
10
11.757300
20
678.267000
11
3.132340
21
678.267000
0
LINE
8
LAYER_1
10
3.132340
20
678.267000
11
3.132340
21
673.642000
0
LINE
8
LAYER_1
10
3.132340
20
673.642000
11
0.132353
21
673.642000
0
LINE
8
LAYER_1
10
0.132353
20
673.642000
11
0.132353
21
664.092000
0
LINE
8
LAYER_1
10
0.132353
20
664.092000
11
3.132340
21
664.092000
0
LINE
8
LAYER_1
10
3.132340
20
664.092000
11
3.132340
21
666.117000
0
LINE
8
LAYER_1
10
3.132340
20
666.117000
11
11.757300
21
666.117000
0
LINE
8
LAYER_1
10
11.757300
20
666.117000
11
11.757300
21
663.117000
0
LINE
8
LAYER_1
10
11.757300
20
663.117000
11
3.132340
21
663.117000
0
LINE
8
LAYER_1
10
3.132340
20
663.117000
11
3.132340
21
654.142000
0
LINE
8
LAYER_1
10
3.132340
20
654.142000
11
0.132353
21
654.142000
0
LINE
8
LAYER_1
10
0.132353
20
654.142000
11
0.132353
21
644.592000
0
LINE
8
LAYER_1
10
0.132353
20
644.592000
11
3.132340
21
644.592000
0
LINE
8
LAYER_1
10
3.132340
20
644.592000
11
3.132340
21
634.642000
0
LINE
8
LAYER_1
10
3.132340
20
634.642000
11
0.132353
21
634.642000
0
LINE
8
LAYER_1
10
0.132353
20
634.642000
11
0.132353
21
625.092000
0
LINE
8
LAYER_1
10
0.132353
20
625.092000
11
3.132340
21
625.092000
0
LINE
8
LAYER_1
10
3.132340
20
625.092000
11
3.132340
21
616.118000
0
LINE
8
LAYER_1
10
3.132340
20
616.118000
11
11.757300
21
616.118000
0
LINE
8
LAYER_1
10
11.757300
20
616.118000
11
11.757300
21
613.118000
0
LINE
8
LAYER_1
10
11.757300
20
613.118000
11
3.132340
21
613.118000
0
LINE
8
LAYER_1
10
3.132340
20
613.118000
11
3.132340
21
615.143000
0
LINE
8
LAYER_1
10
3.132340
20
615.143000
11
0.132353
21
615.143000
0
LINE
8
LAYER_1
10
0.132353
20
615.143000
11
0.132353
21
605.593000
0
LINE
8
LAYER_1
10
0.132353
20
605.593000
11
3.132340
21
605.593000
0
LINE
8
LAYER_1
10
3.132340
20
605.593000
11
3.132340
21
600.968000
0
LINE
8
LAYER_1
10
3.132340
20
600.968000
11
11.757300
21
600.968000
0
LINE
8
LAYER_1
10
11.757300
20
600.968000
11
11.757300
21
597.968000
0
LINE
8
LAYER_1
10
11.757300
20
597.968000
11
0.132353
21
597.968000
0
LINE
8
LAYER_1
10
0.132353
20
597.968000
11
0.132353
21
579.368000
0
LINE
8
LAYER_1
10
0.132353
20
579.368000
11
314.851000
21
579.367000
0
LINE
8
LAYER_1
10
21.707300
20
597.968000
11
21.707300
21
600.968000
0
LINE
8
LAYER_1
10
21.707300
20
600.968000
11
31.257300
21
600.968000
0
LINE
8
LAYER_1
10
31.257300
20
600.968000
11
31.257300
21
597.968000
0
LINE
8
LAYER_1
10
31.257300
20
597.968000
11
21.707300
21
597.968000
0
LINE
8
LAYER_1
10
21.707300
20
597.968000
11
21.707300
21
597.968000
0
LINE
8
LAYER_1
10
21.707300
20
616.118000
11
31.257300
21
616.118000
0
LINE
8
LAYER_1
10
31.257300
20
616.118000
11
31.257300
21
613.118000
0
LINE
8
LAYER_1
10
31.257300
20
613.118000
11
21.707300
21
613.118000
0
LINE
8
LAYER_1
10
21.707300
20
613.118000
11
21.707300
21
616.118000
0
LINE
8
LAYER_1
10
21.707300
20
616.118000
11
21.707300
21
616.118000
0
LINE
8
LAYER_1
10
41.207300
20
678.267000
11
41.207300
21
681.267000
0
LINE
8
LAYER_1
10
41.207300
20
681.267000
11
50.757200
21
681.267000
0
LINE
8
LAYER_1
10
50.757200
20
681.267000
11
50.757200
21
678.267000
0
LINE
8
LAYER_1
10
50.757200
20
678.267000
11
41.207300
21
678.267000
0
LINE
8
LAYER_1
10
41.207300
20
678.267000
11
41.207300
21
678.267000
0
LINE
8
LAYER_1
10
89.757100
20
663.117000
11
80.207200
21
663.117000
0
LINE
8
LAYER_1
10
80.207200
20
663.117000
11
80.207200
21
666.117000
0
LINE
8
LAYER_1
10
80.207200
20
666.117000
11
89.757100
21
666.117000
0
LINE
8
LAYER_1
10
89.757100
20
666.117000
11
89.757100
21
663.117000
0
LINE
8
LAYER_1
10
89.757100
20
663.117000
11
89.757100
21
663.117000
0
LINE
8
LAYER_1
10
89.757100
20
678.267000
11
80.207200
21
678.267000
0
LINE
8
LAYER_1
10
80.207200
20
678.267000
11
80.207200
21
681.267000
0
LINE
8
LAYER_1
10
80.207200
20
681.267000
11
89.757100
21
681.267000
0
LINE
8
LAYER_1
10
89.757100
20
681.267000
11
89.757100
21
678.267000
0
LINE
8
LAYER_1
10
89.757100
20
678.267000
11
89.757100
21
678.267000
0
LINE
8
LAYER_1
10
21.707300
20
681.267000
11
31.257300
21
681.267000
0
LINE
8
LAYER_1
10
31.257300
20
681.267000
11
31.257300
21
678.267000
0
LINE
8
LAYER_1
10
31.257300
20
678.267000
11
21.707300
21
678.267000
0
LINE
8
LAYER_1
10
21.707300
20
678.267000
11
21.707300
21
681.267000
0
LINE
8
LAYER_1
10
21.707300
20
681.267000
11
21.707300
21
681.267000
0
LINE
8
LAYER_1
10
128.757000
20
663.117000
11
119.207000
21
663.117000
0
LINE
8
LAYER_1
10
119.207000
20
663.117000
11
119.207000
21
666.117000
0
LINE
8
LAYER_1
10
119.207000
20
666.117000
11
128.757000
21
666.117000
0
LINE
8
LAYER_1
10
128.757000
20
666.117000
11
128.757000
21
663.117000
0
LINE
8
LAYER_1
10
128.757000
20
663.117000
11
128.757000
21
663.117000
0
LINE
8
LAYER_1
10
119.207000
20
600.968000
11
128.757000
21
600.968000
0
LINE
8
LAYER_1
10
128.757000
20
600.968000
11
128.757000
21
597.968000
0
LINE
8
LAYER_1
10
128.757000
20
597.968000
11
119.207000
21
597.968000
0
LINE
8
LAYER_1
10
119.207000
20
597.968000
11
119.207000
21
600.968000
0
LINE
8
LAYER_1
10
119.207000
20
600.968000
11
119.207000
21
600.968000
0
LINE
8
LAYER_1
10
119.207000
20
613.118000
11
119.207000
21
616.118000
0
LINE
8
LAYER_1
10
119.207000
20
616.118000
11
128.757000
21
616.118000
0
LINE
8
LAYER_1
10
128.757000
20
616.118000
11
128.757000
21
613.118000
0
LINE
8
LAYER_1
10
128.757000
20
613.118000
11
119.207000
21
613.118000
0
LINE
8
LAYER_1
10
119.207000
20
613.118000
11
119.207000
21
613.118000
0
LINE
8
LAYER_1
10
41.207300
20
613.118000
11
41.207300
21
616.118000
0
LINE
8
LAYER_1
10
41.207300
20
616.118000
11
50.757200
21
616.118000
0
LINE
8
LAYER_1
10
50.757200
20
616.118000
11
50.757200
21
613.118000
0
LINE
8
LAYER_1
10
50.757200
20
613.118000
11
41.207300
21
613.118000
0
LINE
8
LAYER_1
10
41.207300
20
613.118000
11
41.207300
21
613.118000
0
LINE
8
LAYER_1
10
119.207000
20
678.267000
11
119.207000
21
681.267000
0
LINE
8
LAYER_1
10
119.207000
20
681.267000
11
128.757000
21
681.267000
0
LINE
8
LAYER_1
10
128.757000
20
681.267000
11
128.757000
21
678.267000
0
LINE
8
LAYER_1
10
128.757000
20
678.267000
11
119.207000
21
678.267000
0
LINE
8
LAYER_1
10
119.207000
20
678.267000
11
119.207000
21
678.267000
0
LINE
8
LAYER_1
10
60.707200
20
616.118000
11
70.257200
21
616.118000
0
LINE
8
LAYER_1
10
70.257200
20
616.118000
11
70.257200
21
613.118000
0
LINE
8
LAYER_1
10
70.257200
20
613.118000
11
60.707200
21
613.118000
0
LINE
8
LAYER_1
10
60.707200
20
613.118000
11
60.707200
21
616.118000
0
LINE
8
LAYER_1
10
60.707200
20
616.118000
11
60.707200
21
616.118000
0
LINE
8
LAYER_1
10
60.707200
20
681.267000
11
70.257200
21
681.267000
0
LINE
8
LAYER_1
10
70.257200
20
681.267000
11
70.257200
21
678.267000
0
LINE
8
LAYER_1
10
70.257200
20
678.267000
11
60.707200
21
678.267000
0
LINE
8
LAYER_1
10
60.707200
20
678.267000
11
60.707200
21
681.267000
0
LINE
8
LAYER_1
10
60.707200
20
681.267000
11
60.707200
21
681.267000
0
LINE
8
LAYER_1
10
41.207300
20
597.968000
11
41.207300
21
600.968000
0
LINE
8
LAYER_1
10
41.207300
20
600.968000
11
50.757200
21
600.968000
0
LINE
8
LAYER_1
10
50.757200
20
600.968000
11
50.757200
21
597.968000
0
LINE
8
LAYER_1
10
50.757200
20
597.968000
11
41.207300
21
597.968000
0
LINE
8
LAYER_1
10
41.207300
20
597.968000
11
41.207300
21
597.968000
0
LINE
8
LAYER_1
10
109.257000
20
678.267000
11
99.707100
21
678.267000
0
LINE
8
LAYER_1
10
99.707100
20
678.267000
11
99.707100
21
681.267000
0
LINE
8
LAYER_1
10
99.707100
20
681.267000
11
109.257000
21
681.267000
0
LINE
8
LAYER_1
10
109.257000
20
681.267000
11
109.257000
21
678.267000
0
LINE
8
LAYER_1
10
109.257000
20
678.267000
11
109.257000
21
678.267000
0
LINE
8
LAYER_1
10
89.757100
20
616.118000
11
89.757100
21
613.118000
0
LINE
8
LAYER_1
10
89.757100
20
613.118000
11
80.207200
21
613.118000
0
LINE
8
LAYER_1
10
80.207200
20
613.118000
11
80.207200
21
616.118000
0
LINE
8
LAYER_1
10
80.207200
20
616.118000
11
89.757100
21
616.118000
0
LINE
8
LAYER_1
10
89.757100
20
616.118000
11
89.757100
21
616.118000
0
LINE
8
LAYER_1
10
89.757100
20
600.968000
11
89.757100
21
597.968000
0
LINE
8
LAYER_1
10
89.757100
20
597.968000
11
80.207200
21
597.968000
0
LINE
8
LAYER_1
10
80.207200
20
597.968000
11
80.207200
21
600.968000
0
LINE
8
LAYER_1
10
80.207200
20
600.968000
11
89.757100
21
600.968000
0
LINE
8
LAYER_1
10
89.757100
20
600.968000
11
89.757100
21
600.968000
0
LINE
8
LAYER_1
10
60.707200
20
666.117000
11
70.257200
21
666.117000
0
LINE
8
LAYER_1
10
70.257200
20
666.117000
11
70.257200
21
663.117000
0
LINE
8
LAYER_1
10
70.257200
20
663.117000
11
60.707200
21
663.117000
0
LINE
8
LAYER_1
10
60.707200
20
663.117000
11
60.707200
21
666.117000
0
LINE
8
LAYER_1
10
60.707200
20
666.117000
11
60.707200
21
666.117000
0
LINE
8
LAYER_1
10
109.257000
20
666.117000
11
109.257000
21
663.117000
0
LINE
8
LAYER_1
10
109.257000
20
663.117000
11
99.707100
21
663.117000
0
LINE
8
LAYER_1
10
99.707100
20
663.117000
11
99.707100
21
666.117000
0
LINE
8
LAYER_1
10
99.707100
20
666.117000
11
109.257000
21
666.117000
0
LINE
8
LAYER_1
10
109.257000
20
666.117000
11
109.257000
21
666.117000
0
LINE
8
LAYER_1
10
109.257000
20
616.118000
11
109.257000
21
613.118000
0
LINE
8
LAYER_1
10
109.257000
20
613.118000
11
99.707100
21
613.118000
0
LINE
8
LAYER_1
10
99.707100
20
613.118000
11
99.707100
21
616.118000
0
LINE
8
LAYER_1
10
99.707100
20
616.118000
11
109.257000
21
616.118000
0
LINE
8
LAYER_1
10
109.257000
20
616.118000
11
109.257000
21
616.118000
0
LINE
8
LAYER_1
10
109.257000
20
600.968000
11
109.257000
21
597.968000
0
LINE
8
LAYER_1
10
109.257000
20
597.968000
11
99.707100
21
597.968000
0
LINE
8
LAYER_1
10
99.707100
20
597.968000
11
99.707100
21
600.968000
0
LINE
8
LAYER_1
10
99.707100
20
600.968000
11
109.257000
21
600.968000
0
LINE
8
LAYER_1
10
109.257000
20
600.968000
11
109.257000
21
600.968000
0
LINE
8
LAYER_1
10
41.207300
20
666.117000
11
50.757200
21
666.117000
0
LINE
8
LAYER_1
10
50.757200
20
666.117000
11
50.757200
21
663.117000
0
LINE
8
LAYER_1
10
50.757200
20
663.117000
11
41.207300
21
663.117000
0
LINE
8
LAYER_1
10
41.207300
20
663.117000
11
41.207300
21
666.117000
0
LINE
8
LAYER_1
10
41.207300
20
666.117000
11
41.207300
21
666.117000
0
LINE
8
LAYER_1
10
31.257300
20
663.117000
11
21.707300
21
663.117000
0
LINE
8
LAYER_1
10
21.707300
20
663.117000
11
21.707300
21
666.117000
0
LINE
8
LAYER_1
10
21.707300
20
666.117000
11
31.257300
21
666.117000
0
LINE
8
LAYER_1
10
31.257300
20
666.117000
11
31.257300
21
663.117000
0
LINE
8
LAYER_1
10
31.257300
20
663.117000
11
31.257300
21
663.117000
0
LINE
8
LAYER_1
10
60.707200
20
600.968000
11
70.257200
21
600.968000
0
LINE
8
LAYER_1
10
70.257200
20
600.968000
11
70.257200
21
597.968000
0
LINE
8
LAYER_1
10
70.257200
20
597.968000
11
60.707200
21
597.968000
0
LINE
8
LAYER_1
10
60.707200
20
597.968000
11
60.707200
21
600.968000
0
LINE
8
LAYER_1
10
60.707200
20
600.968000
11
60.707200
21
600.968000
0
LINE
8
LAYER_1
10
841.531000
20
644.400000
11
841.532000
21
634.684000
0
LINE
8
LAYER_1
10
841.532000
20
634.684000
11
838.532000
21
634.684000
0
LINE
8
LAYER_1
10
838.532000
20
634.684000
11
838.532000
21
625.517000
0
LINE
8
LAYER_1
10
838.532000
20
625.517000
11
841.532000
21
625.517000
0
LINE
8
LAYER_1
10
795.014000
20
651.852000
11
795.403547
21
651.930484
0
LINE
8
LAYER_1
10
795.403547
20
651.930484
11
795.721375
21
652.144625
0
LINE
8
LAYER_1
10
795.721375
20
652.144625
11
795.935516
21
652.462453
0
LINE
8
LAYER_1
10
795.935516
20
652.462453
11
796.014000
21
652.852000
0
LINE
8
LAYER_1
10
786.285000
20
651.852000
11
795.014000
21
651.852000
0
LINE
8
LAYER_1
10
796.014000
20
663.036000
11
795.935516
21
663.425125
0
LINE
8
LAYER_1
10
795.935516
20
663.425125
11
795.721375
21
663.743000
0
LINE
8
LAYER_1
10
795.721375
20
663.743000
11
795.403547
21
663.957375
0
LINE
8
LAYER_1
10
795.403547
20
663.957375
11
795.014000
21
664.036000
0
LINE
8
LAYER_1
10
796.014000
20
652.852000
11
796.014000
21
663.036000
0
LINE
8
LAYER_1
10
786.285000
20
664.036000
11
785.895875
21
663.957375
0
LINE
8
LAYER_1
10
785.895875
20
663.957375
11
785.578000
21
663.743000
0
LINE
8
LAYER_1
10
785.578000
20
663.743000
11
785.363625
21
663.425125
0
LINE
8
LAYER_1
10
785.363625
20
663.425125
11
785.285000
21
663.036000
0
LINE
8
LAYER_1
10
795.014000
20
664.036000
11
786.285000
21
664.036000
0
LINE
8
LAYER_1
10
785.285000
20
652.852000
11
785.363625
21
652.462453
0
LINE
8
LAYER_1
10
785.363625
20
652.462453
11
785.578000
21
652.144625
0
LINE
8
LAYER_1
10
785.578000
20
652.144625
11
785.895875
21
651.930484
0
LINE
8
LAYER_1
10
785.895875
20
651.930484
11
786.285000
21
651.852000
0
LINE
8
LAYER_1
10
785.285000
20
663.036000
11
785.285000
21
652.852000
0
LINE
8
LAYER_1
10
768.732000
20
587.667000
11
768.732000
21
590.467000
0
LINE
8
LAYER_1
10
768.732000
20
590.467000
11
763.732000
21
590.467000
0
LINE
8
LAYER_1
10
763.732000
20
590.467000
11
763.732000
21
587.667000
0
LINE
8
LAYER_1
10
763.732000
20
587.667000
11
768.732000
21
587.667000
0
LINE
8
LAYER_1
10
768.732000
20
587.667000
11
768.732000
21
587.667000
0
LINE
8
LAYER_1
10
761.457000
20
613.117000
11
771.007000
21
613.117000
0
LINE
8
LAYER_1
10
771.007000
20
613.117000
11
771.007000
21
616.117000
0
LINE
8
LAYER_1
10
771.007000
20
616.117000
11
761.457000
21
616.117000
0
LINE
8
LAYER_1
10
761.457000
20
616.117000
11
761.457000
21
613.117000
0
LINE
8
LAYER_1
10
761.457000
20
613.117000
11
761.457000
21
613.117000
0
LINE
8
LAYER_1
10
778.332000
20
615.142000
11
778.332000
21
605.392000
0
LINE
8
LAYER_1
10
778.332000
20
605.392000
11
781.332000
21
605.392000
0
LINE
8
LAYER_1
10
781.332000
20
605.392000
11
781.332000
21
615.142000
0
LINE
8
LAYER_1
10
781.332000
20
615.142000
11
778.332000
21
615.142000
0
LINE
8
LAYER_1
10
778.332000
20
615.142000
11
778.332000
21
615.142000
0
LINE
8
LAYER_1
10
826.465000
20
632.967000
11
826.847375
21
633.043000
0
LINE
8
LAYER_1
10
826.847375
20
633.043000
11
827.172000
21
633.260000
0
LINE
8
LAYER_1
10
827.172000
20
633.260000
11
827.388625
21
633.584250
0
LINE
8
LAYER_1
10
827.388625
20
633.584250
11
827.465000
21
633.967000
0
LINE
8
LAYER_1
10
811.465000
20
632.967000
11
826.465000
21
632.967000
0
LINE
8
LAYER_1
10
827.465000
20
644.967000
11
827.386375
21
645.356125
0
LINE
8
LAYER_1
10
827.386375
20
645.356125
11
827.172000
21
645.674000
0
LINE
8
LAYER_1
10
827.172000
20
645.674000
11
826.854125
21
645.888375
0
LINE
8
LAYER_1
10
826.854125
20
645.888375
11
826.465000
21
645.967000
0
LINE
8
LAYER_1
10
827.465000
20
633.967000
11
827.465000
21
644.967000
0
LINE
8
LAYER_1
10
811.465000
20
645.967000
11
811.075453
21
645.888375
0
LINE
8
LAYER_1
10
811.075453
20
645.888375
11
810.757625
21
645.674000
0
LINE
8
LAYER_1
10
810.757625
20
645.674000
11
810.543484
21
645.356125
0
LINE
8
LAYER_1
10
810.543484
20
645.356125
11
810.465000
21
644.967000
0
LINE
8
LAYER_1
10
826.465000
20
645.967000
11
811.465000
21
645.967000
0
LINE
8
LAYER_1
10
810.465000
20
633.967000
11
810.541000
21
633.584250
0
LINE
8
LAYER_1
10
810.541000
20
633.584250
11
810.758000
21
633.260000
0
LINE
8
LAYER_1
10
810.758000
20
633.260000
11
811.082250
21
633.043000
0
LINE
8
LAYER_1
10
811.082250
20
633.043000
11
811.465000
21
632.967000
0
LINE
8
LAYER_1
10
810.465000
20
644.967000
11
810.465000
21
633.967000
0
LINE
8
LAYER_1
10
781.332000
20
644.592000
11
781.332000
21
654.142000
0
LINE
8
LAYER_1
10
781.332000
20
654.142000
11
778.332000
21
654.142000
0
LINE
8
LAYER_1
10
778.332000
20
654.142000
11
778.332000
21
644.592000
0
LINE
8
LAYER_1
10
778.332000
20
644.592000
11
781.332000
21
644.592000
0
LINE
8
LAYER_1
10
781.332000
20
644.592000
11
781.332000
21
644.592000
0
LINE
8
LAYER_1
10
771.007000
20
663.117000
11
771.007000
21
666.117000
0
LINE
8
LAYER_1
10
771.007000
20
666.117000
11
761.438000
21
666.117000
0
LINE
8
LAYER_1
10
761.438000
20
666.117000
11
761.438000
21
663.117000
0
LINE
8
LAYER_1
10
761.438000
20
663.117000
11
771.007000
21
663.117000
0
LINE
8
LAYER_1
10
771.007000
20
663.117000
11
771.007000
21
663.117000
0
LINE
8
LAYER_1
10
827.465000
20
629.767000
11
827.864625
21
629.659625
0
LINE
8
LAYER_1
10
827.864625
20
629.659625
11
828.157000
21
629.367000
0
LINE
8
LAYER_1
10
828.157000
20
629.367000
11
828.264250
21
628.966625
0
LINE
8
LAYER_1
10
828.264250
20
628.966625
11
828.157000
21
628.567000
0
LINE
8
LAYER_1
10
828.157000
20
628.567000
11
827.864625
21
628.274000
0
LINE
8
LAYER_1
10
827.864625
20
628.274000
11
827.465000
21
628.167000
0
LINE
8
LAYER_1
10
827.465000
20
628.167000
11
827.064875
21
628.274000
0
LINE
8
LAYER_1
10
827.064875
20
628.274000
11
826.772000
21
628.567000
0
LINE
8
LAYER_1
10
826.772000
20
628.567000
11
826.664750
21
628.966625
0
LINE
8
LAYER_1
10
826.664750
20
628.966625
11
826.772000
21
629.367000
0
LINE
8
LAYER_1
10
826.772000
20
629.367000
11
827.064875
21
629.659625
0
LINE
8
LAYER_1
10
827.064875
20
629.659625
11
827.465000
21
629.767000
0
LINE
8
LAYER_1
10
778.332000
20
634.642000
11
778.332000
21
625.092000
0
LINE
8
LAYER_1
10
778.332000
20
625.092000
11
781.332000
21
625.092000
0
LINE
8
LAYER_1
10
781.332000
20
625.092000
11
781.332000
21
634.642000
0
LINE
8
LAYER_1
10
781.332000
20
634.642000
11
778.332000
21
634.642000
0
LINE
8
LAYER_1
10
778.332000
20
634.642000
11
778.332000
21
634.642000
0
LINE
8
LAYER_1
10
827.465000
20
650.767000
11
827.864625
21
650.659625
0
LINE
8
LAYER_1
10
827.864625
20
650.659625
11
828.157000
21
650.367000
0
LINE
8
LAYER_1
10
828.157000
20
650.367000
11
828.264250
21
649.966625
0
LINE
8
LAYER_1
10
828.264250
20
649.966625
11
828.157000
21
649.567000
0
LINE
8
LAYER_1
10
828.157000
20
649.567000
11
827.864625
21
649.274000
0
LINE
8
LAYER_1
10
827.864625
20
649.274000
11
827.465000
21
649.167000
0
LINE
8
LAYER_1
10
827.465000
20
649.167000
11
827.064875
21
649.274000
0
LINE
8
LAYER_1
10
827.064875
20
649.274000
11
826.772000
21
649.567000
0
LINE
8
LAYER_1
10
826.772000
20
649.567000
11
826.664750
21
649.966625
0
LINE
8
LAYER_1
10
826.664750
20
649.966625
11
826.772000
21
650.367000
0
LINE
8
LAYER_1
10
826.772000
20
650.367000
11
827.064875
21
650.659625
0
LINE
8
LAYER_1
10
827.064875
20
650.659625
11
827.465000
21
650.767000
0
LINE
8
LAYER_1
10
761.457000
20
600.967000
11
761.457000
21
597.967000
0
LINE
8
LAYER_1
10
761.457000
20
597.967000
11
771.007000
21
597.967000
0
LINE
8
LAYER_1
10
771.007000
20
597.967000
11
771.007000
21
600.967000
0
LINE
8
LAYER_1
10
771.007000
20
600.967000
11
761.457000
21
600.967000
0
LINE
8
LAYER_1
10
761.457000
20
600.967000
11
761.457000
21
600.967000
0
LINE
8
LAYER_1
10
781.332000
20
673.842000
11
778.332000
21
673.842000
0
LINE
8
LAYER_1
10
778.332000
20
673.842000
11
778.332000
21
664.092000
0
LINE
8
LAYER_1
10
778.332000
20
664.092000
11
781.332000
21
664.092000
0
LINE
8
LAYER_1
10
781.332000
20
664.092000
11
781.332000
21
673.842000
0
LINE
8
LAYER_1
10
781.332000
20
673.842000
11
781.332000
21
673.842000
0
LINE
8
LAYER_1
10
761.438000
20
678.267000
11
771.007000
21
678.267000
0
LINE
8
LAYER_1
10
771.007000
20
678.267000
11
771.007000
21
681.267000
0
LINE
8
LAYER_1
10
771.007000
20
681.267000
11
761.457000
21
681.267000
0
LINE
8
LAYER_1
10
761.457000
20
681.267000
11
761.438000
21
678.267000
0
LINE
8
LAYER_1
10
761.438000
20
678.267000
11
761.438000
21
678.267000
0
LINE
8
LAYER_1
10
814.965000
20
629.767000
11
815.365125
21
629.659625
0
LINE
8
LAYER_1
10
815.365125
20
629.659625
11
815.658000
21
629.367000
0
LINE
8
LAYER_1
10
815.658000
20
629.367000
11
815.764500
21
628.966625
0
LINE
8
LAYER_1
10
815.764500
20
628.966625
11
815.658000
21
628.567000
0
LINE
8
LAYER_1
10
815.658000
20
628.567000
11
815.365125
21
628.274000
0
LINE
8
LAYER_1
10
815.365125
20
628.274000
11
814.965000
21
628.167000
0
LINE
8
LAYER_1
10
814.965000
20
628.167000
11
814.564875
21
628.274000
0
LINE
8
LAYER_1
10
814.564875
20
628.274000
11
814.272000
21
628.567000
0
LINE
8
LAYER_1
10
814.272000
20
628.567000
11
814.164750
21
628.966625
0
LINE
8
LAYER_1
10
814.164750
20
628.966625
11
814.272000
21
629.367000
0
LINE
8
LAYER_1
10
814.272000
20
629.367000
11
814.564875
21
629.659625
0
LINE
8
LAYER_1
10
814.564875
20
629.659625
11
814.965000
21
629.767000
0
LINE
8
LAYER_1
10
763.732000
20
688.767000
11
768.732000
21
688.767000
0
LINE
8
LAYER_1
10
768.732000
20
688.767000
11
768.732000
21
691.567000
0
LINE
8
LAYER_1
10
768.732000
20
691.567000
11
763.732000
21
691.567000
0
LINE
8
LAYER_1
10
763.732000
20
691.567000
11
763.732000
21
688.767000
0
LINE
8
LAYER_1
10
763.732000
20
688.767000
11
763.732000
21
688.767000
0
LINE
8
LAYER_1
10
814.965000
20
650.767000
11
815.365125
21
650.659625
0
LINE
8
LAYER_1
10
815.365125
20
650.659625
11
815.658000
21
650.367000
0
LINE
8
LAYER_1
10
815.658000
20
650.367000
11
815.764500
21
649.966625
0
LINE
8
LAYER_1
10
815.764500
20
649.966625
11
815.658000
21
649.567000
0
LINE
8
LAYER_1
10
815.658000
20
649.567000
11
815.365125
21
649.274000
0
LINE
8
LAYER_1
10
815.365125
20
649.274000
11
814.965000
21
649.167000
0
LINE
8
LAYER_1
10
814.965000
20
649.167000
11
814.564875
21
649.274000
0
LINE
8
LAYER_1
10
814.564875
20
649.274000
11
814.272000
21
649.567000
0
LINE
8
LAYER_1
10
814.272000
20
649.567000
11
814.164750
21
649.966625
0
LINE
8
LAYER_1
10
814.164750
20
649.966625
11
814.272000
21
650.367000
0
LINE
8
LAYER_1
10
814.272000
20
650.367000
11
814.564875
21
650.659625
0
LINE
8
LAYER_1
10
814.564875
20
650.659625
11
814.965000
21
650.767000
0
LINE
8
LAYER_1
10
813.965000
20
620.417000
11
814.917875
21
620.223891
0
LINE
8
LAYER_1
10
814.917875
20
620.223891
11
815.696000
21
619.698625
0
LINE
8
LAYER_1
10
815.696000
20
619.698625
11
816.220625
21
618.920047
0
LINE
8
LAYER_1
10
816.220625
20
618.920047
11
816.413000
21
617.967000
0
LINE
8
LAYER_1
10
816.413000
20
617.967000
11
816.220625
21
617.013953
0
LINE
8
LAYER_1
10
816.220625
20
617.013953
11
815.696000
21
616.235375
0
LINE
8
LAYER_1
10
815.696000
20
616.235375
11
814.917875
21
615.710109
0
LINE
8
LAYER_1
10
814.917875
20
615.710109
11
813.965000
21
615.517000
0
LINE
8
LAYER_1
10
813.965000
20
615.517000
11
813.011703
21
615.710109
0
LINE
8
LAYER_1
10
813.011703
20
615.710109
11
812.233625
21
616.235375
0
LINE
8
LAYER_1
10
812.233625
20
616.235375
11
811.709234
21
617.013953
0
LINE
8
LAYER_1
10
811.709234
20
617.013953
11
811.517000
21
617.967000
0
LINE
8
LAYER_1
10
811.517000
20
617.967000
11
811.709234
21
618.920047
0
LINE
8
LAYER_1
10
811.709234
20
618.920047
11
812.233625
21
619.698625
0
LINE
8
LAYER_1
10
812.233625
20
619.698625
11
813.011703
21
620.223891
0
LINE
8
LAYER_1
10
813.011703
20
620.223891
11
813.965000
21
620.417000
0
LINE
8
LAYER_1
10
834.530000
20
626.917000
11
835.483297
21
626.723891
0
LINE
8
LAYER_1
10
835.483297
20
626.723891
11
836.261375
21
626.198625
0
LINE
8
LAYER_1
10
836.261375
20
626.198625
11
836.785766
21
625.420047
0
LINE
8
LAYER_1
10
836.785766
20
625.420047
11
836.978000
21
624.467000
0
LINE
8
LAYER_1
10
836.978000
20
624.467000
11
836.785766
21
623.513953
0
LINE
8
LAYER_1
10
836.785766
20
623.513953
11
836.261375
21
622.735375
0
LINE
8
LAYER_1
10
836.261375
20
622.735375
11
835.483297
21
622.210109
0
LINE
8
LAYER_1
10
835.483297
20
622.210109
11
834.530000
21
622.017000
0
LINE
8
LAYER_1
10
834.530000
20
622.017000
11
833.577125
21
622.210109
0
LINE
8
LAYER_1
10
833.577125
20
622.210109
11
832.799000
21
622.735375
0
LINE
8
LAYER_1
10
832.799000
20
622.735375
11
832.274375
21
623.513953
0
LINE
8
LAYER_1
10
832.274375
20
623.513953
11
832.082000
21
624.467000
0
LINE
8
LAYER_1
10
832.082000
20
624.467000
11
832.274375
21
625.420047
0
LINE
8
LAYER_1
10
832.274375
20
625.420047
11
832.799000
21
626.198625
0
LINE
8
LAYER_1
10
832.799000
20
626.198625
11
833.577125
21
626.723891
0
LINE
8
LAYER_1
10
833.577125
20
626.723891
11
834.530000
21
626.917000
0
LINE
8
LAYER_1
10
834.530000
20
636.917000
11
835.169531
21
636.832188
0
LINE
8
LAYER_1
10
835.169531
20
636.832188
11
835.755250
21
636.588750
0
LINE
8
LAYER_1
10
835.755250
20
636.588750
11
836.258844
21
636.203188
0
LINE
8
LAYER_1
10
836.258844
20
636.203188
11
836.652000
21
635.692000
0
LINE
8
LAYER_1
10
836.652000
20
635.692000
11
836.898375
21
635.096000
0
LINE
8
LAYER_1
10
836.898375
20
635.096000
11
836.980500
21
634.467000
0
LINE
8
LAYER_1
10
836.980500
20
634.467000
11
836.898375
21
633.838000
0
LINE
8
LAYER_1
10
836.898375
20
633.838000
11
836.652000
21
633.242000
0
LINE
8
LAYER_1
10
836.652000
20
633.242000
11
836.258844
21
632.730812
0
LINE
8
LAYER_1
10
836.258844
20
632.730812
11
835.755250
21
632.345250
0
LINE
8
LAYER_1
10
835.755250
20
632.345250
11
835.169531
21
632.101813
0
LINE
8
LAYER_1
10
835.169531
20
632.101813
11
834.530000
21
632.017000
0
LINE
8
LAYER_1
10
834.530000
20
632.017000
11
833.890891
21
632.101813
0
LINE
8
LAYER_1
10
833.890891
20
632.101813
11
833.305125
21
632.345250
0
LINE
8
LAYER_1
10
833.305125
20
632.345250
11
832.801297
21
632.730812
0
LINE
8
LAYER_1
10
832.801297
20
632.730812
11
832.408000
21
633.242000
0
LINE
8
LAYER_1
10
832.408000
20
633.242000
11
832.162187
21
633.838000
0
LINE
8
LAYER_1
10
832.162187
20
633.838000
11
832.080250
21
634.467000
0
LINE
8
LAYER_1
10
832.080250
20
634.467000
11
832.162187
21
635.096000
0
LINE
8
LAYER_1
10
832.162187
20
635.096000
11
832.408000
21
635.692000
0
LINE
8
LAYER_1
10
832.408000
20
635.692000
11
832.801297
21
636.203188
0
LINE
8
LAYER_1
10
832.801297
20
636.203188
11
833.305125
21
636.588750
0
LINE
8
LAYER_1
10
833.305125
20
636.588750
11
833.890891
21
636.832188
0
LINE
8
LAYER_1
10
833.890891
20
636.832188
11
834.530000
21
636.917000
0
LINE
8
LAYER_1
10
834.530000
20
646.917000
11
835.483297
21
646.723891
0
LINE
8
LAYER_1
10
835.483297
20
646.723891
11
836.261375
21
646.198625
0
LINE
8
LAYER_1
10
836.261375
20
646.198625
11
836.785766
21
645.420047
0
LINE
8
LAYER_1
10
836.785766
20
645.420047
11
836.978000
21
644.467000
0
LINE
8
LAYER_1
10
836.978000
20
644.467000
11
836.785766
21
643.513953
0
LINE
8
LAYER_1
10
836.785766
20
643.513953
11
836.261375
21
642.735375
0
LINE
8
LAYER_1
10
836.261375
20
642.735375
11
835.483297
21
642.210109
0
LINE
8
LAYER_1
10
835.483297
20
642.210109
11
834.530000
21
642.017000
0
LINE
8
LAYER_1
10
834.530000
20
642.017000
11
833.577125
21
642.210109
0
LINE
8
LAYER_1
10
833.577125
20
642.210109
11
832.799000
21
642.735375
0
LINE
8
LAYER_1
10
832.799000
20
642.735375
11
832.274375
21
643.513953
0
LINE
8
LAYER_1
10
832.274375
20
643.513953
11
832.082000
21
644.467000
0
LINE
8
LAYER_1
10
832.082000
20
644.467000
11
832.274375
21
645.420047
0
LINE
8
LAYER_1
10
832.274375
20
645.420047
11
832.799000
21
646.198625
0
LINE
8
LAYER_1
10
832.799000
20
646.198625
11
833.577125
21
646.723891
0
LINE
8
LAYER_1
10
833.577125
20
646.723891
11
834.530000
21
646.917000
0
LINE
8
LAYER_1
10
834.530000
20
656.917000
11
835.169531
21
656.832188
0
LINE
8
LAYER_1
10
835.169531
20
656.832188
11
835.755250
21
656.588750
0
LINE
8
LAYER_1
10
835.755250
20
656.588750
11
836.258844
21
656.203188
0
LINE
8
LAYER_1
10
836.258844
20
656.203188
11
836.652000
21
655.692000
0
LINE
8
LAYER_1
10
836.652000
20
655.692000
11
836.898375
21
655.096000
0
LINE
8
LAYER_1
10
836.898375
20
655.096000
11
836.980500
21
654.467000
0
LINE
8
LAYER_1
10
836.980500
20
654.467000
11
836.898375
21
653.838000
0
LINE
8
LAYER_1
10
836.898375
20
653.838000
11
836.652000
21
653.242000
0
LINE
8
LAYER_1
10
836.652000
20
653.242000
11
836.258844
21
652.730812
0
LINE
8
LAYER_1
10
836.258844
20
652.730812
11
835.755250
21
652.345250
0
LINE
8
LAYER_1
10
835.755250
20
652.345250
11
835.169531
21
652.101813
0
LINE
8
LAYER_1
10
835.169531
20
652.101813
11
834.530000
21
652.017000
0
LINE
8
LAYER_1
10
834.530000
20
652.017000
11
833.890891
21
652.101813
0
LINE
8
LAYER_1
10
833.890891
20
652.101813
11
833.305125
21
652.345250
0
LINE
8
LAYER_1
10
833.305125
20
652.345250
11
832.801297
21
652.730812
0
LINE
8
LAYER_1
10
832.801297
20
652.730812
11
832.408000
21
653.242000
0
LINE
8
LAYER_1
10
832.408000
20
653.242000
11
832.162187
21
653.838000
0
LINE
8
LAYER_1
10
832.162187
20
653.838000
11
832.080250
21
654.467000
0
LINE
8
LAYER_1
10
832.080250
20
654.467000
11
832.162187
21
655.096000
0
LINE
8
LAYER_1
10
832.162187
20
655.096000
11
832.408000
21
655.692000
0
LINE
8
LAYER_1
10
832.408000
20
655.692000
11
832.801297
21
656.203188
0
LINE
8
LAYER_1
10
832.801297
20
656.203188
11
833.305125
21
656.588750
0
LINE
8
LAYER_1
10
833.305125
20
656.588750
11
833.890891
21
656.832188
0
LINE
8
LAYER_1
10
833.890891
20
656.832188
11
834.530000
21
656.917000
0
LINE
8
LAYER_1
10
813.965000
20
663.417000
11
814.604094
21
663.332188
0
LINE
8
LAYER_1
10
814.604094
20
663.332188
11
815.189750
21
663.088750
0
LINE
8
LAYER_1
10
815.189750
20
663.088750
11
815.693281
21
662.703188
0
LINE
8
LAYER_1
10
815.693281
20
662.703188
11
816.086000
21
662.192000
0
LINE
8
LAYER_1
10
816.086000
20
662.192000
11
816.332375
21
661.596000
0
LINE
8
LAYER_1
10
816.332375
20
661.596000
11
816.414500
21
660.967000
0
LINE
8
LAYER_1
10
816.414500
20
660.967000
11
816.332375
21
660.338000
0
LINE
8
LAYER_1
10
816.332375
20
660.338000
11
816.086000
21
659.742000
0
LINE
8
LAYER_1
10
816.086000
20
659.742000
11
815.693281
21
659.230812
0
LINE
8
LAYER_1
10
815.693281
20
659.230812
11
815.189750
21
658.845250
0
LINE
8
LAYER_1
10
815.189750
20
658.845250
11
814.604094
21
658.601813
0
LINE
8
LAYER_1
10
814.604094
20
658.601813
11
813.965000
21
658.517000
0
LINE
8
LAYER_1
10
813.965000
20
658.517000
11
813.325469
21
658.601813
0
LINE
8
LAYER_1
10
813.325469
20
658.601813
11
812.739750
21
658.845250
0
LINE
8
LAYER_1
10
812.739750
20
658.845250
11
812.236156
21
659.230812
0
LINE
8
LAYER_1
10
812.236156
20
659.230812
11
811.843000
21
659.742000
0
LINE
8
LAYER_1
10
811.843000
20
659.742000
11
811.596625
21
660.338000
0
LINE
8
LAYER_1
10
811.596625
20
660.338000
11
811.514500
21
660.967000
0
LINE
8
LAYER_1
10
811.514500
20
660.967000
11
811.596625
21
661.596000
0
LINE
8
LAYER_1
10
811.596625
20
661.596000
11
811.843000
21
662.192000
0
LINE
8
LAYER_1
10
811.843000
20
662.192000
11
812.236156
21
662.703188
0
LINE
8
LAYER_1
10
812.236156
20
662.703188
11
812.739750
21
663.088750
0
LINE
8
LAYER_1
10
812.739750
20
663.088750
11
813.325469
21
663.332188
0
LINE
8
LAYER_1
10
813.325469
20
663.332188
11
813.965000
21
663.417000
0
LINE
8
LAYER_1
10
230.407000
20
597.968000
11
230.407000
21
600.968000
0
LINE
8
LAYER_1
10
230.407000
20
600.968000
11
239.957000
21
600.968000
0
LINE
8
LAYER_1
10
239.957000
20
600.968000
11
239.957000
21
597.968000
0
LINE
8
LAYER_1
10
239.957000
20
597.968000
11
230.407000
21
597.968000
0
LINE
8
LAYER_1
10
230.407000
20
597.968000
11
230.407000
21
597.968000
0
LINE
8
LAYER_1
10
291.181000
20
675.942000
11
290.415875
21
675.790125
0
LINE
8
LAYER_1
10
290.415875
20
675.790125
11
289.767000
21
675.357000
0
LINE
8
LAYER_1
10
289.767000
20
675.357000
11
289.333500
21
674.707625
0
LINE
8
LAYER_1
10
289.333500
20
674.707625
11
289.182000
21
673.942000
0
LINE
8
LAYER_1
10
294.681000
20
675.942000
11
291.181000
21
675.942000
0
LINE
8
LAYER_1
10
289.182000
20
670.442000
11
289.333500
21
669.676875
0
LINE
8
LAYER_1
10
289.333500
20
669.676875
11
289.767000
21
669.028000
0
LINE
8
LAYER_1
10
289.767000
20
669.028000
11
290.415875
21
668.594375
0
LINE
8
LAYER_1
10
290.415875
20
668.594375
11
291.181000
21
668.442000
0
LINE
8
LAYER_1
10
289.182000
20
673.942000
11
289.182000
21
670.442000
0
LINE
8
LAYER_1
10
294.681000
20
668.442000
11
295.447000
21
668.594375
0
LINE
8
LAYER_1
10
295.447000
20
668.594375
11
296.096000
21
669.028000
0
LINE
8
LAYER_1
10
296.096000
20
669.028000
11
296.529125
21
669.676875
0
LINE
8
LAYER_1
10
296.529125
20
669.676875
11
296.681000
21
670.442000
0
LINE
8
LAYER_1
10
291.181000
20
668.442000
11
294.681000
21
668.442000
0
LINE
8
LAYER_1
10
296.681000
20
673.942000
11
296.529125
21
674.707625
0
LINE
8
LAYER_1
10
296.529125
20
674.707625
11
296.096000
21
675.357000
0
LINE
8
LAYER_1
10
296.096000
20
675.357000
11
295.447000
21
675.790125
0
LINE
8
LAYER_1
10
295.447000
20
675.790125
11
294.681000
21
675.942000
0
LINE
8
LAYER_1
10
296.681000
20
670.442000
11
296.681000
21
673.942000
0
LINE
8
LAYER_1
10
169.907000
20
678.267000
11
170.672125
21
678.115125
0
LINE
8
LAYER_1
10
170.672125
20
678.115125
11
171.321000
21
677.682000
0
LINE
8
LAYER_1
10
171.321000
20
677.682000
11
171.754625
21
677.032625
0
LINE
8
LAYER_1
10
171.754625
20
677.032625
11
171.907000
21
676.267000
0
LINE
8
LAYER_1
10
161.957000
20
681.267000
11
161.957000
21
678.267000
0
LINE
8
LAYER_1
10
161.957000
20
678.267000
11
169.907000
21
678.267000
0
LINE
8
LAYER_1
10
171.907000
20
668.117000
11
171.754625
21
667.351875
0
LINE
8
LAYER_1
10
171.754625
20
667.351875
11
171.321000
21
666.703000
0
LINE
8
LAYER_1
10
171.321000
20
666.703000
11
170.672125
21
666.269375
0
LINE
8
LAYER_1
10
170.672125
20
666.269375
11
169.907000
21
666.117000
0
LINE
8
LAYER_1
10
171.907000
20
676.267000
11
171.907000
21
668.117000
0
LINE
8
LAYER_1
10
300.531000
20
597.968000
11
288.907000
21
597.968000
0
LINE
8
LAYER_1
10
288.907000
20
597.968000
11
288.907000
21
600.968000
0
LINE
8
LAYER_1
10
288.907000
20
600.968000
11
297.531000
21
600.968000
0
LINE
8
LAYER_1
10
297.531000
20
600.968000
11
297.531000
21
605.293000
0
LINE
8
LAYER_1
10
297.531000
20
605.293000
11
300.531000
21
605.293000
0
LINE
8
LAYER_1
10
230.407000
20
678.267000
11
230.407000
21
681.267000
0
LINE
8
LAYER_1
10
230.407000
20
681.267000
11
239.957000
21
681.267000
0
LINE
8
LAYER_1
10
239.957000
20
681.267000
11
239.957000
21
678.267000
0
LINE
8
LAYER_1
10
239.957000
20
678.267000
11
230.407000
21
678.267000
0
LINE
8
LAYER_1
10
230.407000
20
678.267000
11
230.407000
21
678.267000
0
LINE
8
LAYER_1
10
191.407000
20
613.117000
11
191.407000
21
616.117000
0
LINE
8
LAYER_1
10
191.407000
20
616.117000
11
200.957000
21
616.117000
0
LINE
8
LAYER_1
10
200.957000
20
616.117000
11
200.957000
21
613.117000
0
LINE
8
LAYER_1
10
200.957000
20
613.117000
11
191.407000
21
613.117000
0
LINE
8
LAYER_1
10
191.407000
20
613.117000
11
191.407000
21
613.117000
0
LINE
8
LAYER_1
10
181.457000
20
613.117000
11
171.907000
21
613.117000
0
LINE
8
LAYER_1
10
171.907000
20
613.117000
11
171.907000
21
616.117000
0
LINE
8
LAYER_1
10
171.907000
20
616.117000
11
181.457000
21
616.117000
0
LINE
8
LAYER_1
10
181.457000
20
616.117000
11
181.457000
21
613.117000
0
LINE
8
LAYER_1
10
181.457000
20
613.117000
11
181.457000
21
613.117000
0
LINE
8
LAYER_1
10
191.407000
20
681.267000
11
200.957000
21
681.267000
0
LINE
8
LAYER_1
10
200.957000
20
681.267000
11
200.957000
21
678.267000
0
LINE
8
LAYER_1
10
200.957000
20
678.267000
11
191.407000
21
678.267000
0
LINE
8
LAYER_1
10
191.407000
20
678.267000
11
191.407000
21
681.267000
0
LINE
8
LAYER_1
10
191.407000
20
681.267000
11
191.407000
21
681.267000
0
LINE
8
LAYER_1
10
200.957000
20
600.968000
11
200.957000
21
597.968000
0
LINE
8
LAYER_1
10
200.957000
20
597.968000
11
191.407000
21
597.968000
0
LINE
8
LAYER_1
10
191.407000
20
597.968000
11
191.407000
21
600.968000
0
LINE
8
LAYER_1
10
191.407000
20
600.968000
11
200.957000
21
600.968000
0
LINE
8
LAYER_1
10
200.957000
20
600.968000
11
200.957000
21
600.968000
0
LINE
8
LAYER_1
10
249.907000
20
597.968000
11
249.907000
21
600.968000
0
LINE
8
LAYER_1
10
249.907000
20
600.968000
11
259.457000
21
600.968000
0
LINE
8
LAYER_1
10
259.457000
20
600.968000
11
259.457000
21
597.968000
0
LINE
8
LAYER_1
10
259.457000
20
597.968000
11
249.907000
21
597.968000
0
LINE
8
LAYER_1
10
249.907000
20
597.968000
11
249.907000
21
597.968000
0
LINE
8
LAYER_1
10
278.957000
20
666.117000
11
278.957000
21
663.117000
0
LINE
8
LAYER_1
10
278.957000
20
663.117000
11
269.407000
21
663.117000
0
LINE
8
LAYER_1
10
269.407000
20
663.117000
11
269.407000
21
666.117000
0
LINE
8
LAYER_1
10
269.407000
20
666.117000
11
278.957000
21
666.117000
0
LINE
8
LAYER_1
10
278.957000
20
666.117000
11
278.957000
21
666.117000
0
LINE
8
LAYER_1
10
291.181000
20
610.792000
11
290.402906
21
610.634906
0
LINE
8
LAYER_1
10
290.402906
20
610.634906
11
289.767500
21
610.206500
0
LINE
8
LAYER_1
10
289.767500
20
610.206500
11
289.339094
21
609.571094
0
LINE
8
LAYER_1
10
289.339094
20
609.571094
11
289.182000
21
608.793000
0
LINE
8
LAYER_1
10
294.681000
20
610.792000
11
291.181000
21
610.792000
0
LINE
8
LAYER_1
10
289.182000
20
605.293000
11
289.339094
21
604.514328
0
LINE
8
LAYER_1
10
289.339094
20
604.514328
11
289.767500
21
603.878625
0
LINE
8
LAYER_1
10
289.767500
20
603.878625
11
290.402906
21
603.450109
0
LINE
8
LAYER_1
10
290.402906
20
603.450109
11
291.181000
21
603.293000
0
LINE
8
LAYER_1
10
289.182000
20
608.793000
11
289.182000
21
605.293000
0
LINE
8
LAYER_1
10
294.681000
20
603.293000
11
295.459672
21
603.450109
0
LINE
8
LAYER_1
10
295.459672
20
603.450109
11
296.095375
21
603.878625
0
LINE
8
LAYER_1
10
296.095375
20
603.878625
11
296.523891
21
604.514328
0
LINE
8
LAYER_1
10
296.523891
20
604.514328
11
296.681000
21
605.293000
0
LINE
8
LAYER_1
10
291.181000
20
603.293000
11
294.681000
21
603.293000
0
LINE
8
LAYER_1
10
296.681000
20
608.793000
11
296.523891
21
609.571094
0
LINE
8
LAYER_1
10
296.523891
20
609.571094
11
296.095375
21
610.206500
0
LINE
8
LAYER_1
10
296.095375
20
610.206500
11
295.459672
21
610.634906
0
LINE
8
LAYER_1
10
295.459672
20
610.634906
11
294.681000
21
610.792000
0
LINE
8
LAYER_1
10
296.681000
20
605.293000
11
296.681000
21
608.793000
0
LINE
8
LAYER_1
10
200.957000
20
666.117000
11
200.957000
21
663.117000
0
LINE
8
LAYER_1
10
200.957000
20
663.117000
11
191.407000
21
663.117000
0
LINE
8
LAYER_1
10
191.407000
20
663.117000
11
191.407000
21
666.117000
0
LINE
8
LAYER_1
10
191.407000
20
666.117000
11
200.957000
21
666.117000
0
LINE
8
LAYER_1
10
200.957000
20
666.117000
11
200.957000
21
666.117000
0
LINE
8
LAYER_1
10
249.907000
20
681.267000
11
259.457000
21
681.267000
0
LINE
8
LAYER_1
10
259.457000
20
681.267000
11
259.457000
21
678.267000
0
LINE
8
LAYER_1
10
259.457000
20
678.267000
11
249.907000
21
678.267000
0
LINE
8
LAYER_1
10
249.907000
20
678.267000
11
249.907000
21
681.267000
0
LINE
8
LAYER_1
10
249.907000
20
681.267000
11
249.907000
21
681.267000
0
LINE
8
LAYER_1
10
220.457000
20
663.117000
11
210.907000
21
663.117000
0
LINE
8
LAYER_1
10
210.907000
20
663.117000
11
210.907000
21
666.117000
0
LINE
8
LAYER_1
10
210.907000
20
666.117000
11
220.457000
21
666.117000
0
LINE
8
LAYER_1
10
220.457000
20
666.117000
11
220.457000
21
663.117000
0
LINE
8
LAYER_1
10
220.457000
20
663.117000
11
220.457000
21
663.117000
0
LINE
8
LAYER_1
10
259.457000
20
663.117000
11
249.907000
21
663.117000
0
LINE
8
LAYER_1
10
249.907000
20
663.117000
11
249.907000
21
666.117000
0
LINE
8
LAYER_1
10
249.907000
20
666.117000
11
259.457000
21
666.117000
0
LINE
8
LAYER_1
10
259.457000
20
666.117000
11
259.457000
21
663.117000
0
LINE
8
LAYER_1
10
259.457000
20
663.117000
11
259.457000
21
663.117000
0
LINE
8
LAYER_1
10
269.407000
20
616.117000
11
278.957000
21
616.117000
0
LINE
8
LAYER_1
10
278.957000
20
616.117000
11
278.957000
21
613.117000
0
LINE
8
LAYER_1
10
278.957000
20
613.117000
11
269.407000
21
613.117000
0
LINE
8
LAYER_1
10
269.407000
20
613.117000
11
269.407000
21
616.117000
0
LINE
8
LAYER_1
10
269.407000
20
616.117000
11
269.407000
21
616.117000
0
LINE
8
LAYER_1
10
171.907000
20
663.117000
11
171.907000
21
666.117000
0
LINE
8
LAYER_1
10
171.907000
20
666.117000
11
181.457000
21
666.117000
0
LINE
8
LAYER_1
10
181.457000
20
666.117000
11
181.457000
21
663.117000
0
LINE
8
LAYER_1
10
181.457000
20
663.117000
11
171.907000
21
663.117000
0
LINE
8
LAYER_1
10
171.907000
20
663.117000
11
171.907000
21
663.117000
0
LINE
8
LAYER_1
10
230.407000
20
666.117000
11
239.957000
21
666.117000
0
LINE
8
LAYER_1
10
239.957000
20
666.117000
11
239.957000
21
663.117000
0
LINE
8
LAYER_1
10
239.957000
20
663.117000
11
230.407000
21
663.117000
0
LINE
8
LAYER_1
10
230.407000
20
663.117000
11
230.407000
21
666.117000
0
LINE
8
LAYER_1
10
230.407000
20
666.117000
11
230.407000
21
666.117000
0
LINE
8
LAYER_1
10
171.907000
20
678.267000
11
171.907000
21
681.267000
0
LINE
8
LAYER_1
10
171.907000
20
681.267000
11
181.457000
21
681.267000
0
LINE
8
LAYER_1
10
181.457000
20
681.267000
11
181.457000
21
678.267000
0
LINE
8
LAYER_1
10
181.457000
20
678.267000
11
171.907000
21
678.267000
0
LINE
8
LAYER_1
10
171.907000
20
678.267000
11
171.907000
21
678.267000
0
LINE
8
LAYER_1
10
220.457000
20
681.267000
11
220.457000
21
678.267000
0
LINE
8
LAYER_1
10
220.457000
20
678.267000
11
210.907000
21
678.267000
0
LINE
8
LAYER_1
10
210.907000
20
678.267000
11
210.907000
21
681.267000
0
LINE
8
LAYER_1
10
210.907000
20
681.267000
11
220.457000
21
681.267000
0
LINE
8
LAYER_1
10
220.457000
20
681.267000
11
220.457000
21
681.267000
0
LINE
8
LAYER_1
10
220.457000
20
600.968000
11
220.457000
21
597.968000
0
LINE
8
LAYER_1
10
220.457000
20
597.968000
11
210.907000
21
597.968000
0
LINE
8
LAYER_1
10
210.907000
20
597.968000
11
210.907000
21
600.968000
0
LINE
8
LAYER_1
10
210.907000
20
600.968000
11
220.457000
21
600.968000
0
LINE
8
LAYER_1
10
220.457000
20
600.968000
11
220.457000
21
600.968000
0
LINE
8
LAYER_1
10
220.457000
20
613.117000
11
210.907000
21
613.117000
0
LINE
8
LAYER_1
10
210.907000
20
613.117000
11
210.907000
21
616.117000
0
LINE
8
LAYER_1
10
210.907000
20
616.117000
11
220.457000
21
616.117000
0
LINE
8
LAYER_1
10
220.457000
20
616.117000
11
220.457000
21
613.117000
0
LINE
8
LAYER_1
10
220.457000
20
613.117000
11
220.457000
21
613.117000
0
LINE
8
LAYER_1
10
259.457000
20
616.117000
11
259.457000
21
613.117000
0
LINE
8
LAYER_1
10
259.457000
20
613.117000
11
249.907000
21
613.117000
0
LINE
8
LAYER_1
10
249.907000
20
613.117000
11
249.907000
21
616.117000
0
LINE
8
LAYER_1
10
249.907000
20
616.117000
11
259.457000
21
616.117000
0
LINE
8
LAYER_1
10
259.457000
20
616.117000
11
259.457000
21
616.117000
0
LINE
8
LAYER_1
10
239.957000
20
616.117000
11
239.957000
21
613.117000
0
LINE
8
LAYER_1
10
239.957000
20
613.117000
11
230.407000
21
613.117000
0
LINE
8
LAYER_1
10
230.407000
20
613.117000
11
230.407000
21
616.117000
0
LINE
8
LAYER_1
10
230.407000
20
616.117000
11
239.957000
21
616.117000
0
LINE
8
LAYER_1
10
239.957000
20
616.117000
11
239.957000
21
616.117000
0
LINE
8
LAYER_1
10
278.957000
20
600.968000
11
278.957000
21
597.968000
0
LINE
8
LAYER_1
10
278.957000
20
597.968000
11
269.407000
21
597.968000
0
LINE
8
LAYER_1
10
269.407000
20
597.968000
11
269.407000
21
600.968000
0
LINE
8
LAYER_1
10
269.407000
20
600.968000
11
278.957000
21
600.968000
0
LINE
8
LAYER_1
10
278.957000
20
600.968000
11
278.957000
21
600.968000
0
LINE
8
LAYER_1
10
181.457000
20
600.968000
11
181.457000
21
597.968000
0
LINE
8
LAYER_1
10
181.457000
20
597.968000
11
171.907000
21
597.968000
0
LINE
8
LAYER_1
10
171.907000
20
597.968000
11
171.907000
21
600.968000
0
LINE
8
LAYER_1
10
171.907000
20
600.968000
11
181.457000
21
600.968000
0
LINE
8
LAYER_1
10
181.457000
20
600.968000
11
181.457000
21
600.968000
0
LINE
8
LAYER_1
10
196.177000
20
593.878000
11
196.565078
21
593.958172
0
LINE
8
LAYER_1
10
196.565078
20
593.958172
11
196.881625
21
594.172875
0
LINE
8
LAYER_1
10
196.881625
20
594.172875
11
197.094859
21
594.490141
0
LINE
8
LAYER_1
10
197.094859
20
594.490141
11
197.173000
21
594.878000
0
LINE
8
LAYER_1
10
197.173000
20
594.878000
11
197.094859
21
595.266422
0
LINE
8
LAYER_1
10
197.094859
20
595.266422
11
196.881625
21
595.583875
0
LINE
8
LAYER_1
10
196.881625
20
595.583875
11
196.565078
21
595.798391
0
LINE
8
LAYER_1
10
196.565078
20
595.798391
11
196.177000
21
595.878000
0
LINE
8
LAYER_1
10
196.177000
20
595.878000
11
195.788922
21
595.798391
0
LINE
8
LAYER_1
10
195.788922
20
595.798391
11
195.472375
21
595.583875
0
LINE
8
LAYER_1
10
195.472375
20
595.583875
11
195.259141
21
595.266422
0
LINE
8
LAYER_1
10
195.259141
20
595.266422
11
195.181000
21
594.878000
0
LINE
8
LAYER_1
10
195.181000
20
594.878000
11
195.259141
21
594.490141
0
LINE
8
LAYER_1
10
195.259141
20
594.490141
11
195.472375
21
594.172875
0
LINE
8
LAYER_1
10
195.472375
20
594.172875
11
195.788922
21
593.958172
0
LINE
8
LAYER_1
10
195.788922
20
593.958172
11
196.177000
21
593.878000
0
LINE
8
LAYER_1
10
278.957000
20
681.267000
11
278.957000
21
678.267000
0
LINE
8
LAYER_1
10
278.957000
20
678.267000
11
269.407000
21
678.267000
0
LINE
8
LAYER_1
10
269.407000
20
678.267000
11
269.407000
21
681.267000
0
LINE
8
LAYER_1
10
269.407000
20
681.267000
11
278.957000
21
681.267000
0
LINE
8
LAYER_1
10
278.957000
20
681.267000
11
278.957000
21
681.267000
0
LINE
8
LAYER_1
10
196.173000
20
638.378000
11
196.672750
21
638.512125
0
LINE
8
LAYER_1
10
196.672750
20
638.512125
11
197.039000
21
638.878000
0
LINE
8
LAYER_1
10
197.039000
20
638.878000
11
197.173250
21
639.378375
0
LINE
8
LAYER_1
10
197.173250
20
639.378375
11
197.039000
21
639.878000
0
LINE
8
LAYER_1
10
197.039000
20
639.878000
11
196.672750
21
640.244250
0
LINE
8
LAYER_1
10
196.672750
20
640.244250
11
196.173000
21
640.378000
0
LINE
8
LAYER_1
10
196.173000
20
640.378000
11
195.673250
21
640.244250
0
LINE
8
LAYER_1
10
195.673250
20
640.244250
11
195.307000
21
639.878000
0
LINE
8
LAYER_1
10
195.307000
20
639.878000
11
195.172750
21
639.378375
0
LINE
8
LAYER_1
10
195.172750
20
639.378375
11
195.307000
21
638.878000
0
LINE
8
LAYER_1
10
195.307000
20
638.878000
11
195.673250
21
638.512125
0
LINE
8
LAYER_1
10
195.673250
20
638.512125
11
196.173000
21
638.378000
0
LINE
8
LAYER_1
10
156.577000
20
638.378000
11
157.076750
21
638.512125
0
LINE
8
LAYER_1
10
157.076750
20
638.512125
11
157.443000
21
638.878000
0
LINE
8
LAYER_1
10
157.443000
20
638.878000
11
157.577250
21
639.378375
0
LINE
8
LAYER_1
10
157.577250
20
639.378375
11
157.443000
21
639.878000
0
LINE
8
LAYER_1
10
157.443000
20
639.878000
11
157.076750
21
640.244250
0
LINE
8
LAYER_1
10
157.076750
20
640.244250
11
156.577000
21
640.378000
0
LINE
8
LAYER_1
10
156.577000
20
640.378000
11
156.077250
21
640.244250
0
LINE
8
LAYER_1
10
156.077250
20
640.244250
11
155.711000
21
639.878000
0
LINE
8
LAYER_1
10
155.711000
20
639.878000
11
155.576750
21
639.378375
0
LINE
8
LAYER_1
10
155.576750
20
639.378375
11
155.711000
21
638.878000
0
LINE
8
LAYER_1
10
155.711000
20
638.878000
11
156.077250
21
638.512125
0
LINE
8
LAYER_1
10
156.077250
20
638.512125
11
156.577000
21
638.378000
0
LINE
8
LAYER_1
10
156.577000
20
593.878000
11
156.965078
21
593.958172
0
LINE
8
LAYER_1
10
156.965078
20
593.958172
11
157.281625
21
594.172875
0
LINE
8
LAYER_1
10
157.281625
20
594.172875
11
157.494859
21
594.490141
0
LINE
8
LAYER_1
10
157.494859
20
594.490141
11
157.573000
21
594.878000
0
LINE
8
LAYER_1
10
157.573000
20
594.878000
11
157.494859
21
595.266422
0
LINE
8
LAYER_1
10
157.494859
20
595.266422
11
157.281625
21
595.583875
0
LINE
8
LAYER_1
10
157.281625
20
595.583875
11
156.965078
21
595.798391
0
LINE
8
LAYER_1
10
156.965078
20
595.798391
11
156.577000
21
595.878000
0
LINE
8
LAYER_1
10
156.577000
20
595.878000
11
156.188922
21
595.798391
0
LINE
8
LAYER_1
10
156.188922
20
595.798391
11
155.872375
21
595.583875
0
LINE
8
LAYER_1
10
155.872375
20
595.583875
11
155.659141
21
595.266422
0
LINE
8
LAYER_1
10
155.659141
20
595.266422
11
155.581000
21
594.878000
0
LINE
8
LAYER_1
10
155.581000
20
594.878000
11
155.659141
21
594.490141
0
LINE
8
LAYER_1
10
155.659141
20
594.490141
11
155.872375
21
594.172875
0
LINE
8
LAYER_1
10
155.872375
20
594.172875
11
156.188922
21
593.958172
0
LINE
8
LAYER_1
10
156.188922
20
593.958172
11
156.577000
21
593.878000
0
LINE
8
LAYER_1
10
275.372000
20
644.217000
11
275.760969
21
644.296187
0
LINE
8
LAYER_1
10
275.760969
20
644.296187
11
276.078500
21
644.510750
0
LINE
8
LAYER_1
10
276.078500
20
644.510750
11
276.292531
21
644.828437
0
LINE
8
LAYER_1
10
276.292531
20
644.828437
11
276.371000
21
645.217000
0
LINE
8
LAYER_1
10
276.371000
20
645.217000
11
276.292531
21
645.606125
0
LINE
8
LAYER_1
10
276.292531
20
645.606125
11
276.078500
21
645.924000
0
LINE
8
LAYER_1
10
276.078500
20
645.924000
11
275.760969
21
646.138375
0
LINE
8
LAYER_1
10
275.760969
20
646.138375
11
275.372000
21
646.217000
0
LINE
8
LAYER_1
10
275.372000
20
646.217000
11
274.983031
21
646.138375
0
LINE
8
LAYER_1
10
274.983031
20
646.138375
11
274.665500
21
645.924000
0
LINE
8
LAYER_1
10
274.665500
20
645.924000
11
274.451469
21
645.606125
0
LINE
8
LAYER_1
10
274.451469
20
645.606125
11
274.373000
21
645.217000
0
LINE
8
LAYER_1
10
274.373000
20
645.217000
11
274.451469
21
644.828437
0
LINE
8
LAYER_1
10
274.451469
20
644.828437
11
274.665500
21
644.510750
0
LINE
8
LAYER_1
10
274.665500
20
644.510750
11
274.983031
21
644.296187
0
LINE
8
LAYER_1
10
274.983031
20
644.296187
11
275.372000
21
644.217000
0
LINE
8
LAYER_1
10
276.642000
20
692.470000
11
277.141750
21
692.603750
0
LINE
8
LAYER_1
10
277.141750
20
692.603750
11
277.508000
21
692.970000
0
LINE
8
LAYER_1
10
277.508000
20
692.970000
11
277.641500
21
693.469625
0
LINE
8
LAYER_1
10
277.641500
20
693.469625
11
277.508000
21
693.970000
0
LINE
8
LAYER_1
10
277.508000
20
693.970000
11
277.141750
21
694.335875
0
LINE
8
LAYER_1
10
277.141750
20
694.335875
11
276.642000
21
694.470000
0
LINE
8
LAYER_1
10
276.642000
20
694.470000
11
276.141500
21
694.335875
0
LINE
8
LAYER_1
10
276.141500
20
694.335875
11
275.776000
21
693.970000
0
LINE
8
LAYER_1
10
275.776000
20
693.970000
11
275.641750
21
693.469625
0
LINE
8
LAYER_1
10
275.641750
20
693.469625
11
275.776000
21
692.970000
0
LINE
8
LAYER_1
10
275.776000
20
692.970000
11
276.141500
21
692.603750
0
LINE
8
LAYER_1
10
276.141500
20
692.603750
11
276.642000
21
692.470000
0
LINE
8
LAYER_1
10
224.573000
20
687.397000
11
224.961391
21
687.475625
0
LINE
8
LAYER_1
10
224.961391
20
687.475625
11
225.278625
21
687.690000
0
LINE
8
LAYER_1
10
225.278625
20
687.690000
11
225.492547
21
688.007875
0
LINE
8
LAYER_1
10
225.492547
20
688.007875
11
225.571000
21
688.397000
0
LINE
8
LAYER_1
10
225.571000
20
688.397000
11
225.492547
21
688.785563
0
LINE
8
LAYER_1
10
225.492547
20
688.785563
11
225.278625
21
689.103250
0
LINE
8
LAYER_1
10
225.278625
20
689.103250
11
224.961391
21
689.317813
0
LINE
8
LAYER_1
10
224.961391
20
689.317813
11
224.573000
21
689.397000
0
LINE
8
LAYER_1
10
224.573000
20
689.397000
11
224.184031
21
689.317813
0
LINE
8
LAYER_1
10
224.184031
20
689.317813
11
223.866500
21
689.103250
0
LINE
8
LAYER_1
10
223.866500
20
689.103250
11
223.652469
21
688.785563
0
LINE
8
LAYER_1
10
223.652469
20
688.785563
11
223.574000
21
688.397000
0
LINE
8
LAYER_1
10
223.574000
20
688.397000
11
223.652469
21
688.007875
0
LINE
8
LAYER_1
10
223.652469
20
688.007875
11
223.866500
21
687.690000
0
LINE
8
LAYER_1
10
223.866500
20
687.690000
11
224.184031
21
687.475625
0
LINE
8
LAYER_1
10
224.184031
20
687.475625
11
224.573000
21
687.397000
0
LINE
8
LAYER_1
10
224.572000
20
659.457000
11
225.072125
21
659.591125
0
LINE
8
LAYER_1
10
225.072125
20
659.591125
11
225.438000
21
659.957000
0
LINE
8
LAYER_1
10
225.438000
20
659.957000
11
225.572250
21
660.457375
0
LINE
8
LAYER_1
10
225.572250
20
660.457375
11
225.438000
21
660.957000
0
LINE
8
LAYER_1
10
225.438000
20
660.957000
11
225.072125
21
661.323250
0
LINE
8
LAYER_1
10
225.072125
20
661.323250
11
224.572000
21
661.457000
0
LINE
8
LAYER_1
10
224.572000
20
661.457000
11
224.072250
21
661.323250
0
LINE
8
LAYER_1
10
224.072250
20
661.323250
11
223.706000
21
660.957000
0
LINE
8
LAYER_1
10
223.706000
20
660.957000
11
223.571750
21
660.457375
0
LINE
8
LAYER_1
10
223.571750
20
660.457375
11
223.706000
21
659.957000
0
LINE
8
LAYER_1
10
223.706000
20
659.957000
11
224.072250
21
659.591125
0
LINE
8
LAYER_1
10
224.072250
20
659.591125
11
224.572000
21
659.457000
0
LINE
8
LAYER_1
10
204.094000
20
587.078000
11
204.483547
21
587.156625
0
LINE
8
LAYER_1
10
204.483547
20
587.156625
11
204.801375
21
587.371000
0
LINE
8
LAYER_1
10
204.801375
20
587.371000
11
205.015516
21
587.688875
0
LINE
8
LAYER_1
10
205.015516
20
587.688875
11
205.094000
21
588.078000
0
LINE
8
LAYER_1
10
205.094000
20
588.078000
11
205.015516
21
588.467547
0
LINE
8
LAYER_1
10
205.015516
20
588.467547
11
204.801375
21
588.785375
0
LINE
8
LAYER_1
10
204.801375
20
588.785375
11
204.483547
21
588.999516
0
LINE
8
LAYER_1
10
204.483547
20
588.999516
11
204.094000
21
589.078000
0
LINE
8
LAYER_1
10
204.094000
20
589.078000
11
203.704875
21
588.999516
0
LINE
8
LAYER_1
10
203.704875
20
588.999516
11
203.387000
21
588.785375
0
LINE
8
LAYER_1
10
203.387000
20
588.785375
11
203.172625
21
588.467547
0
LINE
8
LAYER_1
10
203.172625
20
588.467547
11
203.094000
21
588.078000
0
LINE
8
LAYER_1
10
203.094000
20
588.078000
11
203.172625
21
587.688875
0
LINE
8
LAYER_1
10
203.172625
20
587.688875
11
203.387000
21
587.371000
0
LINE
8
LAYER_1
10
203.387000
20
587.371000
11
203.704875
21
587.156625
0
LINE
8
LAYER_1
10
203.704875
20
587.156625
11
204.094000
21
587.078000
0
LINE
8
LAYER_1
10
204.090000
20
636.578000
11
204.478969
21
636.657187
0
LINE
8
LAYER_1
10
204.478969
20
636.657187
11
204.796500
21
636.871750
0
LINE
8
LAYER_1
10
204.796500
20
636.871750
11
205.010531
21
637.189437
0
LINE
8
LAYER_1
10
205.010531
20
637.189437
11
205.089000
21
637.578000
0
LINE
8
LAYER_1
10
205.089000
20
637.578000
11
205.010531
21
637.967125
0
LINE
8
LAYER_1
10
205.010531
20
637.967125
11
204.796500
21
638.285000
0
LINE
8
LAYER_1
10
204.796500
20
638.285000
11
204.478969
21
638.499375
0
LINE
8
LAYER_1
10
204.478969
20
638.499375
11
204.090000
21
638.578000
0
LINE
8
LAYER_1
10
204.090000
20
638.578000
11
203.701031
21
638.499375
0
LINE
8
LAYER_1
10
203.701031
20
638.499375
11
203.383500
21
638.285000
0
LINE
8
LAYER_1
10
203.383500
20
638.285000
11
203.169469
21
637.967125
0
LINE
8
LAYER_1
10
203.169469
20
637.967125
11
203.091000
21
637.578000
0
LINE
8
LAYER_1
10
203.091000
20
637.578000
11
203.169469
21
637.189437
0
LINE
8
LAYER_1
10
203.169469
20
637.189437
11
203.383500
21
636.871750
0
LINE
8
LAYER_1
10
203.383500
20
636.871750
11
203.701031
21
636.657187
0
LINE
8
LAYER_1
10
203.701031
20
636.657187
11
204.090000
21
636.578000
0
LINE
8
LAYER_1
10
262.090000
20
636.578000
11
262.478969
21
636.657187
0
LINE
8
LAYER_1
10
262.478969
20
636.657187
11
262.796500
21
636.871750
0
LINE
8
LAYER_1
10
262.796500
20
636.871750
11
263.010531
21
637.189437
0
LINE
8
LAYER_1
10
263.010531
20
637.189437
11
263.089000
21
637.578000
0
LINE
8
LAYER_1
10
263.089000
20
637.578000
11
263.010531
21
637.967125
0
LINE
8
LAYER_1
10
263.010531
20
637.967125
11
262.796500
21
638.285000
0
LINE
8
LAYER_1
10
262.796500
20
638.285000
11
262.478969
21
638.499375
0
LINE
8
LAYER_1
10
262.478969
20
638.499375
11
262.090000
21
638.578000
0
LINE
8
LAYER_1
10
262.090000
20
638.578000
11
261.701031
21
638.499375
0
LINE
8
LAYER_1
10
261.701031
20
638.499375
11
261.383500
21
638.285000
0
LINE
8
LAYER_1
10
261.383500
20
638.285000
11
261.169469
21
637.967125
0
LINE
8
LAYER_1
10
261.169469
20
637.967125
11
261.091000
21
637.578000
0
LINE
8
LAYER_1
10
261.091000
20
637.578000
11
261.169469
21
637.189437
0
LINE
8
LAYER_1
10
261.169469
20
637.189437
11
261.383500
21
636.871750
0
LINE
8
LAYER_1
10
261.383500
20
636.871750
11
261.701031
21
636.657187
0
LINE
8
LAYER_1
10
261.701031
20
636.657187
11
262.090000
21
636.578000
0
LINE
8
LAYER_1
10
262.090000
20
587.778000
11
262.479125
21
587.856625
0
LINE
8
LAYER_1
10
262.479125
20
587.856625
11
262.797000
21
588.071000
0
LINE
8
LAYER_1
10
262.797000
20
588.071000
11
263.011375
21
588.388875
0
LINE
8
LAYER_1
10
263.011375
20
588.388875
11
263.090000
21
588.778000
0
LINE
8
LAYER_1
10
263.090000
20
588.778000
11
263.011375
21
589.167547
0
LINE
8
LAYER_1
10
263.011375
20
589.167547
11
262.797000
21
589.485375
0
LINE
8
LAYER_1
10
262.797000
20
589.485375
11
262.479125
21
589.699516
0
LINE
8
LAYER_1
10
262.479125
20
589.699516
11
262.090000
21
589.778000
0
LINE
8
LAYER_1
10
262.090000
20
589.778000
11
261.700875
21
589.699516
0
LINE
8
LAYER_1
10
261.700875
20
589.699516
11
261.383000
21
589.485375
0
LINE
8
LAYER_1
10
261.383000
20
589.485375
11
261.168625
21
589.167547
0
LINE
8
LAYER_1
10
261.168625
20
589.167547
11
261.090000
21
588.778000
0
LINE
8
LAYER_1
10
261.090000
20
588.778000
11
261.168625
21
588.388875
0
LINE
8
LAYER_1
10
261.168625
20
588.388875
11
261.383000
21
588.071000
0
LINE
8
LAYER_1
10
261.383000
20
588.071000
11
261.700875
21
587.856625
0
LINE
8
LAYER_1
10
261.700875
20
587.856625
11
262.090000
21
587.778000
0
LINE
8
LAYER_1
10
450.732000
20
679.959000
11
453.732000
21
679.959000
0
LINE
8
LAYER_1
10
518.482000
20
689.992000
11
518.344875
21
690.679000
0
LINE
8
LAYER_1
10
518.344875
20
690.679000
11
517.955000
21
691.261000
0
LINE
8
LAYER_1
10
517.955000
20
691.261000
11
517.370625
21
691.650375
0
LINE
8
LAYER_1
10
517.370625
20
691.650375
11
516.682000
21
691.787000
0
LINE
8
LAYER_1
10
518.482000
20
679.618000
11
518.482000
21
689.992000
0
LINE
8
LAYER_1
10
496.282000
20
691.787000
11
495.593375
21
691.650375
0
LINE
8
LAYER_1
10
495.593375
20
691.650375
11
495.009000
21
691.261000
0
LINE
8
LAYER_1
10
495.009000
20
691.261000
11
494.619125
21
690.679000
0
LINE
8
LAYER_1
10
494.619125
20
690.679000
11
494.482000
21
689.992000
0
LINE
8
LAYER_1
10
516.682000
20
691.787000
11
496.282000
21
691.787000
0
LINE
8
LAYER_1
10
494.482000
20
679.618000
11
494.619125
21
678.930500
0
LINE
8
LAYER_1
10
494.619125
20
678.930500
11
495.009000
21
678.348000
0
LINE
8
LAYER_1
10
495.009000
20
678.348000
11
495.593375
21
677.958625
0
LINE
8
LAYER_1
10
495.593375
20
677.958625
11
496.282000
21
677.822000
0
LINE
8
LAYER_1
10
494.482000
20
689.992000
11
494.482000
21
679.618000
0
LINE
8
LAYER_1
10
516.682000
20
677.822000
11
517.370625
21
677.958625
0
LINE
8
LAYER_1
10
517.370625
20
677.958625
11
517.955000
21
678.348000
0
LINE
8
LAYER_1
10
517.955000
20
678.348000
11
518.344875
21
678.930500
0
LINE
8
LAYER_1
10
518.344875
20
678.930500
11
518.482000
21
679.618000
0
LINE
8
LAYER_1
10
496.282000
20
677.822000
11
516.682000
21
677.822000
0
LINE
8
LAYER_1
10
533.182000
20
689.992000
11
533.323469
21
690.690547
0
LINE
8
LAYER_1
10
533.323469
20
690.690547
11
533.709250
21
691.261125
0
LINE
8
LAYER_1
10
533.709250
20
691.261125
11
534.281406
21
691.645891
0
LINE
8
LAYER_1
10
534.281406
20
691.645891
11
534.982000
21
691.787000
0
LINE
8
LAYER_1
10
555.382000
20
691.787000
11
556.070625
21
691.650375
0
LINE
8
LAYER_1
10
556.070625
20
691.650375
11
556.655000
21
691.261000
0
LINE
8
LAYER_1
10
556.655000
20
691.261000
11
557.044875
21
690.679000
0
LINE
8
LAYER_1
10
557.044875
20
690.679000
11
557.182000
21
689.992000
0
LINE
8
LAYER_1
10
534.982000
20
691.787000
11
555.382000
21
691.787000
0
LINE
8
LAYER_1
10
557.182000
20
679.618000
11
557.044875
21
678.930500
0
LINE
8
LAYER_1
10
557.044875
20
678.930500
11
556.655000
21
678.348000
0
LINE
8
LAYER_1
10
556.655000
20
678.348000
11
556.070625
21
677.958625
0
LINE
8
LAYER_1
10
556.070625
20
677.958625
11
555.382000
21
677.822000
0
LINE
8
LAYER_1
10
557.182000
20
689.992000
11
557.182000
21
679.618000
0
LINE
8
LAYER_1
10
534.982000
20
677.822000
11
534.281406
21
677.963125
0
LINE
8
LAYER_1
10
534.281406
20
677.963125
11
533.709250
21
678.348000
0
LINE
8
LAYER_1
10
533.709250
20
678.348000
11
533.323469
21
678.918875
0
LINE
8
LAYER_1
10
533.323469
20
678.918875
11
533.182000
21
679.618000
0
LINE
8
LAYER_1
10
555.382000
20
677.822000
11
534.982000
21
677.822000
0
LINE
8
LAYER_1
10
586.432000
20
681.139000
11
587.390875
21
681.265937
0
LINE
8
LAYER_1
10
587.390875
20
681.265937
11
588.269500
21
681.630250
0
LINE
8
LAYER_1
10
588.269500
20
681.630250
11
589.025125
21
682.207187
0
LINE
8
LAYER_1
10
589.025125
20
682.207187
11
589.615000
21
682.972000
0
LINE
8
LAYER_1
10
589.615000
20
682.972000
11
589.984000
21
683.863609
0
LINE
8
LAYER_1
10
589.984000
20
683.863609
11
590.107000
21
684.804625
0
LINE
8
LAYER_1
10
590.107000
20
684.804625
11
589.984000
21
685.745828
0
LINE
8
LAYER_1
10
589.984000
20
685.745828
11
589.615000
21
686.638000
0
LINE
8
LAYER_1
10
589.615000
20
686.638000
11
589.025125
21
687.402812
0
LINE
8
LAYER_1
10
589.025125
20
687.402812
11
588.269500
21
687.979750
0
LINE
8
LAYER_1
10
588.269500
20
687.979750
11
587.390875
21
688.344062
0
LINE
8
LAYER_1
10
587.390875
20
688.344062
11
586.432000
21
688.471000
0
LINE
8
LAYER_1
10
586.432000
20
688.471000
11
585.691258
21
688.396492
0
LINE
8
LAYER_1
10
585.691258
20
688.396492
11
585.001375
21
688.182812
0
LINE
8
LAYER_1
10
585.001375
20
688.182812
11
583.833250
21
687.397000
0
LINE
8
LAYER_1
10
583.833250
20
687.397000
11
583.045750
21
686.231688
0
LINE
8
LAYER_1
10
583.045750
20
686.231688
11
582.831648
21
685.543633
0
LINE
8
LAYER_1
10
582.831648
20
685.543633
11
582.757000
21
684.805000
0
LINE
8
LAYER_1
10
582.757000
20
684.805000
11
582.831648
21
684.066080
0
LINE
8
LAYER_1
10
582.831648
20
684.066080
11
583.045750
21
683.377891
0
LINE
8
LAYER_1
10
583.045750
20
683.377891
11
583.833250
21
682.212625
0
LINE
8
LAYER_1
10
583.833250
20
682.212625
11
585.001375
21
681.427047
0
LINE
8
LAYER_1
10
585.001375
20
681.427047
11
585.691258
21
681.213467
0
LINE
8
LAYER_1
10
585.691258
20
681.213467
11
586.432000
21
681.139000
0
LINE
8
LAYER_1
10
533.182000
20
679.618000
11
533.182000
21
689.992000
0
LINE
8
LAYER_1
10
465.232000
20
681.139000
11
466.190875
21
681.265937
0
LINE
8
LAYER_1
10
466.190875
20
681.265937
11
467.069500
21
681.630250
0
LINE
8
LAYER_1
10
467.069500
20
681.630250
11
467.825125
21
682.207187
0
LINE
8
LAYER_1
10
467.825125
20
682.207187
11
468.415000
21
682.972000
0
LINE
8
LAYER_1
10
468.415000
20
682.972000
11
468.784000
21
683.863609
0
LINE
8
LAYER_1
10
468.784000
20
683.863609
11
468.907000
21
684.804625
0
LINE
8
LAYER_1
10
468.907000
20
684.804625
11
468.784000
21
685.745828
0
LINE
8
LAYER_1
10
468.784000
20
685.745828
11
468.415000
21
686.638000
0
LINE
8
LAYER_1
10
468.415000
20
686.638000
11
467.825125
21
687.402812
0
LINE
8
LAYER_1
10
467.825125
20
687.402812
11
467.069500
21
687.979750
0
LINE
8
LAYER_1
10
467.069500
20
687.979750
11
466.190875
21
688.344062
0
LINE
8
LAYER_1
10
466.190875
20
688.344062
11
465.232000
21
688.471000
0
LINE
8
LAYER_1
10
465.232000
20
688.471000
11
464.491258
21
688.396492
0
LINE
8
LAYER_1
10
464.491258
20
688.396492
11
463.801375
21
688.182812
0
LINE
8
LAYER_1
10
463.801375
20
688.182812
11
462.633250
21
687.397000
0
LINE
8
LAYER_1
10
462.633250
20
687.397000
11
461.845750
21
686.231688
0
LINE
8
LAYER_1
10
461.845750
20
686.231688
11
461.631648
21
685.543633
0
LINE
8
LAYER_1
10
461.631648
20
685.543633
11
461.557000
21
684.805000
0
LINE
8
LAYER_1
10
461.557000
20
684.805000
11
461.631648
21
684.066080
0
LINE
8
LAYER_1
10
461.631648
20
684.066080
11
461.845750
21
683.377891
0
LINE
8
LAYER_1
10
461.845750
20
683.377891
11
462.633250
21
682.212625
0
LINE
8
LAYER_1
10
462.633250
20
682.212625
11
463.801375
21
681.427047
0
LINE
8
LAYER_1
10
463.801375
20
681.427047
11
464.491258
21
681.213467
0
LINE
8
LAYER_1
10
464.491258
20
681.213467
11
465.232000
21
681.139000
0
LINE
8
LAYER_1
10
485.082000
20
674.780000
11
485.707000
21
674.946750
0
LINE
8
LAYER_1
10
485.707000
20
674.946750
11
486.164000
21
675.403000
0
LINE
8
LAYER_1
10
486.164000
20
675.403000
11
486.332000
21
676.026500
0
LINE
8
LAYER_1
10
486.332000
20
676.026500
11
486.164000
21
676.650000
0
LINE
8
LAYER_1
10
486.164000
20
676.650000
11
485.707000
21
677.106250
0
LINE
8
LAYER_1
10
485.707000
20
677.106250
11
485.082000
21
677.273000
0
LINE
8
LAYER_1
10
485.082000
20
677.273000
11
484.456875
21
677.106250
0
LINE
8
LAYER_1
10
484.456875
20
677.106250
11
483.999000
21
676.650000
0
LINE
8
LAYER_1
10
483.999000
20
676.650000
11
483.831750
21
676.026500
0
LINE
8
LAYER_1
10
483.831750
20
676.026500
11
483.999000
21
675.403000
0
LINE
8
LAYER_1
10
483.999000
20
675.403000
11
484.456875
21
674.946750
0
LINE
8
LAYER_1
10
484.456875
20
674.946750
11
485.082000
21
674.780000
0
LINE
8
LAYER_1
10
485.082000
20
692.336000
11
485.707000
21
692.503125
0
LINE
8
LAYER_1
10
485.707000
20
692.503125
11
486.164000
21
692.959000
0
LINE
8
LAYER_1
10
486.164000
20
692.959000
11
486.332000
21
693.582875
0
LINE
8
LAYER_1
10
486.332000
20
693.582875
11
486.164000
21
694.206000
0
LINE
8
LAYER_1
10
486.164000
20
694.206000
11
485.707000
21
694.662750
0
LINE
8
LAYER_1
10
485.707000
20
694.662750
11
485.082000
21
694.830000
0
LINE
8
LAYER_1
10
485.082000
20
694.830000
11
484.456875
21
694.662750
0
LINE
8
LAYER_1
10
484.456875
20
694.662750
11
483.999000
21
694.206000
0
LINE
8
LAYER_1
10
483.999000
20
694.206000
11
483.831750
21
693.582875
0
LINE
8
LAYER_1
10
483.831750
20
693.582875
11
483.999000
21
692.959000
0
LINE
8
LAYER_1
10
483.999000
20
692.959000
11
484.456875
21
692.503125
0
LINE
8
LAYER_1
10
484.456875
20
692.503125
11
485.082000
21
692.336000
0
LINE
8
LAYER_1
10
566.582000
20
674.780000
11
567.207125
21
674.946750
0
LINE
8
LAYER_1
10
567.207125
20
674.946750
11
567.665000
21
675.403000
0
LINE
8
LAYER_1
10
567.665000
20
675.403000
11
567.832250
21
676.026500
0
LINE
8
LAYER_1
10
567.832250
20
676.026500
11
567.665000
21
676.650000
0
LINE
8
LAYER_1
10
567.665000
20
676.650000
11
567.207125
21
677.106250
0
LINE
8
LAYER_1
10
567.207125
20
677.106250
11
566.582000
21
677.273000
0
LINE
8
LAYER_1
10
566.582000
20
677.273000
11
565.957000
21
677.106250
0
LINE
8
LAYER_1
10
565.957000
20
677.106250
11
565.500000
21
676.650000
0
LINE
8
LAYER_1
10
565.500000
20
676.650000
11
565.332000
21
676.026500
0
LINE
8
LAYER_1
10
565.332000
20
676.026500
11
565.500000
21
675.403000
0
LINE
8
LAYER_1
10
565.500000
20
675.403000
11
565.957000
21
674.946750
0
LINE
8
LAYER_1
10
565.957000
20
674.946750
11
566.582000
21
674.780000
0
LINE
8
LAYER_1
10
566.582000
20
692.336000
11
567.207125
21
692.503125
0
LINE
8
LAYER_1
10
567.207125
20
692.503125
11
567.665000
21
692.959000
0
LINE
8
LAYER_1
10
567.665000
20
692.959000
11
567.832250
21
693.582875
0
LINE
8
LAYER_1
10
567.832250
20
693.582875
11
567.665000
21
694.206000
0
LINE
8
LAYER_1
10
567.665000
20
694.206000
11
567.207125
21
694.662750
0
LINE
8
LAYER_1
10
567.207125
20
694.662750
11
566.582000
21
694.830000
0
LINE
8
LAYER_1
10
566.582000
20
694.830000
11
565.957000
21
694.662750
0
LINE
8
LAYER_1
10
565.957000
20
694.662750
11
565.500000
21
694.206000
0
LINE
8
LAYER_1
10
565.500000
20
694.206000
11
565.332000
21
693.582875
0
LINE
8
LAYER_1
10
565.332000
20
693.582875
11
565.500000
21
692.959000
0
LINE
8
LAYER_1
10
565.500000
20
692.959000
11
565.957000
21
692.503125
0
LINE
8
LAYER_1
10
565.957000
20
692.503125
11
566.582000
21
692.336000
0
LINE
8
LAYER_1
10
453.732000
20
679.959000
11
453.732000
21
659.361000
0
LINE
8
LAYER_1
10
453.732000
20
659.361000
11
450.732000
21
659.361000
0
LINE
8
LAYER_1
10
450.732000
20
659.361000
11
450.732000
21
649.834000
0
LINE
8
LAYER_1
10
450.732000
20
649.834000
11
453.732000
21
649.834000
0
LINE
8
LAYER_1
10
518.482000
20
659.867000
11
518.344875
21
660.554000
0
LINE
8
LAYER_1
10
518.344875
20
660.554000
11
517.955000
21
661.136000
0
LINE
8
LAYER_1
10
517.955000
20
661.136000
11
517.370625
21
661.525375
0
LINE
8
LAYER_1
10
517.370625
20
661.525375
11
516.682000
21
661.662000
0
LINE
8
LAYER_1
10
518.482000
20
649.493000
11
518.482000
21
659.867000
0
LINE
8
LAYER_1
10
496.282000
20
661.662000
11
495.593375
21
661.525375
0
LINE
8
LAYER_1
10
495.593375
20
661.525375
11
495.009000
21
661.136000
0
LINE
8
LAYER_1
10
495.009000
20
661.136000
11
494.619125
21
660.554000
0
LINE
8
LAYER_1
10
494.619125
20
660.554000
11
494.482000
21
659.867000
0
LINE
8
LAYER_1
10
516.682000
20
661.662000
11
496.282000
21
661.662000
0
LINE
8
LAYER_1
10
494.482000
20
649.493000
11
494.619125
21
648.805500
0
LINE
8
LAYER_1
10
494.619125
20
648.805500
11
495.009000
21
648.223000
0
LINE
8
LAYER_1
10
495.009000
20
648.223000
11
495.593375
21
647.833625
0
LINE
8
LAYER_1
10
495.593375
20
647.833625
11
496.282000
21
647.697000
0
LINE
8
LAYER_1
10
494.482000
20
659.867000
11
494.482000
21
649.493000
0
LINE
8
LAYER_1
10
516.682000
20
647.697000
11
517.370625
21
647.833625
0
LINE
8
LAYER_1
10
517.370625
20
647.833625
11
517.955000
21
648.223000
0
LINE
8
LAYER_1
10
517.955000
20
648.223000
11
518.344875
21
648.805500
0
LINE
8
LAYER_1
10
518.344875
20
648.805500
11
518.482000
21
649.493000
0
LINE
8
LAYER_1
10
496.282000
20
647.697000
11
516.682000
21
647.697000
0
LINE
8
LAYER_1
10
533.182000
20
659.867000
11
533.323469
21
660.565547
0
LINE
8
LAYER_1
10
533.323469
20
660.565547
11
533.709250
21
661.136125
0
LINE
8
LAYER_1
10
533.709250
20
661.136125
11
534.281406
21
661.520891
0
LINE
8
LAYER_1
10
534.281406
20
661.520891
11
534.982000
21
661.662000
0
LINE
8
LAYER_1
10
555.382000
20
661.662000
11
556.070625
21
661.525375
0
LINE
8
LAYER_1
10
556.070625
20
661.525375
11
556.655000
21
661.136000
0
LINE
8
LAYER_1
10
556.655000
20
661.136000
11
557.044875
21
660.554000
0
LINE
8
LAYER_1
10
557.044875
20
660.554000
11
557.182000
21
659.867000
0
LINE
8
LAYER_1
10
534.982000
20
661.662000
11
555.382000
21
661.662000
0
LINE
8
LAYER_1
10
557.182000
20
649.493000
11
557.044875
21
648.805500
0
LINE
8
LAYER_1
10
557.044875
20
648.805500
11
556.655000
21
648.223000
0
LINE
8
LAYER_1
10
556.655000
20
648.223000
11
556.070625
21
647.833625
0
LINE
8
LAYER_1
10
556.070625
20
647.833625
11
555.382000
21
647.697000
0
LINE
8
LAYER_1
10
557.182000
20
659.867000
11
557.182000
21
649.493000
0
LINE
8
LAYER_1
10
534.982000
20
647.697000
11
534.281406
21
647.838125
0
LINE
8
LAYER_1
10
534.281406
20
647.838125
11
533.709250
21
648.223000
0
LINE
8
LAYER_1
10
533.709250
20
648.223000
11
533.323469
21
648.793875
0
LINE
8
LAYER_1
10
533.323469
20
648.793875
11
533.182000
21
649.493000
0
LINE
8
LAYER_1
10
555.382000
20
647.697000
11
534.982000
21
647.697000
0
LINE
8
LAYER_1
10
586.432000
20
651.014000
11
587.390875
21
651.140797
0
LINE
8
LAYER_1
10
587.390875
20
651.140797
11
588.269500
21
651.504875
0
LINE
8
LAYER_1
10
588.269500
20
651.504875
11
589.025125
21
652.081766
0
LINE
8
LAYER_1
10
589.025125
20
652.081766
11
589.615000
21
652.847000
0
LINE
8
LAYER_1
10
589.615000
20
652.847000
11
589.984000
21
653.738609
0
LINE
8
LAYER_1
10
589.984000
20
653.738609
11
590.107000
21
654.679625
0
LINE
8
LAYER_1
10
590.107000
20
654.679625
11
589.984000
21
655.620828
0
LINE
8
LAYER_1
10
589.984000
20
655.620828
11
589.615000
21
656.513000
0
LINE
8
LAYER_1
10
589.615000
20
656.513000
11
589.025125
21
657.277812
0
LINE
8
LAYER_1
10
589.025125
20
657.277812
11
588.269500
21
657.854750
0
LINE
8
LAYER_1
10
588.269500
20
657.854750
11
587.390875
21
658.219062
0
LINE
8
LAYER_1
10
587.390875
20
658.219062
11
586.432000
21
658.346000
0
LINE
8
LAYER_1
10
586.432000
20
658.346000
11
585.691258
21
658.271492
0
LINE
8
LAYER_1
10
585.691258
20
658.271492
11
585.001375
21
658.057812
0
LINE
8
LAYER_1
10
585.001375
20
658.057812
11
583.833250
21
657.272000
0
LINE
8
LAYER_1
10
583.833250
20
657.272000
11
583.045750
21
656.106688
0
LINE
8
LAYER_1
10
583.045750
20
656.106688
11
582.831648
21
655.418633
0
LINE
8
LAYER_1
10
582.831648
20
655.418633
11
582.757000
21
654.680000
0
LINE
8
LAYER_1
10
582.757000
20
654.680000
11
582.831648
21
653.941080
0
LINE
8
LAYER_1
10
582.831648
20
653.941080
11
583.045750
21
653.252891
0
LINE
8
LAYER_1
10
583.045750
20
653.252891
11
583.833250
21
652.087625
0
LINE
8
LAYER_1
10
583.833250
20
652.087625
11
585.001375
21
651.302047
0
LINE
8
LAYER_1
10
585.001375
20
651.302047
11
585.691258
21
651.088467
0
LINE
8
LAYER_1
10
585.691258
20
651.088467
11
586.432000
21
651.014000
0
LINE
8
LAYER_1
10
533.182000
20
649.493000
11
533.182000
21
659.867000
0
LINE
8
LAYER_1
10
465.232000
20
651.014000
11
466.190875
21
651.140797
0
LINE
8
LAYER_1
10
466.190875
20
651.140797
11
467.069500
21
651.504875
0
LINE
8
LAYER_1
10
467.069500
20
651.504875
11
467.825125
21
652.081766
0
LINE
8
LAYER_1
10
467.825125
20
652.081766
11
468.415000
21
652.847000
0
LINE
8
LAYER_1
10
468.415000
20
652.847000
11
468.784000
21
653.738609
0
LINE
8
LAYER_1
10
468.784000
20
653.738609
11
468.907000
21
654.679625
0
LINE
8
LAYER_1
10
468.907000
20
654.679625
11
468.784000
21
655.620828
0
LINE
8
LAYER_1
10
468.784000
20
655.620828
11
468.415000
21
656.513000
0
LINE
8
LAYER_1
10
468.415000
20
656.513000
11
467.825125
21
657.277812
0
LINE
8
LAYER_1
10
467.825125
20
657.277812
11
467.069500
21
657.854750
0
LINE
8
LAYER_1
10
467.069500
20
657.854750
11
466.190875
21
658.219062
0
LINE
8
LAYER_1
10
466.190875
20
658.219062
11
465.232000
21
658.346000
0
LINE
8
LAYER_1
10
465.232000
20
658.346000
11
464.491258
21
658.271492
0
LINE
8
LAYER_1
10
464.491258
20
658.271492
11
463.801375
21
658.057812
0
LINE
8
LAYER_1
10
463.801375
20
658.057812
11
462.633250
21
657.272000
0
LINE
8
LAYER_1
10
462.633250
20
657.272000
11
461.845750
21
656.106688
0
LINE
8
LAYER_1
10
461.845750
20
656.106688
11
461.631648
21
655.418633
0
LINE
8
LAYER_1
10
461.631648
20
655.418633
11
461.557000
21
654.680000
0
LINE
8
LAYER_1
10
461.557000
20
654.680000
11
461.631648
21
653.941080
0
LINE
8
LAYER_1
10
461.631648
20
653.941080
11
461.845750
21
653.252891
0
LINE
8
LAYER_1
10
461.845750
20
653.252891
11
462.633250
21
652.087625
0
LINE
8
LAYER_1
10
462.633250
20
652.087625
11
463.801375
21
651.302047
0
LINE
8
LAYER_1
10
463.801375
20
651.302047
11
464.491258
21
651.088467
0
LINE
8
LAYER_1
10
464.491258
20
651.088467
11
465.232000
21
651.014000
0
LINE
8
LAYER_1
10
485.082000
20
644.655000
11
485.707000
21
644.821750
0
LINE
8
LAYER_1
10
485.707000
20
644.821750
11
486.164000
21
645.278000
0
LINE
8
LAYER_1
10
486.164000
20
645.278000
11
486.332000
21
645.901500
0
LINE
8
LAYER_1
10
486.332000
20
645.901500
11
486.164000
21
646.525000
0
LINE
8
LAYER_1
10
486.164000
20
646.525000
11
485.707000
21
646.981250
0
LINE
8
LAYER_1
10
485.707000
20
646.981250
11
485.082000
21
647.148000
0
LINE
8
LAYER_1
10
485.082000
20
647.148000
11
484.456875
21
646.981250
0
LINE
8
LAYER_1
10
484.456875
20
646.981250
11
483.999000
21
646.525000
0
LINE
8
LAYER_1
10
483.999000
20
646.525000
11
483.831750
21
645.901500
0
LINE
8
LAYER_1
10
483.831750
20
645.901500
11
483.999000
21
645.278000
0
LINE
8
LAYER_1
10
483.999000
20
645.278000
11
484.456875
21
644.821750
0
LINE
8
LAYER_1
10
484.456875
20
644.821750
11
485.082000
21
644.655000
0
LINE
8
LAYER_1
10
485.082000
20
662.211000
11
485.707000
21
662.378125
0
LINE
8
LAYER_1
10
485.707000
20
662.378125
11
486.164000
21
662.834000
0
LINE
8
LAYER_1
10
486.164000
20
662.834000
11
486.332000
21
663.457500
0
LINE
8
LAYER_1
10
486.332000
20
663.457500
11
486.164000
21
664.081000
0
LINE
8
LAYER_1
10
486.164000
20
664.081000
11
485.707000
21
664.537750
0
LINE
8
LAYER_1
10
485.707000
20
664.537750
11
485.082000
21
664.705000
0
LINE
8
LAYER_1
10
485.082000
20
664.705000
11
484.456875
21
664.537750
0
LINE
8
LAYER_1
10
484.456875
20
664.537750
11
483.999000
21
664.081000
0
LINE
8
LAYER_1
10
483.999000
20
664.081000
11
483.831750
21
663.457500
0
LINE
8
LAYER_1
10
483.831750
20
663.457500
11
483.999000
21
662.834000
0
LINE
8
LAYER_1
10
483.999000
20
662.834000
11
484.456875
21
662.378125
0
LINE
8
LAYER_1
10
484.456875
20
662.378125
11
485.082000
21
662.211000
0
LINE
8
LAYER_1
10
566.582000
20
644.655000
11
567.207125
21
644.821750
0
LINE
8
LAYER_1
10
567.207125
20
644.821750
11
567.665000
21
645.278000
0
LINE
8
LAYER_1
10
567.665000
20
645.278000
11
567.832250
21
645.901500
0
LINE
8
LAYER_1
10
567.832250
20
645.901500
11
567.665000
21
646.525000
0
LINE
8
LAYER_1
10
567.665000
20
646.525000
11
567.207125
21
646.981250
0
LINE
8
LAYER_1
10
567.207125
20
646.981250
11
566.582000
21
647.148000
0
LINE
8
LAYER_1
10
566.582000
20
647.148000
11
565.957000
21
646.981250
0
LINE
8
LAYER_1
10
565.957000
20
646.981250
11
565.500000
21
646.525000
0
LINE
8
LAYER_1
10
565.500000
20
646.525000
11
565.332000
21
645.901500
0
LINE
8
LAYER_1
10
565.332000
20
645.901500
11
565.500000
21
645.278000
0
LINE
8
LAYER_1
10
565.500000
20
645.278000
11
565.957000
21
644.821750
0
LINE
8
LAYER_1
10
565.957000
20
644.821750
11
566.582000
21
644.655000
0
LINE
8
LAYER_1
10
566.582000
20
662.211000
11
567.207125
21
662.378125
0
LINE
8
LAYER_1
10
567.207125
20
662.378125
11
567.665000
21
662.834000
0
LINE
8
LAYER_1
10
567.665000
20
662.834000
11
567.832250
21
663.457500
0
LINE
8
LAYER_1
10
567.832250
20
663.457500
11
567.665000
21
664.081000
0
LINE
8
LAYER_1
10
567.665000
20
664.081000
11
567.207125
21
664.537750
0
LINE
8
LAYER_1
10
567.207125
20
664.537750
11
566.582000
21
664.705000
0
LINE
8
LAYER_1
10
566.582000
20
664.705000
11
565.957000
21
664.537750
0
LINE
8
LAYER_1
10
565.957000
20
664.537750
11
565.500000
21
664.081000
0
LINE
8
LAYER_1
10
565.500000
20
664.081000
11
565.332000
21
663.457500
0
LINE
8
LAYER_1
10
565.332000
20
663.457500
11
565.500000
21
662.834000
0
LINE
8
LAYER_1
10
565.500000
20
662.834000
11
565.957000
21
662.378125
0
LINE
8
LAYER_1
10
565.957000
20
662.378125
11
566.582000
21
662.211000
0
LINE
8
LAYER_1
10
447.732000
20
674.916000
11
447.732000
21
604.319000
0
LINE
8
LAYER_1
10
447.732000
20
604.319000
11
450.732000
21
604.319000
0
LINE
8
LAYER_1
10
447.732000
20
674.916000
11
450.732000
21
674.916000
0
LINE
8
LAYER_1
10
751.131000
20
672.581000
11
748.131000
21
672.581000
0
LINE
8
LAYER_1
10
748.131000
20
672.581000
11
748.131000
21
681.770000
0
LINE
8
LAYER_1
10
748.131000
20
681.770000
11
751.131000
21
681.770000
0
LINE
8
LAYER_1
10
751.131000
20
681.770000
11
751.131000
21
691.360000
0
LINE
8
LAYER_1
10
751.131000
20
691.360000
11
748.131000
21
691.360000
0
LINE
8
LAYER_1
10
748.131000
20
691.360000
11
748.131000
21
696.860000
0
LINE
8
LAYER_1
10
748.131000
20
696.860000
11
737.012000
21
696.860000
0
LINE
8
LAYER_1
10
737.012000
20
696.860000
11
737.012000
21
699.867000
0
LINE
8
LAYER_1
10
737.012000
20
699.867000
11
727.446000
21
699.867000
0
LINE
8
LAYER_1
10
727.446000
20
699.867000
11
727.446000
21
696.860000
0
LINE
8
LAYER_1
10
727.446000
20
696.860000
11
718.279000
21
696.860000
0
LINE
8
LAYER_1
10
718.279000
20
696.860000
11
718.279000
21
699.867000
0
LINE
8
LAYER_1
10
718.279000
20
699.867000
11
708.713000
21
699.867000
0
LINE
8
LAYER_1
10
708.713000
20
699.867000
11
708.713000
21
696.860000
0
LINE
8
LAYER_1
10
708.713000
20
696.860000
11
699.547000
21
696.860000
0
LINE
8
LAYER_1
10
699.547000
20
696.860000
11
699.547000
21
699.867000
0
LINE
8
LAYER_1
10
699.547000
20
699.867000
11
689.981000
21
699.867000
0
LINE
8
LAYER_1
10
689.981000
20
699.867000
11
689.981000
21
696.860000
0
LINE
8
LAYER_1
10
689.981000
20
696.860000
11
680.815000
21
696.860000
0
LINE
8
LAYER_1
10
680.815000
20
696.860000
11
680.815000
21
699.867000
0
LINE
8
LAYER_1
10
680.815000
20
699.867000
11
671.248000
21
699.867000
0
LINE
8
LAYER_1
10
671.248000
20
699.867000
11
671.248000
21
696.860000
0
LINE
8
LAYER_1
10
671.248000
20
696.860000
11
662.082000
21
696.860000
0
LINE
8
LAYER_1
10
662.082000
20
696.860000
11
662.082000
21
699.867000
0
LINE
8
LAYER_1
10
662.082000
20
699.867000
11
652.516000
21
699.867000
0
LINE
8
LAYER_1
10
652.516000
20
699.867000
11
652.516000
21
696.860000
0
LINE
8
LAYER_1
10
652.516000
20
696.860000
11
643.350000
21
696.860000
0
LINE
8
LAYER_1
10
643.350000
20
696.860000
11
643.350000
21
699.867000
0
LINE
8
LAYER_1
10
643.350000
20
699.867000
11
633.783000
21
699.867000
0
LINE
8
LAYER_1
10
633.783000
20
699.867000
11
633.783000
21
696.860000
0
LINE
8
LAYER_1
10
633.783000
20
696.860000
11
624.617000
21
696.860000
0
LINE
8
LAYER_1
10
624.617000
20
696.860000
11
624.617000
21
699.867000
0
LINE
8
LAYER_1
10
624.617000
20
699.867000
11
615.051000
21
699.867000
0
LINE
8
LAYER_1
10
615.051000
20
699.867000
11
615.051000
21
696.860000
0
LINE
8
LAYER_1
10
615.051000
20
696.860000
11
603.932000
21
696.860000
0
LINE
8
LAYER_1
10
603.932000
20
696.860000
11
603.932000
21
691.360000
0
LINE
8
LAYER_1
10
603.932000
20
691.360000
11
600.932000
21
691.360000
0
LINE
8
LAYER_1
10
922.237000
20
691.567000
11
917.237000
21
691.567000
0
LINE
8
LAYER_1
10
917.237000
20
691.567000
11
917.237000
21
688.767000
0
LINE
8
LAYER_1
10
917.237000
20
688.767000
11
922.237000
21
688.767000
0
LINE
8
LAYER_1
10
922.237000
20
688.767000
11
922.237000
21
691.567000
0
LINE
8
LAYER_1
10
922.237000
20
691.567000
11
922.237000
21
691.567000
0
LINE
8
LAYER_1
10
907.720000
20
615.042000
11
904.720000
21
615.042000
0
LINE
8
LAYER_1
10
904.720000
20
615.042000
11
904.720000
21
605.692000
0
LINE
8
LAYER_1
10
904.720000
20
605.692000
11
907.720000
21
605.692000
0
LINE
8
LAYER_1
10
907.720000
20
605.692000
11
907.720000
21
615.042000
0
LINE
8
LAYER_1
10
907.720000
20
615.042000
11
907.720000
21
615.042000
0
LINE
8
LAYER_1
10
869.451000
20
699.867000
11
904.720000
21
699.867000
0
LINE
8
LAYER_1
10
904.720000
20
699.867000
11
904.720000
21
681.267000
0
LINE
8
LAYER_1
10
904.720000
20
681.267000
11
907.637000
21
681.267000
0
LINE
8
LAYER_1
10
907.637000
20
681.267000
11
907.637000
21
699.867000
0
LINE
8
LAYER_1
10
907.637000
20
699.867000
11
931.837000
21
699.867000
0
LINE
8
LAYER_1
10
931.837000
20
699.867000
11
931.837000
21
681.367000
0
LINE
8
LAYER_1
10
931.837000
20
681.367000
11
934.837000
21
681.367000
0
LINE
8
LAYER_1
10
934.837000
20
681.367000
11
934.837000
21
673.542000
0
LINE
8
LAYER_1
10
934.837000
20
673.542000
11
931.837000
21
673.542000
0
LINE
8
LAYER_1
10
931.837000
20
673.542000
11
931.837000
21
664.192000
0
LINE
8
LAYER_1
10
931.837000
20
664.192000
11
934.837000
21
664.192000
0
LINE
8
LAYER_1
10
934.837000
20
664.192000
11
934.837000
21
654.042000
0
LINE
8
LAYER_1
10
934.837000
20
654.042000
11
931.837000
21
654.042000
0
LINE
8
LAYER_1
10
931.837000
20
654.042000
11
931.837000
21
644.692000
0
LINE
8
LAYER_1
10
931.837000
20
644.692000
11
934.837000
21
644.692000
0
LINE
8
LAYER_1
10
934.837000
20
644.692000
11
934.837000
21
634.542000
0
LINE
8
LAYER_1
10
934.837000
20
634.542000
11
931.837000
21
634.542000
0
LINE
8
LAYER_1
10
931.837000
20
634.542000
11
931.837000
21
625.192000
0
LINE
8
LAYER_1
10
931.837000
20
625.192000
11
934.837000
21
625.192000
0
LINE
8
LAYER_1
10
934.837000
20
625.192000
11
934.837000
21
615.042000
0
LINE
8
LAYER_1
10
934.837000
20
615.042000
11
931.837000
21
615.042000
0
LINE
8
LAYER_1
10
931.837000
20
615.042000
11
931.837000
21
605.692000
0
LINE
8
LAYER_1
10
931.837000
20
605.692000
11
934.837000
21
605.692000
0
LINE
8
LAYER_1
10
934.837000
20
605.692000
11
934.837000
21
597.867000
0
LINE
8
LAYER_1
10
934.837000
20
597.867000
11
931.837000
21
597.867000
0
LINE
8
LAYER_1
10
931.837000
20
597.867000
11
931.837000
21
579.367000
0
LINE
8
LAYER_1
10
931.837000
20
579.367000
11
907.637000
21
579.367000
0
LINE
8
LAYER_1
10
907.637000
20
579.367000
11
907.637000
21
597.967000
0
LINE
8
LAYER_1
10
907.637000
20
597.967000
11
904.720000
21
597.967000
0
LINE
8
LAYER_1
10
904.720000
20
597.967000
11
904.720000
21
579.367000
0
LINE
8
LAYER_1
10
904.720000
20
579.367000
11
869.451000
21
579.367000
0
LINE
8
LAYER_1
10
869.451000
20
579.367000
11
869.451000
21
699.867000
0
LINE
8
LAYER_1
10
914.962000
20
678.267000
11
924.531000
21
678.267000
0
LINE
8
LAYER_1
10
924.531000
20
678.267000
11
924.513000
21
681.267000
0
LINE
8
LAYER_1
10
924.513000
20
681.267000
11
914.963000
21
681.267000
0
LINE
8
LAYER_1
10
914.963000
20
681.267000
11
914.962000
21
678.267000
0
LINE
8
LAYER_1
10
914.962000
20
678.267000
11
914.962000
21
678.267000
0
LINE
8
LAYER_1
10
914.962000
20
616.117000
11
914.962000
21
613.117000
0
LINE
8
LAYER_1
10
914.962000
20
613.117000
11
924.512000
21
613.117000
0
LINE
8
LAYER_1
10
924.512000
20
613.117000
11
924.512000
21
616.117000
0
LINE
8
LAYER_1
10
924.512000
20
616.117000
11
914.962000
21
616.117000
0
LINE
8
LAYER_1
10
914.962000
20
616.117000
11
914.962000
21
616.117000
0
LINE
8
LAYER_1
10
904.720000
20
654.042000
11
904.720000
21
644.692000
0
LINE
8
LAYER_1
10
904.720000
20
644.692000
11
907.720000
21
644.692000
0
LINE
8
LAYER_1
10
907.720000
20
644.692000
11
907.720000
21
654.042000
0
LINE
8
LAYER_1
10
907.720000
20
654.042000
11
904.720000
21
654.042000
0
LINE
8
LAYER_1
10
904.720000
20
654.042000
11
904.720000
21
654.042000
0
LINE
8
LAYER_1
10
924.512000
20
597.967000
11
924.512000
21
600.967000
0
LINE
8
LAYER_1
10
924.512000
20
600.967000
11
914.962000
21
600.967000
0
LINE
8
LAYER_1
10
914.962000
20
600.967000
11
914.962000
21
597.967000
0
LINE
8
LAYER_1
10
914.962000
20
597.967000
11
924.512000
21
597.967000
0
LINE
8
LAYER_1
10
924.512000
20
597.967000
11
924.512000
21
597.967000
0
LINE
8
LAYER_1
10
904.720000
20
634.542000
11
904.720000
21
625.192000
0
LINE
8
LAYER_1
10
904.720000
20
625.192000
11
907.720000
21
625.192000
0
LINE
8
LAYER_1
10
907.720000
20
625.192000
11
907.720000
21
634.542000
0
LINE
8
LAYER_1
10
907.720000
20
634.542000
11
904.720000
21
634.542000
0
LINE
8
LAYER_1
10
904.720000
20
634.542000
11
904.720000
21
634.542000
0
LINE
8
LAYER_1
10
924.531000
20
666.117000
11
914.962000
21
666.117000
0
LINE
8
LAYER_1
10
914.962000
20
666.117000
11
914.962000
21
663.117000
0
LINE
8
LAYER_1
10
914.962000
20
663.117000
11
924.531000
21
663.117000
0
LINE
8
LAYER_1
10
924.531000
20
663.117000
11
924.531000
21
666.117000
0
LINE
8
LAYER_1
10
924.531000
20
666.117000
11
924.531000
21
666.117000
0
LINE
8
LAYER_1
10
877.194000
20
611.817000
11
878.147609
21
611.624453
0
LINE
8
LAYER_1
10
878.147609
20
611.624453
11
878.926375
21
611.099375
0
LINE
8
LAYER_1
10
878.926375
20
611.099375
11
879.451453
21
610.320609
0
LINE
8
LAYER_1
10
879.451453
20
610.320609
11
879.644000
21
609.367000
0
LINE
8
LAYER_1
10
879.644000
20
609.367000
11
879.451453
21
608.413391
0
LINE
8
LAYER_1
10
879.451453
20
608.413391
11
878.926375
21
607.634625
0
LINE
8
LAYER_1
10
878.926375
20
607.634625
11
878.147609
21
607.109547
0
LINE
8
LAYER_1
10
878.147609
20
607.109547
11
877.194000
21
606.917000
0
LINE
8
LAYER_1
10
877.194000
20
606.917000
11
876.240391
21
607.109547
0
LINE
8
LAYER_1
10
876.240391
20
607.109547
11
875.461625
21
607.634625
0
LINE
8
LAYER_1
10
875.461625
20
607.634625
11
874.936547
21
608.413391
0
LINE
8
LAYER_1
10
874.936547
20
608.413391
11
874.744000
21
609.367000
0
LINE
8
LAYER_1
10
874.744000
20
609.367000
11
874.936547
21
610.320609
0
LINE
8
LAYER_1
10
874.936547
20
610.320609
11
875.461625
21
611.099375
0
LINE
8
LAYER_1
10
875.461625
20
611.099375
11
876.240391
21
611.624453
0
LINE
8
LAYER_1
10
876.240391
20
611.624453
11
877.194000
21
611.817000
0
LINE
8
LAYER_1
10
922.237000
20
587.667000
11
922.237000
21
590.467000
0
LINE
8
LAYER_1
10
922.237000
20
590.467000
11
917.237000
21
590.467000
0
LINE
8
LAYER_1
10
917.237000
20
590.467000
11
917.237000
21
587.667000
0
LINE
8
LAYER_1
10
917.237000
20
587.667000
11
922.237000
21
587.667000
0
LINE
8
LAYER_1
10
922.237000
20
587.667000
11
922.237000
21
587.667000
0
LINE
8
LAYER_1
10
877.194000
20
672.317000
11
877.833672
21
672.232188
0
LINE
8
LAYER_1
10
877.833672
20
672.232188
11
878.419625
21
671.988750
0
LINE
8
LAYER_1
10
878.419625
20
671.988750
11
878.923266
21
671.603188
0
LINE
8
LAYER_1
10
878.923266
20
671.603188
11
879.316000
21
671.092000
0
LINE
8
LAYER_1
10
879.316000
20
671.092000
11
879.562375
21
670.496000
0
LINE
8
LAYER_1
10
879.562375
20
670.496000
11
879.644500
21
669.867000
0
LINE
8
LAYER_1
10
879.644500
20
669.867000
11
879.562375
21
669.238000
0
LINE
8
LAYER_1
10
879.562375
20
669.238000
11
879.316000
21
668.642000
0
LINE
8
LAYER_1
10
879.316000
20
668.642000
11
878.923266
21
668.130813
0
LINE
8
LAYER_1
10
878.923266
20
668.130813
11
878.419625
21
667.745250
0
LINE
8
LAYER_1
10
878.419625
20
667.745250
11
877.833672
21
667.501812
0
LINE
8
LAYER_1
10
877.833672
20
667.501812
11
877.194000
21
667.417000
0
LINE
8
LAYER_1
10
877.194000
20
667.417000
11
876.554906
21
667.501812
0
LINE
8
LAYER_1
10
876.554906
20
667.501812
11
875.969250
21
667.745250
0
LINE
8
LAYER_1
10
875.969250
20
667.745250
11
875.465719
21
668.130813
0
LINE
8
LAYER_1
10
875.465719
20
668.130813
11
875.073000
21
668.642000
0
LINE
8
LAYER_1
10
875.073000
20
668.642000
11
874.826625
21
669.238000
0
LINE
8
LAYER_1
10
874.826625
20
669.238000
11
874.744500
21
669.867000
0
LINE
8
LAYER_1
10
874.744500
20
669.867000
11
874.826625
21
670.496000
0
LINE
8
LAYER_1
10
874.826625
20
670.496000
11
875.073000
21
671.092000
0
LINE
8
LAYER_1
10
875.073000
20
671.092000
11
875.465719
21
671.603188
0
LINE
8
LAYER_1
10
875.465719
20
671.603188
11
875.969250
21
671.988750
0
LINE
8
LAYER_1
10
875.969250
20
671.988750
11
876.554906
21
672.232188
0
LINE
8
LAYER_1
10
876.554906
20
672.232188
11
877.194000
21
672.317000
0
LINE
8
LAYER_1
10
869.451000
20
663.232000
11
872.440000
21
663.232000
0
LINE
8
LAYER_1
10
872.440000
20
663.232000
11
872.440000
21
672.199000
0
LINE
8
LAYER_1
10
872.440000
20
672.199000
11
869.451000
21
672.199000
0
LINE
8
LAYER_1
10
869.451000
20
644.500000
11
872.440000
21
644.500000
0
LINE
8
LAYER_1
10
872.440000
20
644.500000
11
872.440000
21
653.466000
0
LINE
8
LAYER_1
10
872.440000
20
653.466000
11
869.451000
21
653.466000
0
LINE
8
LAYER_1
10
869.451000
20
625.768000
11
872.440000
21
625.768000
0
LINE
8
LAYER_1
10
872.440000
20
625.768000
11
872.440000
21
634.734000
0
LINE
8
LAYER_1
10
872.440000
20
634.734000
11
869.451000
21
634.734000
0
LINE
8
LAYER_1
10
869.451000
20
607.135000
11
872.440000
21
607.135000
0
LINE
8
LAYER_1
10
872.440000
20
607.135000
11
872.440000
21
616.001000
0
LINE
8
LAYER_1
10
872.440000
20
616.001000
11
869.451000
21
616.001000
0
LINE
8
LAYER_1
10
751.131000
20
653.802000
11
748.131000
21
653.802000
0
LINE
8
LAYER_1
10
748.131000
20
653.802000
11
748.131000
21
662.991000
0
LINE
8
LAYER_1
10
748.131000
20
662.991000
11
751.131000
21
662.991000
0
LINE
8
LAYER_1
10
751.131000
20
635.023000
11
748.131000
21
635.023000
0
LINE
8
LAYER_1
10
748.131000
20
635.023000
11
748.131000
21
644.212000
0
LINE
8
LAYER_1
10
748.131000
20
644.212000
11
751.131000
21
644.212000
0
LINE
8
LAYER_1
10
751.131000
20
616.243000
11
748.131000
21
616.243000
0
LINE
8
LAYER_1
10
748.131000
20
616.243000
11
748.131000
21
625.432000
0
LINE
8
LAYER_1
10
748.131000
20
625.432000
11
751.131000
21
625.432000
0
LINE
8
LAYER_1
10
751.131000
20
625.432000
11
751.131000
21
653.802000
0
LINE
8
LAYER_1
10
600.932000
20
659.647000
11
600.932000
21
644.212000
0
LINE
8
LAYER_1
10
600.932000
20
644.212000
11
603.932000
21
644.212000
0
LINE
8
LAYER_1
10
603.932000
20
644.212000
11
603.932000
21
635.023000
0
LINE
8
LAYER_1
10
603.932000
20
635.023000
11
600.932000
21
635.023000
0
LINE
8
LAYER_1
10
600.932000
20
635.023000
11
600.932000
21
625.432000
0
LINE
8
LAYER_1
10
600.932000
20
625.432000
11
603.932000
21
625.432000
0
LINE
8
LAYER_1
10
603.932000
20
625.432000
11
603.932000
21
616.243000
0
LINE
8
LAYER_1
10
603.932000
20
616.243000
11
600.932000
21
616.243000
0
LINE
8
LAYER_1
10
600.932000
20
616.243000
11
600.932000
21
606.653000
0
LINE
8
LAYER_1
10
600.932000
20
606.653000
11
603.932000
21
606.653000
0
LINE
8
LAYER_1
10
603.932000
20
606.653000
11
603.932000
21
597.464000
0
LINE
8
LAYER_1
10
603.932000
20
597.464000
11
600.932000
21
597.464000
0
LINE
8
LAYER_1
10
600.932000
20
597.464000
11
600.932000
21
587.874000
0
LINE
8
LAYER_1
10
600.932000
20
587.874000
11
603.932000
21
587.874000
0
LINE
8
LAYER_1
10
603.932000
20
587.874000
11
603.932000
21
582.375000
0
LINE
8
LAYER_1
10
603.932000
20
582.375000
11
615.051000
21
582.375000
0
LINE
8
LAYER_1
10
615.051000
20
582.375000
11
615.051000
21
579.367000
0
LINE
8
LAYER_1
10
615.051000
20
579.367000
11
624.617000
21
579.367000
0
LINE
8
LAYER_1
10
624.617000
20
579.367000
11
624.617000
21
582.375000
0
LINE
8
LAYER_1
10
624.617000
20
582.375000
11
633.783000
21
582.375000
0
LINE
8
LAYER_1
10
633.783000
20
582.375000
11
633.783000
21
579.367000
0
LINE
8
LAYER_1
10
633.783000
20
579.367000
11
643.350000
21
579.367000
0
LINE
8
LAYER_1
10
643.350000
20
579.367000
11
643.350000
21
582.375000
0
LINE
8
LAYER_1
10
643.350000
20
582.375000
11
652.516000
21
582.375000
0
LINE
8
LAYER_1
10
652.516000
20
582.375000
11
652.516000
21
579.367000
0
LINE
8
LAYER_1
10
652.516000
20
579.367000
11
662.082000
21
579.367000
0
LINE
8
LAYER_1
10
662.082000
20
579.367000
11
662.082000
21
582.375000
0
LINE
8
LAYER_1
10
662.082000
20
582.375000
11
671.248000
21
582.375000
0
LINE
8
LAYER_1
10
671.248000
20
582.375000
11
671.248000
21
579.367000
0
LINE
8
LAYER_1
10
671.248000
20
579.367000
11
680.815000
21
579.367000
0
LINE
8
LAYER_1
10
680.815000
20
579.367000
11
680.815000
21
582.375000
0
LINE
8
LAYER_1
10
680.815000
20
582.375000
11
689.981000
21
582.375000
0
LINE
8
LAYER_1
10
689.981000
20
582.375000
11
689.981000
21
579.367000
0
LINE
8
LAYER_1
10
689.981000
20
579.367000
11
699.547000
21
579.367000
0
LINE
8
LAYER_1
10
699.547000
20
579.367000
11
699.547000
21
582.375000
0
LINE
8
LAYER_1
10
699.547000
20
582.375000
11
708.713000
21
582.375000
0
LINE
8
LAYER_1
10
708.713000
20
582.375000
11
708.713000
21
579.367000
0
LINE
8
LAYER_1
10
708.713000
20
579.367000
11
718.279000
21
579.367000
0
LINE
8
LAYER_1
10
718.279000
20
579.367000
11
718.279000
21
582.375000
0
LINE
8
LAYER_1
10
718.279000
20
582.375000
11
727.446000
21
582.375000
0
LINE
8
LAYER_1
10
727.446000
20
582.375000
11
727.446000
21
579.367000
0
LINE
8
LAYER_1
10
727.446000
20
579.367000
11
737.012000
21
579.367000
0
LINE
8
LAYER_1
10
737.012000
20
579.367000
11
737.012000
21
582.375000
0
LINE
8
LAYER_1
10
737.012000
20
582.375000
11
748.131000
21
582.375000
0
LINE
8
LAYER_1
10
748.131000
20
582.375000
11
748.131000
21
587.874000
0
LINE
8
LAYER_1
10
748.131000
20
587.874000
11
751.131000
21
587.874000
0
LINE
8
LAYER_1
10
751.131000
20
587.874000
11
751.131000
21
597.464000
0
LINE
8
LAYER_1
10
751.131000
20
597.464000
11
748.131000
21
597.464000
0
LINE
8
LAYER_1
10
748.131000
20
597.464000
11
748.131000
21
606.653000
0
LINE
8
LAYER_1
10
748.131000
20
606.653000
11
751.131000
21
606.653000
0
LINE
8
LAYER_1
10
751.131000
20
606.653000
11
751.132000
21
625.192000
0
LINE
8
LAYER_1
10
600.932000
20
681.770000
11
603.932000
21
681.770000
0
LINE
8
LAYER_1
10
603.932000
20
681.770000
11
603.932000
21
672.581000
0
LINE
8
LAYER_1
10
603.932000
20
672.581000
11
600.932000
21
672.581000
0
LINE
8
LAYER_1
10
600.932000
20
672.581000
11
600.932000
21
662.991000
0
LINE
8
LAYER_1
10
600.932000
20
662.991000
11
603.932000
21
662.991000
0
LINE
8
LAYER_1
10
603.932000
20
662.991000
11
603.932000
21
653.802000
0
LINE
8
LAYER_1
10
603.932000
20
653.802000
11
600.932000
21
653.802000
0
LINE
8
LAYER_1
10
450.732000
20
683.903000
11
447.732000
21
683.903000
0
LINE
8
LAYER_1
10
447.732000
20
683.903000
11
447.732000
21
693.077000
0
LINE
8
LAYER_1
10
447.732000
20
693.077000
11
450.732000
21
693.077000
0
LINE
8
LAYER_1
10
450.732000
20
693.077000
11
450.732000
21
699.867000
0
LINE
8
LAYER_1
10
450.732000
20
699.867000
11
436.412000
21
699.867000
0
LINE
8
LAYER_1
10
436.412000
20
699.867000
11
436.412000
21
696.865000
0
LINE
8
LAYER_1
10
436.412000
20
696.865000
11
427.246000
21
696.865000
0
LINE
8
LAYER_1
10
427.246000
20
696.865000
11
427.246000
21
699.867000
0
LINE
8
LAYER_1
10
427.246000
20
699.867000
11
417.680000
21
699.867000
0
LINE
8
LAYER_1
10
417.680000
20
699.867000
11
417.680000
21
696.865000
0
LINE
8
LAYER_1
10
417.680000
20
696.865000
11
408.514000
21
696.865000
0
LINE
8
LAYER_1
10
408.514000
20
696.865000
11
408.514000
21
699.867000
0
LINE
8
LAYER_1
10
408.514000
20
699.867000
11
398.947000
21
699.867000
0
LINE
8
LAYER_1
10
398.947000
20
699.867000
11
398.947000
21
696.865000
0
LINE
8
LAYER_1
10
398.947000
20
696.865000
11
389.781000
21
696.865000
0
LINE
8
LAYER_1
10
389.781000
20
696.865000
11
389.781000
21
699.867000
0
LINE
8
LAYER_1
10
389.781000
20
699.867000
11
380.215000
21
699.867000
0
LINE
8
LAYER_1
10
380.215000
20
699.867000
11
380.215000
21
696.865000
0
LINE
8
LAYER_1
10
380.215000
20
696.865000
11
371.049000
21
696.865000
0
LINE
8
LAYER_1
10
371.049000
20
696.865000
11
371.049000
21
699.867000
0
LINE
8
LAYER_1
10
371.049000
20
699.867000
11
361.482000
21
699.867000
0
LINE
8
LAYER_1
10
361.482000
20
699.867000
11
361.482000
21
696.865000
0
LINE
8
LAYER_1
10
361.482000
20
696.865000
11
352.316000
21
696.865000
0
LINE
8
LAYER_1
10
352.316000
20
696.865000
11
352.316000
21
699.867000
0
LINE
8
LAYER_1
10
352.316000
20
699.867000
11
342.750000
21
699.867000
0
LINE
8
LAYER_1
10
342.750000
20
699.867000
11
342.750000
21
696.865000
0
LINE
8
LAYER_1
10
342.750000
20
696.865000
11
333.584000
21
696.865000
0
LINE
8
LAYER_1
10
333.584000
20
696.865000
11
333.584000
21
699.867000
0
LINE
8
LAYER_1
10
333.584000
20
699.867000
11
324.018000
21
699.867000
0
LINE
8
LAYER_1
10
324.018000
20
699.867000
11
324.018000
21
696.865000
0
LINE
8
LAYER_1
10
324.018000
20
696.865000
11
314.851000
21
696.865000
0
LINE
8
LAYER_1
10
314.851000
20
696.865000
11
314.851000
21
699.867000
0
LINE
8
LAYER_1
10
450.730000
20
674.914000
11
450.733000
21
689.485000
0
LINE
8
LAYER_1
10
300.532000
20
639.617000
11
447.732000
21
639.617000
0
LINE
8
LAYER_1
10
300.532000
20
579.367000
11
300.532000
21
699.867000
0
LINE
8
LAYER_1
10
450.732000
20
595.331000
11
447.732000
21
595.331000
0
LINE
8
LAYER_1
10
447.732000
20
595.331000
11
447.732000
21
586.157000
0
LINE
8
LAYER_1
10
447.732000
20
586.157000
11
450.732000
21
586.157000
0
LINE
8
LAYER_1
10
450.732000
20
586.157000
11
450.732000
21
579.367000
0
LINE
8
LAYER_1
10
450.732000
20
579.367000
11
436.412000
21
579.367000
0
LINE
8
LAYER_1
10
436.412000
20
579.367000
11
436.412000
21
582.369000
0
LINE
8
LAYER_1
10
436.412000
20
582.369000
11
427.246000
21
582.369000
0
LINE
8
LAYER_1
10
427.246000
20
582.369000
11
427.246000
21
579.367000
0
LINE
8
LAYER_1
10
427.246000
20
579.367000
11
417.680000
21
579.367000
0
LINE
8
LAYER_1
10
417.680000
20
579.367000
11
417.680000
21
582.369000
0
LINE
8
LAYER_1
10
417.680000
20
582.369000
11
408.514000
21
582.369000
0
LINE
8
LAYER_1
10
408.514000
20
582.369000
11
408.514000
21
579.367000
0
LINE
8
LAYER_1
10
408.514000
20
579.367000
11
398.947000
21
579.367000
0
LINE
8
LAYER_1
10
398.947000
20
579.367000
11
398.947000
21
582.369000
0
LINE
8
LAYER_1
10
398.947000
20
582.369000
11
389.781000
21
582.369000
0
LINE
8
LAYER_1
10
389.781000
20
582.369000
11
389.781000
21
579.367000
0
LINE
8
LAYER_1
10
389.781000
20
579.367000
11
380.215000
21
579.367000
0
LINE
8
LAYER_1
10
380.215000
20
579.367000
11
380.215000
21
582.369000
0
LINE
8
LAYER_1
10
380.215000
20
582.369000
11
371.049000
21
582.369000
0
LINE
8
LAYER_1
10
371.049000
20
582.369000
11
371.049000
21
579.367000
0
LINE
8
LAYER_1
10
371.049000
20
579.367000
11
361.482000
21
579.367000
0
LINE
8
LAYER_1
10
361.482000
20
579.367000
11
361.482000
21
582.369000
0
LINE
8
LAYER_1
10
361.482000
20
582.369000
11
352.316000
21
582.369000
0
LINE
8
LAYER_1
10
352.316000
20
582.369000
11
352.316000
21
579.367000
0
LINE
8
LAYER_1
10
352.316000
20
579.367000
11
342.750000
21
579.367000
0
LINE
8
LAYER_1
10
342.750000
20
579.367000
11
342.750000
21
582.369000
0
LINE
8
LAYER_1
10
342.750000
20
582.369000
11
333.584000
21
582.369000
0
LINE
8
LAYER_1
10
333.584000
20
582.369000
11
333.584000
21
579.367000
0
LINE
8
LAYER_1
10
333.584000
20
579.367000
11
324.018000
21
579.367000
0
LINE
8
LAYER_1
10
324.018000
20
579.367000
11
324.018000
21
582.369000
0
LINE
8
LAYER_1
10
324.018000
20
582.369000
11
314.851000
21
582.369000
0
LINE
8
LAYER_1
10
314.851000
20
582.369000
11
314.851000
21
579.367000
0
LINE
8
LAYER_1
10
462.557000
20
669.742000
11
453.732000
21
669.742000
0
LINE
8
LAYER_1
10
472.107000
20
672.735000
11
472.107000
21
666.750000
0
LINE
8
LAYER_1
10
472.107000
20
666.750000
11
462.557000
21
666.750000
0
LINE
8
LAYER_1
10
462.557000
20
666.750000
11
462.557000
21
672.735000
0
LINE
8
LAYER_1
10
482.057000
20
669.742000
11
472.107000
21
669.742000
0
LINE
8
LAYER_1
10
491.607000
20
672.735000
11
491.607000
21
666.750000
0
LINE
8
LAYER_1
10
491.607000
20
666.750000
11
482.057000
21
666.750000
0
LINE
8
LAYER_1
10
482.057000
20
666.750000
11
482.057000
21
672.735000
0
LINE
8
LAYER_1
10
501.557000
20
669.742000
11
491.607000
21
669.742000
0
LINE
8
LAYER_1
10
511.107000
20
672.735000
11
511.107000
21
666.750000
0
LINE
8
LAYER_1
10
511.107000
20
666.750000
11
501.557000
21
666.750000
0
LINE
8
LAYER_1
10
501.557000
20
666.750000
11
501.557000
21
672.735000
0
LINE
8
LAYER_1
10
521.057000
20
669.742000
11
511.107000
21
669.742000
0
LINE
8
LAYER_1
10
530.607000
20
672.735000
11
530.607000
21
666.750000
0
LINE
8
LAYER_1
10
530.607000
20
666.750000
11
521.057000
21
666.750000
0
LINE
8
LAYER_1
10
521.057000
20
666.750000
11
521.057000
21
672.735000
0
LINE
8
LAYER_1
10
540.557000
20
669.742000
11
530.607000
21
669.742000
0
LINE
8
LAYER_1
10
550.107000
20
672.735000
11
550.107000
21
666.750000
0
LINE
8
LAYER_1
10
550.107000
20
666.750000
11
540.557000
21
666.750000
0
LINE
8
LAYER_1
10
540.557000
20
666.750000
11
540.557000
21
672.735000
0
LINE
8
LAYER_1
10
560.057000
20
669.742000
11
550.107000
21
669.742000
0
LINE
8
LAYER_1
10
569.607000
20
672.735000
11
569.607000
21
666.750000
0
LINE
8
LAYER_1
10
569.607000
20
666.750000
11
560.057000
21
666.750000
0
LINE
8
LAYER_1
10
560.057000
20
666.750000
11
560.057000
21
672.735000
0
LINE
8
LAYER_1
10
579.557000
20
669.742000
11
569.607000
21
669.742000
0
LINE
8
LAYER_1
10
589.107000
20
672.735000
11
589.107000
21
666.750000
0
LINE
8
LAYER_1
10
589.107000
20
666.750000
11
579.557000
21
666.750000
0
LINE
8
LAYER_1
10
579.557000
20
666.750000
11
579.557000
21
672.735000
0
LINE
8
LAYER_1
10
597.932000
20
669.742000
11
589.107000
21
669.742000
0
LINE
8
LAYER_1
10
600.932000
20
659.647000
11
597.932000
21
659.647000
0
LINE
8
LAYER_1
10
597.932000
20
659.647000
11
597.932000
21
679.842000
0
LINE
8
LAYER_1
10
597.932000
20
649.717000
11
600.932000
21
649.717000
0
LINE
8
LAYER_1
10
589.107000
20
639.617000
11
597.932000
21
639.617000
0
LINE
8
LAYER_1
10
579.557000
20
642.610000
11
589.107000
21
642.610000
0
LINE
8
LAYER_1
10
569.607000
20
639.617000
11
579.557000
21
639.617000
0
LINE
8
LAYER_1
10
560.057000
20
642.610000
11
569.607000
21
642.610000
0
LINE
8
LAYER_1
10
550.107000
20
639.617000
11
560.057000
21
639.617000
0
LINE
8
LAYER_1
10
540.557000
20
642.610000
11
550.107000
21
642.610000
0
LINE
8
LAYER_1
10
530.607000
20
639.617000
11
540.557000
21
639.617000
0
LINE
8
LAYER_1
10
521.057000
20
642.610000
11
530.607000
21
642.610000
0
LINE
8
LAYER_1
10
501.557000
20
642.610000
11
511.107000
21
642.610000
0
LINE
8
LAYER_1
10
482.057000
20
642.610000
11
491.607000
21
642.610000
0
LINE
8
LAYER_1
10
462.557000
20
642.610000
11
472.107000
21
642.610000
0
LINE
8
LAYER_1
10
600.932000
20
689.772000
11
597.932000
21
689.772000
0
LINE
8
LAYER_1
10
597.932000
20
689.772000
11
597.932000
21
699.867000
0
LINE
8
LAYER_1
10
597.932000
20
699.867000
11
589.107000
21
699.867000
0
LINE
8
LAYER_1
10
589.107000
20
699.867000
11
589.107000
21
696.875000
0
LINE
8
LAYER_1
10
589.107000
20
696.875000
11
579.557000
21
696.875000
0
LINE
8
LAYER_1
10
579.557000
20
696.875000
11
579.557000
21
699.867000
0
LINE
8
LAYER_1
10
579.557000
20
699.867000
11
569.607000
21
699.867000
0
LINE
8
LAYER_1
10
569.607000
20
699.867000
11
569.607000
21
696.875000
0
LINE
8
LAYER_1
10
569.607000
20
696.875000
11
560.057000
21
696.875000
0
LINE
8
LAYER_1
10
560.057000
20
696.875000
11
560.057000
21
699.867000
0
LINE
8
LAYER_1
10
560.057000
20
699.867000
11
550.107000
21
699.867000
0
LINE
8
LAYER_1
10
550.107000
20
699.867000
11
550.107000
21
696.875000
0
LINE
8
LAYER_1
10
550.107000
20
696.875000
11
540.557000
21
696.875000
0
LINE
8
LAYER_1
10
540.557000
20
696.875000
11
540.557000
21
699.867000
0
LINE
8
LAYER_1
10
540.557000
20
699.867000
11
530.607000
21
699.867000
0
LINE
8
LAYER_1
10
530.607000
20
699.867000
11
530.607000
21
696.875000
0
LINE
8
LAYER_1
10
530.607000
20
696.875000
11
521.057000
21
696.875000
0
LINE
8
LAYER_1
10
521.057000
20
696.875000
11
521.057000
21
699.867000
0
LINE
8
LAYER_1
10
521.057000
20
699.867000
11
511.107000
21
699.867000
0
LINE
8
LAYER_1
10
511.107000
20
699.867000
11
511.107000
21
696.875000
0
LINE
8
LAYER_1
10
511.107000
20
696.875000
11
501.557000
21
696.875000
0
LINE
8
LAYER_1
10
501.557000
20
696.875000
11
501.557000
21
699.867000
0
LINE
8
LAYER_1
10
501.557000
20
699.867000
11
491.607000
21
699.867000
0
LINE
8
LAYER_1
10
491.607000
20
699.867000
11
491.607000
21
696.875000
0
LINE
8
LAYER_1
10
491.607000
20
696.875000
11
482.057000
21
696.875000
0
LINE
8
LAYER_1
10
482.057000
20
696.875000
11
482.057000
21
699.867000
0
LINE
8
LAYER_1
10
482.057000
20
699.867000
11
472.107000
21
699.867000
0
LINE
8
LAYER_1
10
472.107000
20
699.867000
11
472.107000
21
696.875000
0
LINE
8
LAYER_1
10
472.107000
20
696.875000
11
462.557000
21
696.875000
0
LINE
8
LAYER_1
10
462.557000
20
696.875000
11
462.557000
21
699.867000
0
LINE
8
LAYER_1
10
462.557000
20
699.867000
11
453.732000
21
699.867000
0
LINE
8
LAYER_1
10
453.732000
20
699.867000
11
453.732000
21
689.486000
0
LINE
8
LAYER_1
10
453.732000
20
689.486000
11
450.732000
21
689.486000
0
LINE
8
LAYER_1
10
597.932000
20
679.842000
11
600.932000
21
679.842000
0
LINE
8
LAYER_1
10
600.932000
20
679.842000
11
600.932000
21
691.360000
0
LINE
8
LAYER_1
10
579.557000
20
672.735000
11
589.107000
21
672.735000
0
LINE
8
LAYER_1
10
560.057000
20
672.735000
11
569.607000
21
672.735000
0
LINE
8
LAYER_1
10
540.557000
20
672.735000
11
550.107000
21
672.735000
0
LINE
8
LAYER_1
10
521.057000
20
672.735000
11
530.607000
21
672.735000
0
LINE
8
LAYER_1
10
501.557000
20
672.735000
11
511.107000
21
672.735000
0
LINE
8
LAYER_1
10
482.057000
20
672.735000
11
491.607000
21
672.735000
0
LINE
8
LAYER_1
10
462.557000
20
672.735000
11
472.107000
21
672.735000
0
LINE
8
LAYER_1
10
150.332000
20
597.968000
11
150.332000
21
579.368000
0
LINE
8
LAYER_1
10
150.332000
20
624.992000
11
153.332000
21
624.992000
0
LINE
8
LAYER_1
10
153.332000
20
624.992000
11
153.332000
21
615.242000
0
LINE
8
LAYER_1
10
153.332000
20
615.242000
11
150.332000
21
615.242000
0
LINE
8
LAYER_1
10
150.332000
20
615.242000
11
150.332000
21
605.492000
0
LINE
8
LAYER_1
10
150.332000
20
605.492000
11
153.332000
21
605.492000
0
LINE
8
LAYER_1
10
153.332000
20
605.492000
11
153.332000
21
600.968000
0
LINE
8
LAYER_1
10
153.332000
20
600.968000
11
161.957000
21
600.968000
0
LINE
8
LAYER_1
10
161.957000
20
600.968000
11
161.957000
21
597.968000
0
LINE
8
LAYER_1
10
150.332000
20
644.492000
11
153.332000
21
644.492000
0
LINE
8
LAYER_1
10
153.332000
20
644.492000
11
153.332000
21
634.742000
0
LINE
8
LAYER_1
10
153.332000
20
634.742000
11
150.332000
21
634.742000
0
LINE
8
LAYER_1
10
169.907000
20
666.117000
11
153.332000
21
666.117000
0
LINE
8
LAYER_1
10
153.332000
20
666.117000
11
153.332000
21
654.242000
0
LINE
8
LAYER_1
10
153.332000
20
654.242000
11
150.332000
21
654.242000
0
LINE
8
LAYER_1
10
300.531000
20
673.942000
11
297.531000
21
673.942000
0
LINE
8
LAYER_1
10
297.531000
20
673.942000
11
297.531000
21
678.267000
0
LINE
8
LAYER_1
10
297.531000
20
678.267000
11
288.907000
21
678.267000
0
LINE
8
LAYER_1
10
288.907000
20
678.267000
11
288.907000
21
681.267000
0
LINE
8
LAYER_1
10
288.907000
20
681.267000
11
300.531000
21
681.267000
0
LINE
8
LAYER_1
10
300.531000
20
654.342000
11
297.531000
21
654.342000
0
LINE
8
LAYER_1
10
297.531000
20
654.342000
11
297.531000
21
663.117000
0
LINE
8
LAYER_1
10
297.531000
20
663.117000
11
288.907000
21
663.117000
0
LINE
8
LAYER_1
10
288.907000
20
663.117000
11
288.907000
21
666.117000
0
LINE
8
LAYER_1
10
288.907000
20
666.117000
11
297.531000
21
666.117000
0
LINE
8
LAYER_1
10
297.531000
20
666.117000
11
297.531000
21
663.892000
0
LINE
8
LAYER_1
10
297.531000
20
663.892000
11
300.531000
21
663.892000
0
LINE
8
LAYER_1
10
300.531000
20
634.842000
11
297.531000
21
634.842000
0
LINE
8
LAYER_1
10
297.531000
20
634.842000
11
297.531000
21
644.392000
0
LINE
8
LAYER_1
10
297.531000
20
644.392000
11
300.531000
21
644.392000
0
LINE
8
LAYER_1
10
300.531000
20
615.342000
11
297.531000
21
615.342000
0
LINE
8
LAYER_1
10
297.531000
20
615.342000
11
297.531000
21
613.117000
0
LINE
8
LAYER_1
10
297.531000
20
613.117000
11
288.907000
21
613.117000
0
LINE
8
LAYER_1
10
288.907000
20
613.117000
11
288.907000
21
616.117000
0
LINE
8
LAYER_1
10
288.907000
20
616.117000
11
297.531000
21
616.117000
0
LINE
8
LAYER_1
10
297.531000
20
616.117000
11
297.531000
21
624.892000
0
LINE
8
LAYER_1
10
297.531000
20
624.892000
11
300.531000
21
624.892000
0
LINE
8
LAYER_1
10
841.531000
20
663.133000
11
841.532000
21
653.416000
0
LINE
8
LAYER_1
10
841.532000
20
653.416000
11
838.532000
21
653.416000
0
LINE
8
LAYER_1
10
838.532000
20
653.416000
11
838.532000
21
644.250000
0
LINE
8
LAYER_1
10
838.532000
20
644.250000
11
841.532000
21
644.250000
0
LINE
8
LAYER_1
10
841.531000
20
681.865000
11
841.532000
21
672.149000
0
LINE
8
LAYER_1
10
841.532000
20
672.149000
11
838.532000
21
672.149000
0
LINE
8
LAYER_1
10
838.532000
20
672.149000
11
838.532000
21
662.982000
0
LINE
8
LAYER_1
10
838.532000
20
662.982000
11
841.532000
21
662.982000
0
LINE
8
LAYER_1
10
841.532000
20
696.867000
11
841.532000
21
690.881000
0
LINE
8
LAYER_1
10
841.532000
20
690.881000
11
838.532000
21
690.881000
0
LINE
8
LAYER_1
10
838.532000
20
690.881000
11
838.532000
21
681.715000
0
LINE
8
LAYER_1
10
838.532000
20
681.715000
11
841.532000
21
681.715000
0
LINE
8
LAYER_1
10
751.132000
20
664.192000
11
754.132000
21
664.192000
0
LINE
8
LAYER_1
10
754.132000
20
664.192000
11
754.132000
21
673.542000
0
LINE
8
LAYER_1
10
754.132000
20
673.542000
11
751.132000
21
673.542000
0
LINE
8
LAYER_1
10
751.132000
20
673.542000
11
751.132000
21
681.367000
0
LINE
8
LAYER_1
10
751.132000
20
681.367000
11
754.132000
21
681.367000
0
LINE
8
LAYER_1
10
754.132000
20
681.367000
11
754.132000
21
699.867000
0
LINE
8
LAYER_1
10
754.132000
20
699.867000
11
778.332000
21
699.867000
0
LINE
8
LAYER_1
10
778.332000
20
699.867000
11
778.332000
21
681.267000
0
LINE
8
LAYER_1
10
778.332000
20
681.267000
11
781.332000
21
681.467000
0
LINE
8
LAYER_1
10
781.332000
20
681.467000
11
781.332000
21
696.867000
0
LINE
8
LAYER_1
10
781.332000
20
696.867000
11
848.116000
21
696.867000
0
LINE
8
LAYER_1
10
751.132000
20
644.692000
11
754.132000
21
644.692000
0
LINE
8
LAYER_1
10
754.132000
20
644.692000
11
754.132000
21
654.042000
0
LINE
8
LAYER_1
10
754.132000
20
654.042000
11
751.132000
21
654.042000
0
LINE
8
LAYER_1
10
751.132000
20
654.042000
11
751.131000
21
672.581000
0
LINE
8
LAYER_1
10
751.132000
20
625.192000
11
754.132000
21
625.192000
0
LINE
8
LAYER_1
10
754.132000
20
625.192000
11
754.132000
21
634.542000
0
LINE
8
LAYER_1
10
754.132000
20
634.542000
11
751.132000
21
634.542000
0
LINE
8
LAYER_1
10
848.116000
20
582.367000
11
781.332000
21
582.367000
0
LINE
8
LAYER_1
10
781.332000
20
582.367000
11
781.332000
21
597.967000
0
LINE
8
LAYER_1
10
781.332000
20
597.967000
11
778.332000
21
597.967000
0
LINE
8
LAYER_1
10
778.332000
20
597.967000
11
778.332000
21
579.367000
0
LINE
8
LAYER_1
10
778.332000
20
579.367000
11
754.132000
21
579.367000
0
LINE
8
LAYER_1
10
754.132000
20
579.367000
11
754.132000
21
597.867000
0
LINE
8
LAYER_1
10
754.132000
20
597.867000
11
751.132000
21
597.867000
0
LINE
8
LAYER_1
10
751.132000
20
597.867000
11
751.132000
21
605.692000
0
LINE
8
LAYER_1
10
751.132000
20
605.692000
11
754.132000
21
605.692000
0
LINE
8
LAYER_1
10
754.132000
20
605.692000
11
754.132000
21
615.042000
0
LINE
8
LAYER_1
10
754.132000
20
615.042000
11
751.132000
21
615.042000
0
LINE
8
LAYER_1
10
841.531000
20
606.935000
11
841.532000
21
597.219000
0
LINE
8
LAYER_1
10
841.532000
20
597.219000
11
838.532000
21
597.219000
0
LINE
8
LAYER_1
10
838.532000
20
597.219000
11
838.532000
21
588.053000
0
LINE
8
LAYER_1
10
838.532000
20
588.053000
11
841.532000
21
588.053000
0
LINE
8
LAYER_1
10
841.531000
20
625.668000
11
841.532000
21
615.951000
0
LINE
8
LAYER_1
10
841.532000
20
615.951000
11
838.532000
21
615.951000
0
LINE
8
LAYER_1
10
838.532000
20
615.951000
11
838.532000
21
606.785000
0
LINE
8
LAYER_1
10
838.532000
20
606.785000
11
841.532000
21
606.785000
0
LINE
8
LAYER_1
10
150.332000
20
681.267000
11
150.332000
21
699.867000
0
LINE
8
LAYER_1
10
161.957000
20
597.968000
11
138.707000
21
597.968000
0
LINE
8
LAYER_1
10
138.707000
20
597.968000
11
138.707000
21
600.968000
0
LINE
8
LAYER_1
10
138.707000
20
600.968000
11
147.332000
21
600.968000
0
LINE
8
LAYER_1
10
147.332000
20
600.968000
11
147.332000
21
605.393000
0
LINE
8
LAYER_1
10
147.332000
20
605.393000
11
150.132000
21
605.393000
0
LINE
8
LAYER_1
10
150.132000
20
605.393000
11
150.132000
21
615.343000
0
LINE
8
LAYER_1
10
150.132000
20
615.343000
11
147.332000
21
615.343000
0
LINE
8
LAYER_1
10
147.332000
20
615.343000
11
147.332000
21
613.118000
0
LINE
8
LAYER_1
10
147.332000
20
613.118000
11
138.707000
21
613.118000
0
LINE
8
LAYER_1
10
138.707000
20
613.118000
11
138.707000
21
616.118000
0
LINE
8
LAYER_1
10
138.707000
20
616.118000
11
147.332000
21
616.118000
0
LINE
8
LAYER_1
10
147.332000
20
616.118000
11
147.332000
21
624.892000
0
LINE
8
LAYER_1
10
147.332000
20
624.892000
11
150.332000
21
624.892000
0
LINE
8
LAYER_1
10
150.332000
20
624.892000
11
150.332000
21
634.842000
0
LINE
8
LAYER_1
10
150.332000
20
634.842000
11
147.332000
21
634.842000
0
LINE
8
LAYER_1
10
147.332000
20
634.842000
11
147.332000
21
644.392000
0
LINE
8
LAYER_1
10
147.332000
20
644.392000
11
150.332000
21
644.392000
0
LINE
8
LAYER_1
10
150.332000
20
644.392000
11
150.332000
21
654.342000
0
LINE
8
LAYER_1
10
150.332000
20
654.342000
11
147.332000
21
654.342000
0
LINE
8
LAYER_1
10
147.332000
20
654.342000
11
147.332000
21
663.117000
0
LINE
8
LAYER_1
10
147.332000
20
663.117000
11
138.707000
21
663.117000
0
LINE
8
LAYER_1
10
138.707000
20
663.117000
11
138.707000
21
666.117000
0
LINE
8
LAYER_1
10
138.707000
20
666.117000
11
147.332000
21
666.117000
0
LINE
8
LAYER_1
10
147.332000
20
666.117000
11
147.332000
21
663.892000
0
LINE
8
LAYER_1
10
147.332000
20
663.892000
11
150.332000
21
663.892000
0
LINE
8
LAYER_1
10
150.332000
20
663.892000
11
150.332000
21
673.842000
0
LINE
8
LAYER_1
10
150.332000
20
673.842000
11
147.332000
21
673.842000
0
LINE
8
LAYER_1
10
147.332000
20
673.842000
11
147.332000
21
678.267000
0
LINE
8
LAYER_1
10
147.332000
20
678.267000
11
138.707000
21
678.267000
0
LINE
8
LAYER_1
10
138.707000
20
678.267000
11
138.707000
21
681.267000
0
LINE
8
LAYER_1
10
138.707000
20
681.267000
11
161.957000
21
681.267000
0
LINE
8
LAYER_1
10
453.732000
20
619.592000
11
453.732000
21
599.392000
0
LINE
8
LAYER_1
10
453.732000
20
599.392000
11
450.732000
21
599.392000
0
LINE
8
LAYER_1
10
472.107000
20
612.484000
11
472.107000
21
606.499000
0
LINE
8
LAYER_1
10
472.107000
20
606.499000
11
462.557000
21
606.499000
0
LINE
8
LAYER_1
10
462.557000
20
606.499000
11
462.557000
21
612.484000
0
LINE
8
LAYER_1
10
491.607000
20
612.484000
11
491.607000
21
606.499000
0
LINE
8
LAYER_1
10
491.607000
20
606.499000
11
482.057000
21
606.499000
0
LINE
8
LAYER_1
10
482.057000
20
606.499000
11
482.057000
21
612.484000
0
LINE
8
LAYER_1
10
501.557000
20
609.492000
11
491.607000
21
609.492000
0
LINE
8
LAYER_1
10
511.107000
20
612.484000
11
511.107000
21
606.499000
0
LINE
8
LAYER_1
10
511.107000
20
606.499000
11
501.557000
21
606.499000
0
LINE
8
LAYER_1
10
501.557000
20
606.499000
11
501.557000
21
612.484000
0
LINE
8
LAYER_1
10
521.057000
20
609.492000
11
511.107000
21
609.492000
0
LINE
8
LAYER_1
10
530.607000
20
612.484000
11
530.607000
21
606.499000
0
LINE
8
LAYER_1
10
530.607000
20
606.499000
11
521.057000
21
606.499000
0
LINE
8
LAYER_1
10
521.057000
20
606.499000
11
521.057000
21
612.484000
0
LINE
8
LAYER_1
10
550.107000
20
612.484000
11
550.107000
21
606.499000
0
LINE
8
LAYER_1
10
550.107000
20
606.499000
11
540.557000
21
606.499000
0
LINE
8
LAYER_1
10
540.557000
20
606.499000
11
540.557000
21
612.484000
0
LINE
8
LAYER_1
10
569.607000
20
612.484000
11
569.607000
21
606.499000
0
LINE
8
LAYER_1
10
569.607000
20
606.499000
11
560.057000
21
606.499000
0
LINE
8
LAYER_1
10
560.057000
20
606.499000
11
560.057000
21
612.484000
0
LINE
8
LAYER_1
10
579.557000
20
609.492000
11
569.607000
21
609.492000
0
LINE
8
LAYER_1
10
540.557000
20
642.610000
11
540.557000
21
636.624000
0
LINE
8
LAYER_1
10
540.557000
20
636.624000
11
550.107000
21
636.624000
0
LINE
8
LAYER_1
10
550.107000
20
636.624000
11
550.107000
21
642.610000
0
LINE
8
LAYER_1
10
521.057000
20
642.610000
11
521.057000
21
636.624000
0
LINE
8
LAYER_1
10
521.057000
20
636.624000
11
530.607000
21
636.624000
0
LINE
8
LAYER_1
10
530.607000
20
636.624000
11
530.607000
21
642.610000
0
LINE
8
LAYER_1
10
511.107000
20
639.617000
11
521.057000
21
639.617000
0
LINE
8
LAYER_1
10
501.557000
20
642.610000
11
501.557000
21
636.624000
0
LINE
8
LAYER_1
10
501.557000
20
636.624000
11
511.107000
21
636.624000
0
LINE
8
LAYER_1
10
511.107000
20
636.624000
11
511.107000
21
642.610000
0
LINE
8
LAYER_1
10
491.607000
20
639.617000
11
501.557000
21
639.617000
0
LINE
8
LAYER_1
10
482.057000
20
642.610000
11
482.057000
21
636.624000
0
LINE
8
LAYER_1
10
482.057000
20
636.624000
11
491.607000
21
636.624000
0
LINE
8
LAYER_1
10
491.607000
20
636.624000
11
491.607000
21
642.610000
0
LINE
8
LAYER_1
10
472.107000
20
639.617000
11
482.057000
21
639.617000
0
LINE
8
LAYER_1
10
462.557000
20
642.610000
11
462.557000
21
636.624000
0
LINE
8
LAYER_1
10
462.557000
20
636.624000
11
472.107000
21
636.624000
0
LINE
8
LAYER_1
10
472.107000
20
636.624000
11
472.107000
21
642.610000
0
LINE
8
LAYER_1
10
453.732000
20
639.617000
11
462.557000
21
639.617000
0
LINE
8
LAYER_1
10
453.732000
20
619.592000
11
450.732000
21
619.592000
0
LINE
8
LAYER_1
10
450.732000
20
619.592000
11
450.732000
21
629.517000
0
LINE
8
LAYER_1
10
450.732000
20
629.517000
11
453.732000
21
629.517000
0
LINE
8
LAYER_1
10
453.732000
20
629.517000
11
453.732000
21
649.834000
0
LINE
8
LAYER_1
10
462.557000
20
609.492000
11
453.732000
21
609.492000
0
LINE
8
LAYER_1
10
472.107000
20
612.484000
11
462.557000
21
612.484000
0
LINE
8
LAYER_1
10
482.057000
20
609.492000
11
472.107000
21
609.492000
0
LINE
8
LAYER_1
10
491.607000
20
612.484000
11
482.057000
21
612.484000
0
LINE
8
LAYER_1
10
511.107000
20
612.484000
11
501.557000
21
612.484000
0
LINE
8
LAYER_1
10
530.607000
20
612.484000
11
521.057000
21
612.484000
0
LINE
8
LAYER_1
10
540.557000
20
609.492000
11
530.607000
21
609.492000
0
LINE
8
LAYER_1
10
550.107000
20
612.484000
11
540.557000
21
612.484000
0
LINE
8
LAYER_1
10
560.057000
20
609.492000
11
550.107000
21
609.492000
0
LINE
8
LAYER_1
10
569.607000
20
612.484000
11
560.057000
21
612.484000
0
LINE
8
LAYER_1
10
597.932000
20
649.717000
11
597.932000
21
636.533000
0
LINE
8
LAYER_1
10
597.932000
20
636.533000
11
597.732000
21
636.533000
0
LINE
8
LAYER_1
10
597.732000
20
636.533000
11
597.732000
21
629.245000
0
LINE
8
LAYER_1
10
597.732000
20
629.245000
11
600.732000
21
629.245000
0
LINE
8
LAYER_1
10
600.732000
20
629.245000
11
600.732000
21
619.700000
0
LINE
8
LAYER_1
10
600.732000
20
619.700000
11
597.732000
21
619.700000
0
LINE
8
LAYER_1
10
597.732000
20
619.700000
11
597.732000
21
619.592000
0
LINE
8
LAYER_1
10
597.732000
20
619.592000
11
579.557000
21
619.592000
0
LINE
8
LAYER_1
10
579.557000
20
642.610000
11
579.557000
21
636.624000
0
LINE
8
LAYER_1
10
579.557000
20
636.624000
11
589.107000
21
636.624000
0
LINE
8
LAYER_1
10
589.107000
20
636.624000
11
589.107000
21
642.610000
0
LINE
8
LAYER_1
10
869.451000
20
653.667000
11
866.462000
21
653.667000
0
LINE
8
LAYER_1
10
866.462000
20
653.667000
11
866.462000
21
663.033000
0
LINE
8
LAYER_1
10
866.462000
20
663.033000
11
869.451000
21
663.033000
0
LINE
8
LAYER_1
10
869.451000
20
634.934000
11
866.462000
21
634.934000
0
LINE
8
LAYER_1
10
866.462000
20
634.934000
11
866.462000
21
644.300000
0
LINE
8
LAYER_1
10
866.462000
20
644.300000
11
869.451000
21
644.300000
0
LINE
8
LAYER_1
10
869.451000
20
616.202000
11
866.462000
21
616.202000
0
LINE
8
LAYER_1
10
866.462000
20
616.202000
11
866.462000
21
625.568000
0
LINE
8
LAYER_1
10
866.462000
20
625.568000
11
869.451000
21
625.568000
0
LINE
8
LAYER_1
10
848.116000
20
582.367000
11
848.116000
21
579.367000
0
LINE
8
LAYER_1
10
848.116000
20
579.367000
11
857.682000
21
579.367000
0
LINE
8
LAYER_1
10
857.682000
20
579.367000
11
857.682000
21
582.367000
0
LINE
8
LAYER_1
10
857.682000
20
582.367000
11
866.462000
21
582.367000
0
LINE
8
LAYER_1
10
866.462000
20
582.367000
11
866.462000
21
606.835000
0
LINE
8
LAYER_1
10
866.462000
20
606.835000
11
869.451000
21
606.835000
0
LINE
8
LAYER_1
10
841.531000
20
597.369000
11
844.531000
21
597.369000
0
LINE
8
LAYER_1
10
844.531000
20
597.369000
11
844.531000
21
588.203000
0
LINE
8
LAYER_1
10
844.531000
20
588.203000
11
841.531000
21
588.203000
0
LINE
8
LAYER_1
10
841.531000
20
588.203000
11
841.531000
21
582.367000
0
LINE
8
LAYER_1
10
841.531000
20
616.102000
11
844.531000
21
616.102000
0
LINE
8
LAYER_1
10
844.531000
20
616.102000
11
844.531000
21
606.935000
0
LINE
8
LAYER_1
10
844.531000
20
606.935000
11
841.531000
21
606.935000
0
LINE
8
LAYER_1
10
841.531000
20
634.834000
11
844.531000
21
634.834000
0
LINE
8
LAYER_1
10
844.531000
20
634.834000
11
844.531000
21
625.668000
0
LINE
8
LAYER_1
10
844.531000
20
625.668000
11
841.531000
21
625.668000
0
LINE
8
LAYER_1
10
841.531000
20
653.567000
11
844.531000
21
653.567000
0
LINE
8
LAYER_1
10
844.531000
20
653.567000
11
844.531000
21
644.400000
0
LINE
8
LAYER_1
10
844.531000
20
644.400000
11
841.531000
21
644.400000
0
LINE
8
LAYER_1
10
841.531000
20
672.299000
11
844.531000
21
672.299000
0
LINE
8
LAYER_1
10
844.531000
20
672.299000
11
844.531000
21
663.133000
0
LINE
8
LAYER_1
10
844.531000
20
663.133000
11
841.531000
21
663.133000
0
LINE
8
LAYER_1
10
841.531000
20
691.032000
11
844.531000
21
691.032000
0
LINE
8
LAYER_1
10
844.531000
20
691.032000
11
844.531000
21
681.865000
0
LINE
8
LAYER_1
10
844.531000
20
681.865000
11
841.531000
21
681.865000
 0 
ENDSEC
 0 
EOF