0
SECTION
2
HEADER
9
$INSUNITS
70
4
9
$ACADVER
1
AC1014
9
$HANDSEED
5
FFFF
0
ENDSEC
0
SECTION
2
TABLES
0
TABLE
2
VPORT
5
8
100
AcDbSymbolTable
0
ENDTAB
0
TABLE
2
LTYPE
5
5
100
AcDbSymbolTable
0
LTYPE
5
14
100
AcDbSymbolTableRecord
100
AcDbLinetypeTableRecord
2
BYBLOCK
70
0
0
LTYPE
5
15
100
AcDbSymbolTableRecord
100
AcDbLinetypeTableRecord
2
BYLAYER
70
0
0
ENDTAB
0
TABLE
2
LAYER
5
2
100
AcDbSymbolTable
70
2
0
LAYER
5
50
100
AcDbSymbolTableRecord
100
AcDbLayerTableRecord
2
0
70
0
6
CONTINUOUS
0
ENDTAB
0
TABLE
2
STYLE
5
3
100
AcDbSymbolTable
70
1
0
STYLE
5
11
100
AcDbSymbolTableRecord
100
AcDbTextStyleTableRecord
2
STANDARD
70
0
0
ENDTAB
0
TABLE
2
VIEW
5
6
100
AcDbSymbolTable
70
0
0
ENDTAB
0
TABLE
2
UCS
5
7
100
AcDbSymbolTable
70
0
0
ENDTAB
0
TABLE
2
APPID
5
9
100
AcDbSymbolTable
70
2
0
APPID
5
12
100
AcDbSymbolTableRecord
100
AcDbRegAppTableRecord
2
ACAD
70
0
0
ENDTAB
0
TABLE
2
DIMSTYLE
5
A
100
AcDbSymbolTable
70
1
0
ENDTAB
0
TABLE
2
BLOCK_RECORD
5
1
100
AcDbSymbolTable
70
1
0
BLOCK_RECORD
5
1F
100
AcDbSymbolTableRecord
100
AcDbBlockTableRecord
2
*MODEL_SPACE
0
BLOCK_RECORD
5
1B
100
AcDbSymbolTableRecord
100
AcDbBlockTableRecord
2
*PAPER_SPACE
0
ENDTAB
0
ENDSEC
0
SECTION
2
BLOCKS
0
BLOCK
5
20
100
AcDbEntity
100
AcDbBlockBegin
2
*MODEL_SPACE
0
ENDBLK
5
21
100
AcDbEntity
100
AcDbBlockEnd
0
BLOCK
5
1C
100
AcDbEntity
100
AcDbBlockBegin
2
*PAPER_SPACE
0
ENDBLK
5
1D
100
AcDbEntity
100
AcDbBlockEnd
0
ENDSEC
0
SECTION
2
ENTITIES
0
LWPOLYLINE
5
100
100
AcDbEntity
8
0
100
AcDbPolyline
90
68
70
1
43
0.0
10
124.68515712253421
20
11.385207575021568
10
124.68515712253421
20
20.935207575021568
10
127.68515712253425
20
20.935207575021568
10
127.68515712253426
20
30.885207575021525
10
124.68515712253422
20
30.885207575021525
10
124.68515712253422
20
40.435207575021515
10
127.68515712253426
20
40.435207575021515
10
127.68515712253426
20
50.385207575021511
10
124.68515712253422
20
50.385207575021511
10
124.68515712253422
20
59.935207575021529
10
127.68515712253426
20
59.935207575021529
10
127.68515712253426
20
69.885207575021454
10
124.68515712253422
20
69.885207575021454
10
124.68515712253422
20
79.435207575021451
10
127.68515712253426
20
79.435207575021451
10
127.68515712253426
20
89.385207575021454
10
124.68515712253422
20
89.385207575021454
10
124.68515712253422
20
98.935207575021423
10
127.68515712253426
20
98.935207575021423
10
127.68515712253429
20
108.88520757502144
10
124.68515712253424
20
108.88520757502144
10
124.68515712253424
20
118.43520757502142
10
127.68515712253429
20
118.43520757502142
10
127.68515712253429
20
128.38520757502138
10
124.68515712253424
20
128.38520757502138
10
124.68515712253432
20
137.93520757502139
10
127.68515712253429
20
137.93520757502139
10
127.68515712253429
20
146.76020757502135
10
117.56015712253436
20
146.76020757502133
10
117.56015712253436
20
149.76020757502135
10
107.60506515894691
20
149.76020757502135
10
107.60506515894691
20
146.76020757502133
10
97.485157122534289
20
146.76020757502133
10
97.485157122534289
20
137.93520757502139
10
100.48515712253433
20
137.93520757502139
10
100.48515712253433
20
128.38520757502138
10
97.485157122534289
20
128.38520757502138
10
97.485157122534289
20
118.43520757502142
10
100.48515712253433
20
118.43520757502142
10
100.48515712253433
20
108.88520757502143
10
97.485157122534289
20
108.88520757502143
10
97.485157122534289
20
98.935207575021423
10
100.48515712253426
20
98.935207575021423
10
100.48515712253426
20
89.38520757502144
10
97.485157122534289
20
89.38520757502144
10
97.485157122534289
20
79.435207575021451
10
100.48515712253426
20
79.435207575021451
10
100.48515712253426
20
69.885207575021454
10
97.485157122534289
20
69.885207575021454
10
97.485157122534289
20
59.935207575021536
10
100.48515712253426
20
59.935207575021536
10
100.48515712253426
20
50.385207575021518
10
97.485157122534247
20
50.385207575021518
10
97.485157122534247
20
40.435207575021522
10
100.48515712253426
20
40.435207575021522
10
100.48515712253422
20
30.885207575021543
10
97.485157122534247
20
30.885207575021543
10
97.485157122534247
20
20.935207575021586
10
100.48515712253422
20
20.935207575021586
10
100.48515712253422
20
11.385207575021568
10
97.485157122534247
20
11.385207575021568
10
97.485157122534247
20
2.560207575021618
10
107.89246014675236
20
2.5602075750216358
10
107.89246014675236
20
-0.43979242497835358
10
117.44246014675242
20
-0.43979242497837134
10
117.44246014675242
20
2.5602075750216358
10
127.68515712253425
20
2.560207575021618
10
127.68515712253425
20
11.385207575021568
0
LWPOLYLINE
5
101
100
AcDbEntity
8
0
100
AcDbPolyline
90
8
70
1
43
0.0
10
117.78515712253429
20
67.310207575021465
10
107.38515712253431
20
67.310207575021408
42
0.41421356237311241
10
105.58515712253431
20
65.510207575021454
10
105.5851571225343
20
45.110207575021512
42
0.41421356237310519
10
107.38515712253424
20
43.310207575021508
10
117.78515712253429
20
43.310207575021565
42
0.41421356237309798
10
119.58515712253418
20
45.110207575021505
10
119.58515712253428
20
65.510207575021454
42
0.41421356237310375
0
LWPOLYLINE
5
102
100
AcDbEntity
8
0
100
AcDbPolyline
90
8
70
1
43
0.0
10
107.38515712253438
20
82.010207575021496
42
-0.41421356237310375
10
105.58515712253445
20
83.810207575021479
10
105.58515712253441
20
104.21020757502146
42
-0.41421356237311524
10
107.38515712253438
20
106.01020757502143
10
117.78515712253429
20
106.01020757502154
42
-0.41421356237309503
10
119.58515712253437
20
104.21020757502146
10
119.5851571225343
20
83.810207575021479
42
-0.41421356237309503
10
117.78515712253429
20
82.010207575021482
0
CIRCLE
5
103
100
AcDbEntity
8
0
100
AcDbCircle
10
112.58515712253441
20
135.26020757502135
30
0
40
3.6750000000000158
210
0
220
0
230
1
0
CIRCLE
5
104
100
AcDbEntity
8
0
100
AcDbCircle
10
112.5851571225343
20
14.06020757502155
30
0
40
3.6749999999999976
210
0
220
0
230
1
0
CIRCLE
5
105
100
AcDbEntity
8
0
100
AcDbCircle
10
121.38515712253428
20
33.910207575021509
30
0
40
1.2499999999999964
210
0
220
0
230
1
0
CIRCLE
5
106
100
AcDbEntity
8
0
100
AcDbCircle
10
103.78515712253424
20
33.910207575021531
30
0
40
1.25
210
0
220
0
230
1
0
CIRCLE
5
107
100
AcDbEntity
8
0
100
AcDbCircle
10
121.3851571225343
20
115.41020757502139
30
0
40
1.2500000000000044
210
0
220
0
230
1
0
CIRCLE
5
108
100
AcDbEntity
8
0
100
AcDbCircle
10
103.78515712253439
20
115.41020757502139
30
0
40
1.2500000000000031
210
0
220
0
230
1
0
ENDSEC
0
SECTION
2
OBJECTS
0
DICTIONARY
5
C
100
AcDbDictionary
3
ACAD_GROUP
350
D
3
ACAD_MLINESTYLE
350
17
0
DICTIONARY
5
D
100
AcDbDictionary
0
DICTIONARY
5
1A
330
C
100
AcDbDictionary
0
DICTIONARY
5
17
100
AcDbDictionary
0
ENDSEC
0
EOF
