0
SECTION
2
HEADER
9
$INSUNITS
70
4
9
$ACADVER
1
AC1014
9
$HANDSEED
5
FFFF
0
ENDSEC
0
SECTION
2
TABLES
0
TABLE
2
VPORT
5
8
100
AcDbSymbolTable
0
ENDTAB
0
TABLE
2
LTYPE
5
5
100
AcDbSymbolTable
0
LTYPE
5
14
100
AcDbSymbolTableRecord
100
AcDbLinetypeTableRecord
2
BYBLOCK
70
0
0
LTYPE
5
15
100
AcDbSymbolTableRecord
100
AcDbLinetypeTableRecord
2
BYLAYER
70
0
0
ENDTAB
0
TABLE
2
LAYER
5
2
100
AcDbSymbolTable
70
2
0
LAYER
5
50
100
AcDbSymbolTableRecord
100
AcDbLayerTableRecord
2
0
70
0
6
CONTINUOUS
0
ENDTAB
0
TABLE
2
STYLE
5
3
100
AcDbSymbolTable
70
1
0
STYLE
5
11
100
AcDbSymbolTableRecord
100
AcDbTextStyleTableRecord
2
STANDARD
70
0
0
ENDTAB
0
TABLE
2
VIEW
5
6
100
AcDbSymbolTable
70
0
0
ENDTAB
0
TABLE
2
UCS
5
7
100
AcDbSymbolTable
70
0
0
ENDTAB
0
TABLE
2
APPID
5
9
100
AcDbSymbolTable
70
2
0
APPID
5
12
100
AcDbSymbolTableRecord
100
AcDbRegAppTableRecord
2
ACAD
70
0
0
ENDTAB
0
TABLE
2
DIMSTYLE
5
A
100
AcDbSymbolTable
70
1
0
ENDTAB
0
TABLE
2
BLOCK_RECORD
5
1
100
AcDbSymbolTable
70
1
0
BLOCK_RECORD
5
1F
100
AcDbSymbolTableRecord
100
AcDbBlockTableRecord
2
*MODEL_SPACE
0
BLOCK_RECORD
5
1B
100
AcDbSymbolTableRecord
100
AcDbBlockTableRecord
2
*PAPER_SPACE
0
ENDTAB
0
ENDSEC
0
SECTION
2
BLOCKS
0
BLOCK
5
20
100
AcDbEntity
100
AcDbBlockBegin
2
*MODEL_SPACE
0
ENDBLK
5
21
100
AcDbEntity
100
AcDbBlockEnd
0
BLOCK
5
1C
100
AcDbEntity
100
AcDbBlockBegin
2
*PAPER_SPACE
0
ENDBLK
5
1D
100
AcDbEntity
100
AcDbBlockEnd
0
ENDSEC
0
SECTION
2
ENTITIES
0
LWPOLYLINE
5
100
100
AcDbEntity
8
0
100
AcDbPolyline
90
38
70
1
43
0.0
10
378.41935379409279
20
-180.61656558575802
10
387.39965379409279
20
-180.61656558575802
10
387.39965379409279
20
-177.61656558575805
10
396.56585379409279
20
-177.61656558575805
10
396.56585379409279
20
-180.61656558575802
10
403.35025379409279
20
-180.61656558575802
10
403.35025379409279
20
-166.29716558575805
10
400.35025379409274
20
-166.29716558575805
10
400.35025379409274
20
-157.13096558575802
10
403.35025379409279
20
-157.13096558575802
10
403.35025379409279
20
-147.56466558575806
10
400.35025379409274
20
-147.56466558575809
10
400.35025379409274
20
-138.39846558575809
10
403.35025379409279
20
-138.39846558575809
10
403.35025379409279
20
-128.83216558575805
10
400.35025379409274
20
-128.83216558575805
10
400.35025379409274
20
-119.6659655857581
10
403.35025379409279
20
-119.6659655857581
10
403.35025379409279
20
-110.09966558575809
10
400.35025379409274
20
-110.09966558575806
10
400.35025379409274
20
-100.93346558575814
10
403.35025379409279
20
-100.93346558575814
10
403.35025379409279
20
-91.367165585758201
10
400.35025379409274
20
-91.367165585758201
10
400.35025379409274
20
-82.200965585758127
10
403.35025379409279
20
-82.200965585758127
10
403.35025379409279
20
-72.634665585758171
10
400.35025379409274
20
-72.634665585758171
10
400.35025379409274
20
-63.46846558575816
10
403.35025379409279
20
-63.46846558575816
10
403.35025379409279
20
-53.902165585758155
10
400.35025379409274
20
-53.902165585758155
10
400.35025379409274
20
-44.735965585758208
10
403.35025379409279
20
-44.735965585758208
10
403.35025379409279
20
-30.416565585758235
10
343.15025379409292
20
-30.416565585758342
10
343.15025379409286
20
-177.616565585758
10
378.41935379409279
20
-177.616565585758
0
ENDSEC
0
SECTION
2
OBJECTS
0
DICTIONARY
5
C
100
AcDbDictionary
3
ACAD_GROUP
350
D
3
ACAD_MLINESTYLE
350
17
0
DICTIONARY
5
D
100
AcDbDictionary
0
DICTIONARY
5
1A
330
C
100
AcDbDictionary
0
DICTIONARY
5
17
100
AcDbDictionary
0
ENDSEC
0
EOF
